<?xml version="1.0" encoding="UTF-8"?><svg xmlns="http://www.w3.org/2000/svg" xmlns:xlink="http://www.w3.org/1999/xlink" viewBox="0 0 19.26 17.26"><defs><style>.cls-1{fill:url(#_R_W_h_6);opacity:.28;}.cls-1,.cls-2,.cls-3,.cls-4,.cls-5,.cls-6,.cls-7,.cls-8,.cls-9,.cls-10,.cls-11,.cls-12,.cls-13,.cls-14,.cls-15,.cls-16,.cls-17,.cls-18,.cls-19,.cls-20,.cls-21,.cls-22,.cls-23,.cls-24,.cls-25,.cls-26,.cls-27,.cls-28,.cls-29,.cls-30,.cls-31,.cls-32,.cls-33,.cls-34{stroke-width:0px;}.cls-1,.cls-3,.cls-4,.cls-5,.cls-10,.cls-15,.cls-17,.cls-18,.cls-26,.cls-29,.cls-32,.cls-34{mix-blend-mode:screen;}.cls-2{fill:url(#_R_W_h_2502);}.cls-2,.cls-8{mix-blend-mode:multiply;}.cls-3{fill:url(#_R_W_h_3);opacity:.2;}.cls-4{fill:url(#_R_W_h_44);opacity:.68;}.cls-5{fill:url(#_R_W_h_9);opacity:.44;}.cls-6{fill:#727272;}.cls-7{fill:#8e8e8e;}.cls-8{fill:url(#_R_W_h_2502-2);}.cls-35{clip-path:url(#clippath-2);}.cls-9,.cls-17{fill:#010101;}.cls-36{isolation:isolate;}.cls-10{fill:url(#_R_W_h_47);opacity:.92;}.cls-11{fill:#e3e3e3;}.cls-12{fill:#393939;}.cls-13{fill:url(#_R_W_h_2505);}.cls-14{fill:none;}.cls-15{fill:url(#_R_W_h_12);opacity:.52;}.cls-37{clip-path:url(#clippath-1);}.cls-16{fill:#c7c7c7;}.cls-17{opacity:.12;}.cls-18{fill:url(#_R_W_h_7);opacity:.36;}.cls-19{fill:url(#_R_W_h_2494-2);}.cls-20{fill:url(#_R_W_h_1436);}.cls-21{fill:#fff;}.cls-22{fill:url(#_R_W_h_2494);}.cls-23{fill:url(#_R_W_h_2918);}.cls-38{clip-path:url(#clippath);}.cls-24{fill:#a6befa;}.cls-25{fill:#565656;}.cls-26{fill:url(#_R_W_h_771);}.cls-27{fill:#f9f1bf;}.cls-28{fill:url(#_R_W_h_1654);}.cls-29{fill:url(#_R_W_h_37);opacity:.6;}.cls-39{mask:url(#mask);}.cls-30{fill:#1d1d1d;}.cls-31{fill:url(#_R_W_h_2954);}.cls-32{fill:url(#_R_W_h_46);opacity:.84;}.cls-33{fill:#aaa;}.cls-34{fill:url(#_R_W_h_45);opacity:.76;}</style><radialGradient id="_R_W_h_2918" cx="97.51" cy="6.78" fx="97.51" fy="6.78" r="13.33" gradientTransform="translate(-77.75) skewX(-3.58)" gradientUnits="userSpaceOnUse"><stop offset=".5" stop-color="#fdfbb6"/><stop offset=".79" stop-color="#fff0a8"/><stop offset=".84" stop-color="#fbf1ae"/><stop offset=".92" stop-color="#f0f6bf"/><stop offset="1" stop-color="#dffedb"/><stop offset="1" stop-color="#dfffdc"/></radialGradient><radialGradient id="_R_W_h_2954" cx="97.45" cy="6.65" fx="97.45" fy="6.65" r="13.66" gradientTransform="translate(-77.75) skewX(-3.58)" gradientUnits="userSpaceOnUse"><stop offset=".5" stop-color="#fdf97e"/><stop offset=".63" stop-color="#f7e874"/><stop offset=".79" stop-color="#f2da6b"/><stop offset=".83" stop-color="#eddc6e"/><stop offset=".89" stop-color="#dfe379"/><stop offset=".94" stop-color="#c8ee8b"/><stop offset="1" stop-color="#a9fea4"/><stop offset="1" stop-color="#a9ffa5"/></radialGradient><linearGradient id="_R_W_h_1436" x1=".02" y1="5.87" x2="19.24" y2="5.87" gradientUnits="userSpaceOnUse"><stop offset="0" stop-color="#f4fbfb"/><stop offset=".61" stop-color="#fbfbfb"/><stop offset=".8" stop-color="#f6fafa"/><stop offset="1" stop-color="#eaf8f9"/></linearGradient><radialGradient id="_R_W_h_1654" cx="14.05" cy="-.53" fx="14.05" fy="-.53" r="23" gradientUnits="userSpaceOnUse"><stop offset="0" stop-color="#f7f6ff"/><stop offset="0" stop-color="#f6f5fe"/><stop offset=".35" stop-color="#f1effd"/><stop offset=".7" stop-color="#e5e3f1"/><stop offset="1" stop-color="#d8d7e4"/></radialGradient><linearGradient id="_R_W_h_771" x1="12.66" y1="1.36" x2="6.67" y2="14.49" gradientUnits="userSpaceOnUse"><stop offset="0" stop-color="#bab6fb"/><stop offset=".09" stop-color="#b0acee"/><stop offset=".26" stop-color="#9894cd"/><stop offset=".48" stop-color="#706e97"/><stop offset=".74" stop-color="#3a394e"/><stop offset="1" stop-color="#010101"/></linearGradient><linearGradient id="_R_W_h_47" x1="12.55" y1="1.56" x2="6.67" y2="14.45" gradientUnits="userSpaceOnUse"><stop offset="0" stop-color="#a9a6e4"/><stop offset=".1" stop-color="#9f9cd7"/><stop offset=".28" stop-color="#8784b6"/><stop offset=".51" stop-color="#5f5d80"/><stop offset=".8" stop-color="#292837"/><stop offset="1" stop-color="#010101"/></linearGradient><linearGradient id="_R_W_h_46" x1="12.44" y1="1.77" x2="6.67" y2="14.4" gradientUnits="userSpaceOnUse"><stop offset="0" stop-color="#9895ce"/><stop offset=".11" stop-color="#8e8cc1"/><stop offset=".3" stop-color="#7674a0"/><stop offset=".56" stop-color="#4e4d6a"/><stop offset=".87" stop-color="#191821"/><stop offset="1" stop-color="#010101"/></linearGradient><linearGradient id="_R_W_h_45" x1="12.33" y1="1.97" x2="6.67" y2="14.36" gradientUnits="userSpaceOnUse"><stop offset="0" stop-color="#8885b7"/><stop offset=".12" stop-color="#7e7baa"/><stop offset=".33" stop-color="#666389"/><stop offset=".61" stop-color="#3e3d53"/><stop offset=".96" stop-color="#08080a"/><stop offset="1" stop-color="#010101"/></linearGradient><linearGradient id="_R_W_h_44" x1="12.22" y1="2.18" x2="6.68" y2="14.31" gradientUnits="userSpaceOnUse"><stop offset="0" stop-color="#7774a0"/><stop offset=".13" stop-color="#6d6a93"/><stop offset=".37" stop-color="#555372"/><stop offset=".68" stop-color="#2d2c3d"/><stop offset="1" stop-color="#010101"/></linearGradient><linearGradient id="_R_W_h_37" x1="12.11" y1="2.38" x2="6.68" y2="14.27" gradientUnits="userSpaceOnUse"><stop offset="0" stop-color="#666489"/><stop offset=".15" stop-color="#5c5a7c"/><stop offset=".41" stop-color="#44425b"/><stop offset=".77" stop-color="#1c1c26"/><stop offset="1" stop-color="#010101"/></linearGradient><linearGradient id="_R_W_h_12" x1="12" y1="2.59" x2="6.68" y2="14.22" gradientUnits="userSpaceOnUse"><stop offset="0" stop-color="#555373"/><stop offset=".17" stop-color="#4b4a66"/><stop offset=".48" stop-color="#333245"/><stop offset=".89" stop-color="#0c0c10"/><stop offset="1" stop-color="#010101"/></linearGradient><linearGradient id="_R_W_h_9" x1="11.88" y1="2.79" x2="6.69" y2="14.18" gradientUnits="userSpaceOnUse"><stop offset="0" stop-color="#44435c"/><stop offset=".2" stop-color="#3a394f"/><stop offset=".57" stop-color="#22222e"/><stop offset="1" stop-color="#010101"/></linearGradient><linearGradient id="_R_W_h_7" x1="11.77" y1="3" x2="6.69" y2="14.13" gradientUnits="userSpaceOnUse"><stop offset="0" stop-color="#333245"/><stop offset=".26" stop-color="#292938"/><stop offset=".72" stop-color="#111117"/><stop offset="1" stop-color="#010101"/></linearGradient><linearGradient id="_R_W_h_6" x1="11.66" y1="3.2" x2="6.69" y2="14.09" gradientUnits="userSpaceOnUse"><stop offset="0" stop-color="#23222e"/><stop offset=".36" stop-color="#191821"/><stop offset="1" stop-color="#010101"/></linearGradient><linearGradient id="_R_W_h_3" x1="11.55" y1="3.41" x2="6.7" y2="14.04" gradientUnits="userSpaceOnUse"><stop offset="0" stop-color="#121118"/><stop offset=".61" stop-color="#08080b"/><stop offset="1" stop-color="#010101"/></linearGradient><clipPath id="clippath"><path class="cls-14" d="M15.28,3.76h0c-.25,0-.52.03-.79.07-.35-.96-.95-1.81-1.73-2.46-1.02-.86-2.35-1.38-3.8-1.38-.93,0-1.81.21-2.59.59-1.66.81-2.88,2.37-3.19,4.24C1.41,4.97.02,6.41.02,8.18c0,1.86,1.54,3.37,3.43,3.37h11.83c2.19,0,3.96-1.74,3.96-3.89s-1.77-3.89-3.96-3.89Z"/></clipPath><mask id="mask" x="9.95" y="9.65" width="6.4" height="4.39" maskUnits="userSpaceOnUse"><path class="cls-9" d="M15.94,9.65h-3.71c-.18,0-.34.11-.42.27l-1.87,4.11,5.26-1.54,1.09-2.25c.14-.28-.05-.59-.36-.59Z"/><path class="cls-30" d="M15.82,9.76h-3.54c-.17,0-.33.1-.4.26l-1.78,3.92,5.02-1.47,1.04-2.15c.13-.27-.05-.57-.34-.57Z"/><path class="cls-12" d="M15.69,9.86h-3.37c-.16,0-.31.1-.38.25l-1.7,3.73,4.77-1.4.99-2.04c.12-.26-.05-.54-.32-.54Z"/><path class="cls-25" d="M15.56,9.96h-3.2c-.15,0-.29.09-.36.23l-1.61,3.54,4.53-1.33.94-1.94c.12-.24-.04-.51-.31-.51Z"/><path class="cls-6" d="M15.43,10.06h-3.03c-.14,0-.28.09-.34.22l-1.52,3.35,4.29-1.25.89-1.84c.11-.23-.04-.48-.29-.48Z"/><path class="cls-7" d="M15.3,10.16h-2.85c-.14,0-.26.08-.32.21l-1.44,3.16,4.04-1.18.84-1.73c.11-.22-.04-.46-.27-.46Z"/><path class="cls-33" d="M15.17,10.26h-2.68c-.13,0-.25.08-.3.2l-1.35,2.97,3.8-1.11.79-1.63c.1-.2-.04-.43-.26-.43Z"/><path class="cls-16" d="M15.04,10.36h-2.51c-.12,0-.23.07-.28.18l-1.26,2.78,3.56-1.04.74-1.52c.09-.19-.03-.4-.24-.4Z"/><path class="cls-11" d="M14.91,10.47h-2.34c-.11,0-.21.07-.26.17l-1.18,2.59,3.31-.97.69-1.42c.09-.18-.03-.37-.22-.37Z"/><path class="cls-21" d="M14.79,10.57h-2.17c-.1,0-.2.06-.24.16l-1.09,2.4,3.07-.9.64-1.31c.08-.16-.03-.35-.21-.35Z"/></mask><linearGradient id="_R_W_h_2494" x1="3.96" y1="13.69" x2="5.3" y2="9.85" gradientUnits="userSpaceOnUse"><stop offset="0" stop-color="#94c9fb"/><stop offset=".03" stop-color="#95c9fb"/><stop offset=".66" stop-color="#badafc"/></linearGradient><clipPath id="clippath-1"><path class="cls-14" d="M5.3,10.05c0-.08-.02-.12-.05-.13-.03,0-.07.01-.12.07-.42.51-1.33,1.46-1.53,2.05-.16.48.08,1,.55,1.15.31.11.64.02.88-.19.11-.1.21-.24.26-.4.2-.59.05-1.9.02-2.56Z"/></clipPath><linearGradient id="_R_W_h_2502" x1="4.82" y1="-3052.46" x2="4.82" y2="-3054.08" gradientTransform="translate(0 -2201.05) scale(1 -.72)" gradientUnits="userSpaceOnUse"><stop offset=".42" stop-color="#fff"/><stop offset="1" stop-color="#d8c1fb"/></linearGradient><linearGradient id="_R_W_h_2494-2" x1="8.92" y1="13.38" x2="10.26" y2="9.55" xlink:href="#_R_W_h_2494"/><clipPath id="clippath-2"><path class="cls-14" d="M10.43,9.26c0-.08-.02-.12-.05-.13-.03,0-.07.01-.12.07-.42.51-1.33,1.46-1.53,2.05-.16.48.08,1,.55,1.15.31.11.64.02.88-.19.11-.1.21-.24.26-.4.2-.59.05-1.9.02-2.56Z"/></clipPath><linearGradient id="_R_W_h_2502-2" x1="10.15" y1="-3051.99" x2="10.15" y2="-3053.61" xlink:href="#_R_W_h_2502"/><linearGradient id="_R_W_h_2505" x1="5.87" y1="16.18" x2="7.38" y2="12.55" gradientUnits="userSpaceOnUse"><stop offset="0" stop-color="#a186f9"/><stop offset=".66" stop-color="#85a7ed"/></linearGradient></defs><g class="cls-36"><g id="Layer_2"><g id="Main_1"><path class="cls-23" d="M14.75,12.68l.85-1.75c.11-.22-.04-.46-.28-.46h-2.89c-.14,0-.26.08-.32.21l-1.45,3.2c-.1.22.05.45.28.45h1.1l-.8,2.51c-.1.33.29.56.54.32l4.1-3.91c.3-.27.16-.62-.11-.64l-1.03.07Z"/><path class="cls-31" d="M14.77,12.56l.85-1.75c.11-.22-.04-.46-.28-.46h-2.89c-.14,0-.26.08-.32.21l-1.45,3.2c-.1.22.05.45.28.45h1.1l-.8,2.51c-.1.33.29.56.54.32l4.1-3.91c.22-.21.09-.57-.2-.57h-.94Z"/><path class="cls-20" d="M15.28,3.83h0c-.25,0-.52.03-.79.07-.81-2.27-2.98-3.9-5.53-3.9C6.05,0,3.63,2.13,3.18,4.91,1.41,5.06.02,6.52.02,8.32c0,1.89,1.54,3.43,3.43,3.43h11.83c2.19,0,3.96-1.77,3.96-3.96s-1.77-3.96-3.96-3.96Z"/><path class="cls-28" d="M15.28,3.76h0c-.25,0-.52.03-.79.07-.81-2.23-2.98-3.83-5.53-3.83C6.05,0,3.63,2.09,3.18,4.83,1.41,4.97.02,6.41.02,8.18c0,1.86,1.54,3.37,3.43,3.37h11.83c2.19,0,3.96-1.74,3.96-3.89s-1.77-3.89-3.96-3.89Z"/><path class="cls-26" d="M15.3,3.77h0c-.25,0-.52.03-.79.07-.81-2.24-2.98-3.84-5.54-3.84C6.04,0,3.62,2.1,3.16,4.84c-1.77.14-3.16,1.58-3.16,3.35,0,1.87,1.54,3.38,3.44,3.38h11.86c2.19,0,3.97-1.75,3.97-3.9s-1.78-3.9-3.97-3.9Z"/><path class="cls-10" d="M15.15,3.95h0s-.01,0-.01,0c-.25,0-.5.04-.78.05C13.57,1.8,11.42.23,8.9.23,6.02.23,3.66,2.24,3.21,4.95,1.46,5.08.09,6.5.09,8.25c0,1.84,1.52,3.33,3.39,3.33h11.7c2.16,0,3.92-1.71,3.91-3.83,0-2.08-1.77-3.79-3.93-3.79Z"/><path class="cls-32" d="M15.01,4.13h-.01s0,0,0,0h0s-.02,0-.02,0c-.25,0-.48.04-.77.02-.74-2.17-2.87-3.7-5.36-3.7C6,.46,3.7,2.39,3.25,5.05c-1.72.14-3.08,1.53-3.08,3.25,0,1.81,1.5,3.27,3.35,3.27h11.54c2.13,0,3.86-1.67,3.84-3.75-.01-2.01-1.77-3.68-3.9-3.68Z"/><path class="cls-34" d="M14.86,4.31h-.02s-.04.01-.04.01c-.24,0-.47.05-.76,0-.7-2.13-2.82-3.63-5.27-3.63-2.81,0-5.04,1.84-5.49,4.46-1.7.13-3.04,1.5-3.04,3.2,0,1.78,1.48,3.22,3.3,3.22h11.39c2.1,0,3.81-1.63,3.78-3.68-.02-1.94-1.76-3.57-3.86-3.57Z"/><path class="cls-4" d="M14.72,4.49h-.03s0,0,0,0h-.05c-.24.01-.45.07-.74-.02-.67-2.1-2.76-3.56-5.18-3.56-2.77,0-4.95,1.76-5.38,4.33-1.67.13-2.99,1.48-2.99,3.14,0,1.75,1.46,3.17,3.26,3.17h11.23c2.08,0,3.76-1.59,3.72-3.61-.03-1.87-1.75-3.46-3.83-3.46Z"/><path class="cls-29" d="M14.57,4.68h-.03s-.06.02-.06.02c-.24,0-.43.07-.73-.05-.63-2.06-2.7-3.49-5.09-3.49-2.73,0-4.85,1.68-5.27,4.21-1.65.13-2.95,1.46-2.95,3.09,0,1.72,1.44,3.12,3.21,3.12h11.07c2.05,0,3.7-1.55,3.66-3.53-.04-1.8-1.75-3.35-3.79-3.35Z"/><path class="cls-15" d="M14.43,4.86h-.04s0,0,0,0h0l-.07.02c-.23,0-.42.08-.72-.08-.59-2.03-2.65-3.42-5-3.42-2.69,0-4.75,1.59-5.17,4.08-1.63.13-2.91,1.43-2.91,3.04,0,1.69,1.42,3.06,3.16,3.06h10.91c2.02,0,3.65-1.51,3.59-3.46-.04-1.73-1.74-3.25-3.76-3.25Z"/><path class="cls-5" d="M14.28,5.04h-.05s-.09.03-.09.03c-.23,0-.4.08-.71-.1-.56-1.99-2.59-3.35-4.91-3.35-2.65,0-4.65,1.51-5.06,3.95-1.6.12-2.87,1.41-2.87,2.99,0,1.66,1.4,3.01,3.12,3.01h10.76c1.99,0,3.6-1.46,3.53-3.38-.05-1.65-1.74-3.14-3.72-3.14Z"/><path class="cls-18" d="M14.14,5.22h-.05s0,0,0,0h0s-.1.03-.1.03c-.23,0-.38.09-.69-.13-.52-1.96-2.54-3.28-4.82-3.28-2.61,0-4.55,1.42-4.96,3.83-1.58.12-2.83,1.38-2.83,2.93,0,1.63,1.38,2.96,3.07,2.96h10.6c1.96,0,3.54-1.42,3.47-3.31-.06-1.58-1.73-3.03-3.69-3.03Z"/><path class="cls-1" d="M13.99,5.4h-.06s-.11.03-.11.03c-.22,0-.37.1-.68-.15-.49-1.92-2.48-3.21-4.73-3.21-2.57,0-4.45,1.34-4.85,3.7-1.56.12-2.78,1.36-2.78,2.88,0,1.6,1.36,2.9,3.03,2.9h10.44c1.93,0,3.49-1.38,3.41-3.23-.06-1.51-1.72-2.92-3.65-2.92Z"/><path class="cls-3" d="M13.85,5.58h-.07s0,0,0,0l-.12.03c-.22,0-.35.11-.67-.18-.45-1.89-2.42-3.14-4.64-3.14-2.54,0-4.35,1.25-4.75,3.57-1.53.12-2.74,1.33-2.74,2.83,0,1.57,1.34,2.85,2.98,2.85h10.28c1.9,0,3.44-1.34,3.34-3.16-.07-1.44-1.72-2.81-3.62-2.81Z"/><path class="cls-17" d="M13.7,5.76h-.07s-.14.04-.14.04c-.22,0-.33.12-.66-.2-.41-1.85-2.37-3.07-4.55-3.07-2.5,0-4.25,1.17-4.64,3.44-1.51.12-2.7,1.31-2.7,2.78,0,1.55,1.31,2.8,2.94,2.8h10.13c1.87,0,3.39-1.3,3.28-3.08-.08-1.37-1.71-2.7-3.59-2.7Z"/><g class="cls-38"><g class="cls-39"><path class="cls-27" d="M15.94,9.65h-3.71c-.18,0-.34.11-.42.27l-1.87,4.11,5.26-1.54,1.09-2.25c.14-.28-.05-.59-.36-.59Z"/></g></g><path class="cls-24" d="M5.32,10.06c0-.08-.03-.13-.05-.14-.03,0-.07.01-.12.08-.43.53-1.36,1.49-1.56,2.1-.17.49.08,1.02.55,1.18.47.16.99-.11,1.16-.6.21-.61.05-1.94.03-2.62Z"/><path class="cls-22" d="M5.3,10.05c0-.08-.02-.12-.05-.13-.03,0-.07.01-.12.07-.42.51-1.33,1.46-1.53,2.05-.16.48.08,1,.55,1.15.46.16.97-.11,1.14-.59.2-.59.05-1.9.02-2.56Z"/><g class="cls-37"><rect class="cls-2" x="2.78" y="11.51" width="4.09" height="2.11"/></g><path class="cls-24" d="M10.44,9.27c0-.08-.03-.13-.05-.14-.03,0-.07.01-.12.08-.43.53-1.36,1.49-1.56,2.1-.17.49.08,1.02.55,1.18.47.16.99-.11,1.16-.6.21-.61.05-1.94.03-2.62Z"/><path class="cls-19" d="M10.43,9.26c0-.08-.02-.12-.05-.13-.03,0-.07.01-.12.07-.42.51-1.33,1.46-1.53,2.05-.16.48.08,1,.55,1.15.46.16.97-.11,1.14-.59.2-.59.05-1.9.02-2.56Z"/><g class="cls-35"><rect class="cls-8" x="8.11" y="11.17" width="4.09" height="2.11"/></g><path class="cls-24" d="M7.23,12.74c0-.08-.03-.13-.05-.14-.03,0-.07.01-.12.08-.43.53-1.36,1.49-1.56,2.1-.17.49.08,1.02.55,1.18s.99-.11,1.16-.6c.2-.61.05-1.94.03-2.62Z"/><path class="cls-13" d="M7.22,12.74c0-.08-.02-.12-.05-.13-.03,0-.07.01-.12.07-.42.51-1.33,1.46-1.53,2.05-.16.48.08,1,.55,1.15.46.16.97-.11,1.14-.59.2-.59.05-1.9.02-2.56Z"/></g></g></g></svg>