<?xml version="1.0" encoding="UTF-8"?><svg xmlns="http://www.w3.org/2000/svg" xmlns:xlink="http://www.w3.org/1999/xlink" viewBox="0 0 22.34 17.73"><defs><style>.cls-1{fill:url(#_R_W_h_6);opacity:.28;}.cls-1,.cls-2,.cls-3,.cls-4,.cls-5,.cls-6,.cls-7,.cls-8,.cls-9,.cls-10,.cls-11,.cls-12,.cls-13,.cls-14,.cls-15,.cls-16,.cls-17,.cls-18,.cls-19,.cls-20,.cls-21,.cls-22,.cls-23,.cls-24,.cls-25,.cls-26,.cls-27,.cls-28,.cls-29,.cls-30,.cls-31,.cls-32,.cls-33,.cls-34,.cls-35,.cls-36,.cls-37,.cls-38,.cls-39,.cls-40,.cls-41,.cls-42,.cls-43,.cls-44,.cls-45,.cls-46,.cls-47,.cls-48,.cls-49,.cls-50,.cls-51,.cls-52,.cls-53,.cls-54,.cls-55,.cls-56,.cls-57,.cls-58,.cls-59,.cls-60,.cls-61,.cls-62,.cls-63,.cls-64,.cls-65,.cls-66{stroke-width:0px;}.cls-1,.cls-2,.cls-3,.cls-7,.cls-19,.cls-27,.cls-28,.cls-30,.cls-67,.cls-46,.cls-53,.cls-58,.cls-65{mix-blend-mode:screen;}.cls-2{fill:url(#_R_W_h_3);opacity:.2;}.cls-3{fill:url(#_R_W_h_44);opacity:.68;}.cls-4{fill:#ddc8fc;}.cls-5{fill:#decbfc;}.cls-6{fill:#e4e6fd;}.cls-6,.cls-11,.cls-13,.cls-14,.cls-20,.cls-23,.cls-29,.cls-31,.cls-49,.cls-50,.cls-68{mix-blend-mode:multiply;}.cls-7{fill:url(#_R_W_h_9);opacity:.44;}.cls-8{fill:#030305;opacity:.09;}.cls-9{fill:#080812;opacity:.36;}.cls-10{fill:#0e0c20;opacity:.64;}.cls-11,.cls-39{fill:#fff;}.cls-12{fill:url(#_R_W_h_2);}.cls-13{fill:#dadcfd;}.cls-14{fill:#cfd2fc;}.cls-15{fill:#e0d0fc;}.cls-16{fill:#13112d;opacity:.91;}.cls-17{fill:url(#_R_W_h_1887);}.cls-69{clip-path:url(#clippath-2);}.cls-70{isolation:isolate;}.cls-18{fill:#06060e;opacity:.27;}.cls-19{fill:url(#_R_W_h_47);opacity:.92;}.cls-20{fill:#eaebfe;}.cls-21{fill:#05040a;opacity:.18;}.cls-22{fill:#e3d7fd;}.cls-23{fill:#dfe1fd;}.cls-24{fill:none;}.cls-25{fill:#e1d2fc;}.cls-26{fill:url(#_R_W_h_1849);}.cls-27{fill:url(#_R_W_h_12);opacity:.52;}.cls-71{clip-path:url(#clippath-1);}.cls-28{opacity:.12;}.cls-28,.cls-38{fill:#010101;}.cls-29{fill:#d4d7fc;}.cls-30{fill:url(#_R_W_h_7);opacity:.36;}.cls-31{fill:#f4f5fe;}.cls-32{fill:url(#_R_W_h_1857);}.cls-33{fill:url(#_R_W_h_1436);}.cls-34{fill:#f9f9fe;}.cls-35{fill:#151331;}.cls-36{fill:url(#_R_W_h_3396);}.cls-37{fill:#fcfcff;}.cls-38{opacity:0;}.cls-40{fill:url(#_R_W_h_3389);}.cls-41{fill:#f3f3fd;}.cls-42{fill:#dfcdfc;}.cls-43{fill:url(#_R_W_h_43-2);}.cls-44{fill:#fafbfe;}.cls-72{clip-path:url(#clippath);}.cls-45{fill:#100e24;opacity:.73;}.cls-46{fill:url(#_R_W_h_771);}.cls-47{fill:#e4dafd;}.cls-48{fill:#e6dffd;}.cls-49{fill:#eff0fe;}.cls-50{fill:#fafaff;}.cls-51{fill:#e5dcfd;}.cls-52{fill:#0a0917;opacity:.45;}.cls-53{fill:url(#_R_W_h_37);opacity:.6;}.cls-73{mask:url(#mask);}.cls-54{fill:url(#_R_W_h_929);}.cls-55{fill:url(#_R_W_h_1785);}.cls-56{fill:#e2d5fd;}.cls-57{fill:#f4f5fd;}.cls-58{fill:url(#_R_W_h_46);opacity:.84;}.cls-59{fill:#f1f2fd;}.cls-60{fill:#f7f8fe;}.cls-61{fill:#f6f6fe;}.cls-62{fill:#111028;opacity:.82;}.cls-63{fill:#fdfeff;}.cls-64{fill:url(#_R_W_h_43);}.cls-65{fill:url(#_R_W_h_45);opacity:.76;}.cls-66{fill:#0c0b1b;opacity:.55;}</style><linearGradient id="_R_W_h_2" x1="-106.66" y1="102.79" x2="-97.31" y2="101.59" gradientTransform="translate(110.44 -105.65) rotate(-4.76)" gradientUnits="userSpaceOnUse"><stop offset="0" stop-color="#9a6ff4"/><stop offset=".57" stop-color="#916ff4"/><stop offset="1" stop-color="#8d74ef"/></linearGradient><radialGradient id="_R_W_h_929" cx="-103.68" cy="103.65" fx="-103.68" fy="103.65" r="8.45" gradientTransform="translate(110.44 -105.65) rotate(-4.76)" gradientUnits="userSpaceOnUse"><stop offset="0" stop-color="#722cdf"/><stop offset=".19" stop-color="#763be0"/><stop offset=".37" stop-color="#7a46e1"/><stop offset=".5" stop-color="#7c4ee3"/><stop offset=".72" stop-color="#8166ec"/><stop offset=".98" stop-color="#8b8df9"/><stop offset="1" stop-color="#8c90fa"/></radialGradient><clipPath id="clippath"><path class="cls-24" d="M15.31,3.31c-.31-1.09-.21-2.16.2-3.08.06-.14-.09-.28-.23-.21-1.81.99-2.9,3.06-2.48,5.28.43,2.24,2.43,3.93,4.71,3.98,2.25.05,4.12-1.37,4.8-3.32.05-.15-.11-.28-.24-.19-.84.55-1.88.83-3,.7-.88-.1-1.69-.47-2.35-1.02-.66-.56-1.15-1.3-1.4-2.14Z"/></clipPath><linearGradient id="_R_W_h_1436" x1="1.59" y1="9.57" x2="20.85" y2="9.57" gradientUnits="userSpaceOnUse"><stop offset="0" stop-color="#f4fbfb"/><stop offset=".61" stop-color="#fbfbfb"/><stop offset=".8" stop-color="#f6fafa"/><stop offset="1" stop-color="#eaf8f9"/></linearGradient><radialGradient id="_R_W_h_3396" cx="15.65" cy="3.15" fx="15.65" fy="3.15" r="23.05" gradientUnits="userSpaceOnUse"><stop offset="0" stop-color="#ece8fd"/><stop offset=".35" stop-color="#ece8fd"/><stop offset=".7" stop-color="#e2e0f1"/><stop offset="1" stop-color="#d8d7e4"/></radialGradient><clipPath id="clippath-1"><path class="cls-24" d="M16.89,7.46h0c-.25,0-.52.03-.79.07-.35-.96-.95-1.81-1.73-2.46-1.03-.86-2.35-1.38-3.81-1.38-.93,0-1.82.21-2.6.6-1.67.81-2.89,2.38-3.2,4.25-1.77.14-3.16,1.58-3.16,3.35,0,1.87,1.54,3.38,3.44,3.38h11.86c2.19,0,3.97-1.75,3.97-3.9s-1.78-3.9-3.97-3.9Z"/></clipPath><radialGradient id="_R_W_h_3389" cx="17.19" cy="4.92" fx="17.19" fy="4.92" r="7.24" gradientUnits="userSpaceOnUse"><stop offset=".64" stop-color="#fff"/><stop offset="1" stop-color="#010101"/></radialGradient><mask id="mask" x="9.89" y="-2.25" width="14.6" height="14.34" maskUnits="userSpaceOnUse"><path class="cls-40" d="M24.49,4.92c0,3.96-3.27,7.17-7.3,7.17s-7.3-3.21-7.3-7.17,3.27-7.17,7.3-7.17,7.3,3.21,7.3,7.17Z"/></mask><linearGradient id="_R_W_h_771" x1="14.25" y1="5.04" x2="8.26" y2="18.17" gradientUnits="userSpaceOnUse"><stop offset="0" stop-color="#bab6fb"/><stop offset=".09" stop-color="#b0acee"/><stop offset=".26" stop-color="#9894cd"/><stop offset=".48" stop-color="#706e97"/><stop offset=".74" stop-color="#3a394e"/><stop offset="1" stop-color="#010101"/></linearGradient><linearGradient id="_R_W_h_47" x1="14.14" y1="5.25" x2="8.26" y2="18.13" gradientUnits="userSpaceOnUse"><stop offset="0" stop-color="#a9a6e4"/><stop offset=".1" stop-color="#9f9cd7"/><stop offset=".28" stop-color="#8784b6"/><stop offset=".51" stop-color="#5f5d80"/><stop offset=".8" stop-color="#292837"/><stop offset="1" stop-color="#010101"/></linearGradient><linearGradient id="_R_W_h_46" x1="14.03" y1="5.45" x2="8.26" y2="18.08" gradientUnits="userSpaceOnUse"><stop offset="0" stop-color="#9895ce"/><stop offset=".11" stop-color="#8e8cc1"/><stop offset=".3" stop-color="#7674a0"/><stop offset=".56" stop-color="#4e4d6a"/><stop offset=".87" stop-color="#191821"/><stop offset="1" stop-color="#010101"/></linearGradient><linearGradient id="_R_W_h_45" x1="13.92" y1="5.66" x2="8.27" y2="18.04" gradientUnits="userSpaceOnUse"><stop offset="0" stop-color="#8885b7"/><stop offset=".12" stop-color="#7e7baa"/><stop offset=".33" stop-color="#666389"/><stop offset=".61" stop-color="#3e3d53"/><stop offset=".96" stop-color="#08080a"/><stop offset="1" stop-color="#010101"/></linearGradient><linearGradient id="_R_W_h_44" x1="13.81" y1="5.86" x2="8.27" y2="17.99" gradientUnits="userSpaceOnUse"><stop offset="0" stop-color="#7774a0"/><stop offset=".13" stop-color="#6d6a93"/><stop offset=".37" stop-color="#555372"/><stop offset=".68" stop-color="#2d2c3d"/><stop offset="1" stop-color="#010101"/></linearGradient><linearGradient id="_R_W_h_37" x1="13.7" y1="6.07" x2="8.27" y2="17.95" gradientUnits="userSpaceOnUse"><stop offset="0" stop-color="#666489"/><stop offset=".15" stop-color="#5c5a7c"/><stop offset=".41" stop-color="#44425b"/><stop offset=".77" stop-color="#1c1c26"/><stop offset="1" stop-color="#010101"/></linearGradient><linearGradient id="_R_W_h_12" x1="13.59" y1="6.27" x2="8.27" y2="17.9" gradientUnits="userSpaceOnUse"><stop offset="0" stop-color="#555373"/><stop offset=".17" stop-color="#4b4a66"/><stop offset=".48" stop-color="#333245"/><stop offset=".89" stop-color="#0c0c10"/><stop offset="1" stop-color="#010101"/></linearGradient><linearGradient id="_R_W_h_9" x1="13.48" y1="6.48" x2="8.28" y2="17.86" gradientUnits="userSpaceOnUse"><stop offset="0" stop-color="#44435c"/><stop offset=".2" stop-color="#3a394f"/><stop offset=".57" stop-color="#22222e"/><stop offset="1" stop-color="#010101"/></linearGradient><linearGradient id="_R_W_h_7" x1="13.36" y1="6.68" x2="8.28" y2="17.81" gradientUnits="userSpaceOnUse"><stop offset="0" stop-color="#333245"/><stop offset=".26" stop-color="#292938"/><stop offset=".72" stop-color="#111117"/><stop offset="1" stop-color="#010101"/></linearGradient><linearGradient id="_R_W_h_6" x1="13.25" y1="6.88" x2="8.28" y2="17.77" gradientUnits="userSpaceOnUse"><stop offset="0" stop-color="#23222e"/><stop offset=".36" stop-color="#191821"/><stop offset="1" stop-color="#010101"/></linearGradient><linearGradient id="_R_W_h_3" x1="13.14" y1="7.09" x2="8.29" y2="17.72" gradientUnits="userSpaceOnUse"><stop offset="0" stop-color="#121118"/><stop offset=".61" stop-color="#08080b"/><stop offset="1" stop-color="#010101"/></linearGradient><linearGradient id="_R_W_h_1785" x1=".02" y1="11.55" x2="11.59" y2="11.55" gradientUnits="userSpaceOnUse"><stop offset="0" stop-color="#dddafc"/><stop offset=".66" stop-color="#e0e9fc"/></linearGradient><linearGradient id="_R_W_h_1849" x1=".27" y1="16.81" x2="11.85" y2="16.81" gradientUnits="userSpaceOnUse"><stop offset="0" stop-color="#c0bffb"/><stop offset=".66" stop-color="#c5ccfc"/></linearGradient><linearGradient id="_R_W_h_1857" x1="3.56" y1="14.17" x2="15.14" y2="14.17" gradientUnits="userSpaceOnUse"><stop offset="0" stop-color="#e2e0fd"/><stop offset=".66" stop-color="#e6edfd"/></linearGradient><linearGradient id="_R_W_h_43" x1="0" y1="11.42" x2="11.57" y2="11.42" gradientUnits="userSpaceOnUse"><stop offset="0" stop-color="#a198fa"/><stop offset=".03" stop-color="#a099fa"/><stop offset=".66" stop-color="#9fbefb"/></linearGradient><clipPath id="clippath-2"><path class="cls-24" d="M11.54,11.25c-.09-.18-.31-.26-.5-.17-.26.13-.86.43-1.25.48-.24.03-.6.02-.77,0-.4-.06-1-.35-1.25-.48-.48-.24-1.02-.49-1.48-.55-.29-.04-.69-.04-.98,0-.46.07-1,.32-1.48.55-.55.27-.96.43-1.33.49-.62.1-1.13-.08-1.95-.49-.18-.09-.4-.02-.5.17-.09.18-.02.4.17.5,1.62.81,2.36.79,3.94,0,.26-.13.85-.42,1.25-.48.19-.03.54-.03.77,0,.4.06,1.02.37,1.25.48.48.24,1.02.49,1.48.55.27.04.71.04.98,0,.46-.06,1-.32,1.48-.55.18-.09.26-.31.17-.5Z"/></clipPath><linearGradient id="_R_W_h_1887" x1=".26" y1="16.68" x2="11.83" y2="16.68" gradientUnits="userSpaceOnUse"><stop offset="0" stop-color="#a186f9"/><stop offset=".66" stop-color="#8795ec"/></linearGradient><linearGradient id="_R_W_h_43-2" x1="3.55" y1="14.04" x2="15.12" y2="14.04" xlink:href="#_R_W_h_43"/></defs><g class="cls-70"><g id="Layer_2"><g id="Main_1"><path class="cls-12" d="M15.32,3.44c-.31-1.09-.21-2.16.2-3.08.06-.14-.09-.28-.23-.21-1.81.99-2.91,3.06-2.48,5.28.43,2.24,2.43,3.93,4.71,3.98,2.25.05,4.12-1.37,4.8-3.32.09-.15-.03-.39-.16-.3-.84.55-1.96.94-3.09.81-1.75-.2-3.26-1.47-3.74-3.17Z"/><path class="cls-54" d="M15.31,3.31c-.31-1.09-.21-2.16.2-3.08.06-.14-.09-.28-.23-.21-1.81.99-2.9,3.06-2.48,5.28.43,2.24,2.43,3.93,4.71,3.98,2.25.05,4.12-1.37,4.8-3.32.05-.15-.11-.28-.24-.19-.84.55-1.88.83-3,.7-1.75-.2-3.26-1.47-3.74-3.17Z"/><g class="cls-72"><g class="cls-67"><path class="cls-38" d="M21.34-.85c-2.97-2.48-7.62-1.05-8.43.42l-.64,2.11c.68-.34,1.03-.06,1.29.52.19.42.2,1.37.83,3.15.62,1.74,1.95,2.33,3.28,2.48,2.07.24,3.06-.25,3.76-.31.33-.03.98.27,2-.74.62-.61.92-1.53.81-2.39-.11-.82-1.33-3.93-2.9-5.24Z"/><path class="cls-8" d="M21.38-.89c-2.97-2.48-7.62-1.05-8.43.42l-.6,2.09c.67-.34,1.12-.17,1.34.43.17.45.15,1.41.77,3.13.64,1.8,2.03,2.4,3.33,2.56,1.96.23,2.96-.25,3.7-.33.33-.04,1,.25,1.98-.7.61-.59.94-1.49.82-2.35-.11-.82-1.33-3.93-2.9-5.24Z"/><path class="cls-21" d="M21.41-.93c-2.97-2.48-7.62-1.05-8.43.42l-.56,2.07c.67-.34,1.2-.29,1.4.34.15.48.11,1.44.7,3.11.66,1.86,2.1,2.48,3.37,2.63,1.85.22,2.86-.23,3.63-.35.33-.05,1.02.22,1.96-.66.61-.57.95-1.45.83-2.32-.11-.82-1.33-3.93-2.9-5.24Z"/><path class="cls-18" d="M21.45-.97c-2.97-2.48-7.62-1.05-8.43.42l-.52,2.05c.66-.35,1.29-.4,1.45.25.13.5.07,1.47.64,3.09.68,1.92,2.18,2.55,3.42,2.7,1.75.2,2.76-.22,3.57-.36.33-.06,1.04.2,1.94-.62.61-.55.96-1.42.84-2.28-.11-.82-1.33-3.93-2.9-5.24Z"/><path class="cls-9" d="M21.48-1.01c-2.97-2.48-7.62-1.05-8.43.42l-.49,2.04c.65-.35,1.37-.51,1.5.16.1.53.03,1.51.58,3.07.7,1.98,2.26,2.63,3.46,2.77,1.64.19,2.66-.21,3.51-.38.33-.07,1.07.18,1.92-.58.61-.53.97-1.38.85-2.25-.11-.82-1.33-3.93-2.9-5.24Z"/><path class="cls-52" d="M21.52-1.05c-2.97-2.48-7.62-1.05-8.43.42l-.45,2.02c.65-.35,1.45-.62,1.55.07.08.56-.02,1.54.51,3.05.72,2.04,2.34,2.7,3.51,2.84,1.53.18,2.56-.2,3.45-.4.32-.07,1.09.15,1.9-.54.6-.51.98-1.35.86-2.21-.11-.82-1.33-3.93-2.9-5.24Z"/><path class="cls-66" d="M21.55-1.09c-2.97-2.48-7.62-1.05-8.43.42l-.41,2c.64-.36,1.54-.73,1.61-.02.06.58-.06,1.57.45,3.03.74,2.1,2.42,2.78,3.55,2.91,1.43.17,2.46-.18,3.38-.42.32-.08,1.11.13,1.88-.49.6-.49.99-1.31.87-2.17-.11-.82-1.33-3.93-2.9-5.24Z"/><path class="cls-10" d="M21.59-1.14c-2.97-2.48-7.62-1.05-8.43.42l-.37,1.98c.63-.36,1.62-.85,1.66-.11.03.61-.1,1.61.39,3.01.76,2.16,2.5,2.85,3.59,2.98,1.32.15,2.36-.17,3.32-.43.32-.09,1.14.11,1.86-.45.6-.47,1-1.28.88-2.14-.11-.82-1.33-3.93-2.9-5.24Z"/><path class="cls-45" d="M21.62-1.18c-2.97-2.48-7.62-1.05-8.43.42l-.33,1.96c.63-.36,1.7-.96,1.71-.2.01.64-.15,1.64.33,2.99.78,2.22,2.58,2.92,3.64,3.05,1.21.14,2.26-.15,3.26-.45.32-.1,1.16.09,1.84-.41.6-.45,1.01-1.24.89-2.1-.11-.82-1.33-3.93-2.9-5.24Z"/><path class="cls-62" d="M21.66-1.22c-2.97-2.48-7.62-1.05-8.43.42l-.3,1.94c.62-.36,1.78-1.07,1.76-.29-.01.67-.19,1.67.26,2.96.8,2.28,2.65,3,3.68,3.12,1.11.13,2.17-.13,3.19-.47.32-.1,1.19.07,1.82-.37.6-.42,1.02-1.2.9-2.07-.11-.82-1.33-3.93-2.9-5.24Z"/><path class="cls-16" d="M21.69-1.26c-2.97-2.48-7.62-1.05-8.43.42l-.26,1.92c.61-.37,1.86-1.18,1.82-.38-.04.69-.23,1.71.2,2.94.82,2.35,2.73,3.07,3.73,3.19,1,.12,2.07-.11,3.13-.49.32-.11,1.21.05,1.8-.33.6-.4,1.03-1.17.91-2.03-.11-.82-1.33-3.93-2.9-5.24Z"/><path class="cls-35" d="M21.73-1.3c-2.97-2.48-7.62-1.05-8.43.42l-.22,1.9c.61-.37,1.94-1.29,1.87-.47-.06.72-.27,1.74.14,2.92.84,2.41,2.81,3.15,3.77,3.26.89.1,1.97-.09,3.07-.5.31-.12,1.24.04,1.78-.29.61-.37,1.04-1.13.92-1.99-.11-.82-1.33-3.93-2.9-5.24Z"/></g></g><path class="cls-33" d="M16.89,7.52h0c-.25,0-.52.03-.79.07-.81-2.28-2.98-3.91-5.54-3.91-2.92,0-5.34,2.13-5.8,4.93-1.77.14-3.16,1.61-3.16,3.41,0,1.9,1.54,3.44,3.44,3.44h11.86c2.19,0,3.97-1.78,3.97-3.97s-1.78-3.97-3.97-3.97Z"/><path class="cls-36" d="M16.89,7.46h0c-.25,0-.52.03-.79.07-.81-2.24-2.98-3.84-5.54-3.84-2.92,0-5.34,2.1-5.8,4.84-1.77.14-3.16,1.58-3.16,3.35,0,1.87,1.54,3.38,3.44,3.38h11.86c2.19,0,3.97-1.75,3.97-3.9s-1.78-3.9-3.97-3.9Z"/><g class="cls-71"><g class="cls-73"><path class="cls-48" d="M24.49,4.92c0,3.96-3.27,7.17-7.3,7.17s-7.3-3.21-7.3-7.17,3.27-7.17,7.3-7.17,7.3,3.21,7.3,7.17Z"/><ellipse class="cls-51" cx="17.19" cy="4.92" rx="6.95" ry="6.83"/><path class="cls-47" d="M23.8,4.92c0,3.58-2.96,6.49-6.61,6.49s-6.61-2.91-6.61-6.49,2.96-6.49,6.61-6.49,6.61,2.91,6.61,6.49Z"/><path class="cls-22" d="M23.46,4.92c0,3.4-2.8,6.15-6.26,6.15s-6.26-2.75-6.26-6.15,2.8-6.15,6.26-6.15,6.26,2.75,6.26,6.15Z"/><path class="cls-56" d="M23.11,4.92c0,3.21-2.65,5.81-5.92,5.81s-5.92-2.6-5.92-5.81S13.93-.89,17.19-.89s5.92,2.6,5.92,5.81Z"/><path class="cls-25" d="M22.76,4.92c0,3.02-2.49,5.47-5.57,5.47s-5.57-2.45-5.57-5.47S14.12-.55,17.19-.55s5.57,2.45,5.57,5.47Z"/><ellipse class="cls-15" cx="17.19" cy="4.92" rx="5.23" ry="5.13"/><path class="cls-42" d="M22.07,4.92c0,2.65-2.18,4.79-4.88,4.79s-4.88-2.15-4.88-4.79S14.5.13,17.19.13s4.88,2.15,4.88,4.79Z"/><ellipse class="cls-5" cx="17.19" cy="4.92" rx="4.53" ry="4.45"/><ellipse class="cls-4" cx="17.19" cy="4.92" rx="4.19" ry="4.11"/></g><g class="cls-68"><path class="cls-39" d="M-1.05,11.79c.81-1.59,2.14-.04,3.25-.19.87-.12,1.75-1.13,3.42-1.06.65.03,1.41.21,2.34.67,1.14.56,1.37.54,2.47,0,1.54-.76,2.69,1.54,1.16,2.3-1.92.94-3.13.73-4.05.35-.68-.29-1.2-.67-1.72-.74-.95-.14-1.94.84-3.26,1.03-1.82.25-4.41-.77-3.61-2.36Z"/><path class="cls-63" d="M-.96,11.82c.75-1.46,1.95-.02,3.13-.11.93-.08,1.81-1.08,3.45-1.03.65.02,1.38.2,2.3.64,1.12.55,1.42.53,2.5,0,1.44-.71,2.49,1.41,1.05,2.11-1.84.9-3.02.69-3.91.31-.67-.28-1.21-.64-1.75-.71-.96-.12-2,.87-3.29,1.01-1.81.19-4.21-.78-3.47-2.22Z"/><path class="cls-37" d="M-.87,11.85c.7-1.33,1.76,0,3-.04.98-.03,1.87-1.03,3.48-1,.65.01,1.36.18,2.25.62,1.1.54,1.47.51,2.53,0,1.35-.65,2.28,1.27.95,1.93-1.76.86-2.9.64-3.78.27-.67-.28-1.22-.62-1.78-.68-.97-.1-2.05.9-3.31.99-1.8.13-4.02-.78-3.33-2.09Z"/><path class="cls-44" d="M-.78,11.87c.64-1.19,1.57.01,2.88.03,1.04.01,1.92-.99,3.51-.97.65,0,1.33.17,2.2.59,1.07.53,1.52.49,2.56,0,1.26-.6,2.08,1.14.84,1.74-1.67.82-2.79.59-3.64.23-.66-.28-1.23-.6-1.81-.65-.99-.08-2.1.93-3.34.98-1.79.06-3.82-.78-3.19-1.95Z"/><path class="cls-34" d="M-.68,11.9c.58-1.06,1.38.03,2.76.1,1.1.06,1.98-.94,3.54-.94.65,0,1.3.15,2.15.57,1.05.51,1.57.47,2.58,0,1.16-.54,1.87,1,.73,1.56-1.59.78-2.67.55-3.5.18-.65-.28-1.24-.57-1.84-.61-1-.07-2.16.96-3.36.96-1.78,0-3.63-.78-3.06-1.82Z"/><path class="cls-60" d="M-.59,11.92c.53-.93,1.19.04,2.64.18,1.15.1,2.04-.89,3.58-.91.65,0,1.27.14,2.1.54,1.03.5,1.61.45,2.61,0,1.07-.49,1.67.86.63,1.37-1.51.74-2.55.5-3.37.14-.65-.28-1.25-.55-1.87-.58-1.01-.05-2.21.99-3.39.94-1.77-.07-3.43-.79-2.92-1.69Z"/><path class="cls-61" d="M-.5,11.95c.47-.79,1,.06,2.52.25,1.21.15,2.1-.85,3.61-.88.65-.01,1.24.12,2.05.52,1,.49,1.66.43,2.64,0,.97-.43,1.46.73.52,1.19-1.43.7-2.44.45-3.23.1-.64-.28-1.26-.53-1.9-.55-1.02-.04-2.27,1.02-3.42.92-1.76-.14-3.24-.79-2.78-1.55Z"/><path class="cls-57" d="M-.41,11.97c.42-.66.82.08,2.4.32,1.27.19,2.16-.8,3.64-.84.65-.02,1.21.11,2,.49.98.48,1.71.41,2.67,0,.87-.38,1.25.59.41,1-1.35.67-2.32.41-3.09.06-.63-.28-1.27-.51-1.94-.52-1.03-.02-2.32,1.04-3.44.91-1.75-.21-3.04-.79-2.64-1.42Z"/><path class="cls-41" d="M-.32,12c.36-.53.63.09,2.27.39,1.32.24,2.22-.75,3.67-.81.65-.03,1.18.09,1.95.47.95.46,1.75.39,2.69,0,.78-.33,1.05.45.31.82-1.27.63-2.21.36-2.96.02-.62-.28-1.28-.49-1.97-.49-1.05,0-2.37,1.07-3.47.89-1.74-.28-2.85-.79-2.51-1.28Z"/><path class="cls-59" d="M-.23,12.03c.31-.39.44.11,2.15.47,1.38.28,2.28-.71,3.7-.78.65-.03,1.16.08,1.9.44.93.45,1.8.37,2.72,0,.68-.28.84.32.2.63-1.19.59-2.09.31-2.82-.02-.62-.28-1.29-.46-2-.46-1.06,0-2.43,1.09-3.49.87-1.73-.36-2.65-.79-2.37-1.15Z"/></g><g class="cls-68"><path class="cls-39" d="M15.88,15.53c-.81,1.59-2.14.04-3.25.19-.87.12-1.75,1.13-3.42,1.06-.65-.03-1.41-.21-2.34-.67-1.14-.56-1.37-.54-2.47,0-1.54.76-2.69-1.54-1.16-2.3,1.92-.94,3.13-.73,4.05-.35.68.29,1.2.67,1.72.74.95.14,1.94-.84,3.26-1.03,1.82-.25,4.41.77,3.61,2.36Z"/><path class="cls-63" d="M15.78,15.5c-.75,1.46-1.95.02-3.13.11-.93.08-1.81,1.08-3.45,1.03-.65-.02-1.38-.2-2.3-.64-1.12-.55-1.42-.53-2.5,0-1.44.71-2.49-1.41-1.05-2.11,1.84-.9,3.02-.69,3.91-.31.67.28,1.21.64,1.75.71.96.12,2-.87,3.29-1.01,1.81-.19,4.21.78,3.47,2.22Z"/><path class="cls-37" d="M15.69,15.48c-.7,1.33-1.76,0-3,.04-.98.03-1.87,1.03-3.48,1-.65-.01-1.36-.18-2.25-.62-1.1-.54-1.47-.51-2.53,0-1.35.65-2.28-1.27-.95-1.93,1.76-.86,2.9-.64,3.78-.27.67.28,1.22.62,1.78.68.97.1,2.05-.9,3.31-.99,1.8-.13,4.02.78,3.33,2.09Z"/><path class="cls-44" d="M15.6,15.45c-.64,1.19-1.57-.01-2.88-.03-1.04-.01-1.92.99-3.51.97-.65,0-1.33-.17-2.2-.59-1.07-.53-1.52-.49-2.56,0-1.26.6-2.08-1.14-.84-1.74,1.67-.82,2.79-.59,3.64-.23.66.28,1.23.6,1.81.65.99.08,2.1-.93,3.34-.98,1.79-.06,3.82.78,3.19,1.95Z"/><path class="cls-34" d="M15.51,15.42c-.58,1.06-1.38-.03-2.76-.1-1.1-.06-1.98.94-3.54.94-.65,0-1.3-.15-2.15-.57-1.05-.51-1.57-.47-2.58,0-1.16.54-1.87-1-.73-1.56,1.59-.78,2.67-.55,3.5-.18.65.28,1.24.57,1.84.61,1,.07,2.16-.98,3.36-.96,1.78.04,3.63.78,3.06,1.82Z"/><path class="cls-60" d="M15.42,15.4c-.53.93-1.19-.04-2.64-.18-1.15-.1-2.04.89-3.58.91-.65,0-1.27-.14-2.1-.54-1.03-.5-1.61-.45-2.61,0-1.07.49-1.67-.86-.63-1.37,1.51-.74,2.55-.5,3.37-.14.65.28,1.25.55,1.87.58,1.01.05,2.21-.99,3.39-.94,1.77.07,3.43.79,2.92,1.69Z"/><path class="cls-61" d="M15.33,15.37c-.47.79-1-.06-2.52-.25-1.21-.15-2.1.85-3.61.88-.65.01-1.24-.12-2.05-.52-1-.49-1.66-.43-2.64,0-.97.43-1.46-.73-.52-1.19,1.43-.7,2.44-.45,3.23-.1.64.28,1.26.53,1.9.55,1.02.04,2.27-1.02,3.42-.92,1.76.14,3.24.79,2.78,1.55Z"/><path class="cls-57" d="M15.24,15.35c-.42.66-.82-.08-2.4-.32-1.27-.19-2.16.8-3.64.84-.65.02-1.21-.11-2-.49-.98-.48-1.71-.41-2.67,0-.87.38-1.25-.59-.41-1,1.35-.67,2.32-.41,3.09-.06.63.28,1.27.51,1.94.52,1.03.02,2.32-1.04,3.44-.91,1.75.21,3.04.79,2.64,1.42Z"/><path class="cls-41" d="M15.14,15.32c-.36.53-.63-.09-2.27-.39-1.32-.24-2.22.75-3.67.81-.65.03-1.18-.09-1.95-.47-.95-.46-1.75-.39-2.69,0-.78.33-1.05-.45-.31-.82,1.27-.63,2.21-.36,2.96-.02.62.28,1.28.49,1.97.49,1.05,0,2.37-1.07,3.47-.89,1.74.28,2.85.79,2.51,1.28Z"/><path class="cls-59" d="M15.05,15.3c-.31.39-.44-.11-2.15-.47-1.38-.28-2.28.71-3.7.78-.65.03-1.16-.08-1.9-.44-.93-.45-1.8-.37-2.72,0-.68.28-.84-.32-.2-.63,1.19-.59,2.09-.31,2.82.02.62.28,1.29.46,2,.46,1.06,0,2.43-1.09,3.49-.87,1.73.36,2.65.79,2.37,1.15Z"/></g></g><path class="cls-46" d="M16.89,7.46h0c-.25,0-.52.03-.79.07-.81-2.24-2.98-3.84-5.54-3.84-2.92,0-5.34,2.1-5.8,4.84-1.77.14-3.16,1.58-3.16,3.35,0,1.87,1.54,3.38,3.44,3.38h11.86c2.19,0,3.97-1.75,3.97-3.9s-1.78-3.9-3.97-3.9Z"/><path class="cls-19" d="M16.74,7.64h0s0,0,0,0h0s-.01,0-.01,0c-.25,0-.5.04-.78.05-.78-2.2-2.93-3.77-5.45-3.77-2.88,0-5.24,2.01-5.7,4.72-1.74.14-3.12,1.55-3.12,3.3,0,1.84,1.52,3.33,3.39,3.33h11.7c2.16,0,3.92-1.71,3.91-3.83,0-2.08-1.77-3.79-3.93-3.79Z"/><path class="cls-58" d="M16.6,7.82h-.01s-.02,0-.02,0c-.25,0-.48.04-.77.02-.74-2.17-2.87-3.7-5.36-3.7-2.85,0-5.14,1.93-5.59,4.59-1.72.14-3.08,1.53-3.08,3.25,0,1.81,1.5,3.27,3.35,3.27h11.54c2.13,0,3.86-1.67,3.84-3.75-.01-2.01-1.77-3.68-3.9-3.68Z"/><path class="cls-65" d="M16.45,8h-.02s-.04.01-.04.01c-.24,0-.47.05-.76,0-.7-2.13-2.82-3.63-5.27-3.63-2.81,0-5.04,1.84-5.49,4.46-1.7.13-3.04,1.5-3.04,3.2,0,1.78,1.48,3.22,3.3,3.22h11.39c2.1,0,3.81-1.63,3.78-3.68-.02-1.94-1.76-3.57-3.86-3.57Z"/><path class="cls-3" d="M16.31,8.18h-.03s0,0,0,0h-.05c-.24.01-.45.07-.74-.02-.67-2.1-2.76-3.56-5.18-3.56-2.77,0-4.95,1.76-5.38,4.33-1.67.13-2.99,1.48-2.99,3.14,0,1.75,1.46,3.17,3.26,3.17h11.23c2.08,0,3.76-1.59,3.72-3.6-.03-1.87-1.75-3.46-3.83-3.46Z"/><path class="cls-53" d="M16.16,8.36h-.03s-.06.02-.06.02c-.24,0-.43.07-.73-.05-.63-2.06-2.7-3.49-5.09-3.49-2.73,0-4.85,1.68-5.28,4.21-1.65.13-2.95,1.46-2.95,3.09,0,1.72,1.44,3.12,3.21,3.12h11.07c2.05,0,3.7-1.55,3.66-3.53-.04-1.8-1.75-3.35-3.79-3.35Z"/><path class="cls-27" d="M16.02,8.54h-.04s0,0,0,0c0,0-.07.02-.07.02-.23,0-.42.08-.72-.08-.59-2.03-2.65-3.42-5-3.42-2.69,0-4.75,1.59-5.17,4.08-1.63.13-2.91,1.43-2.91,3.04,0,1.69,1.42,3.06,3.16,3.06h10.91c2.02,0,3.65-1.51,3.59-3.46-.04-1.73-1.74-3.25-3.76-3.25Z"/><path class="cls-7" d="M15.87,8.72h-.05s-.09.03-.09.03c-.23,0-.4.08-.71-.1-.56-1.99-2.59-3.35-4.91-3.35-2.65,0-4.65,1.51-5.06,3.95-1.6.12-2.87,1.41-2.87,2.99,0,1.66,1.4,3.01,3.12,3.01h10.76c1.99,0,3.6-1.46,3.53-3.38-.05-1.65-1.74-3.14-3.72-3.14Z"/><path class="cls-30" d="M15.73,8.9h-.05s0,0,0,0l-.1.03c-.23,0-.38.09-.69-.13-.52-1.96-2.54-3.28-4.82-3.28-2.61,0-4.55,1.42-4.96,3.83-1.58.12-2.83,1.38-2.83,2.93,0,1.63,1.38,2.96,3.07,2.96h10.6c1.96,0,3.54-1.42,3.47-3.31-.06-1.58-1.73-3.03-3.69-3.03Z"/><path class="cls-1" d="M15.58,9.08h-.06s-.11.03-.11.03c-.22,0-.37.1-.68-.15-.49-1.92-2.48-3.21-4.73-3.21-2.57,0-4.45,1.34-4.85,3.7-1.56.12-2.78,1.36-2.78,2.88,0,1.6,1.36,2.9,3.03,2.9h10.44c1.93,0,3.49-1.38,3.41-3.23-.06-1.51-1.72-2.92-3.65-2.92Z"/><path class="cls-2" d="M15.44,9.26h-.07s0,0,0,0c0,0-.12.03-.12.03-.22,0-.35.11-.67-.18-.45-1.89-2.42-3.14-4.64-3.14-2.54,0-4.35,1.25-4.75,3.57-1.53.12-2.74,1.33-2.74,2.83,0,1.57,1.33,2.85,2.98,2.85h10.29c1.9,0,3.44-1.34,3.34-3.16-.07-1.44-1.72-2.81-3.62-2.81Z"/><path class="cls-28" d="M15.3,9.44h-.07s-.14.04-.14.04c-.22,0-.33.12-.66-.2-.41-1.85-2.37-3.07-4.55-3.07-2.5,0-4.25,1.17-4.64,3.44-1.51.12-2.7,1.31-2.7,2.78,0,1.55,1.31,2.8,2.94,2.8h10.13c1.87,0,3.38-1.3,3.28-3.08-.08-1.37-1.71-2.7-3.59-2.7Z"/><path class="cls-55" d="M11.55,11.38c-.09-.18-.31-.26-.5-.17-.26.13-.86.43-1.25.48-.24.03-.6.02-.77,0-.4-.06-1-.35-1.25-.48-.47-.24-1.02-.49-1.48-.55-.29-.04-.69-.04-.98,0-.46.07-1,.32-1.48.55-1.45.72-1.96.66-3.28,0-.18-.09-.4-.02-.5.17-.09.18-.02.4.17.5,1.62.81,2.36.79,3.94,0,.26-.13.85-.42,1.25-.48.19-.03.54-.03.77,0,.4.06,1.02.37,1.25.48.48.24,1.02.49,1.48.55.27.04.71.04.98,0,.46-.06,1-.32,1.48-.55.18-.09.26-.31.17-.5Z"/><path class="cls-26" d="M11.81,16.63c-.09-.18-.31-.26-.5-.17-.23.12-.85.42-1.25.48-.18.03-.54.03-.77,0-.4-.06-1.02-.37-1.25-.48-.47-.24-1.02-.49-1.48-.55-.28-.04-.69-.04-.98,0-.46.07-1,.32-1.48.55-1.37.68-1.88.7-3.28,0-.18-.09-.41-.02-.5.17-.09.18-.02.41.17.5,1.62.81,2.37.79,3.94,0,.26-.13.85-.42,1.25-.48.18-.03.55-.03.77,0,.4.06,1.02.37,1.25.48.47.24,1.02.49,1.48.55.28.04.71.04.98,0,.46-.07,1.01-.32,1.48-.55.18-.09.26-.31.17-.5Z"/><path class="cls-32" d="M14.93,13.84c-.47-.24-1.02-.49-1.48-.55-.3-.04-.71-.04-.98,0-.46.07-1,.32-1.48.55-.23.12-.85.42-1.25.48-.21.03-.56.03-.77,0-.4-.06-1.02-.37-1.25-.48-.47-.24-1.02-.49-1.48-.55-.3-.04-.71-.04-.98,0-.46.07-1,.32-1.48.55-.18.09-.26.31-.17.5.09.18.31.26.5.17.26-.13.85-.42,1.25-.48.23-.03.59-.03.77,0,.4.06,1.02.37,1.25.48.47.24,1.02.49,1.48.55.26.04.7.04.98,0,.46-.07,1.01-.32,1.48-.55.26-.13.85-.42,1.25-.48.18-.03.53-.03.77,0,.4.06,1.02.37,1.25.48.18.09.41.02.5-.17.09-.18.02-.41-.17-.5Z"/><path class="cls-64" d="M11.54,11.25c-.09-.18-.31-.26-.5-.17-.26.13-.86.43-1.25.48-.24.03-.6.02-.77,0-.4-.06-1-.35-1.25-.48-.48-.24-1.02-.49-1.48-.55-.29-.04-.69-.04-.98,0-.46.07-1,.32-1.48.55-1.45.72-1.96.66-3.28,0-.18-.09-.4-.02-.5.17-.09.18-.02.4.17.5,1.62.81,2.36.79,3.94,0,.26-.13.85-.42,1.25-.48.19-.03.54-.03.77,0,.4.06,1.02.37,1.25.48.48.24,1.02.49,1.48.55.27.04.71.04.98,0,.46-.06,1-.32,1.48-.55.18-.09.26-.31.17-.5Z"/><g class="cls-69"><path class="cls-11" d="M2.38,13.27c-.2-.47-.31-.98-.31-1.52,0-.3.03-.59.1-.86l-2.42-.74.45,3,2.19.12Z"/><path class="cls-50" d="M2.31,13.27c-.2-.47-.31-.98-.31-1.52,0-.3.03-.59.1-.86l-2.42-.74.45,3,2.19.12Z"/><path class="cls-31" d="M2.24,13.27c-.2-.47-.31-.98-.31-1.52,0-.3.03-.59.1-.86l-2.42-.74L.05,13.15l2.19.12Z"/><path class="cls-49" d="M2.17,13.28c-.2-.47-.31-.98-.31-1.52,0-.3.03-.59.1-.86l-2.42-.74L-.02,13.16l2.19.12Z"/><path class="cls-20" d="M2.1,13.28c-.2-.47-.31-.98-.31-1.52,0-.3.03-.59.1-.86l-2.42-.74.45,3,2.19.12Z"/><path class="cls-6" d="M2.03,13.28c-.2-.47-.31-.98-.31-1.52,0-.3.03-.59.1-.86l-2.42-.74.45,3,2.19.12Z"/><path class="cls-23" d="M1.96,13.29c-.2-.47-.31-.98-.31-1.52,0-.3.03-.59.1-.86l-2.42-.74.45,3,2.19.12Z"/><path class="cls-13" d="M1.89,13.29c-.2-.47-.31-.98-.31-1.52,0-.3.03-.59.1-.86l-2.42-.74.45,3,2.19.12Z"/><path class="cls-29" d="M1.82,13.29c-.2-.47-.31-.98-.31-1.52,0-.3.03-.59.1-.86l-2.42-.74.45,3,2.19.12Z"/><path class="cls-14" d="M1.75,13.3c-.2-.47-.31-.98-.31-1.52,0-.3.03-.59.1-.86l-2.42-.74.45,3,2.19.12Z"/></g><path class="cls-17" d="M11.79,16.51c-.09-.18-.31-.26-.5-.17-.23.12-.85.42-1.25.48-.18.03-.54.03-.77,0-.4-.06-1.02-.37-1.25-.48-.47-.24-1.02-.49-1.48-.55-.28-.04-.69-.04-.98,0-.46.07-1,.32-1.48.55-1.37.68-1.88.7-3.28,0-.18-.09-.41-.02-.5.17-.09.18-.02.41.17.5,1.62.81,2.37.79,3.94,0,.26-.13.85-.42,1.25-.48.18-.03.55-.03.77,0,.4.06,1.02.37,1.25.48.47.24,1.02.49,1.48.55.28.04.71.04.98,0,.46-.07,1.01-.32,1.48-.55.18-.09.26-.31.17-.5Z"/><path class="cls-43" d="M14.92,13.71c-.47-.24-1.02-.49-1.48-.55-.3-.04-.71-.04-.98,0-.46.07-1,.32-1.48.55-.23.12-.85.42-1.25.48-.21.03-.56.03-.77,0-.4-.06-1.02-.37-1.25-.48-.47-.24-1.02-.49-1.48-.55-.3-.04-.71-.04-.98,0-.46.07-1,.32-1.48.55-.18.09-.26.31-.17.5.09.18.31.26.5.17.26-.13.85-.42,1.25-.48.23-.03.59-.03.77,0,.4.06,1.02.37,1.25.48.47.24,1.02.49,1.48.55.26.04.7.04.98,0,.46-.07,1.01-.32,1.48-.55.26-.13.85-.42,1.25-.48.18-.03.53-.03.77,0,.4.06,1.02.37,1.25.48.18.09.41.02.5-.17.09-.18.02-.41-.17-.5Z"/></g></g></g></svg>