<?xml version="1.0" encoding="UTF-8"?><svg xmlns="http://www.w3.org/2000/svg" xmlns:xlink="http://www.w3.org/1999/xlink" viewBox="0 0 21.23 15.47"><defs><style>.cls-1{fill:#705627;opacity:.64;}.cls-1,.cls-2,.cls-3,.cls-4,.cls-5,.cls-6,.cls-7,.cls-8,.cls-9,.cls-10,.cls-11,.cls-12,.cls-13,.cls-14,.cls-15,.cls-16,.cls-17,.cls-18,.cls-19,.cls-20,.cls-21,.cls-22,.cls-23,.cls-24,.cls-25,.cls-26,.cls-27,.cls-28,.cls-29,.cls-30,.cls-31,.cls-32,.cls-33,.cls-34,.cls-35,.cls-36,.cls-37,.cls-38,.cls-39,.cls-40,.cls-41,.cls-42,.cls-43,.cls-44,.cls-45,.cls-46,.cls-47,.cls-48,.cls-49,.cls-50,.cls-51,.cls-52,.cls-53,.cls-54,.cls-55,.cls-56,.cls-57,.cls-58,.cls-59,.cls-60,.cls-61,.cls-62,.cls-63,.cls-64,.cls-65,.cls-66,.cls-67,.cls-68,.cls-69,.cls-70,.cls-71,.cls-72{stroke-width:0px;}.cls-2{fill:url(#_R_W_h_987-10);}.cls-3{fill:url(#_R_W_h_60);opacity:.36;}.cls-3,.cls-7,.cls-13,.cls-17,.cls-21,.cls-22,.cls-28,.cls-31,.cls-32,.cls-33,.cls-35,.cls-38,.cls-73{mix-blend-mode:screen;}.cls-4{fill:#fdd495;}.cls-5{fill:url(#_R_W_h_987-9);}.cls-6{fill:url(#_R_W_h_986-10);}.cls-7{fill:url(#_R_W_h_662);}.cls-8{fill:url(#_R_W_h_987-2);}.cls-9{fill:url(#_R_W_h_987-11);}.cls-10{fill:#8f6e31;opacity:.82;}.cls-11{fill:#af863c;}.cls-12{fill:#80622c;opacity:.73;}.cls-13{fill:url(#_R_W_h_65);opacity:.76;}.cls-14{fill:#0f0c06;opacity:.99;}.cls-15{fill:#2c2210;opacity:.98;}.cls-16{fill:#3a2d15;opacity:.97;}.cls-17{fill:url(#_R_W_h_68);opacity:.92;}.cls-18,.cls-32,.cls-39{fill:#010101;}.cls-74{isolation:isolate;}.cls-19{fill:#9f7a37;}.cls-19,.cls-27{opacity:.91;}.cls-20{fill:#664f23;opacity:.94;}.cls-21{fill:url(#_R_W_h_62);opacity:.52;}.cls-22{fill:url(#_R_W_h_59);opacity:.28;}.cls-23{fill:#ffed97;}.cls-24{fill:url(#_R_W_h_986-8);}.cls-25{fill:url(#_R_W_h_987);}.cls-26{fill:none;}.cls-27{fill:#9f7b37;}.cls-28{fill:url(#_R_W_h_61);opacity:.44;}.cls-29{fill:#302511;opacity:.27;}.cls-30{fill:#fee196;}.cls-31{fill:url(#_R_W_h_58);opacity:.2;}.cls-32{opacity:.12;}.cls-33{fill:url(#_R_W_h_63);opacity:.6;}.cls-34{fill:url(#_R_W_h_1436);}.cls-35{fill:url(#_R_W_h_64);opacity:.68;}.cls-36{fill:url(#_R_W_h_986-9);}.cls-37{fill:#745a28;opacity:.93;}.cls-38{fill:url(#_R_W_h_67);opacity:.84;}.cls-39{opacity:0;}.cls-40{fill:url(#_R_W_h_987-5);}.cls-41{fill:#fddc96;}.cls-42{fill:#fee596;}.cls-43{fill:url(#_R_W_h_987-7);}.cls-44{fill:#57441e;opacity:.95;}.cls-45{fill:#fff197;}.cls-46{fill:url(#_R_W_h_986-3);}.cls-47{fill:url(#_R_W_h_986-6);}.cls-48{fill:#82652d;opacity:.93;}.cls-49{fill:url(#_R_W_h_986);}.cls-50{fill:url(#_R_W_h_986-7);}.cls-51{fill:url(#_R_W_h_987-3);}.cls-75{clip-path:url(#clippath);}.cls-52{fill:#403116;opacity:.36;}.cls-53{fill:url(#_R_W_h_987-8);}.cls-54{fill:url(#_R_W_h_987-6);}.cls-55{fill:url(#_R_W_h_1433);}.cls-56{fill:#1e170b;opacity:.98;}.cls-57{fill:#fcd095;}.cls-58{fill:#49381a;opacity:.96;}.cls-59{fill:url(#_R_W_h_986-5);}.cls-60{fill:#21190c;opacity:.18;}.cls-61{fill:url(#_R_W_h_1654);}.cls-62{fill:url(#_R_W_h_986-11);}.cls-63{fill:#110d06;opacity:.09;}.cls-76{mask:url(#mask);}.cls-64{fill:url(#_R_W_h_987-4);}.cls-65{fill:#503d1c;opacity:.45;}.cls-66{fill:url(#_R_W_h_986-4);}.cls-67{fill:#917032;opacity:.92;}.cls-68{fill:#fdd896;}.cls-69{fill:url(#_R_W_h_986-2);}.cls-70{fill:#fee997;}.cls-71{fill:#604a21;opacity:.55;}.cls-72{fill:#fccc95;}</style><linearGradient id="_R_W_h_987" x1="10.63" y1="6.84" x2="19.05" y2="6.84" gradientUnits="userSpaceOnUse"><stop offset="0" stop-color="#fff379"/><stop offset=".47" stop-color="#fff7a1"/><stop offset="1" stop-color="#fff393"/></linearGradient><linearGradient id="_R_W_h_987-2" x1="6.74" y1=".72" x2="23.51" y2=".72" xlink:href="#_R_W_h_987"/><linearGradient id="_R_W_h_987-3" x1="7.21" y1="12.91" x2="23.05" y2="12.91" xlink:href="#_R_W_h_987"/><linearGradient id="_R_W_h_987-4" x1="6.87" y1="2.12" x2="23.7" y2="2.12" xlink:href="#_R_W_h_987"/><linearGradient id="_R_W_h_987-5" x1="6.53" y1="11.52" x2="23.4" y2="11.52" xlink:href="#_R_W_h_987"/><linearGradient id="_R_W_h_987-6" x1="7.11" y1="5.04" x2="23.21" y2="5.04" xlink:href="#_R_W_h_987"/><linearGradient id="_R_W_h_987-7" x1="6.38" y1="8.54" x2="23.29" y2="8.54" xlink:href="#_R_W_h_987"/><linearGradient id="_R_W_h_987-8" x1="6.97" y1="8.55" x2="23.88" y2="8.55" xlink:href="#_R_W_h_987"/><linearGradient id="_R_W_h_987-9" x1="7.21" y1="5.08" x2="23.16" y2="5.08" xlink:href="#_R_W_h_987"/><linearGradient id="_R_W_h_987-10" x1="7.19" y1="11.56" x2="22.91" y2="11.56" xlink:href="#_R_W_h_987"/><linearGradient id="_R_W_h_987-11" x1="6.71" y1="2.07" x2="23.33" y2="2.07" xlink:href="#_R_W_h_987"/><radialGradient id="_R_W_h_986" cx="17.3" cy="-.24" fx="17.3" fy="-.24" r="16.59" gradientUnits="userSpaceOnUse"><stop offset="0" stop-color="#fdfb79"/><stop offset=".44" stop-color="#fee168"/><stop offset=".66" stop-color="#ffd360"/><stop offset=".72" stop-color="#f8d664"/><stop offset=".8" stop-color="#e5de71"/><stop offset=".9" stop-color="#c7ed85"/><stop offset="1" stop-color="#a1ffa0"/></radialGradient><radialGradient id="_R_W_h_986-2" cx="17.3" cy="-.24" fx="17.3" fy="-.24" r="16.59" xlink:href="#_R_W_h_986"/><radialGradient id="_R_W_h_986-3" cx="17.3" cy="-.24" fx="17.3" fy="-.24" r="16.59" xlink:href="#_R_W_h_986"/><radialGradient id="_R_W_h_986-4" cx="17.3" cy="-.24" fx="17.3" fy="-.24" r="16.59" xlink:href="#_R_W_h_986"/><radialGradient id="_R_W_h_986-5" cx="17.3" cy="-.24" fx="17.3" fy="-.24" r="16.59" xlink:href="#_R_W_h_986"/><radialGradient id="_R_W_h_986-6" cx="17.3" cy="-.24" fx="17.3" fy="-.24" r="16.59" xlink:href="#_R_W_h_986"/><radialGradient id="_R_W_h_986-7" cx="17.3" cy="-.24" fx="17.3" fy="-.24" r="16.59" xlink:href="#_R_W_h_986"/><radialGradient id="_R_W_h_986-8" cx="17.3" cy="-.24" fx="17.3" fy="-.24" r="16.59" xlink:href="#_R_W_h_986"/><radialGradient id="_R_W_h_986-9" cx="17.3" cy="-.24" fx="17.3" fy="-.24" r="16.59" xlink:href="#_R_W_h_986"/><radialGradient id="_R_W_h_986-10" cx="17.3" cy="-.24" fx="17.3" fy="-.24" r="16.59" xlink:href="#_R_W_h_986"/><radialGradient id="_R_W_h_986-11" cx="17.3" cy="-.24" fx="17.3" fy="-.24" r="16.59" xlink:href="#_R_W_h_986"/><linearGradient id="_R_W_h_1436" x1="0" y1="9.36" x2="19.98" y2="9.36" gradientUnits="userSpaceOnUse"><stop offset="0" stop-color="#f4fbfb"/><stop offset=".61" stop-color="#fbfbfb"/><stop offset=".8" stop-color="#f6fafa"/><stop offset="1" stop-color="#eaf8f9"/></linearGradient><radialGradient id="_R_W_h_1654" cx="14.58" cy="2.7" fx="14.58" fy="2.7" r="23.91" gradientUnits="userSpaceOnUse"><stop offset="0" stop-color="#f7f6ff"/><stop offset="0" stop-color="#f6f5fe"/><stop offset=".35" stop-color="#f1effd"/><stop offset=".7" stop-color="#e5e3f1"/><stop offset="1" stop-color="#d8d7e4"/></radialGradient><clipPath id="clippath"><path class="cls-26" d="M15.87,7.17h0c-.26,0-.54.03-.82.07-.36-1-.99-1.88-1.79-2.55-1.06-.89-2.44-1.43-3.95-1.43-.97,0-1.88.22-2.7.62-1.73.84-3,2.47-3.32,4.41-1.83.15-3.28,1.64-3.28,3.48,0,1.94,1.6,3.51,3.57,3.51h12.3c2.27,0,4.12-1.81,4.12-4.05s-1.84-4.05-4.12-4.05Z"/></clipPath><radialGradient id="_R_W_h_1433" cx="14.77" cy="6.64" fx="14.77" fy="6.64" r="5.6" gradientUnits="userSpaceOnUse"><stop offset="0" stop-color="#fff"/><stop offset=".21" stop-color="#bebebe"/><stop offset=".5" stop-color="#6e6e6e"/><stop offset=".74" stop-color="#333"/><stop offset=".91" stop-color="#0e0e0e"/><stop offset="1" stop-color="#010101"/></radialGradient><mask id="mask" x="9.12" y="1.09" width="11.31" height="11.1" maskUnits="userSpaceOnUse"><ellipse class="cls-55" cx="14.77" cy="6.64" rx="5.65" ry="5.55"/></mask><linearGradient id="_R_W_h_662" x1="13.13" y1="4.67" x2="6.91" y2="18.29" gradientUnits="userSpaceOnUse"><stop offset="0" stop-color="#f9ff9e"/><stop offset=".09" stop-color="#ecf296"/><stop offset=".25" stop-color="#ccd181"/><stop offset=".47" stop-color="#989b60"/><stop offset=".74" stop-color="#4f5132"/><stop offset="1" stop-color="#010101"/></linearGradient><linearGradient id="_R_W_h_68" x1="13.02" y1="4.88" x2="6.92" y2="18.24" gradientUnits="userSpaceOnUse"><stop offset="0" stop-color="#e2e890"/><stop offset=".1" stop-color="#d5db88"/><stop offset=".27" stop-color="#b5ba73"/><stop offset=".51" stop-color="#818452"/><stop offset=".79" stop-color="#3a3b25"/><stop offset="1" stop-color="#010101"/></linearGradient><linearGradient id="_R_W_h_67" x1="12.9" y1="5.1" x2="6.92" y2="18.19" gradientUnits="userSpaceOnUse"><stop offset="0" stop-color="#ccd181"/><stop offset=".1" stop-color="#bfc479"/><stop offset=".3" stop-color="#9fa364"/><stop offset=".55" stop-color="#6b6d44"/><stop offset=".86" stop-color="#232416"/><stop offset="1" stop-color="#010101"/></linearGradient><linearGradient id="_R_W_h_65" x1="12.78" y1="5.32" x2="6.92" y2="18.15" gradientUnits="userSpaceOnUse"><stop offset="0" stop-color="#b5ba73"/><stop offset=".11" stop-color="#a8ad6b"/><stop offset=".32" stop-color="#888c56"/><stop offset=".61" stop-color="#545635"/><stop offset=".94" stop-color="#0d0d08"/><stop offset="1" stop-color="#010101"/></linearGradient><linearGradient id="_R_W_h_64" x1="12.67" y1="5.53" x2="6.93" y2="18.1" gradientUnits="userSpaceOnUse"><stop offset="0" stop-color="#9fa365"/><stop offset=".13" stop-color="#92965d"/><stop offset=".36" stop-color="#727548"/><stop offset=".67" stop-color="#3e4027"/><stop offset="1" stop-color="#010101"/></linearGradient><linearGradient id="_R_W_h_63" x1="12.55" y1="5.75" x2="6.93" y2="18.05" gradientUnits="userSpaceOnUse"><stop offset="0" stop-color="#888c57"/><stop offset=".14" stop-color="#7b7f4f"/><stop offset=".41" stop-color="#5b5e3a"/><stop offset=".76" stop-color="#28291a"/><stop offset="1" stop-color="#010101"/></linearGradient><linearGradient id="_R_W_h_62" x1="12.43" y1="5.96" x2="6.93" y2="18.01" gradientUnits="userSpaceOnUse"><stop offset="0" stop-color="#727448"/><stop offset=".17" stop-color="#656740"/><stop offset=".47" stop-color="#45462b"/><stop offset=".88" stop-color="#11110b"/><stop offset="1" stop-color="#010101"/></linearGradient><linearGradient id="_R_W_h_61" x1="12.32" y1="6.18" x2="6.94" y2="17.96" gradientUnits="userSpaceOnUse"><stop offset="0" stop-color="#5b5d3a"/><stop offset=".2" stop-color="#4e5032"/><stop offset=".57" stop-color="#2e2f1d"/><stop offset="1" stop-color="#010101"/></linearGradient><linearGradient id="_R_W_h_60" x1="12.2" y1="6.39" x2="6.94" y2="17.91" gradientUnits="userSpaceOnUse"><stop offset="0" stop-color="#45462c"/><stop offset=".25" stop-color="#383924"/><stop offset=".71" stop-color="#18180f"/><stop offset="1" stop-color="#010101"/></linearGradient><linearGradient id="_R_W_h_59" x1="12.08" y1="6.61" x2="6.94" y2="17.87" gradientUnits="userSpaceOnUse"><stop offset="0" stop-color="#2e2f1e"/><stop offset=".35" stop-color="#212216"/><stop offset=".99" stop-color="#010101"/><stop offset="1" stop-color="#010101"/></linearGradient><linearGradient id="_R_W_h_58" x1="11.97" y1="6.83" x2="6.95" y2="17.82" gradientUnits="userSpaceOnUse"><stop offset="0" stop-color="#18180f"/><stop offset=".61" stop-color="#0b0b07"/><stop offset="1" stop-color="#010101"/></linearGradient></defs><g class="cls-74"><g id="Layer_2"><g id="Main_1"><path class="cls-25" d="M19.44,6.84c0,2.56-2.08,4.64-4.64,4.64s-4.64-2.08-4.64-4.64,2.08-4.64,4.64-4.64,4.64,2.08,4.64,4.64Z"/><path class="cls-8" d="M15.57,1.34h-1.55c-.17,0-.32-.23-.22-.34l.87-.85c.07-.08.19-.08.26,0l.77.91c.1.11.02.28-.13.28Z"/><path class="cls-51" d="M14.03,12.34l1.47-.09c.27.04.25.25.15.37l-.73.88c-.07.08-.17.11-.25.03l-.77-.91c-.1-.11-.02-.28.13-.28Z"/><path class="cls-64" d="M12.19,1.94l-1.25.91c-.12.09-.34.07-.35-.25l.17-1.09c0-.11.11-.18.21-.15l1.08.19c.24.07.25.31.14.4Z"/><path class="cls-40" d="M17.3,11.71l1.33-.98c.18-.08.31.07.3.26l-.09,1.19c0,.11-.11.18-.21.15l-1.16-.28c-.16-.03-.28-.26-.16-.34Z"/><path class="cls-54" d="M9.81,4.41l-.48,1.47c-.05.14-.26.2-.39-.06l-.55-.92c-.06-.09-.02-.21.08-.25l1.03-.55c.26-.07.35.17.3.31Z"/><path class="cls-43" d="M19.72,9.18l.55-1.48c.05-.14.2-.13.28,0l.66,1.09c.06.09.02.21-.08.25l-1.11.41c-.14.06-.35.02-.3-.27Z"/><path class="cls-53" d="M9.33,7.81l.48,1.47c.05.14-.09.27-.23.21l-1.13-.48c-.16-.06-.18-.22-.13-.31l.62-1.02c.21-.18.34,0,.39.13Z"/><path class="cls-5" d="M20.19,5.79l-.4-1.38c-.05-.14.09-.27.23-.21l1.03.36c.21.1.19.21.13.3l-.62,1.02c-.08.13-.25.2-.36-.09Z"/><path class="cls-2" d="M10.94,10.84l1.18.81c.17.12.12.35-.02.38l-1.13.26c-.1.02-.24.06-.28-.21l-.02-1.09c-.01-.15.15-.24.27-.15Z"/><path class="cls-9" d="M18.66,2.85l-1.33-1c-.12-.09,0-.18.14-.21l1.08-.37c.22-.02.27.12.29.25l.09,1.19c.01.15-.15.24-.27.15Z"/><path class="cls-49" d="M19.44,6.76c0,2.52-2.08,4.56-4.64,4.56s-4.64-2.04-4.64-4.56,2.08-4.56,4.64-4.56,4.64,2.04,4.64,4.56Z"/><g class="cls-73"><path class="cls-11" d="M19.44,6.76c0,2.52-2.08,4.56-4.64,4.56s-4.64-2.04-4.64-4.56,2.08-4.56,4.64-4.56,4.64,2.04,4.64,4.56Z"/><path class="cls-19" d="M19.36,6.81c0,2.49-2.05,4.51-4.58,4.51s-4.58-2.02-4.58-4.51,2.05-4.51,4.58-4.51,4.58,2.02,4.58,4.51Z"/><path class="cls-10" d="M19.27,6.86c0,2.46-2.03,4.46-4.53,4.46s-4.53-2-4.53-4.46,2.03-4.46,4.53-4.46,4.53,2,4.53,4.46Z"/><path class="cls-12" d="M19.19,6.92c0,2.44-2,4.41-4.47,4.41s-4.47-1.98-4.47-4.41,2-4.41,4.47-4.41,4.47,1.98,4.47,4.41Z"/><path class="cls-1" d="M19.1,6.97c0,2.41-1.98,4.36-4.41,4.36s-4.41-1.95-4.41-4.36,1.98-4.36,4.41-4.36,4.41,1.95,4.41,4.36Z"/><path class="cls-71" d="M19.02,7.02c0,2.38-1.95,4.31-4.36,4.31s-4.36-1.93-4.36-4.31,1.95-4.31,4.36-4.31,4.36,1.93,4.36,4.31Z"/><path class="cls-65" d="M18.93,7.07c0,2.35-1.92,4.26-4.3,4.26s-4.3-1.91-4.3-4.26,1.92-4.26,4.3-4.26,4.3,1.91,4.3,4.26Z"/><ellipse class="cls-52" cx="14.6" cy="7.12" rx="4.24" ry="4.21"/><path class="cls-29" d="M18.76,7.17c0,2.3-1.87,4.17-4.18,4.17s-4.18-1.86-4.18-4.17,1.87-4.17,4.18-4.17,4.18,1.86,4.18,4.17Z"/><path class="cls-60" d="M18.67,7.22c0,2.27-1.85,4.12-4.13,4.12s-4.13-1.84-4.13-4.12,1.85-4.12,4.13-4.12,4.13,1.84,4.13,4.12Z"/><path class="cls-63" d="M18.59,7.28c0,2.25-1.82,4.07-4.07,4.07s-4.07-1.82-4.07-4.07,1.82-4.07,4.07-4.07,4.07,1.82,4.07,4.07Z"/><path class="cls-39" d="M18.5,7.33c0,2.22-1.8,4.02-4.01,4.02s-4.01-1.8-4.01-4.02,1.8-4.02,4.01-4.02,4.01,1.8,4.01,4.02Z"/></g><path class="cls-69" d="M15.5,1.25h-1.55c-.15,0-.23-.17-.13-.28l.77-.91c.07-.08.19-.08.26,0l.77.91c.1.11.02.28-.13.28Z"/><path class="cls-46" d="M13.95,12.25h1.55c.15,0,.23.17.13.28l-.77.91c-.07.08-.19.08-.26,0l-.77-.91c-.1-.11-.02-.28.13-.28Z"/><path class="cls-66" d="M12.12,1.85l-1.25.91c-.12.09-.28,0-.27-.15l.09-1.19c0-.11.11-.18.21-.15l1.16.28c.14.03.18.22.06.31Z"/><path class="cls-59" d="M17.33,11.65l1.25-.91c.12-.09.28,0,.27.15l-.09,1.19c0,.11-.11.18-.21.15l-1.16-.28c-.14-.03-.18-.22-.06-.31Z"/><path class="cls-47" d="M9.73,4.32l-.48,1.47c-.05.14-.23.16-.31.04l-.62-1.02c-.06-.09-.02-.21.08-.25l1.1-.45c.14-.06.27.07.23.21Z"/><path class="cls-50" d="M19.72,9.18l.48-1.47c.05-.14.23-.16.31-.04l.62,1.02c.06.09.02.21-.08.25l-1.1.45c-.14.06-.27-.07-.23-.21Z"/><path class="cls-24" d="M9.26,7.71l.48,1.47c.05.14-.09.27-.23.21l-1.1-.45c-.1-.04-.14-.16-.08-.25l.62-1.02c.08-.13.26-.1.31.04Z"/><path class="cls-36" d="M20.19,5.79l-.48-1.47c-.05-.14.09-.27.23-.21l1.1.45c.1.04.14.16.08.25l-.62,1.02c-.08.13-.27.1-.31-.04Z"/><path class="cls-6" d="M10.87,10.74l1.25.91c.12.09.08.27-.06.31l-1.16.28c-.1.02-.2-.05-.21-.15l-.09-1.19c-.01-.15.15-.24.27-.15Z"/><path class="cls-62" d="M18.58,2.75l-1.25-.91c-.12-.09-.08-.27.06-.31l1.16-.28c.1-.02.2.05.21.15l.09,1.19c.01.15-.15.24-.27.15Z"/><g class="cls-73"><path class="cls-27" d="M15.5,1.25h-1.55c-.15,0-.23-.17-.13-.28l.77-.91c.07-.08.19-.08.26,0l.77.91c.1.11.02.28-.13.28Z"/><path class="cls-67" d="M15.49,1.25h-1.54c-.15,0-.23-.17-.13-.28l.77-.9c.07-.08.19-.08.26,0l.77.9c.09.11.02.28-.13.28Z"/><path class="cls-48" d="M15.48,1.25h-1.53c-.15,0-.22-.17-.13-.28l.77-.89c.07-.08.19-.08.26,0l.77.89c.09.11.02.28-.13.28Z"/><path class="cls-37" d="M15.47,1.25h-1.53c-.14,0-.22-.17-.13-.27l.76-.87c.07-.08.19-.08.26,0l.76.87c.09.11.02.27-.13.27Z"/><path class="cls-20" d="M15.47,1.25h-1.52c-.14,0-.22-.16-.13-.27l.76-.86c.07-.08.19-.08.26,0l.76.86c.09.11.02.27-.13.27Z"/><path class="cls-44" d="M15.46,1.25h-1.51c-.14,0-.22-.16-.13-.27l.76-.85c.07-.08.19-.08.26,0l.76.85c.09.11.02.27-.13.27Z"/><path class="cls-58" d="M15.45,1.25h-1.5c-.14,0-.22-.16-.13-.26l.75-.84c.07-.08.19-.08.25,0l.75.84c.09.1.02.26-.13.26Z"/><path class="cls-16" d="M15.44,1.25h-1.5c-.14,0-.22-.16-.13-.26l.75-.83c.07-.07.19-.07.25,0l.75.83c.09.1.02.26-.13.26Z"/><path class="cls-15" d="M15.44,1.25h-1.49c-.14,0-.22-.16-.13-.26l.75-.82c.07-.07.19-.07.25,0l.75.82c.09.1.02.26-.13.26Z"/><path class="cls-56" d="M15.43,1.25h-1.48c-.14,0-.22-.15-.13-.25l.74-.81c.07-.07.19-.07.25,0l.74.81c.09.1.02.25-.13.25Z"/><path class="cls-14" d="M15.42,1.25h-1.48c-.14,0-.22-.15-.13-.25l.74-.8c.07-.07.18-.07.25,0l.74.8c.09.1.02.25-.13.25Z"/><path class="cls-18" d="M15.41,1.25h-1.47c-.14,0-.22-.15-.12-.25l.74-.79c.07-.07.18-.07.25,0l.74.79c.09.1.02.25-.12.25Z"/></g><g class="cls-73"><path class="cls-27" d="M13.95,12.25h1.55c.15,0,.23.17.13.28l-.77.91c-.07.08-.19.08-.26,0l-.77-.91c-.1-.11-.02-.28.13-.28Z"/><path class="cls-67" d="M13.95,12.25h1.54c.15,0,.23.17.13.28l-.77.9c-.07.08-.19.08-.26,0l-.77-.9c-.09-.11-.02-.28.13-.28Z"/><path class="cls-48" d="M13.95,12.26h1.53c.15,0,.22.17.13.28l-.77.89c-.07.08-.19.08-.26,0l-.77-.89c-.09-.11-.02-.28.13-.28Z"/><path class="cls-37" d="M13.95,12.27h1.53c.14,0,.22.17.13.27l-.76.88c-.07.08-.19.08-.26,0l-.76-.88c-.09-.11-.02-.27.13-.27Z"/><path class="cls-20" d="M13.95,12.27h1.52c.14,0,.22.16.13.27l-.76.87c-.07.08-.19.08-.26,0l-.76-.87c-.09-.11-.02-.27.13-.27Z"/><path class="cls-44" d="M13.95,12.28h1.51c.14,0,.22.16.13.27l-.76.86c-.07.08-.19.08-.26,0l-.76-.86c-.09-.11-.02-.27.13-.27Z"/><path class="cls-58" d="M13.95,12.29h1.5c.14,0,.22.16.13.27l-.75.85c-.07.08-.19.08-.26,0l-.75-.85c-.09-.1-.02-.27.13-.27Z"/><path class="cls-16" d="M13.95,12.29h1.5c.14,0,.22.16.13.26l-.75.84c-.07.07-.19.07-.25,0l-.75-.84c-.09-.1-.02-.26.13-.26Z"/><path class="cls-15" d="M13.95,12.3h1.49c.14,0,.22.16.13.26l-.75.83c-.07.07-.19.07-.25,0l-.75-.83c-.09-.1-.02-.26.13-.26Z"/><path class="cls-56" d="M13.95,12.3h1.48c.14,0,.22.15.13.26l-.74.82c-.07.07-.19.07-.25,0l-.74-.82c-.09-.1-.02-.26.13-.26Z"/><path class="cls-14" d="M13.95,12.31h1.48c.14,0,.22.15.13.25l-.74.81c-.07.07-.18.07-.25,0l-.74-.81c-.09-.1-.02-.25.13-.25Z"/><path class="cls-18" d="M13.95,12.32h1.47c.14,0,.22.15.12.25l-.74.8c-.07.07-.18.07-.25,0l-.74-.8c-.09-.1-.02-.25.12-.25Z"/></g><g class="cls-73"><path class="cls-27" d="M18.58,2.75l-1.25-.91c-.12-.09-.08-.27.06-.31l1.16-.28c.1-.02.2.05.21.15l.09,1.19c.01.15-.15.24-.27.15Z"/><path class="cls-67" d="M18.58,2.75l-1.24-.9c-.12-.09-.08-.27.06-.3l1.15-.27c.1-.02.2.05.21.15l.1,1.18c.01.15-.15.24-.27.15Z"/><path class="cls-48" d="M18.58,2.75l-1.24-.9c-.12-.09-.08-.27.06-.3l1.14-.27c.1-.02.2.05.21.15l.1,1.17c.01.14-.15.23-.27.15Z"/><path class="cls-37" d="M18.58,2.75l-1.23-.9c-.12-.09-.08-.27.06-.3l1.13-.26c.1-.02.2.05.21.15l.1,1.16c.01.14-.15.23-.27.15Z"/><path class="cls-20" d="M18.58,2.75l-1.23-.89c-.12-.08-.08-.26.05-.29l1.12-.25c.1-.02.2.05.21.15l.11,1.15c.01.14-.15.23-.26.14Z"/><path class="cls-44" d="M18.58,2.75l-1.22-.89c-.12-.08-.08-.26.05-.29l1.11-.25c.1-.02.2.05.21.15l.11,1.13c.01.14-.14.23-.26.14Z"/><path class="cls-58" d="M18.58,2.75l-1.22-.88c-.12-.08-.08-.26.05-.29l1.1-.24c.1-.02.2.05.21.15l.11,1.12c.01.14-.14.22-.26.14Z"/><path class="cls-16" d="M18.58,2.75l-1.21-.88c-.12-.08-.08-.26.05-.29l1.1-.23c.1-.02.2.05.21.15l.12,1.11c.01.14-.14.22-.26.14Z"/><path class="cls-15" d="M18.58,2.75l-1.21-.88c-.11-.08-.08-.25.05-.28l1.09-.23c.1-.02.19.05.2.15l.12,1.1c.01.14-.14.22-.25.13Z"/><path class="cls-56" d="M18.58,2.75l-1.2-.87c-.11-.08-.09-.25.05-.28l1.08-.22c.1-.02.19.05.2.15l.12,1.09c.02.13-.14.21-.25.13Z"/><path class="cls-14" d="M18.58,2.74l-1.2-.87c-.11-.08-.09-.25.05-.28l1.07-.21c.09-.02.19.05.2.15l.13,1.08c.02.13-.14.21-.25.13Z"/><path class="cls-18" d="M18.58,2.74l-1.19-.86c-.11-.08-.09-.25.04-.27l1.06-.21c.09-.02.19.05.2.15l.13,1.07c.02.13-.13.21-.25.13Z"/></g><g class="cls-73"><path class="cls-27" d="M10.87,10.74l1.25.91c.12.09.08.27-.06.31l-1.16.28c-.1.02-.2-.05-.21-.15l-.09-1.19c-.01-.15.15-.24.27-.15Z"/><path class="cls-67" d="M10.86,10.76l1.24.9c.12.09.08.27-.06.3l-1.15.27c-.1.02-.2-.05-.21-.15l-.1-1.18c-.01-.15.15-.24.27-.15Z"/><path class="cls-48" d="M10.86,10.77l1.24.9c.12.09.08.27-.06.3l-1.14.27c-.1.02-.2-.05-.21-.15l-.1-1.17c-.01-.14.15-.23.27-.15Z"/><path class="cls-37" d="M10.86,10.78l1.23.9c.12.09.08.27-.06.3l-1.13.26c-.1.02-.2-.05-.21-.15l-.1-1.16c-.01-.14.15-.23.27-.15Z"/><path class="cls-20" d="M10.86,10.79l1.23.89c.12.08.08.26-.06.3l-1.12.25c-.1.02-.2-.05-.21-.15l-.11-1.15c-.01-.14.15-.23.26-.14Z"/><path class="cls-44" d="M10.85,10.8l1.22.89c.12.08.08.26-.05.29l-1.11.25c-.1.02-.2-.05-.21-.15l-.11-1.14c-.01-.14.15-.23.26-.14Z"/><path class="cls-58" d="M10.85,10.81l1.22.88c.12.08.08.26-.05.29l-1.11.24c-.1.02-.2-.05-.21-.15l-.11-1.13c-.01-.14.14-.22.26-.14Z"/><path class="cls-16" d="M10.85,10.83l1.21.88c.12.08.08.26-.05.29l-1.1.24c-.1.02-.2-.05-.21-.15l-.11-1.12c-.01-.14.14-.22.26-.14Z"/><path class="cls-15" d="M10.85,10.84l1.21.88c.11.08.08.26-.05.28l-1.09.23c-.1.02-.19-.05-.2-.15l-.12-1.11c-.01-.14.14-.22.25-.14Z"/><path class="cls-56" d="M10.84,10.85l1.2.87c.11.08.08.25-.05.28l-1.08.22c-.1.02-.19-.05-.2-.15l-.12-1.1c-.01-.14.14-.22.25-.13Z"/><path class="cls-14" d="M10.84,10.86l1.2.87c.11.08.09.25-.05.28l-1.07.22c-.1.02-.19-.05-.2-.15l-.12-1.09c-.02-.13.14-.21.25-.13Z"/><path class="cls-18" d="M10.84,10.87l1.19.86c.11.08.09.25-.05.28l-1.06.21c-.09.02-.19-.05-.2-.15l-.13-1.08c-.02-.13.13-.21.25-.13Z"/></g><g class="cls-73"><path class="cls-27" d="M20.19,5.79l-.48-1.47c-.05-.14.09-.27.23-.21l1.1.45c.1.04.14.16.08.25l-.62,1.02c-.08.13-.27.1-.31-.04Z"/><path class="cls-67" d="M20.19,5.79l-.48-1.46c-.05-.14.09-.27.23-.21l1.09.45c.1.04.14.16.08.25l-.61,1.01c-.08.12-.26.1-.31-.04Z"/><path class="cls-48" d="M20.19,5.79l-.47-1.46c-.04-.14.09-.27.22-.21l1.08.45c.1.04.13.16.08.25l-.61,1c-.07.12-.26.1-.3-.04Z"/><path class="cls-37" d="M20.2,5.79l-.47-1.45c-.04-.14.09-.26.22-.21l1.07.46c.09.04.13.16.08.25l-.6,1c-.07.12-.26.1-.3-.04Z"/><path class="cls-20" d="M20.2,5.79l-.47-1.44c-.04-.14.09-.26.22-.21l1.06.46c.09.04.13.16.08.24l-.59.99c-.07.12-.25.1-.3-.04Z"/><path class="cls-44" d="M20.2,5.8l-.47-1.44c-.04-.14.09-.26.21-.2l1.05.46c.09.04.13.16.08.24l-.58.98c-.07.12-.25.1-.29-.04Z"/><path class="cls-58" d="M20.2,5.8l-.46-1.43c-.04-.14.08-.26.21-.2l1.03.46c.09.04.13.16.08.24l-.57.98c-.07.12-.25.1-.29-.04Z"/><path class="cls-16" d="M20.2,5.8l-.46-1.43c-.04-.14.08-.26.21-.2l1.02.46c.09.04.13.16.08.24l-.56.97c-.07.12-.24.1-.29-.04Z"/><path class="cls-15" d="M20.2,5.8l-.46-1.42c-.04-.13.08-.26.21-.2l1.01.46c.09.04.13.15.08.24l-.55.96c-.07.12-.24.09-.28-.04Z"/><path class="cls-56" d="M20.2,5.8l-.46-1.41c-.04-.13.08-.25.2-.2l1,.46c.09.04.13.15.08.24l-.54.96c-.07.12-.24.09-.28-.04Z"/><path class="cls-14" d="M20.2,5.8l-.46-1.41c-.04-.13.08-.25.2-.2l.99.46c.09.04.12.15.08.24l-.53.95c-.07.12-.23.09-.28-.04Z"/><path class="cls-18" d="M20.2,5.81l-.45-1.4c-.04-.13.08-.25.2-.2l.98.46c.09.04.12.15.08.24l-.52.94c-.06.12-.23.09-.27-.04Z"/></g><g class="cls-73"><path class="cls-27" d="M9.26,7.71l.48,1.47c.05.14-.09.27-.23.21l-1.1-.45c-.1-.04-.14-.16-.08-.25l.62-1.02c.08-.13.26-.1.31.04Z"/><path class="cls-67" d="M9.25,7.72l.48,1.46c.05.14-.09.27-.23.21l-1.09-.45c-.1-.04-.14-.16-.08-.25l.61-1.01c.08-.12.26-.1.31.04Z"/><path class="cls-48" d="M9.24,7.73l.47,1.46c.04.14-.09.27-.22.21l-1.08-.45c-.1-.04-.13-.16-.08-.25l.61-1c.07-.12.26-.1.3.04Z"/><path class="cls-37" d="M9.23,7.74l.47,1.45c.04.14-.09.26-.22.21l-1.07-.45c-.1-.04-.13-.16-.08-.25l.6-1c.07-.12.26-.1.3.04Z"/><path class="cls-20" d="M9.23,7.74l.47,1.44c.04.14-.09.26-.22.21l-1.06-.45c-.09-.04-.13-.16-.08-.24l.59-.99c.07-.12.25-.1.3.04Z"/><path class="cls-44" d="M9.22,7.75l.47,1.44c.04.14-.09.26-.22.2l-1.05-.45c-.09-.04-.13-.16-.08-.24l.58-.98c.07-.12.25-.1.29.04Z"/><path class="cls-58" d="M9.21,7.76l.47,1.43c.04.14-.08.26-.21.2l-1.04-.45c-.09-.04-.13-.16-.08-.24l.57-.98c.07-.12.25-.1.29.04Z"/><path class="cls-16" d="M9.21,7.77l.46,1.42c.04.14-.08.26-.21.2l-1.03-.45c-.09-.04-.13-.16-.08-.24l.56-.97c.07-.12.24-.1.29.04Z"/><path class="cls-15" d="M9.2,7.77l.46,1.42c.04.13-.08.26-.21.2l-1.02-.45c-.09-.04-.13-.15-.08-.24l.56-.96c.07-.12.24-.09.29.04Z"/><path class="cls-56" d="M9.19,7.78l.46,1.41c.04.13-.08.25-.2.2l-1.01-.45c-.09-.04-.13-.15-.08-.24l.55-.96c.07-.12.24-.09.28.04Z"/><path class="cls-14" d="M9.19,7.79l.46,1.41c.04.13-.08.25-.2.2l-.99-.45c-.09-.04-.13-.15-.08-.24l.54-.95c.07-.12.24-.09.28.04Z"/><path class="cls-18" d="M9.18,7.8l.45,1.4c.04.13-.08.25-.2.2l-.98-.45c-.09-.04-.12-.15-.08-.24l.53-.95c.07-.12.23-.09.28.04Z"/></g><g class="cls-73"><path class="cls-27" d="M19.72,9.18l.48-1.47c.05-.14.23-.16.31-.04l.62,1.02c.06.09.02.21-.08.25l-1.1.45c-.14.06-.27-.07-.23-.21Z"/><path class="cls-67" d="M19.72,9.19l.48-1.46c.05-.14.23-.16.31-.04l.61,1.01c.05.09.02.21-.08.25l-1.09.45c-.13.06-.27-.07-.23-.21Z"/><path class="cls-48" d="M19.72,9.19l.47-1.46c.04-.14.23-.16.3-.04l.61,1c.05.09.02.21-.08.25l-1.08.45c-.13.06-.27-.07-.22-.21Z"/><path class="cls-37" d="M19.72,9.19l.47-1.45c.04-.14.23-.16.3-.04l.6,1c.05.09.01.21-.08.25l-1.07.46c-.13.06-.27-.07-.22-.21Z"/><path class="cls-20" d="M19.72,9.19l.47-1.44c.04-.14.22-.16.3-.04l.59.99c.05.09.01.2-.08.24l-1.06.46c-.13.06-.26-.07-.22-.21Z"/><path class="cls-44" d="M19.72,9.19l.47-1.44c.04-.14.22-.16.29-.04l.58.98c.05.09.01.2-.08.24l-1.05.46c-.13.06-.26-.07-.21-.2Z"/><path class="cls-58" d="M19.72,9.2l.47-1.43c.04-.14.22-.16.29-.04l.57.98c.05.09.01.2-.08.24l-1.03.46c-.13.06-.26-.07-.21-.2Z"/><path class="cls-16" d="M19.72,9.2l.46-1.42c.04-.14.22-.16.29-.04l.56.97c.05.09.01.2-.08.24l-1.02.46c-.13.06-.25-.07-.21-.2Z"/><path class="cls-15" d="M19.72,9.2l.46-1.42c.04-.13.22-.16.28-.04l.55.96c.05.09.01.2-.08.24l-1.01.46c-.12.06-.25-.06-.21-.2Z"/><path class="cls-56" d="M19.72,9.2l.46-1.41c.04-.13.21-.16.28-.04l.54.96c.05.09.01.2-.08.24l-1,.46c-.12.06-.25-.06-.2-.2Z"/><path class="cls-14" d="M19.72,9.2l.46-1.41c.04-.13.21-.16.28-.04l.53.95c.05.08.01.2-.08.24l-.99.46c-.12.06-.24-.06-.2-.2Z"/><path class="cls-18" d="M19.72,9.21l.45-1.4c.04-.13.21-.16.27-.04l.52.94c.05.08.01.2-.08.24l-.98.46c-.12.06-.24-.06-.2-.2Z"/></g><g class="cls-73"><path class="cls-27" d="M9.73,4.32l-.48,1.47c-.05.14-.23.16-.31.04l-.62-1.02c-.06-.09-.02-.21.08-.25l1.1-.45c.14-.06.27.07.23.21Z"/><path class="cls-67" d="M9.72,4.32l-.47,1.46c-.05.14-.23.16-.31.04l-.62-1.01c-.05-.09-.02-.21.08-.25l1.09-.45c.13-.06.27.07.23.21Z"/><path class="cls-48" d="M9.71,4.33l-.47,1.45c-.04.14-.23.16-.31.04l-.61-1c-.05-.09-.02-.21.08-.25l1.08-.45c.13-.06.27.07.23.21Z"/><path class="cls-37" d="M9.7,4.34l-.47,1.44c-.04.14-.23.16-.3.04l-.61-.99c-.05-.09-.02-.2.08-.24l1.08-.45c.13-.06.27.07.22.21Z"/><path class="cls-20" d="M9.7,4.34l-.46,1.43c-.04.14-.23.16-.3.04l-.6-.99c-.05-.09-.02-.2.08-.24l1.07-.44c.13-.05.27.07.22.21Z"/><path class="cls-44" d="M9.69,4.35l-.46,1.42c-.04.13-.22.16-.3.04l-.6-.98c-.05-.09-.02-.2.08-.24l1.06-.44c.13-.05.26.07.22.2Z"/><path class="cls-58" d="M9.68,4.36l-.46,1.41c-.04.13-.22.16-.3.04l-.59-.97c-.05-.09-.02-.2.08-.24l1.05-.44c.13-.05.26.07.22.2Z"/><path class="cls-16" d="M9.67,4.36l-.45,1.4c-.04.13-.22.15-.29.04l-.59-.96c-.05-.09-.02-.2.08-.24l1.04-.43c.13-.05.26.07.22.2Z"/><path class="cls-15" d="M9.66,4.37l-.45,1.39c-.04.13-.22.15-.29.04l-.58-.96c-.05-.09-.02-.2.08-.24l1.04-.43c.13-.05.26.07.22.2Z"/><path class="cls-56" d="M9.65,4.37l-.45,1.38c-.04.13-.22.15-.29.04l-.58-.95c-.05-.08-.02-.2.08-.23l1.03-.43c.13-.05.26.07.21.2Z"/><path class="cls-14" d="M9.64,4.38l-.44,1.37c-.04.13-.22.15-.29.03l-.57-.94c-.05-.08-.02-.19.08-.23l1.02-.43c.13-.05.25.07.21.2Z"/><path class="cls-18" d="M9.63,4.39l-.44,1.36c-.04.13-.21.15-.28.03l-.57-.94c-.05-.08-.02-.19.07-.23l1.01-.42c.12-.05.25.07.21.2Z"/></g><g class="cls-73"><path class="cls-27" d="M17.33,11.65l1.25-.91c.12-.09.28,0,.27.15l-.09,1.19c0,.11-.11.18-.21.15l-1.16-.28c-.14-.03-.18-.22-.06-.31Z"/><path class="cls-67" d="M17.33,11.66l1.24-.9c.12-.09.28,0,.27.15l-.1,1.18c0,.1-.11.18-.21.15l-1.15-.27c-.14-.03-.18-.22-.06-.3Z"/><path class="cls-48" d="M17.33,11.66l1.24-.9c.12-.09.28,0,.27.15l-.1,1.17c0,.1-.11.18-.21.15l-1.14-.27c-.14-.03-.18-.22-.06-.3Z"/><path class="cls-37" d="M17.33,11.66l1.23-.9c.12-.09.28,0,.27.15l-.1,1.16c0,.1-.11.18-.21.15l-1.13-.26c-.14-.03-.17-.21-.06-.3Z"/><path class="cls-20" d="M17.33,11.67l1.23-.89c.12-.08.28,0,.26.14l-.11,1.15c0,.1-.11.17-.21.15l-1.12-.25c-.14-.03-.17-.21-.05-.29Z"/><path class="cls-44" d="M17.33,11.67l1.22-.89c.12-.08.27,0,.26.14l-.11,1.13c0,.1-.11.17-.21.15l-1.11-.25c-.14-.03-.17-.21-.05-.29Z"/><path class="cls-58" d="M17.33,11.67l1.22-.88c.12-.08.27,0,.26.14l-.11,1.12c-.01.1-.11.17-.21.15l-1.1-.24c-.14-.03-.17-.2-.05-.29Z"/><path class="cls-16" d="M17.33,11.68l1.21-.88c.12-.08.27,0,.26.14l-.12,1.11c-.01.1-.11.17-.21.15l-1.1-.23c-.14-.03-.17-.2-.05-.29Z"/><path class="cls-15" d="M17.33,11.68l1.21-.88c.11-.08.27,0,.25.13l-.12,1.1c-.01.1-.11.17-.2.15l-1.09-.23c-.13-.03-.16-.2-.05-.28Z"/><path class="cls-56" d="M17.33,11.68l1.2-.87c.11-.08.27,0,.25.13l-.12,1.09c-.01.1-.11.17-.2.15l-1.08-.22c-.13-.03-.16-.2-.05-.28Z"/><path class="cls-14" d="M17.34,11.69l1.2-.87c.11-.08.26,0,.25.13l-.13,1.08c-.01.1-.11.17-.2.15l-1.07-.21c-.13-.03-.16-.19-.05-.28Z"/><path class="cls-18" d="M17.34,11.69l1.19-.86c.11-.08.26,0,.25.13l-.13,1.07c-.01.1-.11.16-.2.15l-1.06-.21c-.13-.03-.16-.19-.04-.27Z"/></g><g class="cls-73"><path class="cls-27" d="M12.12,1.85l-1.25.91c-.12.09-.28,0-.27-.15l.09-1.19c0-.11.11-.18.21-.15l1.16.28c.14.03.18.22.06.31Z"/><path class="cls-67" d="M12.11,1.85l-1.24.9c-.12.09-.28,0-.27-.15l.09-1.18c0-.1.11-.18.21-.15l1.15.28c.14.03.18.22.06.3Z"/><path class="cls-48" d="M12.09,1.85l-1.23.89c-.12.09-.28,0-.27-.15l.09-1.17c0-.1.11-.18.21-.15l1.14.28c.14.03.18.22.06.3Z"/><path class="cls-37" d="M12.08,1.85l-1.22.89c-.12.08-.28,0-.27-.15l.09-1.16c0-.1.11-.17.21-.15l1.13.28c.14.03.18.22.06.3Z"/><path class="cls-20" d="M12.07,1.86l-1.21.88c-.11.08-.28,0-.27-.15l.09-1.15c0-.1.11-.17.21-.15l1.12.27c.14.03.17.21.06.3Z"/><path class="cls-44" d="M12.06,1.86l-1.2.87c-.11.08-.27,0-.26-.15l.08-1.15c0-.1.1-.17.2-.15l1.12.27c.14.03.17.21.06.3Z"/><path class="cls-58" d="M12.05,1.86l-1.19.87c-.11.08-.27,0-.26-.15l.08-1.14c0-.1.1-.17.2-.15l1.11.27c.14.03.17.21.06.29Z"/><path class="cls-16" d="M12.04,1.86l-1.18.86c-.11.08-.27,0-.26-.15l.08-1.13c0-.1.1-.17.2-.15l1.1.27c.14.03.17.21.06.29Z"/><path class="cls-15" d="M12.03,1.87l-1.17.85c-.11.08-.27,0-.26-.15l.08-1.12c0-.1.1-.17.2-.14l1.09.27c.13.03.17.21.06.29Z"/><path class="cls-56" d="M12.02,1.87l-1.16.84c-.11.08-.27,0-.26-.14l.08-1.11c0-.1.1-.17.2-.14l1.08.27c.13.03.17.21.06.29Z"/><path class="cls-14" d="M12.01,1.87l-1.15.84c-.11.08-.26,0-.25-.14l.08-1.1c0-.1.1-.17.2-.14l1.07.27c.13.03.17.21.06.29Z"/><path class="cls-18" d="M12,1.87l-1.14.83c-.11.08-.26,0-.25-.14l.08-1.1c0-.1.1-.16.19-.14l1.07.27c.13.03.17.2.06.28Z"/></g><path class="cls-34" d="M15.87,7.24h0c-.26,0-.54.03-.82.07-.84-2.36-3.09-4.05-5.75-4.05-3.03,0-5.54,2.21-6.02,5.11-1.83.15-3.28,1.67-3.28,3.54,0,1.97,1.6,3.57,3.57,3.57h12.3c2.27,0,4.12-1.84,4.12-4.12s-1.84-4.12-4.12-4.12Z"/><path class="cls-61" d="M15.87,7.17h0c-.26,0-.54.03-.82.07-.84-2.32-3.09-3.99-5.75-3.99-3.03,0-5.54,2.18-6.02,5.02-1.83.15-3.28,1.64-3.28,3.48,0,1.94,1.6,3.51,3.57,3.51h12.3c2.27,0,4.12-1.81,4.12-4.05s-1.84-4.05-4.12-4.05Z"/><g class="cls-75"><g class="cls-76"><ellipse class="cls-72" cx="14.77" cy="6.64" rx="5.65" ry="5.55"/><ellipse class="cls-57" cx="14.77" cy="6.64" rx="5.39" ry="5.3"/><ellipse class="cls-4" cx="14.77" cy="6.64" rx="5.14" ry="5.05"/><path class="cls-68" d="M19.65,6.64c0,2.65-2.18,4.79-4.88,4.79s-4.88-2.15-4.88-4.79S12.07,1.85,14.77,1.85s4.88,2.15,4.88,4.79Z"/><path class="cls-41" d="M19.39,6.64c0,2.51-2.07,4.54-4.62,4.54s-4.62-2.03-4.62-4.54,2.07-4.54,4.62-4.54,4.62,2.03,4.62,4.54Z"/><path class="cls-30" d="M19.13,6.64c0,2.37-1.95,4.29-4.36,4.29s-4.36-1.92-4.36-4.29,1.95-4.29,4.36-4.29,4.36,1.92,4.36,4.29Z"/><path class="cls-42" d="M18.88,6.64c0,2.23-1.84,4.03-4.11,4.03s-4.11-1.81-4.11-4.03,1.84-4.03,4.11-4.03,4.11,1.81,4.11,4.03Z"/><path class="cls-70" d="M18.62,6.64c0,2.09-1.72,3.78-3.85,3.78s-3.85-1.69-3.85-3.78,1.72-3.78,3.85-3.78,3.85,1.69,3.85,3.78Z"/><path class="cls-23" d="M18.36,6.64c0,1.95-1.61,3.53-3.59,3.53s-3.59-1.58-3.59-3.53,1.61-3.53,3.59-3.53,3.59,1.58,3.59,3.53Z"/><path class="cls-45" d="M18.1,6.64c0,1.81-1.49,3.27-3.33,3.27s-3.33-1.47-3.33-3.27,1.49-3.27,3.33-3.27,3.33,1.47,3.33,3.27Z"/></g></g><path class="cls-7" d="M15.87,7.17h0c-.26,0-.54.03-.82.07-.84-2.32-3.09-3.99-5.75-3.99-3.03,0-5.54,2.18-6.02,5.02-1.83.15-3.28,1.64-3.28,3.48,0,1.94,1.6,3.51,3.57,3.51h12.3c2.27,0,4.12-1.81,4.12-4.05s-1.84-4.05-4.12-4.05Z"/><path class="cls-17" d="M15.71,7.35h0c-.26,0-.53.03-.81.07-.81-2.29-3.04-3.93-5.66-3.93-2.99,0-5.44,2.09-5.91,4.89-1.81.14-3.24,1.61-3.24,3.42,0,1.91,1.58,3.45,3.52,3.45h12.14c2.24,0,4.06-1.77,4.05-3.97,0-2.16-1.85-3.94-4.09-3.94Z"/><path class="cls-38" d="M15.55,7.54h0c-.25,0-.52.03-.8.07-.77-2.25-2.99-3.88-5.57-3.88-2.95,0-5.34,2-5.8,4.76-1.78.14-3.19,1.59-3.19,3.37,0,1.88,1.55,3.4,3.47,3.4h11.97c2.21,0,4.01-1.73,3.99-3.89-.01-2.09-1.85-3.83-4.07-3.83Z"/><path class="cls-13" d="M15.38,7.72h0c-.25,0-.52.03-.79.07-.73-2.21-2.94-3.82-5.49-3.82-2.91,0-5.23,1.91-5.69,4.63-1.76.14-3.15,1.56-3.15,3.31,0,1.85,1.53,3.34,3.42,3.34h11.81c2.18,0,3.95-1.69,3.92-3.82-.02-2.01-1.86-3.71-4.04-3.71Z"/><path class="cls-35" d="M15.22,7.91h0c-.25,0-.51.03-.78.07-.69-2.18-2.89-3.77-5.4-3.77-2.87,0-5.13,1.83-5.58,4.5-1.74.14-3.11,1.54-3.11,3.26,0,1.82,1.51,3.29,3.38,3.29h11.65c2.15,0,3.9-1.64,3.86-3.74-.03-1.94-1.86-3.6-4.01-3.6Z"/><path class="cls-33" d="M15.06,8.09h0c-.24,0-.5.03-.77.07-.65-2.14-2.84-3.72-5.32-3.72-2.83,0-5.03,1.74-5.47,4.36-1.71.13-3.06,1.51-3.06,3.21,0,1.79,1.49,3.23,3.33,3.23h11.48c2.12,0,3.84-1.6,3.79-3.66-.04-1.86-1.87-3.49-3.99-3.49Z"/><path class="cls-21" d="M14.9,8.28h0c-.24,0-.5.03-.76.07-.62-2.1-2.79-3.66-5.23-3.66-2.79,0-4.92,1.65-5.36,4.23-1.69.13-3.02,1.48-3.02,3.15,0,1.75,1.47,3.18,3.28,3.18h11.32c2.09,0,3.79-1.56,3.73-3.59-.04-1.79-1.87-3.38-3.96-3.38Z"/><path class="cls-28" d="M14.74,8.46h0c-.24,0-.49.03-.75.06-.58-2.07-2.74-3.61-5.15-3.61-2.75,0-4.82,1.56-5.25,4.1-1.66.13-2.98,1.46-2.98,3.1,0,1.72,1.45,3.12,3.24,3.12h11.16c2.06,0,3.73-1.52,3.66-3.51-.05-1.72-1.87-3.27-3.94-3.27Z"/><path class="cls-3" d="M14.58,8.65h0c-.23,0-.48.03-.73.06-.54-2.03-2.69-3.55-5.06-3.55-2.71,0-4.72,1.48-5.14,3.97-1.64.13-2.93,1.43-2.93,3.04,0,1.69,1.43,3.07,3.19,3.07h11c2.03,0,3.68-1.48,3.6-3.43-.06-1.64-1.88-3.16-3.91-3.16Z"/><path class="cls-22" d="M14.42,8.83h0c-.23,0-.47.02-.72.06-.5-1.99-2.64-3.5-4.97-3.5-2.67,0-4.61,1.39-5.03,3.84-1.61.12-2.89,1.41-2.89,2.99,0,1.66,1.41,3.01,3.14,3.01h10.83c2,0,3.62-1.44,3.53-3.35-.07-1.57-1.88-3.05-3.88-3.05Z"/><path class="cls-31" d="M14.26,9.02h0c-.23,0-.47.02-.71.06-.47-1.96-2.59-3.44-4.89-3.44-2.63,0-4.51,1.3-4.93,3.7-1.59.12-2.85,1.38-2.85,2.93,0,1.63,1.38,2.96,3.09,2.96h10.67c1.97,0,3.57-1.39,3.47-3.28-.07-1.49-1.89-2.94-3.86-2.94Z"/><path class="cls-32" d="M14.1,9.2h0c-.22,0-.46.02-.7.06-.43-1.92-2.54-3.39-4.8-3.39-2.59,0-4.41,1.21-4.82,3.57-1.57.12-2.8,1.36-2.8,2.88,0,1.6,1.36,2.9,3.05,2.9h10.51c1.94,0,3.51-1.35,3.4-3.2-.08-1.42-1.89-2.82-3.83-2.82Z"/></g></g></g></svg>