<?xml version="1.0" encoding="UTF-8"?><svg xmlns="http://www.w3.org/2000/svg" xmlns:xlink="http://www.w3.org/1999/xlink" viewBox="0 0 21.44 12.18"><defs><style>.cls-1{fill:url(#_R_W_h_6);}.cls-1,.cls-2,.cls-3,.cls-4,.cls-5,.cls-6,.cls-7,.cls-8,.cls-9,.cls-10,.cls-11,.cls-12,.cls-13,.cls-14,.cls-15,.cls-16,.cls-17,.cls-18,.cls-19,.cls-20,.cls-21,.cls-22,.cls-23,.cls-24,.cls-25,.cls-26,.cls-27,.cls-28,.cls-29,.cls-30,.cls-31,.cls-32,.cls-33,.cls-34,.cls-35,.cls-36,.cls-37,.cls-38{stroke-width:0px;}.cls-1,.cls-3,.cls-4,.cls-5,.cls-7,.cls-9,.cls-11,.cls-12,.cls-14,.cls-15,.cls-16,.cls-17,.cls-18,.cls-39,.cls-25,.cls-27,.cls-29,.cls-31,.cls-32,.cls-34,.cls-35,.cls-36,.cls-37,.cls-38{mix-blend-mode:screen;}.cls-1,.cls-31{opacity:.28;}.cls-2{fill:#151519;}.cls-3{fill:url(#_R_W_h_53);}.cls-3,.cls-29{opacity:.6;}.cls-4{fill:url(#_R_W_h_3);}.cls-4,.cls-27{opacity:.2;}.cls-5{fill:url(#_R_W_h_44);}.cls-5,.cls-37{opacity:.68;}.cls-6{fill:url(#_R_W_h_1436-2);}.cls-7{fill:url(#_R_W_h_52);}.cls-7,.cls-14{opacity:.52;}.cls-8{fill:#3e3c49;}.cls-9{fill:url(#_R_W_h_9);}.cls-9,.cls-35{opacity:.44;}.cls-10,.cls-15{fill:#010101;}.cls-40{isolation:isolate;}.cls-11{fill:url(#_R_W_h_47);}.cls-11,.cls-36{opacity:.92;}.cls-12{fill:url(#_R_W_h_50);}.cls-12,.cls-17{opacity:.36;}.cls-13{fill:none;}.cls-14{fill:url(#_R_W_h_12);}.cls-15{opacity:.12;}.cls-16{fill:url(#_R_W_h_803);}.cls-17{fill:url(#_R_W_h_7);}.cls-18{fill:url(#_R_W_h_55);}.cls-18,.cls-38{opacity:.76;}.cls-19{fill:url(#_R_W_h_1436);}.cls-20{fill:#a49dc2;}.cls-21{fill:#524f61;}.cls-22{fill:url(#_R_W_h_3425);}.cls-23{fill:#7b7692;}.cls-41{clip-path:url(#clippath);}.cls-24{fill:#2a2831;}.cls-25{fill:url(#_R_W_h_771);}.cls-26{fill:#8f8aaa;}.cls-27{fill:url(#_R_W_h_48);}.cls-28{fill:url(#_R_W_h_1654);}.cls-29{fill:url(#_R_W_h_37);}.cls-30{fill:#67637a;}.cls-31{fill:url(#_R_W_h_49);}.cls-32{fill:url(#_R_W_h_56);}.cls-32,.cls-34{opacity:.84;}.cls-33{fill:#b8b1da;}.cls-34{fill:url(#_R_W_h_46);}.cls-35{fill:url(#_R_W_h_51);}.cls-36{fill:url(#_R_W_h_57);}.cls-37{fill:url(#_R_W_h_54);}.cls-38{fill:url(#_R_W_h_45);}</style><linearGradient id="_R_W_h_1436" x1="6.85" y1="4.46" x2="21.44" y2="4.46" gradientUnits="userSpaceOnUse"><stop offset="0" stop-color="#f4fbfb"/><stop offset=".61" stop-color="#fbfbfb"/><stop offset=".8" stop-color="#f6fafa"/><stop offset="1" stop-color="#eaf8f9"/></linearGradient><radialGradient id="_R_W_h_3425" cx="17.49" cy="-.4" fx="17.49" fy="-.4" r="17.46" gradientUnits="userSpaceOnUse"><stop offset="0" stop-color="#efecfd"/><stop offset=".04" stop-color="#edeafd"/><stop offset=".35" stop-color="#e8e4fd"/><stop offset=".74" stop-color="#e3d8fc"/><stop offset="1" stop-color="#e0cefc"/></radialGradient><linearGradient id="_R_W_h_803" x1="16.44" y1="1.03" x2="11.9" y2="10.97" gradientUnits="userSpaceOnUse"><stop offset="0" stop-color="#948cfa"/><stop offset=".09" stop-color="#8c85ed"/><stop offset=".26" stop-color="#7972cc"/><stop offset=".48" stop-color="#595496"/><stop offset=".74" stop-color="#2e2b4d"/><stop offset="1" stop-color="#010101"/></linearGradient><linearGradient id="_R_W_h_57" x1="16.35" y1="1.19" x2="11.9" y2="10.94" gradientUnits="userSpaceOnUse"><stop offset="0" stop-color="#877fe3"/><stop offset=".1" stop-color="#7f78d6"/><stop offset=".28" stop-color="#6b65b5"/><stop offset=".52" stop-color="#4c477f"/><stop offset=".8" stop-color="#201e36"/><stop offset="1" stop-color="#010101"/></linearGradient><linearGradient id="_R_W_h_56" x1="16.27" y1="1.34" x2="11.9" y2="10.91" gradientUnits="userSpaceOnUse"><stop offset="0" stop-color="#7973cd"/><stop offset=".11" stop-color="#716cc0"/><stop offset=".3" stop-color="#5e599f"/><stop offset=".56" stop-color="#3e3b69"/><stop offset=".87" stop-color="#131220"/><stop offset="1" stop-color="#010101"/></linearGradient><linearGradient id="_R_W_h_55" x1="16.18" y1="1.5" x2="11.9" y2="10.87" gradientUnits="userSpaceOnUse"><stop offset="0" stop-color="#6c66b6"/><stop offset=".12" stop-color="#645fa9"/><stop offset=".33" stop-color="#514c88"/><stop offset=".62" stop-color="#312e52"/><stop offset=".96" stop-color="#060509"/><stop offset="1" stop-color="#010101"/></linearGradient><linearGradient id="_R_W_h_54" x1="16.1" y1="1.65" x2="11.91" y2="10.84" gradientUnits="userSpaceOnUse"><stop offset="0" stop-color="#5f599f"/><stop offset=".13" stop-color="#575292"/><stop offset=".37" stop-color="#433f71"/><stop offset=".68" stop-color="#24223c"/><stop offset="1" stop-color="#010101"/></linearGradient><linearGradient id="_R_W_h_53" x1="16.02" y1="1.81" x2="11.91" y2="10.8" gradientUnits="userSpaceOnUse"><stop offset="0" stop-color="#514d89"/><stop offset=".15" stop-color="#49467c"/><stop offset=".41" stop-color="#36335b"/><stop offset=".77" stop-color="#171526"/><stop offset="1" stop-color="#010101"/></linearGradient><linearGradient id="_R_W_h_52" x1="15.93" y1="1.96" x2="11.91" y2="10.77" gradientUnits="userSpaceOnUse"><stop offset="0" stop-color="#444072"/><stop offset=".17" stop-color="#3c3965"/><stop offset=".48" stop-color="#292644"/><stop offset=".9" stop-color="#09090f"/><stop offset="1" stop-color="#010101"/></linearGradient><linearGradient id="_R_W_h_51" x1="15.85" y1="2.12" x2="11.91" y2="10.74" gradientUnits="userSpaceOnUse"><stop offset="0" stop-color="#36345c"/><stop offset=".2" stop-color="#2e2d4f"/><stop offset=".57" stop-color="#1b1a2e"/><stop offset="1" stop-color="#010101"/></linearGradient><linearGradient id="_R_W_h_50" x1="15.76" y1="2.27" x2="11.91" y2="10.7" gradientUnits="userSpaceOnUse"><stop offset="0" stop-color="#292745"/><stop offset=".26" stop-color="#212038"/><stop offset=".72" stop-color="#0e0d17"/><stop offset="1" stop-color="#010101"/></linearGradient><linearGradient id="_R_W_h_49" x1="15.68" y1="2.42" x2="11.92" y2="10.67" gradientUnits="userSpaceOnUse"><stop offset="0" stop-color="#1c1a2e"/><stop offset=".36" stop-color="#141321"/><stop offset="1" stop-color="#010101"/></linearGradient><linearGradient id="_R_W_h_48" x1="15.6" y1="2.58" x2="11.92" y2="10.63" gradientUnits="userSpaceOnUse"><stop offset="0" stop-color="#0e0e18"/><stop offset=".61" stop-color="#06060b"/><stop offset="1" stop-color="#010101"/></linearGradient><linearGradient id="_R_W_h_1436-2" x1="0" y1="6.51" x2="18.54" y2="6.51" xlink:href="#_R_W_h_1436"/><radialGradient id="_R_W_h_1654" cx="13.53" cy=".34" fx="13.53" fy=".34" r="22.18" gradientUnits="userSpaceOnUse"><stop offset="0" stop-color="#f7f6ff"/><stop offset="0" stop-color="#f6f5fe"/><stop offset=".35" stop-color="#f1effd"/><stop offset=".7" stop-color="#e5e3f1"/><stop offset="1" stop-color="#d8d7e4"/></radialGradient><clipPath id="clippath"><path class="cls-13" d="M14.72,4.48h0c-.24,0-.5.03-.76.07-.26-.7-.65-1.34-1.15-1.89-1.03-1.11-2.52-1.81-4.17-1.81C5.81.85,3.48,2.87,3.04,5.51c-1.7.13-3.04,1.52-3.04,3.23,0,1.8,1.48,3.25,3.31,3.25h11.41c2.11,0,3.82-1.68,3.82-3.75s-1.71-3.75-3.82-3.75Z"/></clipPath><linearGradient id="_R_W_h_771" x1="12.18" y1="2.16" x2="6.41" y2="14.79" gradientUnits="userSpaceOnUse"><stop offset="0" stop-color="#bab6fb"/><stop offset=".09" stop-color="#b0acee"/><stop offset=".26" stop-color="#9894cd"/><stop offset=".48" stop-color="#706e97"/><stop offset=".74" stop-color="#3a394e"/><stop offset="1" stop-color="#010101"/></linearGradient><linearGradient id="_R_W_h_47" x1="12.08" y1="2.35" x2="6.42" y2="14.75" gradientUnits="userSpaceOnUse"><stop offset="0" stop-color="#a9a6e4"/><stop offset=".1" stop-color="#9f9cd7"/><stop offset=".28" stop-color="#8784b6"/><stop offset=".51" stop-color="#5f5d80"/><stop offset=".8" stop-color="#292837"/><stop offset="1" stop-color="#010101"/></linearGradient><linearGradient id="_R_W_h_46" x1="11.97" y1="2.55" x2="6.42" y2="14.7" gradientUnits="userSpaceOnUse"><stop offset="0" stop-color="#9895ce"/><stop offset=".11" stop-color="#8e8cc1"/><stop offset=".3" stop-color="#7674a0"/><stop offset=".56" stop-color="#4e4d6a"/><stop offset=".87" stop-color="#191821"/><stop offset="1" stop-color="#010101"/></linearGradient><linearGradient id="_R_W_h_45" x1="11.86" y1="2.75" x2="6.42" y2="14.66" gradientUnits="userSpaceOnUse"><stop offset="0" stop-color="#8885b7"/><stop offset=".12" stop-color="#7e7baa"/><stop offset=".33" stop-color="#666389"/><stop offset=".61" stop-color="#3e3d53"/><stop offset=".96" stop-color="#08080a"/><stop offset="1" stop-color="#010101"/></linearGradient><linearGradient id="_R_W_h_44" x1="11.75" y1="2.95" x2="6.43" y2="14.62" gradientUnits="userSpaceOnUse"><stop offset="0" stop-color="#7774a0"/><stop offset=".13" stop-color="#6d6a93"/><stop offset=".37" stop-color="#555372"/><stop offset=".68" stop-color="#2d2c3d"/><stop offset="1" stop-color="#010101"/></linearGradient><linearGradient id="_R_W_h_37" x1="11.65" y1="3.14" x2="6.43" y2="14.57" gradientUnits="userSpaceOnUse"><stop offset="0" stop-color="#666489"/><stop offset=".15" stop-color="#5c5a7c"/><stop offset=".41" stop-color="#44425b"/><stop offset=".77" stop-color="#1c1c26"/><stop offset="1" stop-color="#010101"/></linearGradient><linearGradient id="_R_W_h_12" x1="11.54" y1="3.34" x2="6.43" y2="14.53" gradientUnits="userSpaceOnUse"><stop offset="0" stop-color="#555373"/><stop offset=".17" stop-color="#4b4a66"/><stop offset=".48" stop-color="#333245"/><stop offset=".89" stop-color="#0c0c10"/><stop offset="1" stop-color="#010101"/></linearGradient><linearGradient id="_R_W_h_9" x1="11.43" y1="3.54" x2="6.43" y2="14.49" gradientUnits="userSpaceOnUse"><stop offset="0" stop-color="#44435c"/><stop offset=".2" stop-color="#3a394f"/><stop offset=".57" stop-color="#22222e"/><stop offset="1" stop-color="#010101"/></linearGradient><linearGradient id="_R_W_h_7" x1="11.33" y1="3.73" x2="6.44" y2="14.45" gradientUnits="userSpaceOnUse"><stop offset="0" stop-color="#333245"/><stop offset=".26" stop-color="#292938"/><stop offset=".72" stop-color="#111117"/><stop offset="1" stop-color="#010101"/></linearGradient><linearGradient id="_R_W_h_6" x1="11.22" y1="3.93" x2="6.44" y2="14.4" gradientUnits="userSpaceOnUse"><stop offset="0" stop-color="#23222e"/><stop offset=".36" stop-color="#191821"/><stop offset="1" stop-color="#010101"/></linearGradient><linearGradient id="_R_W_h_3" x1="11.11" y1="4.13" x2="6.44" y2="14.36" gradientUnits="userSpaceOnUse"><stop offset="0" stop-color="#121118"/><stop offset=".61" stop-color="#08080b"/><stop offset="1" stop-color="#010101"/></linearGradient></defs><g class="cls-40"><g id="Layer_2"><g id="Main_1"><path class="cls-19" d="M18.43,2.91h0c-.19,0-.39.02-.6.05-.62-1.72-2.26-2.96-4.19-2.96-2.21,0-4.05,1.62-4.39,3.73-1.34.11-2.39,1.22-2.39,2.58,0,1.44,1.17,2.6,2.6,2.6h8.98c1.66,0,3.01-1.35,3.01-3.01s-1.35-3.01-3.01-3.01Z"/><path class="cls-22" d="M18.43,2.86h0c-.19,0-.39.02-.6.05-.62-1.69-2.26-2.91-4.19-2.91-2.21,0-4.05,1.59-4.39,3.67-1.34.11-2.39,1.2-2.39,2.54,0,1.41,1.17,2.56,2.6,2.56h8.98c1.66,0,3.01-1.32,3.01-2.96s-1.35-2.96-3.01-2.96Z"/><path class="cls-16" d="M18.43,2.86h0c-.19,0-.39.02-.6.05-.62-1.69-2.26-2.91-4.19-2.91-2.21,0-4.05,1.59-4.39,3.67-1.34.11-2.39,1.2-2.39,2.54,0,1.41,1.17,2.56,2.6,2.56h8.98c1.66,0,3.01-1.32,3.01-2.96s-1.35-2.96-3.01-2.96Z"/><path class="cls-36" d="M18.32,2.99h0s0,0,0,0h0c-.19,0-.38.03-.59.04-.59-1.67-2.22-2.86-4.13-2.86-2.18,0-3.97,1.52-4.31,3.57-1.32.1-2.36,1.18-2.36,2.5,0,1.39,1.15,2.52,2.57,2.52h8.86c1.64,0,2.97-1.29,2.96-2.9,0-1.58-1.34-2.87-2.98-2.87Z"/><path class="cls-32" d="M18.21,3.13h-.01s-.02,0-.02,0c-.19,0-.37.03-.58.02-.56-1.64-2.17-2.8-4.06-2.8-2.15,0-3.9,1.46-4.23,3.48-1.3.1-2.33,1.16-2.33,2.46,0,1.37,1.13,2.48,2.53,2.48h8.74c1.62,0,2.93-1.26,2.91-2.84-.01-1.52-1.34-2.79-2.95-2.79Z"/><path class="cls-18" d="M18.1,3.27h-.02s-.03,0-.03,0c-.18,0-.35.04-.57,0-.53-1.62-2.13-2.75-3.99-2.75-2.13,0-3.82,1.4-4.15,3.38-1.29.1-2.3,1.14-2.3,2.42,0,1.35,1.12,2.44,2.5,2.44h8.62c1.59,0,2.88-1.23,2.86-2.79-.02-1.47-1.33-2.71-2.93-2.71Z"/><path class="cls-37" d="M17.99,3.4h-.02s-.04.01-.04.01c-.18,0-.34.05-.56-.02-.51-1.59-2.09-2.7-3.92-2.7-2.1,0-3.74,1.33-4.07,3.28-1.27.1-2.27,1.12-2.27,2.38,0,1.33,1.1,2.4,2.47,2.4h8.5c1.57,0,2.84-1.2,2.82-2.73-.02-1.42-1.33-2.62-2.9-2.62Z"/><path class="cls-3" d="M17.88,3.54h-.03s-.05.01-.05.01c-.18,0-.33.05-.55-.04-.48-1.56-2.05-2.64-3.85-2.64-2.07,0-3.67,1.27-3.99,3.19-1.25.1-2.24,1.1-2.24,2.34,0,1.3,1.09,2.36,2.43,2.36h8.38c1.55,0,2.8-1.17,2.77-2.67-.03-1.36-1.32-2.54-2.87-2.54Z"/><path class="cls-7" d="M17.77,3.68h-.03s0,0,0,0h-.06c-.18.01-.32.07-.54-.05-.45-1.54-2.01-2.59-3.79-2.59-2.04,0-3.59,1.21-3.91,3.09-1.23.1-2.2,1.08-2.2,2.3,0,1.28,1.07,2.32,2.4,2.32h8.27c1.53,0,2.76-1.14,2.72-2.62-.03-1.31-1.32-2.46-2.85-2.46Z"/><path class="cls-35" d="M17.66,3.81h-.04s0,0,0,0h0l-.07.02c-.17,0-.3.06-.53-.08-.42-1.51-1.96-2.54-3.72-2.54-2.01,0-3.52,1.14-3.84,2.99-1.21.09-2.17,1.06-2.17,2.26,0,1.26,1.06,2.28,2.36,2.28h8.15c1.51,0,2.72-1.11,2.67-2.56-.04-1.25-1.31-2.37-2.82-2.37Z"/><path class="cls-12" d="M17.56,3.95h-.04s-.07.02-.07.02c-.17,0-.29.07-.52-.1-.4-1.48-1.92-2.49-3.65-2.49-1.98,0-3.44,1.08-3.76,2.9-1.2.09-2.14,1.05-2.14,2.22,0,1.24,1.04,2.24,2.33,2.24h8.03c1.48,0,2.68-1.08,2.63-2.5-.04-1.2-1.31-2.29-2.79-2.29Z"/><path class="cls-31" d="M17.45,4.09h-.05s-.08.03-.08.03c-.17,0-.28.08-.52-.12-.37-1.46-1.88-2.43-3.58-2.43-1.95,0-3.37,1.01-3.68,2.8-1.18.09-2.11,1.03-2.11,2.18,0,1.21,1.03,2.2,2.29,2.2h7.91c1.46,0,2.64-1.05,2.58-2.45-.05-1.15-1.31-2.21-2.77-2.21Z"/><path class="cls-27" d="M17.34,4.22h-.05s-.09.03-.09.03c-.17,0-.27.08-.51-.14-.34-1.43-1.84-2.38-3.51-2.38-1.92,0-3.29.95-3.6,2.7-1.16.09-2.08,1.01-2.08,2.14,0,1.19,1.01,2.16,2.26,2.16h7.79c1.44,0,2.6-1.02,2.53-2.39-.05-1.09-1.3-2.13-2.74-2.13Z"/><path class="cls-15" d="M17.23,4.36h-.06s-.1.03-.1.03c-.16,0-.25.09-.5-.15-.31-1.4-1.79-2.33-3.45-2.33-1.89,0-3.22.89-3.52,2.61-1.14.09-2.05.99-2.05,2.1,0,1.17,1,2.12,2.22,2.12h7.67c1.42,0,2.56-.99,2.49-2.34-.06-1.04-1.3-2.04-2.71-2.04Z"/><path class="cls-6" d="M14.72,4.54h0c-.24,0-.5.03-.76.07-.78-2.19-2.87-3.76-5.33-3.76C5.81.85,3.48,2.9,3.04,5.59c-1.7.14-3.04,1.55-3.04,3.28,0,1.83,1.48,3.31,3.31,3.31h11.41c2.11,0,3.82-1.71,3.82-3.82s-1.71-3.82-3.82-3.82Z"/><path class="cls-28" d="M14.72,4.48h0c-.24,0-.5.03-.76.07-.78-2.15-2.87-3.7-5.33-3.7C5.81.85,3.48,2.87,3.04,5.51c-1.7.13-3.04,1.52-3.04,3.23,0,1.8,1.48,3.25,3.31,3.25h11.41c2.11,0,3.82-1.68,3.82-3.75s-1.71-3.75-3.82-3.75Z"/><g class="cls-41"><g class="cls-39"><path class="cls-10" d="M9.35,9.8c-1.9,0-3.44-1.52-3.44-3.4,0-1.54,1.08-2.87,2.54-3.27.64-2.23,2.69-3.79,5.09-3.79,2.01,0,3.83,1.13,4.73,2.87.03,0,.05,0,.08,0,2.12,0,3.85,1.7,3.85,3.8s-1.73,3.8-3.85,3.8h-9Z"/><path class="cls-2" d="M9.44,9.68c-1.85,0-3.35-1.48-3.35-3.3,0-1.49,1.05-2.79,2.47-3.17.62-2.16,2.62-3.67,4.95-3.67,1.95,0,3.72,1.09,4.59,2.78.03,0,.05,0,.08,0,2.06,0,3.74,1.65,3.74,3.68s-1.68,3.68-3.74,3.68h-8.75Z"/><path class="cls-24" d="M9.52,9.56c-1.79,0-3.25-1.43-3.25-3.2,0-1.45,1.02-2.7,2.4-3.07.6-2.09,2.54-3.56,4.81-3.56,1.89,0,3.62,1.06,4.46,2.69.03,0,.05,0,.08,0,2,0,3.63,1.6,3.63,3.57s-1.63,3.57-3.63,3.57h-8.49Z"/><path class="cls-8" d="M9.61,9.44c-1.74,0-3.15-1.39-3.15-3.09,0-1.4.99-2.62,2.33-2.97C9.37,1.34,11.25-.08,13.45-.08c1.84,0,3.51,1.03,4.33,2.61.03,0,.05,0,.07,0,1.94,0,3.52,1.55,3.52,3.45s-1.58,3.45-3.52,3.45h-8.24Z"/><path class="cls-21" d="M9.69,9.31c-1.68,0-3.05-1.34-3.05-2.99,0-1.36.95-2.53,2.26-2.88C9.46,1.48,11.29.11,13.41.11c1.78,0,3.4.99,4.19,2.52.02,0,.05,0,.07,0,1.88,0,3.41,1.5,3.41,3.34s-1.53,3.34-3.41,3.34h-7.98Z"/><path class="cls-30" d="M9.78,9.19c-1.63,0-2.96-1.3-2.96-2.89,0-1.31.92-2.44,2.19-2.78.55-1.89,2.31-3.22,4.37-3.22,1.72,0,3.29.96,4.06,2.44.02,0,.05,0,.07,0,1.82,0,3.3,1.45,3.3,3.23s-1.48,3.23-3.3,3.23h-7.73Z"/><path class="cls-23" d="M9.86,9.07c-1.58,0-2.86-1.25-2.86-2.79,0-1.26.89-2.36,2.11-2.68.53-1.83,2.24-3.11,4.23-3.11,1.67,0,3.18.93,3.92,2.35.02,0,.05,0,.07,0,1.76,0,3.19,1.4,3.19,3.11s-1.43,3.11-3.19,3.11h-7.48Z"/><path class="cls-26" d="M9.95,8.95c-1.52,0-2.76-1.21-2.76-2.69,0-1.22.86-2.27,2.04-2.58.51-1.76,2.16-2.99,4.09-2.99,1.61,0,3.07.89,3.79,2.26.02,0,.04,0,.07,0,1.7,0,3.09,1.35,3.09,3s-1.38,3-3.09,3h-7.22Z"/><path class="cls-20" d="M10.04,8.82c-1.47,0-2.66-1.16-2.66-2.58,0-1.17.83-2.19,1.97-2.48.5-1.69,2.09-2.88,3.94-2.88,1.55,0,2.97.86,3.66,2.18.02,0,.04,0,.06,0,1.64,0,2.98,1.29,2.98,2.89s-1.34,2.89-2.98,2.89h-6.97Z"/><path class="cls-33" d="M10.12,8.7c-1.42,0-2.57-1.11-2.57-2.48,0-1.13.8-2.1,1.9-2.39.48-1.63,2.01-2.77,3.8-2.77,1.5,0,2.86.82,3.52,2.09.02,0,.04,0,.06,0,1.58,0,2.87,1.24,2.87,2.77s-1.29,2.77-2.87,2.77h-6.71Z"/></g></g><path class="cls-25" d="M14.72,4.48h0c-.24,0-.5.03-.76.07-.78-2.15-2.87-3.7-5.33-3.7C5.81.85,3.49,2.87,3.04,5.51,1.34,5.64,0,7.03,0,8.74,0,10.53,1.48,11.99,3.31,11.99h11.41c2.11,0,3.82-1.68,3.82-3.75s-1.71-3.75-3.82-3.75Z"/><path class="cls-11" d="M14.58,4.65h0s-.01,0-.01,0c-.24,0-.48.03-.75.04-.75-2.12-2.82-3.63-5.24-3.63-2.78,0-5.04,1.94-5.48,4.54C1.41,5.74.08,7.1.08,8.78c0,1.77,1.46,3.2,3.26,3.2h11.26c2.08,0,3.77-1.64,3.76-3.68,0-2-1.7-3.65-3.78-3.65Z"/><path class="cls-34" d="M14.44,4.83h-.01s-.02,0-.02,0c-.24,0-.47.04-.74.02-.71-2.09-2.76-3.56-5.16-3.56-2.74,0-4.95,1.86-5.38,4.42-1.66.13-2.96,1.47-2.96,3.13,0,1.74,1.44,3.15,3.22,3.15h11.11c2.05,0,3.72-1.6,3.7-3.61-.01-1.94-1.7-3.54-3.75-3.54Z"/><path class="cls-38" d="M14.3,5h-.02s0,0,0,0h0s-.04,0-.04,0c-.23,0-.45.05-.73,0-.68-2.05-2.71-3.49-5.07-3.49-2.7,0-4.85,1.77-5.28,4.29-1.63.13-2.92,1.45-2.92,3.07,0,1.71,1.42,3.1,3.18,3.1h10.95c2.02,0,3.67-1.56,3.64-3.54-.02-1.87-1.69-3.44-3.72-3.44Z"/><path class="cls-5" d="M14.16,5.17h-.03s0,0,0,0h0s-.05.01-.05.01c-.23,0-.43.06-.71-.03-.64-2.02-2.65-3.43-4.98-3.43-2.66,0-4.76,1.69-5.18,4.17-1.61.13-2.88,1.42-2.88,3.02,0,1.68,1.4,3.05,3.13,3.05h10.8c2,0,3.61-1.53,3.58-3.47-.03-1.8-1.69-3.33-3.68-3.33Z"/><path class="cls-29" d="M14.02,5.35h-.03s-.06.02-.06.02c-.23,0-.42.07-.7-.05-.61-1.98-2.6-3.36-4.9-3.36-2.63,0-4.66,1.61-5.08,4.05-1.59.12-2.84,1.4-2.84,2.97,0,1.66,1.38,3,3.09,3h10.65c1.97,0,3.56-1.49,3.52-3.4-.03-1.73-1.68-3.23-3.65-3.23Z"/><path class="cls-14" d="M13.88,5.52h-.04s-.07.02-.07.02c-.22,0-.4.07-.69-.08-.57-1.95-2.55-3.29-4.81-3.29-2.59,0-4.57,1.53-4.97,3.93-1.57.12-2.8,1.38-2.8,2.92,0,1.63,1.36,2.95,3.04,2.95h10.5c1.94,0,3.51-1.45,3.46-3.33-.04-1.66-1.68-3.12-3.62-3.12Z"/><path class="cls-9" d="M13.74,5.69h-.05s-.08.03-.08.03c-.22,0-.39.08-.68-.1-.54-1.92-2.49-3.23-4.72-3.23-2.55,0-4.47,1.45-4.87,3.8-1.54.12-2.76,1.35-2.76,2.87,0,1.6,1.34,2.9,3,2.9h10.35c1.91,0,3.46-1.41,3.4-3.25-.05-1.59-1.67-3.02-3.58-3.02Z"/><path class="cls-17" d="M13.6,5.87h-.05s0,0,0,0l-.09.02c-.22,0-.37.09-.67-.12-.5-1.88-2.44-3.16-4.64-3.16-2.51,0-4.38,1.37-4.77,3.68-1.52.12-2.72,1.33-2.72,2.82,0,1.57,1.32,2.85,2.96,2.85h10.2c1.89,0,3.41-1.37,3.34-3.18-.06-1.52-1.66-2.91-3.55-2.91Z"/><path class="cls-1" d="M13.46,6.04h-.06s0,0,0,0h0s-.11.03-.11.03c-.21,0-.35.1-.66-.15-.47-1.85-2.39-3.09-4.55-3.09-2.48,0-4.28,1.29-4.67,3.56-1.5.12-2.68,1.31-2.68,2.77,0,1.54,1.3,2.79,2.91,2.79h10.05c1.86,0,3.36-1.33,3.28-3.11-.06-1.45-1.66-2.81-3.52-2.81Z"/><path class="cls-4" d="M13.33,6.22h-.06s-.12.04-.12.04c-.21,0-.34.11-.64-.17-.43-1.82-2.33-3.02-4.47-3.02-2.44,0-4.18,1.21-4.57,3.44-1.48.11-2.64,1.28-2.64,2.72,0,1.52,1.28,2.74,2.87,2.74h9.9c1.83,0,3.31-1.29,3.22-3.04-.07-1.39-1.65-2.7-3.48-2.7Z"/><path class="cls-15" d="M13.19,6.39h-.07s-.13.04-.13.04c-.21,0-.32.11-.63-.2-.4-1.78-2.28-2.96-4.38-2.96-2.4,0-4.09,1.13-4.47,3.31-1.45.11-2.6,1.26-2.6,2.67,0,1.49,1.26,2.69,2.83,2.69h9.74c1.8,0,3.26-1.25,3.16-2.97-.08-1.32-1.65-2.6-3.45-2.6Z"/></g></g></g></svg>