<?xml version="1.0" encoding="UTF-8"?><svg xmlns="http://www.w3.org/2000/svg" xmlns:xlink="http://www.w3.org/1999/xlink" viewBox="0 0 20.5 19.17"><defs><style>.cls-1{fill:#705627;opacity:.64;}.cls-1,.cls-2,.cls-3,.cls-4,.cls-5,.cls-6,.cls-7,.cls-8,.cls-9,.cls-10,.cls-11,.cls-12,.cls-13,.cls-14,.cls-15,.cls-16,.cls-17,.cls-18,.cls-19,.cls-20,.cls-21,.cls-22,.cls-23,.cls-24,.cls-25,.cls-26,.cls-27,.cls-28,.cls-29,.cls-30,.cls-31,.cls-32,.cls-33,.cls-34,.cls-35,.cls-36,.cls-37,.cls-38,.cls-39,.cls-40,.cls-41,.cls-42,.cls-43,.cls-44,.cls-45,.cls-46,.cls-47,.cls-48,.cls-49,.cls-50,.cls-51,.cls-52,.cls-53,.cls-54,.cls-55,.cls-56,.cls-57,.cls-58,.cls-59,.cls-60,.cls-61,.cls-62,.cls-63,.cls-64,.cls-65,.cls-66,.cls-67,.cls-68,.cls-69,.cls-70,.cls-71,.cls-72,.cls-73,.cls-74,.cls-75,.cls-76,.cls-77,.cls-78{stroke-width:0px;}.cls-2{fill:url(#_R_W_h_987-10);}.cls-3{fill:url(#_R_W_h_2502);}.cls-3,.cls-19{mix-blend-mode:multiply;}.cls-4{fill:url(#_R_W_h_60);opacity:.36;}.cls-4,.cls-8,.cls-14,.cls-18,.cls-23,.cls-24,.cls-31,.cls-34,.cls-35,.cls-36,.cls-39,.cls-42,.cls-79{mix-blend-mode:screen;}.cls-5{fill:#fdd495;}.cls-6{fill:url(#_R_W_h_987-9);}.cls-7{fill:url(#_R_W_h_986-10);}.cls-8{fill:url(#_R_W_h_662);}.cls-9{fill:url(#_R_W_h_987-2);}.cls-10{fill:url(#_R_W_h_987-11);}.cls-11{fill:#8f6e31;opacity:.82;}.cls-12{fill:#af863c;}.cls-13{fill:#80622c;opacity:.73;}.cls-14{fill:url(#_R_W_h_65);opacity:.76;}.cls-15{fill:#0f0c06;opacity:.99;}.cls-16{fill:#2c2210;opacity:.98;}.cls-17{fill:#3a2d15;opacity:.97;}.cls-18{fill:url(#_R_W_h_68);opacity:.92;}.cls-19{fill:url(#_R_W_h_2502-2);}.cls-80{clip-path:url(#clippath-2);}.cls-20,.cls-35,.cls-43{fill:#010101;}.cls-81{isolation:isolate;}.cls-21{fill:#9f7a37;}.cls-21,.cls-30{opacity:.91;}.cls-22{fill:#664f23;opacity:.94;}.cls-23{fill:url(#_R_W_h_62);opacity:.52;}.cls-24{fill:url(#_R_W_h_59);opacity:.28;}.cls-25{fill:#ffed97;}.cls-26{fill:url(#_R_W_h_986-8);}.cls-27{fill:url(#_R_W_h_2505);}.cls-28{fill:url(#_R_W_h_987);}.cls-29{fill:none;}.cls-30{fill:#9f7b37;}.cls-31{fill:url(#_R_W_h_61);opacity:.44;}.cls-32{fill:#302511;opacity:.27;}.cls-33{fill:#fee196;}.cls-82{clip-path:url(#clippath-1);}.cls-34{fill:url(#_R_W_h_58);opacity:.2;}.cls-35{opacity:.12;}.cls-36{fill:url(#_R_W_h_63);opacity:.6;}.cls-37{fill:url(#_R_W_h_2494-2);}.cls-38{fill:url(#_R_W_h_1436);}.cls-39{fill:url(#_R_W_h_64);opacity:.68;}.cls-40{fill:url(#_R_W_h_986-9);}.cls-41{fill:#745a28;opacity:.93;}.cls-42{fill:url(#_R_W_h_67);opacity:.84;}.cls-43{opacity:0;}.cls-44{fill:url(#_R_W_h_2494);}.cls-45{fill:url(#_R_W_h_987-5);}.cls-46{fill:#fddc96;}.cls-47{fill:#fee596;}.cls-48{fill:url(#_R_W_h_987-7);}.cls-49{fill:#57441e;opacity:.95;}.cls-50{fill:#fff197;}.cls-51{fill:url(#_R_W_h_986-3);}.cls-52{fill:url(#_R_W_h_986-6);}.cls-53{fill:#82652d;opacity:.93;}.cls-54{fill:url(#_R_W_h_986);}.cls-55{fill:url(#_R_W_h_986-7);}.cls-56{fill:url(#_R_W_h_987-3);}.cls-83{clip-path:url(#clippath);}.cls-57{fill:#403116;opacity:.36;}.cls-58{fill:url(#_R_W_h_987-8);}.cls-59{fill:url(#_R_W_h_987-6);}.cls-60{fill:#a6befa;}.cls-61{fill:url(#_R_W_h_1433);}.cls-62{fill:#1e170b;opacity:.98;}.cls-63{fill:#fcd095;}.cls-64{fill:#49381a;opacity:.96;}.cls-65{fill:url(#_R_W_h_986-5);}.cls-66{fill:#21190c;opacity:.18;}.cls-67{fill:url(#_R_W_h_1654);}.cls-68{fill:url(#_R_W_h_986-11);}.cls-69{fill:#110d06;opacity:.09;}.cls-84{mask:url(#mask);}.cls-70{fill:url(#_R_W_h_987-4);}.cls-71{fill:#503d1c;opacity:.45;}.cls-72{fill:url(#_R_W_h_986-4);}.cls-73{fill:#917032;opacity:.92;}.cls-74{fill:#fdd896;}.cls-75{fill:url(#_R_W_h_986-2);}.cls-76{fill:#fee997;}.cls-77{fill:#604a21;opacity:.55;}.cls-78{fill:#fccc95;}</style><linearGradient id="_R_W_h_987" x1="10.3" y1="6.59" x2="18.4" y2="6.59" gradientUnits="userSpaceOnUse"><stop offset="0" stop-color="#fff379"/><stop offset=".47" stop-color="#fff7a1"/><stop offset="1" stop-color="#fff393"/></linearGradient><linearGradient id="_R_W_h_987-2" x1="6.55" y1=".69" x2="22.69" y2=".69" xlink:href="#_R_W_h_987"/><linearGradient id="_R_W_h_987-3" x1="7.01" y1="12.43" x2="22.25" y2="12.43" xlink:href="#_R_W_h_987"/><linearGradient id="_R_W_h_987-4" x1="6.68" y1="2.04" x2="22.88" y2="2.04" xlink:href="#_R_W_h_987"/><linearGradient id="_R_W_h_987-5" x1="6.34" y1="11.09" x2="22.59" y2="11.09" xlink:href="#_R_W_h_987"/><linearGradient id="_R_W_h_987-6" x1="6.91" y1="4.86" x2="22.4" y2="4.86" xlink:href="#_R_W_h_987"/><linearGradient id="_R_W_h_987-7" x1="6.2" y1="8.22" x2="22.48" y2="8.22" xlink:href="#_R_W_h_987"/><linearGradient id="_R_W_h_987-8" x1="6.77" y1="8.23" x2="23.05" y2="8.23" xlink:href="#_R_W_h_987"/><linearGradient id="_R_W_h_987-9" x1="7.01" y1="4.89" x2="22.36" y2="4.89" xlink:href="#_R_W_h_987"/><linearGradient id="_R_W_h_987-10" x1="6.99" y1="11.13" x2="22.11" y2="11.13" xlink:href="#_R_W_h_987"/><linearGradient id="_R_W_h_987-11" x1="6.52" y1="1.99" x2="22.52" y2="1.99" xlink:href="#_R_W_h_987"/><radialGradient id="_R_W_h_986" cx="16.72" cy="-.23" fx="16.72" fy="-.23" r="15.97" gradientUnits="userSpaceOnUse"><stop offset="0" stop-color="#fdfb79"/><stop offset=".44" stop-color="#fee168"/><stop offset=".66" stop-color="#ffd360"/><stop offset=".72" stop-color="#f8d664"/><stop offset=".8" stop-color="#e5de71"/><stop offset=".9" stop-color="#c7ed85"/><stop offset="1" stop-color="#a1ffa0"/></radialGradient><radialGradient id="_R_W_h_986-2" cx="16.72" cy="-.23" fx="16.72" fy="-.23" r="15.97" xlink:href="#_R_W_h_986"/><radialGradient id="_R_W_h_986-3" cx="16.72" cy="-.24" fx="16.72" fy="-.24" r="15.97" xlink:href="#_R_W_h_986"/><radialGradient id="_R_W_h_986-4" cx="16.72" cy="-.23" fx="16.72" fy="-.23" r="15.97" xlink:href="#_R_W_h_986"/><radialGradient id="_R_W_h_986-5" cx="16.72" cy="-.24" fx="16.72" fy="-.24" r="15.97" xlink:href="#_R_W_h_986"/><radialGradient id="_R_W_h_986-6" cx="16.72" cy="-.23" fx="16.72" fy="-.23" r="15.97" xlink:href="#_R_W_h_986"/><radialGradient id="_R_W_h_986-7" cx="16.72" cy="-.23" fx="16.72" fy="-.23" r="15.97" xlink:href="#_R_W_h_986"/><radialGradient id="_R_W_h_986-8" cx="16.72" cy="-.23" fx="16.72" fy="-.23" r="15.97" xlink:href="#_R_W_h_986"/><radialGradient id="_R_W_h_986-9" cx="16.72" cy="-.23" fx="16.72" fy="-.23" r="15.97" xlink:href="#_R_W_h_986"/><radialGradient id="_R_W_h_986-10" cx="16.72" cy="-.24" fx="16.72" fy="-.24" r="15.97" xlink:href="#_R_W_h_986"/><radialGradient id="_R_W_h_986-11" cx="16.72" cy="-.23" fx="16.72" fy="-.23" r="15.97" xlink:href="#_R_W_h_986"/><linearGradient id="_R_W_h_1436" x1=".02" y1="9.13" x2="19.24" y2="9.13" gradientUnits="userSpaceOnUse"><stop offset="0" stop-color="#f4fbfb"/><stop offset=".61" stop-color="#fbfbfb"/><stop offset=".8" stop-color="#f6fafa"/><stop offset="1" stop-color="#eaf8f9"/></linearGradient><radialGradient id="_R_W_h_1654" cx="14.05" cy="2.73" fx="14.05" fy="2.73" r="23" gradientUnits="userSpaceOnUse"><stop offset="0" stop-color="#f7f6ff"/><stop offset="0" stop-color="#f6f5fe"/><stop offset=".35" stop-color="#f1effd"/><stop offset=".7" stop-color="#e5e3f1"/><stop offset="1" stop-color="#d8d7e4"/></radialGradient><clipPath id="clippath"><path class="cls-29" d="M15.28,7.02h0c-.25,0-.52.03-.79.07-.35-.96-.95-1.81-1.73-2.46-1.02-.86-2.35-1.38-3.8-1.38-.93,0-1.81.21-2.59.59-1.67.81-2.88,2.37-3.19,4.24C1.41,8.23.02,9.66.02,11.44c0,1.86,1.54,3.37,3.43,3.37h11.83c2.19,0,3.96-1.74,3.96-3.89s-1.77-3.89-3.96-3.89Z"/></clipPath><radialGradient id="_R_W_h_1433" cx="42.45" cy="37.78" fx="42.45" fy="37.78" r="5.51" gradientTransform="translate(-27.31 -30.46) scale(.98)" gradientUnits="userSpaceOnUse"><stop offset="0" stop-color="#fff"/><stop offset=".21" stop-color="#bebebe"/><stop offset=".5" stop-color="#6e6e6e"/><stop offset=".74" stop-color="#333"/><stop offset=".91" stop-color="#0e0e0e"/><stop offset="1" stop-color="#010101"/></radialGradient><mask id="mask" x="8.77" y="1.16" width="10.87" height="10.68" maskUnits="userSpaceOnUse"><path class="cls-61" d="M19.64,6.5c0,2.95-2.43,5.34-5.43,5.34s-5.43-2.39-5.43-5.34S11.21,1.16,14.21,1.16s5.43,2.39,5.43,5.34Z"/></mask><linearGradient id="_R_W_h_662" x1="12.66" y1="4.62" x2="6.67" y2="17.75" gradientUnits="userSpaceOnUse"><stop offset="0" stop-color="#f9ff9e"/><stop offset=".09" stop-color="#ecf296"/><stop offset=".25" stop-color="#ccd181"/><stop offset=".47" stop-color="#989b60"/><stop offset=".74" stop-color="#4f5132"/><stop offset="1" stop-color="#010101"/></linearGradient><linearGradient id="_R_W_h_68" x1="12.55" y1="4.82" x2="6.67" y2="17.7" gradientUnits="userSpaceOnUse"><stop offset="0" stop-color="#e2e890"/><stop offset=".1" stop-color="#d5db88"/><stop offset=".27" stop-color="#b5ba73"/><stop offset=".51" stop-color="#818452"/><stop offset=".79" stop-color="#3a3b25"/><stop offset="1" stop-color="#010101"/></linearGradient><linearGradient id="_R_W_h_67" x1="12.44" y1="5.03" x2="6.67" y2="17.66" gradientUnits="userSpaceOnUse"><stop offset="0" stop-color="#ccd181"/><stop offset=".1" stop-color="#bfc479"/><stop offset=".3" stop-color="#9fa364"/><stop offset=".55" stop-color="#6b6d44"/><stop offset=".86" stop-color="#232416"/><stop offset="1" stop-color="#010101"/></linearGradient><linearGradient id="_R_W_h_65" x1="12.33" y1="5.23" x2="6.67" y2="17.61" gradientUnits="userSpaceOnUse"><stop offset="0" stop-color="#b5ba73"/><stop offset=".11" stop-color="#a8ad6b"/><stop offset=".32" stop-color="#888c56"/><stop offset=".61" stop-color="#545635"/><stop offset=".94" stop-color="#0d0d08"/><stop offset="1" stop-color="#010101"/></linearGradient><linearGradient id="_R_W_h_64" x1="12.22" y1="5.44" x2="6.68" y2="17.57" gradientUnits="userSpaceOnUse"><stop offset="0" stop-color="#9fa365"/><stop offset=".13" stop-color="#92965d"/><stop offset=".36" stop-color="#727548"/><stop offset=".67" stop-color="#3e4027"/><stop offset="1" stop-color="#010101"/></linearGradient><linearGradient id="_R_W_h_63" x1="12.11" y1="5.64" x2="6.68" y2="17.52" gradientUnits="userSpaceOnUse"><stop offset="0" stop-color="#888c57"/><stop offset=".14" stop-color="#7b7f4f"/><stop offset=".41" stop-color="#5b5e3a"/><stop offset=".76" stop-color="#28291a"/><stop offset="1" stop-color="#010101"/></linearGradient><linearGradient id="_R_W_h_62" x1="12" y1="5.85" x2="6.68" y2="17.48" gradientUnits="userSpaceOnUse"><stop offset="0" stop-color="#727448"/><stop offset=".17" stop-color="#656740"/><stop offset=".47" stop-color="#45462b"/><stop offset=".88" stop-color="#11110b"/><stop offset="1" stop-color="#010101"/></linearGradient><linearGradient id="_R_W_h_61" x1="11.88" y1="6.05" x2="6.69" y2="17.43" gradientUnits="userSpaceOnUse"><stop offset="0" stop-color="#5b5d3a"/><stop offset=".2" stop-color="#4e5032"/><stop offset=".57" stop-color="#2e2f1d"/><stop offset="1" stop-color="#010101"/></linearGradient><linearGradient id="_R_W_h_60" x1="11.77" y1="6.25" x2="6.69" y2="17.39" gradientUnits="userSpaceOnUse"><stop offset="0" stop-color="#45462c"/><stop offset=".25" stop-color="#383924"/><stop offset=".71" stop-color="#18180f"/><stop offset="1" stop-color="#010101"/></linearGradient><linearGradient id="_R_W_h_59" x1="11.66" y1="6.46" x2="6.69" y2="17.34" gradientUnits="userSpaceOnUse"><stop offset="0" stop-color="#2e2f1e"/><stop offset=".35" stop-color="#212216"/><stop offset=".99" stop-color="#010101"/><stop offset="1" stop-color="#010101"/></linearGradient><linearGradient id="_R_W_h_58" x1="11.55" y1="6.66" x2="6.7" y2="17.3" gradientUnits="userSpaceOnUse"><stop offset="0" stop-color="#18180f"/><stop offset=".61" stop-color="#0b0b07"/><stop offset="1" stop-color="#010101"/></linearGradient><linearGradient id="_R_W_h_2494" x1="4.01" y1="16.84" x2="5.34" y2="13.01" gradientUnits="userSpaceOnUse"><stop offset="0" stop-color="#94c9fb"/><stop offset=".03" stop-color="#95c9fb"/><stop offset=".66" stop-color="#badafc"/></linearGradient><clipPath id="clippath-1"><path class="cls-29" d="M5.35,13.2c0-.08-.02-.12-.05-.13-.03,0-.07.01-.12.07-.42.51-1.33,1.46-1.53,2.05-.16.48.08,1,.55,1.15.31.11.64.02.88-.19.11-.1.21-.24.26-.4.2-.59.05-1.9.02-2.56Z"/></clipPath><linearGradient id="_R_W_h_2502" x1="4.86" y1="-3182.89" x2="4.86" y2="-3184.52" gradientTransform="translate(0 -2292.44) scale(1 -.72)" gradientUnits="userSpaceOnUse"><stop offset=".42" stop-color="#fff"/><stop offset="1" stop-color="#d8c1fb"/></linearGradient><linearGradient id="_R_W_h_2494-2" x1="8.96" y1="16.54" x2="10.3" y2="12.7" xlink:href="#_R_W_h_2494"/><clipPath id="clippath-2"><path class="cls-29" d="M10.47,12.41c0-.08-.02-.12-.05-.13-.03,0-.07.01-.12.07-.42.51-1.33,1.46-1.53,2.05-.16.48.08,1,.55,1.15.31.11.64.02.88-.19.11-.1.21-.24.26-.4.2-.59.05-1.9.02-2.56Z"/></clipPath><linearGradient id="_R_W_h_2502-2" x1="10.2" y1="-3182.42" x2="10.2" y2="-3184.05" xlink:href="#_R_W_h_2502"/><linearGradient id="_R_W_h_2505" x1="5.91" y1="19.33" x2="7.42" y2="15.7" gradientUnits="userSpaceOnUse"><stop offset="0" stop-color="#a186f9"/><stop offset=".66" stop-color="#85a7ed"/></linearGradient></defs><g class="cls-81"><g id="Layer_2"><g id="Main_1"><path class="cls-28" d="M18.78,6.59c0,2.47-2,4.47-4.47,4.47s-4.47-2-4.47-4.47,2-4.47,4.47-4.47,4.47,2,4.47,4.47Z"/><path class="cls-9" d="M15.05,1.29h-1.49c-.17,0-.31-.22-.22-.32l.83-.82c.07-.08.19-.08.25,0l.74.87c.09.11.02.27-.13.27Z"/><path class="cls-56" d="M13.56,11.88l1.42-.09c.26.04.24.25.15.35l-.71.85c-.07.08-.16.1-.24.03l-.74-.87c-.09-.11-.02-.27.13-.27Z"/><path class="cls-70" d="M11.8,1.87l-1.2.87c-.11.08-.33.06-.33-.24l.16-1.05c0-.1.1-.17.2-.15l1.04.18c.23.07.25.3.13.39Z"/><path class="cls-45" d="M16.72,11.27l1.28-.95c.17-.08.3.07.29.25l-.09,1.14c0,.1-.1.17-.2.15l-1.11-.27c-.16-.03-.27-.25-.16-.33Z"/><path class="cls-59" d="M9.5,4.24l-.46,1.42c-.04.13-.25.19-.37-.05l-.53-.89c-.05-.09-.02-.2.08-.24l.99-.53c.25-.07.34.16.29.29Z"/><path class="cls-48" d="M19.04,8.84l.53-1.43c.04-.13.19-.13.27,0l.64,1.05c.05.09.02.2-.08.24l-1.07.4c-.13.05-.34.02-.29-.26Z"/><path class="cls-58" d="M9.04,7.52l.46,1.41c.04.13-.09.26-.22.2l-1.09-.47c-.15-.05-.18-.22-.12-.3l.6-.98c.21-.18.33,0,.37.13Z"/><path class="cls-6" d="M19.5,5.57l-.39-1.32c-.04-.13.09-.26.22-.2l.99.35c.2.1.18.2.13.29l-.6.98c-.07.12-.24.19-.35-.08Z"/><path class="cls-2" d="M10.59,10.43l1.13.78c.17.11.12.34-.02.37l-1.09.25c-.1.02-.24.05-.27-.2l-.02-1.05c-.01-.14.15-.23.26-.15Z"/><path class="cls-10" d="M18.02,2.74l-1.28-.97c-.11-.08,0-.17.13-.2l1.04-.36c.22-.02.26.11.28.24l.09,1.14c.01.14-.15.23-.26.15Z"/><path class="cls-54" d="M18.78,6.51c0,2.42-2,4.39-4.47,4.39s-4.47-1.97-4.47-4.39,2-4.39,4.47-4.39,4.47,1.97,4.47,4.39Z"/><g class="cls-79"><path class="cls-12" d="M18.78,6.51c0,2.42-2,4.39-4.47,4.39s-4.47-1.97-4.47-4.39,2-4.39,4.47-4.39,4.47,1.97,4.47,4.39Z"/><path class="cls-21" d="M18.69,6.56c0,2.4-1.98,4.34-4.41,4.34s-4.41-1.94-4.41-4.34,1.98-4.34,4.41-4.34,4.41,1.94,4.41,4.34Z"/><path class="cls-11" d="M18.61,6.61c0,2.37-1.95,4.29-4.36,4.29s-4.36-1.92-4.36-4.29,1.95-4.29,4.36-4.29,4.36,1.92,4.36,4.29Z"/><path class="cls-13" d="M18.53,6.66c0,2.35-1.93,4.25-4.3,4.25s-4.3-1.9-4.3-4.25,1.93-4.25,4.3-4.25,4.3,1.9,4.3,4.25Z"/><path class="cls-1" d="M18.45,6.71c0,2.32-1.9,4.2-4.25,4.2s-4.25-1.88-4.25-4.2,1.9-4.2,4.25-4.2,4.25,1.88,4.25,4.2Z"/><path class="cls-77" d="M18.37,6.76c0,2.29-1.88,4.15-4.19,4.15s-4.19-1.86-4.19-4.15,1.88-4.15,4.19-4.15,4.19,1.86,4.19,4.15Z"/><path class="cls-71" d="M18.28,6.81c0,2.27-1.85,4.1-4.14,4.1s-4.14-1.84-4.14-4.1,1.85-4.1,4.14-4.1,4.14,1.84,4.14,4.1Z"/><path class="cls-57" d="M18.2,6.86c0,2.24-1.83,4.06-4.08,4.06s-4.08-1.82-4.08-4.06,1.83-4.06,4.08-4.06,4.08,1.82,4.08,4.06Z"/><ellipse class="cls-32" cx="14.09" cy="6.91" rx="4.03" ry="4.01"/><path class="cls-66" d="M18.04,6.95c0,2.19-1.78,3.96-3.97,3.96s-3.97-1.77-3.97-3.96,1.78-3.96,3.97-3.96,3.97,1.77,3.97,3.96Z"/><path class="cls-69" d="M17.96,7c0,2.16-1.75,3.91-3.92,3.91s-3.92-1.75-3.92-3.91,1.75-3.91,3.92-3.91,3.92,1.75,3.92,3.91Z"/><ellipse class="cls-43" cx="14.01" cy="7.05" rx="3.86" ry="3.87"/></g><path class="cls-75" d="M14.98,1.2h-1.49c-.14,0-.22-.17-.13-.27l.74-.87c.07-.08.19-.08.25,0l.74.87c.09.11.02.27-.13.27Z"/><path class="cls-51" d="M13.49,11.79h1.49c.14,0,.22.17.13.27l-.74.87c-.07.08-.19.08-.25,0l-.74-.87c-.09-.11-.02-.27.13-.27Z"/><path class="cls-72" d="M11.73,1.78l-1.2.87c-.11.08-.27,0-.26-.15l.09-1.14c0-.1.1-.17.2-.15l1.11.27c.14.03.17.21.06.3Z"/><path class="cls-65" d="M16.74,11.22l1.2-.87c.11-.08.27,0,.26.15l-.09,1.14c0,.1-.1.17-.2.15l-1.11-.27c-.14-.03-.17-.21-.06-.3Z"/><path class="cls-52" d="M9.43,4.15l-.46,1.41c-.04.13-.22.16-.3.04l-.6-.98c-.05-.09-.02-.2.08-.24l1.06-.44c.13-.05.26.07.22.2Z"/><path class="cls-55" d="M19.04,8.84l.46-1.42c.04-.13.22-.16.3-.04l.6.98c.05.09.02.2-.08.24l-1.06.44c-.13.05-.26-.07-.22-.2Z"/><path class="cls-26" d="M8.97,7.43l.46,1.42c.04.13-.09.26-.22.2l-1.06-.44c-.09-.04-.13-.15-.08-.24l.6-.98c.07-.12.26-.1.3.04Z"/><path class="cls-40" d="M19.5,5.57l-.46-1.41c-.04-.13.09-.26.22-.2l1.06.44c.09.04.13.15.08.24l-.6.98c-.07.12-.26.1-.3-.04Z"/><path class="cls-7" d="M10.52,10.34l1.2.87c.11.08.08.26-.06.3l-1.11.27c-.1.02-.2-.05-.2-.15l-.09-1.14c-.01-.14.15-.23.26-.15Z"/><path class="cls-68" d="M17.95,2.65l-1.2-.87c-.11-.08-.08-.26.06-.3l1.11-.27c.1-.02.2.05.2.15l.09,1.14c.01.14-.15.23-.26.15Z"/><g class="cls-79"><path class="cls-30" d="M14.98,1.2h-1.49c-.14,0-.22-.17-.13-.27l.74-.87c.07-.08.19-.08.25,0l.74.87c.09.11.02.27-.13.27Z"/><path class="cls-73" d="M14.97,1.2h-1.48c-.14,0-.22-.16-.13-.27l.74-.86c.07-.08.19-.08.25,0l.74.86c.09.11.02.27-.13.27Z"/><path class="cls-53" d="M14.96,1.2h-1.47c-.14,0-.22-.16-.12-.27l.74-.85c.07-.08.18-.08.25,0l.74.85c.09.11.02.27-.12.27Z"/><path class="cls-41" d="M14.96,1.2h-1.47c-.14,0-.21-.16-.12-.26l.73-.84c.07-.07.18-.07.25,0l.73.84c.09.1.02.26-.12.26Z"/><path class="cls-22" d="M14.95,1.2h-1.46c-.14,0-.21-.16-.12-.26l.73-.83c.06-.07.18-.07.25,0l.73.83c.09.1.01.26-.12.26Z"/><path class="cls-49" d="M14.94,1.2h-1.46c-.14,0-.21-.16-.12-.26l.73-.82c.06-.07.18-.07.25,0l.73.82c.09.1.01.26-.12.26Z"/><path class="cls-64" d="M14.94,1.2h-1.45c-.14,0-.21-.15-.12-.25l.72-.81c.06-.07.18-.07.25,0l.72.81c.09.1.01.25-.12.25Z"/><path class="cls-17" d="M14.93,1.2h-1.44c-.14,0-.21-.15-.12-.25l.72-.8c.06-.07.18-.07.24,0l.72.8c.09.1.01.25-.12.25Z"/><path class="cls-16" d="M14.92,1.2h-1.44c-.14,0-.21-.15-.12-.25l.72-.79c.06-.07.18-.07.24,0l.72.79c.09.1.01.25-.12.25Z"/><path class="cls-62" d="M14.91,1.2h-1.43c-.14,0-.21-.15-.12-.24l.71-.78c.06-.07.18-.07.24,0l.71.78c.09.1.01.24-.12.24Z"/><path class="cls-15" d="M14.91,1.2h-1.42c-.14,0-.21-.15-.12-.24l.71-.77c.06-.07.18-.07.24,0l.71.77c.09.1.01.24-.12.24Z"/><path class="cls-20" d="M14.9,1.2h-1.42c-.13,0-.21-.14-.12-.24l.71-.76c.06-.07.18-.07.24,0l.71.76c.09.09.01.24-.12.24Z"/></g><g class="cls-79"><path class="cls-30" d="M13.49,11.79h1.49c.14,0,.22.17.13.27l-.74.87c-.07.08-.19.08-.25,0l-.74-.87c-.09-.11-.02-.27.13-.27Z"/><path class="cls-73" d="M13.49,11.8h1.48c.14,0,.22.16.13.27l-.74.86c-.07.08-.19.08-.25,0l-.74-.86c-.09-.11-.02-.27.13-.27Z"/><path class="cls-53" d="M13.49,11.8h1.47c.14,0,.22.16.12.27l-.74.85c-.07.08-.18.08-.25,0l-.74-.85c-.09-.11-.02-.27.12-.27Z"/><path class="cls-41" d="M13.49,11.81h1.47c.14,0,.21.16.12.26l-.73.84c-.07.08-.18.08-.25,0l-.73-.84c-.09-.1-.02-.26.12-.26Z"/><path class="cls-22" d="M13.49,11.81h1.46c.14,0,.21.16.12.26l-.73.83c-.06.07-.18.07-.25,0l-.73-.83c-.09-.1-.01-.26.12-.26Z"/><path class="cls-49" d="M13.49,11.82h1.46c.14,0,.21.16.12.26l-.73.82c-.06.07-.18.07-.25,0l-.73-.82c-.09-.1-.01-.26.12-.26Z"/><path class="cls-64" d="M13.49,11.83h1.45c.14,0,.21.15.12.26l-.72.81c-.06.07-.18.07-.25,0l-.72-.81c-.09-.1-.01-.26.12-.26Z"/><path class="cls-17" d="M13.49,11.83h1.44c.14,0,.21.15.12.25l-.72.8c-.06.07-.18.07-.24,0l-.72-.8c-.09-.1-.01-.25.12-.25Z"/><path class="cls-16" d="M13.49,11.84h1.44c.14,0,.21.15.12.25l-.72.8c-.06.07-.18.07-.24,0l-.72-.8c-.09-.1-.01-.25.12-.25Z"/><path class="cls-62" d="M13.49,11.84h1.43c.14,0,.21.15.12.25l-.71.79c-.06.07-.18.07-.24,0l-.71-.79c-.09-.1-.01-.25.12-.25Z"/><path class="cls-15" d="M13.49,11.85h1.42c.14,0,.21.15.12.24l-.71.78c-.06.07-.18.07-.24,0l-.71-.78c-.09-.1-.01-.24.12-.24Z"/><path class="cls-20" d="M13.49,11.86h1.42c.13,0,.21.15.12.24l-.71.77c-.06.07-.18.07-.24,0l-.71-.77c-.09-.09-.01-.24.12-.24Z"/></g><g class="cls-79"><path class="cls-30" d="M17.95,2.65l-1.2-.87c-.11-.08-.08-.26.06-.3l1.11-.27c.1-.02.2.05.2.15l.09,1.14c.01.14-.15.23-.26.15Z"/><path class="cls-73" d="M17.95,2.65l-1.2-.87c-.11-.08-.08-.26.06-.29l1.11-.26c.1-.02.19.05.2.15l.09,1.13c.01.14-.15.23-.26.14Z"/><path class="cls-53" d="M17.95,2.65l-1.19-.87c-.11-.08-.08-.26.06-.29l1.1-.26c.1-.02.19.05.2.15l.1,1.12c.01.14-.14.22-.26.14Z"/><path class="cls-41" d="M17.95,2.65l-1.19-.86c-.11-.08-.08-.26.05-.29l1.09-.25c.1-.02.19.05.2.15l.1,1.11c.01.14-.14.22-.26.14Z"/><path class="cls-22" d="M17.95,2.65l-1.18-.86c-.11-.08-.08-.25.05-.28l1.08-.24c.1-.02.19.05.2.15l.1,1.1c.01.14-.14.22-.25.14Z"/><path class="cls-49" d="M17.95,2.65l-1.18-.86c-.11-.08-.08-.25.05-.28l1.07-.24c.1-.02.19.05.2.14l.11,1.09c.01.13-.14.22-.25.14Z"/><path class="cls-64" d="M17.95,2.65l-1.17-.85c-.11-.08-.08-.25.05-.28l1.06-.23c.09-.02.19.05.2.14l.11,1.08c.01.13-.14.21-.25.13Z"/><path class="cls-17" d="M17.95,2.65l-1.17-.85c-.11-.08-.08-.25.05-.27l1.05-.22c.09-.02.19.05.2.14l.11,1.07c.01.13-.14.21-.25.13Z"/><path class="cls-16" d="M17.95,2.64l-1.16-.84c-.11-.08-.08-.25.05-.27l1.05-.22c.09-.02.19.05.2.14l.12,1.06c.01.13-.13.21-.24.13Z"/><path class="cls-62" d="M17.95,2.64l-1.16-.84c-.11-.08-.08-.24.05-.27l1.04-.21c.09-.02.19.05.2.14l.12,1.05c.01.13-.13.21-.24.13Z"/><path class="cls-15" d="M17.94,2.64l-1.15-.84c-.11-.08-.08-.24.04-.27l1.03-.21c.09-.02.18.05.2.14l.12,1.04c.02.13-.13.2-.24.12Z"/><path class="cls-20" d="M17.94,2.64l-1.15-.83c-.11-.08-.08-.24.04-.26l1.02-.2c.09-.02.18.05.19.14l.13,1.03c.02.13-.13.2-.24.12Z"/></g><g class="cls-79"><path class="cls-30" d="M10.52,10.34l1.2.87c.11.08.08.26-.06.3l-1.11.27c-.1.02-.2-.05-.2-.15l-.09-1.14c-.01-.14.15-.23.26-.15Z"/><path class="cls-73" d="M10.52,10.35l1.2.87c.11.08.08.26-.06.29l-1.11.26c-.1.02-.19-.05-.2-.15l-.09-1.13c-.01-.14.15-.23.26-.14Z"/><path class="cls-53" d="M10.52,10.37l1.19.87c.11.08.08.26-.06.29l-1.1.26c-.1.02-.19-.05-.2-.15l-.1-1.12c-.01-.14.14-.23.26-.14Z"/><path class="cls-41" d="M10.51,10.38l1.19.86c.11.08.08.26-.05.29l-1.09.25c-.1.02-.19-.05-.2-.15l-.1-1.11c-.01-.14.14-.22.26-.14Z"/><path class="cls-22" d="M10.51,10.39l1.18.86c.11.08.08.25-.05.28l-1.08.24c-.1.02-.19-.05-.2-.15l-.1-1.1c-.01-.14.14-.22.25-.14Z"/><path class="cls-49" d="M10.51,10.4l1.18.86c.11.08.08.25-.05.28l-1.07.24c-.1.02-.19-.05-.2-.14l-.1-1.09c-.01-.13.14-.22.25-.14Z"/><path class="cls-64" d="M10.51,10.41l1.17.85c.11.08.08.25-.05.28l-1.06.23c-.09.02-.19-.05-.2-.14l-.11-1.08c-.01-.13.14-.22.25-.13Z"/><path class="cls-17" d="M10.5,10.42l1.17.85c.11.08.08.25-.05.28l-1.06.23c-.09.02-.19-.05-.2-.14l-.11-1.07c-.01-.13.14-.21.25-.13Z"/><path class="cls-16" d="M10.5,10.43l1.16.84c.11.08.08.25-.05.27l-1.05.22c-.09.02-.19-.05-.2-.14l-.11-1.07c-.01-.13.13-.21.24-.13Z"/><path class="cls-62" d="M10.5,10.44l1.16.84c.11.08.08.24-.05.27l-1.04.22c-.09.02-.19-.05-.2-.14l-.12-1.06c-.01-.13.13-.21.24-.13Z"/><path class="cls-15" d="M10.5,10.45l1.15.84c.11.08.08.24-.05.27l-1.03.21c-.09.02-.18-.05-.2-.14l-.12-1.05c-.01-.13.13-.21.24-.13Z"/><path class="cls-20" d="M10.49,10.47l1.15.83c.11.08.08.24-.04.26l-1.02.2c-.09.02-.18-.05-.19-.14l-.12-1.04c-.02-.13.13-.2.24-.12Z"/></g><g class="cls-79"><path class="cls-30" d="M19.5,5.57l-.46-1.41c-.04-.13.09-.26.22-.2l1.06.44c.09.04.13.15.08.24l-.6.98c-.07.12-.26.1-.3-.04Z"/><path class="cls-73" d="M19.5,5.57l-.46-1.41c-.04-.13.09-.26.22-.2l1.05.44c.09.04.13.15.08.24l-.59.97c-.07.12-.25.1-.3-.04Z"/><path class="cls-53" d="M19.5,5.57l-.46-1.4c-.04-.13.09-.26.22-.2l1.04.44c.09.04.13.15.08.24l-.58.96c-.07.12-.25.1-.29-.04Z"/><path class="cls-41" d="M19.5,5.57l-.45-1.4c-.04-.13.09-.25.21-.2l1.03.44c.09.04.13.15.08.24l-.57.96c-.07.12-.25.1-.29-.04Z"/><path class="cls-22" d="M19.5,5.58l-.45-1.39c-.04-.13.08-.25.21-.2l1.02.44c.09.04.13.15.08.24l-.57.95c-.07.12-.24.09-.29-.04Z"/><path class="cls-49" d="M19.5,5.58l-.45-1.38c-.04-.13.08-.25.21-.2l1.01.44c.09.04.13.15.08.23l-.56.95c-.07.12-.24.09-.28-.04Z"/><path class="cls-64" d="M19.51,5.58l-.45-1.38c-.04-.13.08-.25.2-.2l1,.44c.09.04.12.15.08.23l-.55.94c-.07.12-.24.09-.28-.04Z"/><path class="cls-17" d="M19.51,5.58l-.45-1.37c-.04-.13.08-.25.2-.19l.99.44c.09.04.12.15.08.23l-.54.93c-.07.12-.23.09-.28-.04Z"/><path class="cls-16" d="M19.51,5.58l-.44-1.37c-.04-.13.08-.25.2-.19l.97.44c.09.04.12.15.08.23l-.53.93c-.07.11-.23.09-.27-.04Z"/><path class="cls-62" d="M19.51,5.59l-.44-1.36c-.04-.13.08-.24.2-.19l.96.44c.09.04.12.15.07.23l-.52.92c-.06.11-.23.09-.27-.04Z"/><path class="cls-15" d="M19.51,5.59l-.44-1.35c-.04-.13.07-.24.19-.19l.95.44c.08.04.12.15.07.23l-.51.91c-.06.11-.23.09-.27-.04Z"/><path class="cls-20" d="M19.51,5.59l-.44-1.35c-.04-.13.07-.24.19-.19l.94.44c.08.04.12.15.07.23l-.5.91c-.06.11-.22.09-.26-.04Z"/></g><g class="cls-79"><path class="cls-30" d="M8.97,7.43l.46,1.42c.04.13-.09.26-.22.2l-1.06-.44c-.09-.04-.13-.15-.08-.24l.6-.98c.07-.12.26-.1.3.04Z"/><path class="cls-73" d="M8.96,7.43l.46,1.41c.04.13-.09.26-.22.2l-1.05-.44c-.09-.04-.13-.15-.08-.24l.59-.97c.07-.12.25-.1.3.04Z"/><path class="cls-53" d="M8.96,7.44l.46,1.4c.04.13-.09.26-.22.2l-1.04-.44c-.09-.04-.13-.15-.08-.24l.58-.96c.07-.12.25-.1.29.04Z"/><path class="cls-41" d="M8.95,7.45l.45,1.4c.04.13-.09.25-.21.2l-1.03-.44c-.09-.04-.13-.15-.08-.24l.58-.96c.07-.12.25-.1.29.04Z"/><path class="cls-22" d="M8.94,7.45l.45,1.39c.04.13-.08.25-.21.2l-1.02-.44c-.09-.04-.13-.15-.08-.24l.57-.95c.07-.12.24-.1.29.04Z"/><path class="cls-49" d="M8.94,7.46l.45,1.38c.04.13-.08.25-.21.2l-1.01-.44c-.09-.04-.13-.15-.08-.23l.56-.95c.07-.12.24-.09.28.04Z"/><path class="cls-64" d="M8.93,7.47l.45,1.38c.04.13-.08.25-.2.2l-1-.44c-.09-.04-.12-.15-.08-.23l.55-.94c.07-.12.24-.09.28.04Z"/><path class="cls-17" d="M8.92,7.48l.45,1.37c.04.13-.08.25-.2.19l-.99-.44c-.09-.04-.12-.15-.08-.23l.54-.93c.07-.12.24-.09.28.04Z"/><path class="cls-16" d="M8.92,7.48l.44,1.37c.04.13-.08.25-.2.19l-.98-.44c-.09-.04-.12-.15-.08-.23l.53-.93c.07-.11.23-.09.27.04Z"/><path class="cls-62" d="M8.91,7.49l.44,1.36c.04.13-.08.25-.2.19l-.97-.44c-.09-.04-.12-.15-.07-.23l.53-.92c.06-.11.23-.09.27.04Z"/><path class="cls-15" d="M8.9,7.5l.44,1.35c.04.13-.08.24-.19.19l-.96-.44c-.09-.04-.12-.15-.07-.23l.52-.92c.06-.11.23-.09.27.04Z"/><path class="cls-20" d="M8.9,7.5l.44,1.35c.04.13-.07.24-.19.19l-.95-.44c-.08-.04-.12-.15-.07-.23l.51-.91c.06-.11.22-.09.27.04Z"/></g><g class="cls-79"><path class="cls-30" d="M19.04,8.84l.46-1.42c.04-.13.22-.16.3-.04l.6.98c.05.09.02.2-.08.24l-1.06.44c-.13.05-.26-.07-.22-.2Z"/><path class="cls-73" d="M19.04,8.84l.46-1.41c.04-.13.22-.16.3-.04l.59.97c.05.09.02.2-.08.24l-1.05.44c-.13.05-.26-.07-.22-.2Z"/><path class="cls-53" d="M19.04,8.84l.46-1.4c.04-.13.22-.16.29-.04l.58.96c.05.09.02.2-.08.24l-1.04.44c-.13.05-.26-.07-.22-.2Z"/><path class="cls-41" d="M19.04,8.85l.45-1.4c.04-.13.22-.15.29-.04l.57.96c.05.09.01.2-.08.24l-1.03.44c-.13.05-.26-.07-.21-.2Z"/><path class="cls-22" d="M19.04,8.85l.45-1.39c.04-.13.22-.15.29-.04l.57.95c.05.08.01.2-.08.24l-1.02.44c-.13.05-.25-.07-.21-.2Z"/><path class="cls-49" d="M19.04,8.85l.45-1.38c.04-.13.21-.15.28-.04l.56.95c.05.08.01.2-.08.23l-1.01.44c-.12.05-.25-.07-.21-.2Z"/><path class="cls-64" d="M19.04,8.85l.45-1.38c.04-.13.21-.15.28-.04l.55.94c.05.08.01.19-.08.23l-1,.44c-.12.05-.25-.06-.2-.2Z"/><path class="cls-17" d="M19.04,8.85l.45-1.37c.04-.13.21-.15.28-.04l.54.93c.05.08.01.19-.08.23l-.99.44c-.12.05-.24-.06-.2-.19Z"/><path class="cls-16" d="M19.04,8.86l.44-1.37c.04-.13.21-.15.27-.04l.53.93c.05.08.01.19-.08.23l-.97.44c-.12.05-.24-.06-.2-.19Z"/><path class="cls-62" d="M19.04,8.86l.44-1.36c.04-.13.21-.15.27-.04l.52.92c.05.08.01.19-.07.23l-.96.44c-.12.05-.24-.06-.2-.19Z"/><path class="cls-15" d="M19.04,8.86l.44-1.35c.04-.13.2-.15.27-.04l.51.91c.05.08.01.19-.07.23l-.95.44c-.12.05-.23-.06-.19-.19Z"/><path class="cls-20" d="M19.04,8.86l.44-1.35c.04-.13.2-.15.26-.04l.51.91c.04.08,0,.19-.07.23l-.94.44c-.12.05-.23-.06-.19-.19Z"/></g><g class="cls-79"><path class="cls-30" d="M9.43,4.15l-.46,1.41c-.04.13-.22.16-.3.04l-.6-.98c-.05-.09-.02-.2.08-.24l1.06-.44c.13-.05.26.07.22.2Z"/><path class="cls-73" d="M9.42,4.16l-.46,1.41c-.04.13-.22.15-.3.04l-.59-.97c-.05-.09-.02-.2.08-.24l1.05-.44c.13-.05.26.07.22.2Z"/><path class="cls-53" d="M9.41,4.17l-.45,1.4c-.04.13-.22.15-.29.04l-.59-.96c-.05-.09-.02-.2.08-.24l1.04-.43c.13-.05.26.07.22.2Z"/><path class="cls-41" d="M9.4,4.17l-.45,1.39c-.04.13-.22.15-.29.03l-.59-.96c-.05-.09-.02-.2.08-.23l1.04-.43c.13-.05.26.07.22.2Z"/><path class="cls-22" d="M9.39,4.18l-.45,1.38c-.04.13-.22.15-.29.03l-.58-.95c-.05-.08-.02-.2.08-.23l1.03-.43c.13-.05.26.07.21.2Z"/><path class="cls-49" d="M9.39,4.19l-.44,1.37c-.04.13-.22.15-.29.03l-.58-.94c-.05-.08-.02-.19.08-.23l1.02-.42c.13-.05.25.07.21.2Z"/><path class="cls-64" d="M9.38,4.19l-.44,1.36c-.04.13-.21.15-.29.03l-.57-.94c-.05-.08-.02-.19.07-.23l1.01-.42c.12-.05.25.07.21.2Z"/><path class="cls-17" d="M9.37,4.2l-.44,1.35c-.04.13-.21.15-.28.03l-.57-.93c-.05-.08-.02-.19.07-.23l1-.42c.12-.05.25.07.21.19Z"/><path class="cls-16" d="M9.36,4.21l-.43,1.34c-.04.13-.21.15-.28.03l-.56-.92c-.05-.08-.01-.19.07-.23l1-.42c.12-.05.25.07.21.19Z"/><path class="cls-62" d="M9.35,4.21l-.43,1.33c-.04.13-.21.15-.28.03l-.56-.92c-.05-.08-.01-.19.07-.23l.99-.41c.12-.05.25.06.21.19Z"/><path class="cls-15" d="M9.34,4.22l-.43,1.32c-.04.13-.21.15-.28.03l-.55-.91c-.05-.08-.01-.19.07-.22l.98-.41c.12-.05.24.06.2.19Z"/><path class="cls-20" d="M9.33,4.22l-.43,1.31c-.04.12-.21.14-.27.03l-.55-.9c-.05-.08-.01-.19.07-.22l.97-.41c.12-.05.24.06.2.19Z"/></g><g class="cls-79"><path class="cls-30" d="M16.74,11.22l1.2-.87c.11-.08.27,0,.26.15l-.09,1.14c0,.1-.1.17-.2.15l-1.11-.27c-.14-.03-.17-.21-.06-.3Z"/><path class="cls-73" d="M16.75,11.22l1.2-.87c.11-.08.27,0,.26.14l-.09,1.13c0,.1-.1.17-.2.15l-1.11-.26c-.14-.03-.17-.21-.06-.29Z"/><path class="cls-53" d="M16.75,11.22l1.19-.87c.11-.08.27,0,.26.14l-.1,1.12c0,.1-.1.17-.2.15l-1.1-.26c-.14-.03-.17-.21-.06-.29Z"/><path class="cls-41" d="M16.75,11.23l1.19-.86c.11-.08.27,0,.26.14l-.1,1.11c0,.1-.1.17-.2.15l-1.09-.25c-.13-.03-.17-.2-.05-.29Z"/><path class="cls-22" d="M16.75,11.23l1.18-.86c.11-.08.27,0,.25.14l-.1,1.1c0,.1-.1.17-.2.15l-1.08-.24c-.13-.03-.17-.2-.05-.28Z"/><path class="cls-49" d="M16.75,11.23l1.18-.86c.11-.08.26,0,.25.14l-.11,1.09c0,.1-.1.17-.2.15l-1.07-.24c-.13-.03-.16-.2-.05-.28Z"/><path class="cls-64" d="M16.75,11.24l1.17-.85c.11-.08.26,0,.25.13l-.11,1.08c0,.1-.1.16-.2.14l-1.06-.23c-.13-.03-.16-.2-.05-.28Z"/><path class="cls-17" d="M16.75,11.24l1.17-.85c.11-.08.26,0,.25.13l-.11,1.07c0,.1-.1.16-.2.14l-1.05-.22c-.13-.03-.16-.19-.05-.27Z"/><path class="cls-16" d="M16.75,11.24l1.16-.84c.11-.08.26,0,.24.13l-.12,1.06c-.01.09-.1.16-.2.14l-1.05-.22c-.13-.03-.16-.19-.05-.27Z"/><path class="cls-62" d="M16.75,11.25l1.16-.84c.11-.08.26,0,.24.13l-.12,1.05c-.01.09-.1.16-.2.14l-1.04-.21c-.13-.03-.16-.19-.05-.27Z"/><path class="cls-15" d="M16.75,11.25l1.15-.84c.11-.08.25,0,.24.12l-.12,1.04c-.01.09-.1.16-.2.14l-1.03-.21c-.13-.03-.15-.19-.04-.27Z"/><path class="cls-20" d="M16.75,11.26l1.15-.83c.11-.08.25,0,.24.12l-.13,1.03c-.01.09-.1.16-.19.14l-1.02-.2c-.13-.02-.15-.18-.04-.26Z"/></g><g class="cls-79"><path class="cls-30" d="M11.73,1.78l-1.2.87c-.11.08-.27,0-.26-.15l.09-1.14c0-.1.1-.17.2-.15l1.11.27c.14.03.17.21.06.3Z"/><path class="cls-73" d="M11.71,1.78l-1.19.87c-.11.08-.27,0-.26-.15l.09-1.14c0-.1.1-.17.2-.15l1.11.27c.14.03.17.21.06.29Z"/><path class="cls-53" d="M11.7,1.78l-1.18.86c-.11.08-.27,0-.26-.15l.09-1.13c0-.1.1-.17.2-.15l1.1.27c.14.03.17.21.06.29Z"/><path class="cls-41" d="M11.69,1.78l-1.18.85c-.11.08-.27,0-.26-.14l.08-1.12c0-.1.1-.17.2-.14l1.09.27c.13.03.17.21.06.29Z"/><path class="cls-22" d="M11.68,1.79l-1.17.85c-.11.08-.27,0-.26-.14l.08-1.11c0-.1.1-.17.2-.14l1.08.26c.13.03.17.21.06.29Z"/><path class="cls-49" d="M11.67,1.79l-1.16.84c-.11.08-.26,0-.25-.14l.08-1.1c0-.1.1-.17.2-.14l1.07.26c.13.03.17.21.06.29Z"/><path class="cls-64" d="M11.66,1.79l-1.15.83c-.11.08-.26,0-.25-.14l.08-1.1c0-.1.1-.16.19-.14l1.07.26c.13.03.17.2.06.28Z"/><path class="cls-17" d="M11.65,1.79l-1.14.83c-.11.08-.26,0-.25-.14l.08-1.09c0-.1.1-.16.19-.14l1.06.26c.13.03.17.2.06.28Z"/><path class="cls-16" d="M11.64,1.8l-1.13.82c-.11.08-.26,0-.25-.14l.08-1.08c0-.1.1-.16.19-.14l1.05.26c.13.03.16.2.06.28Z"/><path class="cls-62" d="M11.63,1.8l-1.12.81c-.11.08-.26,0-.25-.14l.08-1.07c0-.1.1-.16.19-.14l1.04.26c.13.03.16.2.06.28Z"/><path class="cls-15" d="M11.62,1.8l-1.11.81c-.11.08-.25,0-.24-.14l.07-1.06c0-.09.1-.16.19-.14l1.03.26c.13.03.16.2.06.28Z"/><path class="cls-20" d="M11.61,1.8l-1.1.8c-.1.08-.25,0-.24-.14l.07-1.06c0-.09.09-.16.19-.14l1.03.26c.13.03.16.2.06.27Z"/></g><path class="cls-38" d="M15.28,7.08h0c-.25,0-.52.03-.79.07-.81-2.27-2.98-3.9-5.53-3.9-2.92,0-5.33,2.13-5.79,4.91C1.41,8.31.02,9.77.02,11.57c0,1.89,1.54,3.43,3.43,3.43h11.83c2.19,0,3.96-1.77,3.96-3.96s-1.77-3.96-3.96-3.96Z"/><path class="cls-67" d="M15.28,7.02h0c-.25,0-.52.03-.79.07-.81-2.23-2.98-3.83-5.53-3.83-2.92,0-5.33,2.09-5.79,4.83C1.41,8.23.02,9.66.02,11.44c0,1.86,1.54,3.37,3.43,3.37h11.83c2.19,0,3.96-1.74,3.96-3.89s-1.77-3.89-3.96-3.89Z"/><g class="cls-83"><g class="cls-84"><path class="cls-78" d="M19.64,6.5c0,2.95-2.43,5.34-5.43,5.34s-5.43-2.39-5.43-5.34S11.21,1.16,14.21,1.16s5.43,2.39,5.43,5.34Z"/><path class="cls-63" d="M19.39,6.5c0,2.81-2.32,5.09-5.19,5.09s-5.19-2.28-5.19-5.09S11.34,1.4,14.21,1.4s5.19,2.28,5.19,5.09Z"/><path class="cls-5" d="M19.15,6.5c0,2.68-2.21,4.85-4.94,4.85s-4.94-2.17-4.94-4.85S11.48,1.64,14.21,1.64s4.94,2.17,4.94,4.85Z"/><path class="cls-74" d="M18.9,6.5c0,2.54-2.1,4.61-4.69,4.61s-4.69-2.06-4.69-4.61S11.62,1.89,14.21,1.89s4.69,2.06,4.69,4.61Z"/><path class="cls-46" d="M18.65,6.5c0,2.41-1.99,4.36-4.44,4.36s-4.44-1.95-4.44-4.36,1.99-4.36,4.44-4.36,4.44,1.95,4.44,4.36Z"/><path class="cls-33" d="M18.4,6.5c0,2.28-1.88,4.12-4.2,4.12s-4.2-1.85-4.2-4.12,1.88-4.12,4.2-4.12,4.2,1.85,4.2,4.12Z"/><path class="cls-47" d="M18.15,6.5c0,2.14-1.77,3.88-3.95,3.88s-3.95-1.74-3.95-3.88,1.77-3.88,3.95-3.88,3.95,1.74,3.95,3.88Z"/><path class="cls-76" d="M17.91,6.5c0,2.01-1.66,3.63-3.7,3.63s-3.7-1.63-3.7-3.63,1.66-3.63,3.7-3.63,3.7,1.63,3.7,3.63Z"/><path class="cls-25" d="M17.66,6.5c0,1.87-1.55,3.39-3.45,3.39s-3.45-1.52-3.45-3.39,1.55-3.39,3.45-3.39,3.45,1.52,3.45,3.39Z"/><path class="cls-50" d="M17.41,6.5c0,1.74-1.43,3.15-3.2,3.15s-3.2-1.41-3.2-3.15,1.43-3.15,3.2-3.15,3.2,1.41,3.2,3.15Z"/></g></g><path class="cls-8" d="M15.3,7.03h0c-.25,0-.52.03-.79.07-.81-2.24-2.98-3.84-5.54-3.84-2.92,0-5.34,2.1-5.8,4.84-1.77.14-3.16,1.58-3.16,3.35,0,1.87,1.54,3.38,3.44,3.38h11.86c2.19,0,3.97-1.75,3.97-3.9s-1.78-3.9-3.97-3.9Z"/><path class="cls-18" d="M15.15,7.21h0s0,0,0,0h0s-.01,0-.01,0c-.25,0-.5.04-.78.05-.78-2.2-2.93-3.77-5.45-3.77-2.88,0-5.24,2.01-5.7,4.72-1.74.14-3.12,1.55-3.12,3.3,0,1.84,1.52,3.33,3.39,3.33h11.7c2.16,0,3.92-1.71,3.91-3.83,0-2.08-1.77-3.79-3.93-3.79Z"/><path class="cls-42" d="M15.01,7.39h-.01s-.02,0-.02,0c-.25,0-.48.04-.77.02-.74-2.17-2.87-3.7-5.36-3.7-2.85,0-5.14,1.93-5.59,4.59-1.72.14-3.08,1.53-3.08,3.25,0,1.81,1.5,3.27,3.35,3.27h11.54c2.13,0,3.86-1.67,3.84-3.75-.01-2.01-1.77-3.68-3.9-3.68Z"/><path class="cls-14" d="M14.86,7.57h-.02s0,0,0,0h-.04c-.24,0-.47.06-.76,0-.7-2.13-2.82-3.63-5.27-3.63-2.81,0-5.04,1.84-5.49,4.46-1.7.13-3.04,1.5-3.04,3.2,0,1.78,1.48,3.22,3.3,3.22h11.39c2.1,0,3.81-1.63,3.78-3.68-.02-1.94-1.76-3.57-3.86-3.57Z"/><path class="cls-39" d="M14.72,7.75h-.03s-.05.01-.05.01c-.24,0-.45.06-.74-.03-.67-2.1-2.76-3.56-5.18-3.56-2.77,0-4.94,1.76-5.38,4.33-1.67.13-2.99,1.48-2.99,3.14,0,1.75,1.46,3.17,3.26,3.17h11.23c2.08,0,3.76-1.59,3.72-3.61-.03-1.87-1.75-3.46-3.83-3.46Z"/><path class="cls-36" d="M14.57,7.93h-.03s0,0,0,0h0s-.06.02-.06.02c-.24,0-.43.07-.73-.05-.63-2.06-2.7-3.49-5.09-3.49-2.73,0-4.85,1.68-5.28,4.21-1.65.13-2.95,1.46-2.95,3.09,0,1.72,1.44,3.12,3.21,3.12h11.07c2.05,0,3.7-1.55,3.66-3.53-.04-1.8-1.75-3.35-3.79-3.35Z"/><path class="cls-23" d="M14.43,8.11h-.04s-.07.02-.07.02c-.23,0-.42.08-.72-.08-.59-2.03-2.65-3.42-5-3.42-2.69,0-4.75,1.59-5.17,4.08-1.63.13-2.91,1.43-2.91,3.04,0,1.69,1.42,3.06,3.16,3.06h10.91c2.02,0,3.65-1.51,3.59-3.46-.04-1.73-1.74-3.25-3.76-3.25Z"/><path class="cls-31" d="M14.28,8.29h-.05s0,0,0,0h0l-.09.02c-.23,0-.4.08-.71-.1-.56-1.99-2.59-3.35-4.91-3.35-2.65,0-4.65,1.51-5.06,3.95-1.6.12-2.87,1.41-2.87,2.99,0,1.66,1.4,3.01,3.12,3.01h10.76c1.99,0,3.6-1.46,3.53-3.38-.05-1.66-1.74-3.14-3.72-3.14Z"/><path class="cls-4" d="M14.14,8.47h-.05s-.1.03-.1.03c-.23,0-.38.09-.69-.13-.52-1.96-2.54-3.28-4.82-3.28-2.61,0-4.55,1.42-4.96,3.83-1.58.12-2.83,1.38-2.83,2.93,0,1.63,1.38,2.96,3.07,2.96h10.6c1.96,0,3.54-1.42,3.47-3.31-.06-1.58-1.73-3.03-3.69-3.03Z"/><path class="cls-24" d="M13.99,8.65h-.06s0,0,0,0h0l-.11.03c-.22,0-.37.1-.68-.15-.49-1.92-2.48-3.21-4.73-3.21-2.57,0-4.45,1.34-4.85,3.7-1.56.12-2.78,1.36-2.78,2.88,0,1.6,1.36,2.9,3.03,2.9h10.44c1.93,0,3.49-1.38,3.41-3.23-.06-1.51-1.72-2.92-3.65-2.92Z"/><path class="cls-34" d="M13.85,8.83h-.07s-.12.04-.12.04c-.22,0-.35.11-.67-.18-.45-1.89-2.42-3.14-4.64-3.14-2.54,0-4.35,1.25-4.75,3.57-1.53.12-2.74,1.33-2.74,2.83,0,1.57,1.33,2.85,2.98,2.85h10.29c1.9,0,3.44-1.34,3.34-3.16-.07-1.44-1.72-2.81-3.62-2.81Z"/><path class="cls-35" d="M13.7,9.02h-.07s0,0,0,0c0,0-.14.03-.14.03-.22,0-.33.12-.66-.2-.41-1.85-2.37-3.07-4.55-3.07-2.5,0-4.25,1.17-4.64,3.44-1.51.12-2.7,1.31-2.7,2.78,0,1.55,1.31,2.8,2.94,2.8h10.13c1.87,0,3.38-1.3,3.28-3.08-.08-1.37-1.71-2.7-3.59-2.7Z"/><path class="cls-60" d="M5.36,13.21c0-.08-.03-.13-.05-.14-.03,0-.07.01-.12.08-.43.53-1.36,1.49-1.56,2.1-.17.49.08,1.02.55,1.18.47.16.99-.11,1.16-.6.2-.61.05-1.94.03-2.62Z"/><path class="cls-44" d="M5.35,13.2c0-.08-.02-.12-.05-.13-.03,0-.07.01-.12.07-.42.51-1.33,1.46-1.53,2.05-.16.48.08,1,.55,1.15s.97-.11,1.14-.59c.2-.59.05-1.9.02-2.56Z"/><g class="cls-82"><rect class="cls-3" x="2.82" y="14.66" width="4.09" height="2.11"/></g><path class="cls-60" d="M10.49,12.42c0-.08-.03-.13-.05-.14-.03,0-.07.01-.12.08-.43.53-1.36,1.49-1.56,2.1-.17.49.08,1.02.55,1.18.47.16.99-.11,1.16-.6.2-.61.05-1.94.03-2.62Z"/><path class="cls-37" d="M10.47,12.41c0-.08-.02-.12-.05-.13-.03,0-.07.01-.12.07-.42.51-1.33,1.46-1.53,2.05-.16.48.08,1,.55,1.15.46.16.97-.11,1.14-.59.2-.59.05-1.9.02-2.56Z"/><g class="cls-80"><rect class="cls-19" x="8.15" y="14.32" width="4.09" height="2.11"/></g><path class="cls-60" d="M7.28,15.9c0-.08-.03-.13-.05-.14-.03,0-.07.01-.12.08-.43.53-1.36,1.49-1.56,2.1-.17.49.08,1.02.55,1.18s.99-.11,1.16-.6c.21-.61.05-1.94.03-2.62Z"/><path class="cls-27" d="M7.26,15.89c0-.08-.02-.12-.05-.13-.03,0-.07.01-.12.07-.42.51-1.33,1.46-1.53,2.05-.16.48.08,1,.55,1.15.46.16.97-.11,1.14-.59.2-.59.05-1.9.02-2.56Z"/></g></g></g></svg>