<?xml version="1.0" encoding="UTF-8"?><svg xmlns="http://www.w3.org/2000/svg" xmlns:xlink="http://www.w3.org/1999/xlink" viewBox="0 0 25.53 19.61"><defs><style>.cls-1{fill:url(#_R_W_h_6);opacity:.28;}.cls-1,.cls-2,.cls-3,.cls-4,.cls-5,.cls-6,.cls-7,.cls-8,.cls-9,.cls-10,.cls-11,.cls-12,.cls-13,.cls-14,.cls-15,.cls-16,.cls-17,.cls-18,.cls-19,.cls-20,.cls-21,.cls-22,.cls-23,.cls-24,.cls-25,.cls-26,.cls-27,.cls-28,.cls-29,.cls-30,.cls-31,.cls-32,.cls-33,.cls-34,.cls-35,.cls-36,.cls-37,.cls-38,.cls-39,.cls-40,.cls-41,.cls-42,.cls-43,.cls-44,.cls-45,.cls-46,.cls-47,.cls-48,.cls-49,.cls-50,.cls-51,.cls-52,.cls-53,.cls-54,.cls-55,.cls-56,.cls-57,.cls-58,.cls-59{stroke-width:0px;}.cls-1,.cls-3,.cls-4,.cls-9,.cls-19,.cls-28,.cls-29,.cls-31,.cls-60,.cls-44,.cls-51,.cls-55,.cls-58{mix-blend-mode:screen;}.cls-2{fill:#d3cdeb;}.cls-3{fill:url(#_R_W_h_3);opacity:.2;}.cls-4{fill:url(#_R_W_h_44);opacity:.68;}.cls-5{fill:#ddc8fc;}.cls-6{fill:#e5dff3;}.cls-7{fill:#decbfc;}.cls-8{fill:#f4f2fa;opacity:.44;}.cls-9{fill:url(#_R_W_h_9);opacity:.44;}.cls-10{fill:#dbd5ee;}.cls-11{fill:#030305;opacity:.09;}.cls-12{fill:#080812;opacity:.36;}.cls-13{fill:#0e0c20;opacity:.64;}.cls-14{fill:url(#_R_W_h_2);}.cls-15{fill:#e0d0fc;}.cls-16{fill:#13112d;opacity:.91;}.cls-17{fill:#ece8f6;opacity:.78;}.cls-61{isolation:isolate;}.cls-18{fill:#06060e;opacity:.27;}.cls-19{fill:url(#_R_W_h_47);opacity:.92;}.cls-20{fill:#f7f5fb;opacity:.33;}.cls-21{fill:#05040a;opacity:.18;}.cls-22{fill:#efebf8;opacity:.67;}.cls-23{fill:#e7e1f4;}.cls-24{fill:#e3d7fd;}.cls-25{fill:#fcfcfe;opacity:.11;}.cls-26{fill:none;}.cls-27{fill:#e1d2fc;}.cls-28{fill:url(#_R_W_h_12);opacity:.52;}.cls-62{clip-path:url(#clippath-1);}.cls-29{opacity:.12;}.cls-29,.cls-35{fill:#010101;}.cls-30{fill:#f2eef9;opacity:.56;}.cls-31{fill:url(#_R_W_h_7);opacity:.36;}.cls-32{fill:url(#_R_W_h_1436);}.cls-33{fill:#151331;}.cls-34{fill:url(#_R_W_h_3396);}.cls-35,.cls-57{opacity:0;}.cls-36{fill:url(#_R_W_h_3389);}.cls-37{fill:#dfcdfc;}.cls-38{fill:#d6d0ec;}.cls-39{fill:#e0daf1;}.cls-40{fill:#d1cbea;}.cls-63{clip-path:url(#clippath);}.cls-41{fill:#ddd7f0;}.cls-42{fill:#faf8fd;opacity:.22;}.cls-43{fill:#100e24;opacity:.73;}.cls-44{fill:url(#_R_W_h_771);}.cls-45{fill:#e2dcf2;}.cls-46{fill:#e4dafd;}.cls-47{fill:#d8d2ed;}.cls-48{fill:#e6dffd;}.cls-49{fill:#e5dcfd;}.cls-50{fill:#0a0917;opacity:.45;}.cls-51{fill:url(#_R_W_h_37);opacity:.6;}.cls-64{mask:url(#mask);}.cls-52{fill:url(#_R_W_h_929);}.cls-53{fill:#e2d5fd;}.cls-54{fill:#eae4f5;opacity:.89;}.cls-55{fill:url(#_R_W_h_46);opacity:.84;}.cls-56{fill:#111028;opacity:.82;}.cls-65{mix-blend-mode:multiply;}.cls-57{fill:#fff;}.cls-58{fill:url(#_R_W_h_45);opacity:.76;}.cls-59{fill:#0c0b1b;opacity:.55;}</style><linearGradient id="_R_W_h_2" x1="-105.68" y1="106.03" x2="-95.93" y2="104.79" gradientTransform="translate(107.92 -105.66) rotate(-4.76)" gradientUnits="userSpaceOnUse"><stop offset="0" stop-color="#9a6ff4"/><stop offset=".57" stop-color="#916ff4"/><stop offset="1" stop-color="#8d74ef"/></linearGradient><radialGradient id="_R_W_h_929" cx="-102.57" cy="106.93" fx="-102.57" fy="106.93" r="8.8" gradientTransform="translate(107.92 -105.66) rotate(-4.76)" gradientUnits="userSpaceOnUse"><stop offset="0" stop-color="#722cdf"/><stop offset=".19" stop-color="#763be0"/><stop offset=".37" stop-color="#7a46e1"/><stop offset=".5" stop-color="#7c4ee3"/><stop offset=".72" stop-color="#8166ec"/><stop offset=".98" stop-color="#8b8df9"/><stop offset="1" stop-color="#8c90fa"/></radialGradient><clipPath id="clippath"><path class="cls-26" d="M14.14,6.35c-.33-1.14-.22-2.25.2-3.21.07-.15-.1-.29-.24-.22-1.88,1.03-3.03,3.19-2.58,5.5.45,2.33,2.53,4.1,4.91,4.15,2.35.06,4.29-1.43,5-3.46.05-.15-.12-.29-.25-.2-.87.57-1.95.87-3.13.73-.91-.1-1.76-.49-2.44-1.07-.68-.58-1.2-1.35-1.46-2.23Z"/></clipPath><linearGradient id="_R_W_h_1436" x1="0" y1="13.1" x2="19.98" y2="13.1" gradientUnits="userSpaceOnUse"><stop offset="0" stop-color="#f4fbfb"/><stop offset=".61" stop-color="#fbfbfb"/><stop offset=".8" stop-color="#f6fafa"/><stop offset="1" stop-color="#eaf8f9"/></linearGradient><radialGradient id="_R_W_h_3396" cx="14.58" cy="6.44" fx="14.58" fy="6.44" r="23.91" gradientUnits="userSpaceOnUse"><stop offset="0" stop-color="#ece8fd"/><stop offset=".35" stop-color="#ece8fd"/><stop offset=".7" stop-color="#e2e0f1"/><stop offset="1" stop-color="#d8d7e4"/></radialGradient><clipPath id="clippath-1"><path class="cls-26" d="M15.87,10.91h0c-.26,0-.54.03-.82.07-.36-1-.99-1.88-1.79-2.55-1.06-.89-2.44-1.43-3.95-1.43-.97,0-1.88.22-2.7.62-1.73.84-3,2.47-3.32,4.41-1.83.15-3.28,1.64-3.28,3.48,0,1.94,1.6,3.51,3.57,3.51h12.3c2.27,0,4.12-1.81,4.12-4.05s-1.84-4.05-4.12-4.05Z"/></clipPath><radialGradient id="_R_W_h_3389" cx="16.08" cy="7.98" fx="16.08" fy="7.98" r="6.91" gradientUnits="userSpaceOnUse"><stop offset=".64" stop-color="#fff"/><stop offset="1" stop-color="#010101"/></radialGradient><mask id="mask" x="9.11" y="1.13" width="13.94" height="13.69" maskUnits="userSpaceOnUse"><path class="cls-36" d="M23.05,7.98c0,3.78-3.12,6.85-6.97,6.85s-6.97-3.07-6.97-6.85,3.12-6.85,6.97-6.85,6.97,3.07,6.97,6.85Z"/></mask><linearGradient id="_R_W_h_771" x1="13.13" y1="8.41" x2="6.91" y2="22.03" gradientUnits="userSpaceOnUse"><stop offset="0" stop-color="#bab6fb"/><stop offset=".09" stop-color="#b0acee"/><stop offset=".26" stop-color="#9894cd"/><stop offset=".48" stop-color="#706e97"/><stop offset=".74" stop-color="#3a394e"/><stop offset="1" stop-color="#010101"/></linearGradient><linearGradient id="_R_W_h_47" x1="13.02" y1="8.62" x2="6.92" y2="21.98" gradientUnits="userSpaceOnUse"><stop offset="0" stop-color="#a9a6e4"/><stop offset=".1" stop-color="#9f9cd7"/><stop offset=".28" stop-color="#8784b6"/><stop offset=".51" stop-color="#5f5d80"/><stop offset=".8" stop-color="#292837"/><stop offset="1" stop-color="#010101"/></linearGradient><linearGradient id="_R_W_h_46" x1="12.9" y1="8.83" x2="6.92" y2="21.94" gradientUnits="userSpaceOnUse"><stop offset="0" stop-color="#9895ce"/><stop offset=".11" stop-color="#8e8cc1"/><stop offset=".3" stop-color="#7674a0"/><stop offset=".56" stop-color="#4e4d6a"/><stop offset=".87" stop-color="#191821"/><stop offset="1" stop-color="#010101"/></linearGradient><linearGradient id="_R_W_h_45" x1="12.79" y1="9.05" x2="6.92" y2="21.89" gradientUnits="userSpaceOnUse"><stop offset="0" stop-color="#8885b7"/><stop offset=".12" stop-color="#7e7baa"/><stop offset=".33" stop-color="#666389"/><stop offset=".61" stop-color="#3e3d53"/><stop offset=".96" stop-color="#08080a"/><stop offset="1" stop-color="#010101"/></linearGradient><linearGradient id="_R_W_h_44" x1="12.67" y1="9.26" x2="6.93" y2="21.84" gradientUnits="userSpaceOnUse"><stop offset="0" stop-color="#7774a0"/><stop offset=".13" stop-color="#6d6a93"/><stop offset=".37" stop-color="#555372"/><stop offset=".68" stop-color="#2d2c3d"/><stop offset="1" stop-color="#010101"/></linearGradient><linearGradient id="_R_W_h_37" x1="12.56" y1="9.47" x2="6.93" y2="21.8" gradientUnits="userSpaceOnUse"><stop offset="0" stop-color="#666489"/><stop offset=".15" stop-color="#5c5a7c"/><stop offset=".41" stop-color="#44425b"/><stop offset=".77" stop-color="#1c1c26"/><stop offset="1" stop-color="#010101"/></linearGradient><linearGradient id="_R_W_h_12" x1="12.44" y1="9.68" x2="6.93" y2="21.75" gradientUnits="userSpaceOnUse"><stop offset="0" stop-color="#555373"/><stop offset=".17" stop-color="#4b4a66"/><stop offset=".48" stop-color="#333245"/><stop offset=".89" stop-color="#0c0c10"/><stop offset="1" stop-color="#010101"/></linearGradient><linearGradient id="_R_W_h_9" x1="12.33" y1="9.89" x2="6.94" y2="21.7" gradientUnits="userSpaceOnUse"><stop offset="0" stop-color="#44435c"/><stop offset=".2" stop-color="#3a394f"/><stop offset=".57" stop-color="#22222e"/><stop offset="1" stop-color="#010101"/></linearGradient><linearGradient id="_R_W_h_7" x1="12.21" y1="10.11" x2="6.94" y2="21.66" gradientUnits="userSpaceOnUse"><stop offset="0" stop-color="#333245"/><stop offset=".26" stop-color="#292938"/><stop offset=".72" stop-color="#111117"/><stop offset="1" stop-color="#010101"/></linearGradient><linearGradient id="_R_W_h_6" x1="12.1" y1="10.32" x2="6.94" y2="21.61" gradientUnits="userSpaceOnUse"><stop offset="0" stop-color="#23222e"/><stop offset=".36" stop-color="#191821"/><stop offset="1" stop-color="#010101"/></linearGradient><linearGradient id="_R_W_h_3" x1="11.98" y1="10.53" x2="6.95" y2="21.56" gradientUnits="userSpaceOnUse"><stop offset="0" stop-color="#121118"/><stop offset=".61" stop-color="#08080b"/><stop offset="1" stop-color="#010101"/></linearGradient></defs><g class="cls-61"><g id="Layer_2"><g id="Main_1"><g class="cls-65"><path class="cls-57" d="M5.06,11.25C3.72,3.02,13.28-2.7,15.69,1.31c1.26,2.09-.15,2.96-.3,5.43-.16,2.69,2.25,1.78,4.61.55,3.53-1.83,6.76,2.43,5.05,5.73-5.25,10.15-18.44,7.81-20-1.77Z"/><path class="cls-25" d="M5.5,11.2C4.19,3.44,13.05-1.9,15.36,1.66c1.27,1.96-.17,2.94-.23,5.34-.07,2.58,2.37,1.97,4.76.71,3.38-1.77,6.34,2.1,4.7,5.28-4.88,9.45-17.51,7.48-19.09-1.8Z"/><path class="cls-42" d="M5.94,11.15C4.67,3.85,12.83-1.11,15.02,2.02c1.29,1.84-.19,2.92-.17,5.26.02,2.48,2.49,2.16,4.91.88,3.23-1.7,5.92,1.78,4.34,4.83-4.51,8.74-16.58,7.15-18.18-1.83Z"/><path class="cls-20" d="M6.37,11.11C5.13,4.27,12.62-.32,14.69,2.37c1.32,1.72-.21,2.89-.11,5.17.11,2.37,2.61,2.35,5.07,1.04,3.09-1.64,5.5,1.45,3.99,4.39-4.14,8.04-15.68,6.83-17.26-1.86Z"/><path class="cls-8" d="M6.81,11.06C5.6,4.68,12.44.46,14.35,2.73c1.35,1.6-.24,2.87-.04,5.08.2,2.26,2.73,2.54,5.22,1.21,2.94-1.58,5.08,1.13,3.63,3.94-3.77,7.33-14.75,6.5-16.35-1.89Z"/><path class="cls-30" d="M7.25,11.02c-1.18-5.92,5.02-9.79,6.76-7.94,1.39,1.47-.26,2.85.02,4.99.29,2.15,2.86,2.73,5.37,1.37,2.79-1.51,4.66.8,3.28,3.49-3.4,6.62-13.83,6.17-15.44-1.92Z"/><path class="cls-22" d="M7.69,10.97c-1.14-5.46,4.43-8.99,5.99-7.54,1.44,1.35-.29,2.82.08,4.91.37,2.04,2.98,2.93,5.52,1.54,2.65-1.45,4.24.48,2.92,3.05-3.03,5.92-12.9,5.85-14.52-1.95Z"/><path class="cls-17" d="M8.13,10.92c-1.09-5,3.87-8.21,5.22-7.14,1.51,1.2-.32,2.8.15,4.82.45,1.93,3.1,3.13,5.67,1.7,2.51-1.38,3.82.15,2.57,2.6-2.67,5.21-11.97,5.52-13.61-1.99Z"/><path class="cls-54" d="M8.56,10.88c-1.05-4.54,3.32-7.45,4.44-6.73,1.6,1.02-.36,2.78.21,4.73.53,1.82,3.23,3.32,5.83,1.86,2.36-1.31,3.4-.17,2.22,2.15-2.3,4.51-11.03,5.19-12.7-2.02Z"/><path class="cls-23" d="M9,10.83c-1-4.08,2.76-6.73,3.67-6.33,1.72.75-.39,2.76.27,4.65.61,1.72,3.35,3.51,5.98,2.03,2.21-1.25,2.98-.5,1.86,1.71-1.93,3.8-10.09,4.86-11.78-2.05Z"/><path class="cls-6" d="M9.21,10.8c-.93-3.83,2.44-6.25,3.29-5.89,1.59.69-.41,2.48.27,4.4.63,1.78,3.41,3.5,6.05,2.04,2.1-1.17,2.73-.44,1.66,1.56-1.88,3.51-9.66,4.52-11.26-2.11Z"/><path class="cls-45" d="M9.41,10.76c-.86-3.58,2.12-5.77,2.91-5.44,1.46.62-.42,2.2.26,4.15.65,1.84,3.47,3.5,6.12,2.05,2-1.09,2.48-.39,1.45,1.41-1.83,3.21-9.23,4.18-10.74-2.17Z"/><path class="cls-39" d="M9.62,10.73c-.79-3.32,1.79-5.29,2.52-4.99,1.33.55-.44,1.92.25,3.9.67,1.9,3.53,3.5,6.18,2.07,1.89-1.02,2.23-.34,1.25,1.26-1.78,2.92-8.79,3.85-10.21-2.24Z"/><path class="cls-41" d="M9.82,10.69c-.71-3.07,1.47-4.81,2.14-4.54,1.2.48-.45,1.64.25,3.65.69,1.96,3.59,3.49,6.25,2.08,1.78-.94,1.98-.29,1.05,1.11-1.74,2.62-8.36,3.51-9.69-2.3Z"/><path class="cls-10" d="M10.03,10.66c-.64-2.82,1.15-4.33,1.76-4.1,1.07.42-.47,1.37.24,3.4.7,2.02,3.65,3.48,6.32,2.09,1.67-.87,1.72-.24.84.97-1.7,2.33-7.92,3.17-9.17-2.36Z"/><path class="cls-47" d="M10.24,10.62c-.56-2.56.82-3.85,1.38-3.65.95.35-.48,1.09.23,3.15.72,2.09,3.7,3.48,6.39,2.1,1.56-.8,1.46-.19.64.82-1.66,2.03-7.49,2.84-8.65-2.42Z"/><path class="cls-38" d="M10.44,10.59c-.49-2.31.5-3.37,1-3.2.82.28-.5.81.23,2.9.74,2.15,3.76,3.47,6.46,2.12,1.45-.72,1.2-.14.44.67-1.63,1.73-7.06,2.5-8.12-2.49Z"/><path class="cls-2" d="M10.65,10.55c-.42-2.05.18-2.89.62-2.75.69.22-.51.53.22,2.65.76,2.21,3.82,3.45,6.53,2.13,1.34-.65.94-.1.23.52-1.61,1.42-6.64,2.17-7.6-2.55Z"/><path class="cls-40" d="M10.85,10.52c-.35-1.8-.15-2.41.24-2.31.56.15-.52.25.22,2.4.78,2.27,3.87,3.44,6.6,2.14,1.23-.58.67-.07.03.37-1.6,1.09-6.21,1.83-7.08-2.61Z"/></g><path class="cls-14" d="M14.15,6.48c-.33-1.14-.22-2.25.2-3.21.07-.15-.1-.29-.24-.22-1.88,1.03-3.03,3.19-2.58,5.5.45,2.33,2.53,4.1,4.91,4.15,2.35.06,4.29-1.43,5-3.46.09-.16-.03-.41-.16-.32-.87.57-2.04.98-3.22.85-1.83-.21-3.39-1.53-3.9-3.3Z"/><path class="cls-52" d="M14.14,6.35c-.33-1.14-.22-2.25.2-3.21.07-.15-.1-.29-.24-.22-1.88,1.03-3.03,3.19-2.58,5.5.45,2.33,2.53,4.1,4.91,4.15,2.35.06,4.29-1.43,5-3.46.05-.15-.12-.29-.25-.2-.87.57-1.95.87-3.13.73-1.83-.21-3.39-1.53-3.9-3.3Z"/><g class="cls-63"><g class="cls-60"><path class="cls-35" d="M20.43,2.02c-3.09-2.58-7.94-1.1-8.78.44l-.66,2.2c.71-.35,1.08-.06,1.35.54.2.44.21,1.43.86,3.28.64,1.81,2.03,2.43,3.42,2.59,2.15.25,3.18-.27,3.92-.33.35-.03,1.02.29,2.09-.77.64-.64.96-1.59.84-2.49-.12-.86-1.39-4.1-3.02-5.46Z"/><path class="cls-11" d="M20.47,1.98c-3.09-2.58-7.94-1.1-8.78.44l-.62,2.18c.7-.36,1.17-.18,1.4.44.18.47.16,1.47.8,3.26.66,1.87,2.11,2.5,3.47,2.66,2.04.24,3.08-.26,3.85-.34.35-.04,1.04.26,2.07-.73.64-.62.97-1.55.85-2.45-.12-.86-1.39-4.1-3.02-5.46Z"/><path class="cls-21" d="M20.51,1.93c-3.09-2.58-7.94-1.1-8.78.44l-.59,2.16c.69-.36,1.25-.3,1.46.35.15.5.12,1.5.73,3.24.68,1.94,2.19,2.58,3.51,2.74,1.93.23,2.98-.24,3.79-.36.34-.05,1.07.23,2.04-.69.64-.6.99-1.52.86-2.42-.12-.86-1.39-4.1-3.02-5.46Z"/><path class="cls-18" d="M20.54,1.89c-3.09-2.58-7.94-1.1-8.78.44l-.55,2.14c.69-.36,1.34-.42,1.51.26.13.52.07,1.54.67,3.22.71,2,2.27,2.66,3.56,2.81,1.82.21,2.87-.23,3.72-.38.34-.06,1.09.21,2.02-.64.63-.58,1-1.48.87-2.38-.12-.86-1.39-4.1-3.02-5.46Z"/><path class="cls-12" d="M20.58,1.85c-3.09-2.58-7.94-1.1-8.78.44l-.51,2.12c.68-.36,1.43-.53,1.57.16.11.55.03,1.57.6,3.2.73,2.06,2.36,2.74,3.61,2.88,1.71.2,2.77-.22,3.66-.4.34-.07,1.11.18,2-.6.63-.56,1.01-1.44.88-2.34-.12-.86-1.39-4.1-3.02-5.46Z"/><path class="cls-50" d="M20.62,1.8c-3.09-2.58-7.94-1.1-8.78.44l-.47,2.1c.67-.37,1.52-.65,1.62.07.08.58-.02,1.61.54,3.17.75,2.13,2.44,2.81,3.65,2.96,1.6.19,2.67-.2,3.59-.42.34-.08,1.13.16,1.98-.56.63-.53,1.02-1.4.89-2.3-.12-.86-1.39-4.1-3.02-5.46Z"/><path class="cls-59" d="M20.65,1.76c-3.09-2.58-7.94-1.1-8.78.44l-.43,2.08c.67-.37,1.6-.77,1.68-.02.06.61-.06,1.64.47,3.15.77,2.19,2.52,2.89,3.7,3.03,1.49.17,2.56-.19,3.52-.43.34-.09,1.16.14,1.96-.52.63-.51,1.03-1.37.91-2.27-.12-.86-1.39-4.1-3.02-5.46Z"/><path class="cls-13" d="M20.69,1.72c-3.09-2.58-7.94-1.1-8.78.44l-.39,2.06c.66-.37,1.69-.88,1.73-.12.04.64-.11,1.68.4,3.13.79,2.25,2.6,2.97,3.75,3.1,1.37.16,2.46-.17,3.46-.45.33-.09,1.18.12,1.94-.47.63-.49,1.04-1.33.92-2.23-.12-.86-1.39-4.1-3.02-5.46Z"/><path class="cls-43" d="M20.73,1.67c-3.09-2.58-7.94-1.1-8.78.44l-.35,2.04c.65-.38,1.77-1,1.78-.21.01.67-.15,1.71.34,3.11.81,2.32,2.68,3.05,3.79,3.18,1.26.15,2.36-.16,3.39-.47.33-.1,1.21.09,1.92-.43.63-.47,1.05-1.29.93-2.19-.12-.86-1.39-4.1-3.02-5.46Z"/><path class="cls-56" d="M20.76,1.63c-3.09-2.58-7.94-1.1-8.78.44l-.31,2.02c.65-.38,1.86-1.11,1.84-.31-.01.69-.2,1.75.27,3.09.83,2.38,2.77,3.12,3.84,3.25,1.15.13,2.26-.14,3.33-.49.33-.11,1.24.08,1.9-.39.63-.44,1.06-1.25.94-2.15-.12-.86-1.39-4.1-3.02-5.46Z"/><path class="cls-16" d="M20.8,1.59c-3.09-2.58-7.94-1.1-8.78.44l-.27,2c.64-.38,1.94-1.23,1.89-.4-.04.72-.24,1.78.21,3.07.85,2.44,2.85,3.2,3.88,3.32,1.04.12,2.16-.12,3.26-.51.33-.12,1.26.06,1.88-.34.63-.41,1.07-1.22.95-2.12-.12-.86-1.39-4.1-3.02-5.46Z"/><path class="cls-33" d="M20.83,1.54c-3.09-2.58-7.94-1.1-8.78.44l-.23,1.98c.63-.38,2.03-1.35,1.95-.49-.07.75-.29,1.82.14,3.05.87,2.51,2.93,3.28,3.93,3.39.93.11,2.06-.1,3.2-.52.33-.12,1.29.04,1.85-.3.63-.38,1.08-1.18.96-2.08-.12-.86-1.39-4.1-3.02-5.46Z"/></g></g><path class="cls-32" d="M15.87,10.98h0c-.26,0-.54.03-.82.07-.84-2.36-3.09-4.05-5.75-4.05-3.03,0-5.54,2.21-6.02,5.11-1.83.15-3.28,1.67-3.28,3.54,0,1.97,1.6,3.57,3.57,3.57h12.3c2.27,0,4.12-1.84,4.12-4.12s-1.84-4.12-4.12-4.12Z"/><path class="cls-34" d="M15.87,10.91h0c-.26,0-.54.03-.82.07-.84-2.32-3.09-3.99-5.75-3.99-3.03,0-5.54,2.18-6.02,5.02-1.83.15-3.28,1.64-3.28,3.48,0,1.94,1.6,3.51,3.57,3.51h12.3c2.27,0,4.12-1.81,4.12-4.05s-1.84-4.05-4.12-4.05Z"/><g class="cls-62"><g class="cls-64"><path class="cls-48" d="M23.05,7.98c0,3.78-3.12,6.85-6.97,6.85s-6.97-3.07-6.97-6.85,3.12-6.85,6.97-6.85,6.97,3.07,6.97,6.85Z"/><path class="cls-49" d="M22.72,7.98c0,3.6-2.97,6.52-6.64,6.52s-6.64-2.92-6.64-6.52,2.97-6.52,6.64-6.52,6.64,2.92,6.64,6.52Z"/><path class="cls-46" d="M22.39,7.98c0,3.42-2.83,6.2-6.31,6.2s-6.31-2.77-6.31-6.2,2.83-6.2,6.31-6.2,6.31,2.77,6.31,6.2Z"/><path class="cls-24" d="M22.06,7.98c0,3.24-2.68,5.87-5.98,5.87s-5.98-2.63-5.98-5.87,2.68-5.87,5.98-5.87,5.98,2.63,5.98,5.87Z"/><path class="cls-53" d="M21.73,7.98c0,3.06-2.53,5.55-5.65,5.55s-5.65-2.48-5.65-5.55,2.53-5.55,5.65-5.55,5.65,2.48,5.65,5.55Z"/><path class="cls-27" d="M21.4,7.98c0,2.89-2.38,5.23-5.32,5.23s-5.32-2.34-5.32-5.23,2.38-5.23,5.32-5.23,5.32,2.34,5.32,5.23Z"/><path class="cls-15" d="M21.07,7.98c0,2.71-2.23,4.9-4.99,4.9s-4.99-2.19-4.99-4.9,2.23-4.9,4.99-4.9,4.99,2.19,4.99,4.9Z"/><path class="cls-37" d="M20.74,7.98c0,2.53-2.09,4.58-4.66,4.58s-4.66-2.05-4.66-4.58,2.09-4.58,4.66-4.58,4.66,2.05,4.66,4.58Z"/><path class="cls-7" d="M20.41,7.98c0,2.35-1.94,4.25-4.33,4.25s-4.33-1.9-4.33-4.25,1.94-4.25,4.33-4.25,4.33,1.9,4.33,4.25Z"/><path class="cls-5" d="M20.08,7.98c0,2.17-1.79,3.93-4,3.93s-4-1.76-4-3.93,1.79-3.93,4-3.93,4,1.76,4,3.93Z"/></g></g><path class="cls-44" d="M15.87,10.91h0c-.26,0-.54.03-.82.07-.84-2.32-3.09-3.99-5.75-3.99-3.03,0-5.54,2.18-6.02,5.02-1.83.15-3.28,1.64-3.28,3.48,0,1.94,1.6,3.51,3.57,3.51h12.3c2.27,0,4.12-1.81,4.12-4.05s-1.84-4.05-4.12-4.05Z"/><path class="cls-19" d="M15.72,11.1h0s0,0,0,0h-.01c-.26,0-.52.04-.81.05-.81-2.29-3.04-3.91-5.65-3.91-2.99,0-5.44,2.09-5.91,4.89-1.81.14-3.24,1.61-3.24,3.42,0,1.91,1.58,3.45,3.52,3.45h12.14c2.24,0,4.06-1.77,4.05-3.97,0-2.16-1.84-3.93-4.08-3.93Z"/><path class="cls-55" d="M15.57,11.29h-.01s0,0,0,0h0s-.03,0-.03,0c-.25,0-.5.05-.8.02-.77-2.25-2.98-3.84-5.56-3.84-2.95,0-5.34,2-5.8,4.76-1.78.14-3.19,1.59-3.19,3.37,0,1.88,1.55,3.4,3.47,3.4h11.97c2.21,0,4.01-1.73,3.99-3.89-.01-2.09-1.83-3.82-4.04-3.82Z"/><path class="cls-58" d="M15.42,11.47h-.02s0,0,0,0h0s-.04,0-.04,0c-.25,0-.49.05-.78,0-.73-2.21-2.92-3.77-5.47-3.77-2.91,0-5.23,1.91-5.69,4.63-1.76.14-3.15,1.56-3.15,3.32,0,1.85,1.53,3.34,3.42,3.34h11.81c2.18,0,3.95-1.69,3.92-3.82-.02-2.01-1.82-3.71-4.01-3.71Z"/><path class="cls-4" d="M15.27,11.66h-.03s0,0,0,0c0,0-.05.01-.05.01-.25,0-.47.06-.77-.03-.69-2.18-2.86-3.7-5.37-3.7-2.87,0-5.13,1.83-5.58,4.5-1.74.14-3.11,1.54-3.11,3.26,0,1.82,1.51,3.29,3.38,3.29h11.65c2.15,0,3.9-1.65,3.86-3.74-.03-1.94-1.82-3.59-3.97-3.59Z"/><path class="cls-51" d="M15.12,11.85h-.03s0,0,0,0c0,0-.06.02-.06.02-.24,0-.45.07-.76-.06-.65-2.14-2.8-3.62-5.28-3.62-2.83,0-5.03,1.74-5.47,4.36-1.71.13-3.06,1.51-3.06,3.21,0,1.79,1.49,3.23,3.33,3.23h11.48c2.12,0,3.84-1.6,3.79-3.66-.04-1.87-1.81-3.48-3.94-3.48Z"/><path class="cls-28" d="M14.97,12.03h-.04s0,0,0,0l-.08.02c-.24,0-.43.08-.74-.08-.62-2.1-2.75-3.55-5.19-3.55-2.79,0-4.92,1.65-5.36,4.23-1.69.13-3.02,1.48-3.02,3.15,0,1.75,1.47,3.18,3.28,3.18h11.32c2.09,0,3.79-1.56,3.73-3.59-.04-1.79-1.81-3.37-3.9-3.37Z"/><path class="cls-9" d="M14.82,12.22h-.05s0,0,0,0l-.09.02c-.24,0-.42.09-.73-.11-.58-2.07-2.69-3.48-5.09-3.48-2.75,0-4.82,1.56-5.25,4.1-1.66.13-2.98,1.46-2.98,3.1,0,1.72,1.45,3.12,3.24,3.12h11.16c2.06,0,3.73-1.52,3.66-3.51-.05-1.72-1.8-3.25-3.86-3.25Z"/><path class="cls-31" d="M14.67,12.41h-.06s0,0,0,0l-.1.03c-.23,0-.4.1-.72-.13-.54-2.03-2.63-3.4-5-3.4-2.71,0-4.72,1.48-5.14,3.97-1.64.13-2.93,1.43-2.93,3.04,0,1.69,1.43,3.07,3.19,3.07h10.99c2.03,0,3.68-1.48,3.6-3.43-.06-1.64-1.79-3.14-3.83-3.14Z"/><path class="cls-1" d="M14.52,12.6h-.06s-.12.03-.12.03c-.23,0-.38.1-.71-.16-.5-1.99-2.57-3.33-4.91-3.33-2.67,0-4.61,1.39-5.03,3.84-1.61.12-2.89,1.41-2.89,2.99,0,1.66,1.41,3.01,3.14,3.01h10.83c2,0,3.62-1.44,3.53-3.35-.07-1.57-1.79-3.03-3.79-3.03Z"/><path class="cls-3" d="M14.37,12.78h-.07s-.13.04-.13.04c-.23,0-.36.11-.69-.19-.47-1.96-2.51-3.26-4.81-3.26-2.63,0-4.51,1.3-4.93,3.7-1.59.12-2.85,1.38-2.85,2.93,0,1.63,1.38,2.96,3.09,2.96h10.67c1.97,0,3.57-1.39,3.47-3.28-.07-1.49-1.78-2.91-3.76-2.91Z"/><path class="cls-29" d="M14.22,12.97h-.08s-.14.04-.14.04c-.22,0-.35.12-.68-.21-.43-1.92-2.46-3.19-4.72-3.19-2.59,0-4.41,1.21-4.82,3.57-1.57.12-2.8,1.36-2.8,2.88,0,1.6,1.36,2.9,3.05,2.9h10.51c1.94,0,3.51-1.35,3.4-3.2-.08-1.42-1.78-2.8-3.72-2.8Z"/></g></g></g></svg>