<?xml version="1.0" encoding="UTF-8"?><svg xmlns="http://www.w3.org/2000/svg" xmlns:xlink="http://www.w3.org/1999/xlink" viewBox="0 0 17.7 18.58"><defs><style>.cls-1{fill:url(#_R_W_h_987-10);}.cls-1,.cls-2,.cls-3,.cls-4,.cls-5,.cls-6,.cls-7,.cls-8,.cls-9,.cls-10,.cls-11,.cls-12,.cls-13,.cls-14,.cls-15,.cls-16,.cls-17,.cls-18,.cls-19,.cls-20,.cls-21,.cls-22,.cls-23,.cls-24,.cls-25,.cls-26,.cls-27,.cls-28,.cls-29,.cls-30,.cls-31,.cls-32,.cls-33,.cls-34,.cls-35,.cls-36,.cls-37,.cls-38,.cls-39,.cls-40,.cls-41,.cls-42,.cls-43,.cls-44,.cls-45,.cls-46{stroke-width:0px;}.cls-2{fill:url(#_R_W_h_987-9);}.cls-3{fill:#664f23;opacity:.94;}.cls-4{fill:url(#_R_W_h_986-10);}.cls-5{fill:#604a21;opacity:.55;}.cls-6{fill:#917032;opacity:.92;}.cls-7{fill:url(#_R_W_h_987-2);}.cls-8{fill:url(#_R_W_h_987-11);}.cls-9{fill:#af863c;}.cls-10{fill:#302511;opacity:.27;}.cls-11,.cls-21{fill:#010101;}.cls-47{isolation:isolate;}.cls-12{fill:#9f7a37;opacity:.91;}.cls-13{fill:#0f0c06;opacity:.99;}.cls-14{fill:#503d1c;opacity:.45;}.cls-15{fill:url(#_R_W_h_986-8);}.cls-16{fill:url(#_R_W_h_987);}.cls-17{fill:#110d06;opacity:.09;}.cls-18{fill:#9f7b37;opacity:.91;}.cls-19{fill:#8f6e31;opacity:.82;}.cls-20{fill:url(#_R_W_h_986-9);}.cls-21{opacity:0;}.cls-22{fill:url(#_R_W_h_987-5);}.cls-48{mix-blend-mode:screen;}.cls-23{fill:url(#_R_W_h_987-7);}.cls-24{fill:url(#_R_W_h_986-3);}.cls-25{fill:url(#_R_W_h_986-6);}.cls-26{fill:url(#_R_W_h_986);}.cls-27{fill:url(#_R_W_h_986-7);}.cls-28{fill:url(#_R_W_h_987-3);}.cls-29{fill:#403116;opacity:.36;}.cls-30{fill:url(#_R_W_h_987-8);}.cls-31{fill:#80622c;opacity:.73;}.cls-32{fill:url(#_R_W_h_987-6);}.cls-33{fill:#21190c;opacity:.18;}.cls-34{fill:#3a2d15;opacity:.97;}.cls-35{fill:#745a28;opacity:.93;}.cls-36{fill:url(#_R_W_h_986-5);}.cls-37{fill:url(#_R_W_h_986-11);}.cls-38{fill:url(#_R_W_h_987-4);}.cls-39{fill:#57441e;opacity:.95;}.cls-40{fill:url(#_R_W_h_986-4);}.cls-41{fill:#2c2210;opacity:.98;}.cls-42{fill:#1e170b;opacity:.98;}.cls-43{fill:#49381a;opacity:.96;}.cls-44{fill:#82652d;opacity:.93;}.cls-45{fill:#705627;opacity:.64;}.cls-46{fill:url(#_R_W_h_986-2);}</style><linearGradient id="_R_W_h_987" x1="3.2" y1="9.37" x2="14.72" y2="9.37" gradientUnits="userSpaceOnUse"><stop offset="0" stop-color="#fff379"/><stop offset=".47" stop-color="#fff7a1"/><stop offset="1" stop-color="#fff393"/></linearGradient><linearGradient id="_R_W_h_987-2" x1="-2.13" y1=".98" x2="20.82" y2=".98" xlink:href="#_R_W_h_987"/><linearGradient id="_R_W_h_987-3" x1="-1.48" y1="17.68" x2="20.2" y2="17.68" xlink:href="#_R_W_h_987"/><linearGradient id="_R_W_h_987-4" x1="-1.95" y1="2.9" x2="21.09" y2="2.9" xlink:href="#_R_W_h_987"/><linearGradient id="_R_W_h_987-5" x1="-2.42" y1="15.77" x2="20.67" y2="15.77" xlink:href="#_R_W_h_987"/><linearGradient id="_R_W_h_987-6" x1="-1.62" y1="6.91" x2="20.42" y2="6.91" xlink:href="#_R_W_h_987"/><linearGradient id="_R_W_h_987-7" x1="-2.63" y1="11.69" x2="20.52" y2="11.69" xlink:href="#_R_W_h_987"/><linearGradient id="_R_W_h_987-8" x1="-1.81" y1="11.71" x2="21.34" y2="11.71" xlink:href="#_R_W_h_987"/><linearGradient id="_R_W_h_987-9" x1="-1.48" y1="6.96" x2="20.35" y2="6.96" xlink:href="#_R_W_h_987"/><linearGradient id="_R_W_h_987-10" x1="-1.51" y1="15.82" x2="20.01" y2="15.82" xlink:href="#_R_W_h_987"/><linearGradient id="_R_W_h_987-11" x1="-2.17" y1="2.83" x2="20.58" y2="2.83" xlink:href="#_R_W_h_987"/><radialGradient id="_R_W_h_986" cx="12.33" cy="-.33" fx="12.33" fy="-.33" r="22.71" gradientUnits="userSpaceOnUse"><stop offset="0" stop-color="#fdfb79"/><stop offset=".44" stop-color="#fee168"/><stop offset=".66" stop-color="#ffd360"/><stop offset=".72" stop-color="#f8d664"/><stop offset=".8" stop-color="#e5de71"/><stop offset=".9" stop-color="#c7ed85"/><stop offset="1" stop-color="#a1ffa0"/></radialGradient><radialGradient id="_R_W_h_986-2" cx="12.33" cy="-.33" fx="12.33" fy="-.33" r="22.71" xlink:href="#_R_W_h_986"/><radialGradient id="_R_W_h_986-3" cx="12.33" cy="-.33" fx="12.33" fy="-.33" r="22.71" xlink:href="#_R_W_h_986"/><radialGradient id="_R_W_h_986-4" cx="12.33" cy="-.33" fx="12.33" fy="-.33" r="22.71" xlink:href="#_R_W_h_986"/><radialGradient id="_R_W_h_986-5" cx="12.33" cy="-.33" fx="12.33" fy="-.33" r="22.71" xlink:href="#_R_W_h_986"/><radialGradient id="_R_W_h_986-6" cx="12.33" cy="-.33" fx="12.33" fy="-.33" r="22.71" xlink:href="#_R_W_h_986"/><radialGradient id="_R_W_h_986-7" cx="12.33" cy="-.33" fx="12.33" fy="-.33" r="22.71" xlink:href="#_R_W_h_986"/><radialGradient id="_R_W_h_986-8" cx="12.33" cy="-.33" fx="12.33" fy="-.33" r="22.71" xlink:href="#_R_W_h_986"/><radialGradient id="_R_W_h_986-9" cx="12.33" cy="-.33" fx="12.33" fy="-.33" r="22.71" xlink:href="#_R_W_h_986"/><radialGradient id="_R_W_h_986-10" cx="12.33" cy="-.33" fx="12.33" fy="-.33" r="22.71" xlink:href="#_R_W_h_986"/><radialGradient id="_R_W_h_986-11" cx="12.33" cy="-.33" fx="12.33" fy="-.33" r="22.71" xlink:href="#_R_W_h_986"/></defs><g class="cls-47"><g id="Layer_2"><g id="Main_1"><path class="cls-16" d="M15.26,9.37c0,3.51-2.85,6.35-6.35,6.35s-6.35-2.85-6.35-6.35,2.85-6.35,6.35-6.35,6.35,2.85,6.35,6.35Z"/><path class="cls-7" d="M9.96,1.84h-2.12c-.24.01-.44-.31-.31-.46l1.18-1.17c.09-.11.26-.11.36,0l1.06,1.24c.13.15.02.39-.18.39Z"/><path class="cls-28" d="M7.84,16.9l2.01-.13c.38.06.34.35.21.5l-1.01,1.21c-.09.11-.23.15-.34.05l-1.06-1.24c-.13-.15-.02-.39.18-.39Z"/><path class="cls-38" d="M5.33,2.66l-1.71,1.24c-.16.12-.47.09-.48-.34l.23-1.5c.01-.14.15-.24.29-.21l1.48.25c.33.09.35.43.19.55Z"/><path class="cls-22" d="M12.33,16.03l1.82-1.34c.24-.12.43.1.41.36l-.13,1.63c-.01.14-.15.24-.29.21l-1.58-.38c-.22-.04-.39-.35-.22-.47Z"/><path class="cls-32" d="M2.07,6.04l-.65,2.01c-.06.19-.35.28-.53-.08l-.75-1.26c-.08-.12-.02-.29.11-.34l1.4-.75c.35-.1.48.23.42.42Z"/><path class="cls-23" d="M15.63,12.57l.75-2.03c.06-.19.27-.18.38,0l.9,1.49c.08.12.02.29-.11.34l-1.52.57c-.19.08-.48.03-.41-.36Z"/><path class="cls-30" d="M1.42,10.69l.65,2.01c.06.19-.13.37-.31.29l-1.54-.66c-.21-.08-.25-.31-.18-.43l.85-1.39c.29-.25.47-.01.53.18Z"/><path class="cls-2" d="M16.29,7.92l-.55-1.88c-.06-.19.13-.37.31-.29l1.4.49c.29.14.26.28.18.41l-.85,1.39c-.11.17-.35.27-.5-.12Z"/><path class="cls-1" d="M3.62,14.84l1.61,1.12c.24.16.17.48-.03.52l-1.55.35c-.14.03-.34.08-.38-.29l-.02-1.5c-.02-.2.21-.33.37-.21Z"/><path class="cls-8" d="M14.18,3.9l-1.81-1.37c-.16-.12,0-.24.19-.29l1.48-.51c.31-.03.37.16.39.34l.13,1.63c.02.2-.21.33-.37.21Z"/><path class="cls-26" d="M15.26,9.25c0,3.45-2.85,6.24-6.35,6.24s-6.35-2.79-6.35-6.24,2.85-6.24,6.35-6.24,6.35,2.79,6.35,6.24Z"/><g class="cls-48"><path class="cls-9" d="M15.26,9.25c0,3.45-2.85,6.24-6.35,6.24s-6.35-2.79-6.35-6.24,2.85-6.24,6.35-6.24,6.35,2.79,6.35,6.24Z"/><path class="cls-12" d="M15.14,9.33c0,3.41-2.81,6.17-6.28,6.17s-6.28-2.76-6.28-6.17,2.81-6.17,6.28-6.17,6.28,2.76,6.28,6.17Z"/><ellipse class="cls-19" cx="8.83" cy="9.4" rx="6.2" ry="6.11"/><ellipse class="cls-31" cx="8.79" cy="9.47" rx="6.12" ry="6.04"/><ellipse class="cls-45" cx="8.75" cy="9.54" rx="6.04" ry="5.97"/><ellipse class="cls-5" cx="8.71" cy="9.61" rx="5.96" ry="5.9"/><ellipse class="cls-14" cx="8.67" cy="9.68" rx="5.88" ry="5.84"/><ellipse class="cls-29" cx="8.64" cy="9.75" rx="5.81" ry="5.77"/><ellipse class="cls-10" cx="8.6" cy="9.82" rx="5.73" ry="5.7"/><ellipse class="cls-33" cx="8.56" cy="9.89" rx="5.65" ry="5.63"/><path class="cls-17" d="M14.09,9.96c0,3.07-2.49,5.57-5.57,5.57s-5.57-2.49-5.57-5.57,2.49-5.57,5.57-5.57,5.57,2.49,5.57,5.57Z"/><path class="cls-21" d="M13.97,10.03c0,3.04-2.46,5.5-5.49,5.5s-5.49-2.46-5.49-5.5,2.46-5.5,5.49-5.5,5.49,2.46,5.49,5.5Z"/></g><path class="cls-46" d="M9.86,1.71h-2.12c-.2,0-.31-.24-.18-.39L8.62.08c.09-.11.26-.11.36,0l1.06,1.24c.13.15.02.39-.18.39Z"/><path class="cls-24" d="M7.74,16.77h2.12c.2,0,.31.24.18.39l-1.06,1.24c-.09.11-.26.11-.36,0l-1.06-1.24c-.13-.15-.02-.39.18-.39Z"/><path class="cls-40" d="M5.23,2.53l-1.71,1.24c-.16.12-.39,0-.37-.21l.13-1.63c.01-.14.15-.24.29-.21l1.59.38c.2.05.25.3.08.42Z"/><path class="cls-36" d="M12.37,15.95l1.71-1.24c.16-.12.39,0,.37.21l-.13,1.63c-.01.14-.15.24-.29.21l-1.58-.38c-.2-.05-.25-.3-.08-.42Z"/><path class="cls-25" d="M1.97,5.91l-.65,2.01c-.06.19-.32.22-.42.05L.04,6.58c-.08-.12-.02-.29.11-.34l1.51-.62c.19-.08.38.1.31.29Z"/><path class="cls-27" d="M15.63,12.57l.65-2.01c.06-.19.32-.22.42-.05l.85,1.39c.08.12.02.29-.11.34l-1.51.62c-.19.08-.38-.1-.31-.29Z"/><path class="cls-15" d="M1.31,10.56l.65,2.01c.06.19-.13.37-.31.29l-1.51-.62c-.13-.06-.19-.22-.11-.34l.85-1.39c.11-.17.36-.14.42.05Z"/><path class="cls-20" d="M16.29,7.92l-.65-2.01c-.06-.19.13-.37.31-.29l1.51.62c.13.06.19.22.11.34l-.85,1.39c-.11.17-.36.14-.42-.05Z"/><path class="cls-4" d="M3.52,14.71l1.71,1.24c.16.12.11.37-.08.42l-1.59.38c-.14.03-.28-.07-.29-.21l-.13-1.63c-.02-.2.21-.33.37-.21Z"/><path class="cls-37" d="M14.08,3.77l-1.71-1.24c-.16-.12-.11-.37.08-.42l1.58-.38c.14-.03.28.07.29.21l.13,1.63c.02.2-.21.33-.37.21Z"/><g class="cls-48"><path class="cls-18" d="M9.86,1.71h-2.12c-.2,0-.31-.24-.18-.39L8.62.08c.09-.11.26-.11.36,0l1.06,1.24c.13.15.02.39-.18.39Z"/><path class="cls-6" d="M9.85,1.71h-2.11c-.2,0-.31-.23-.18-.38L8.62.1c.09-.11.26-.11.36,0l1.05,1.23c.13.15.02.38-.18.38Z"/><path class="cls-44" d="M9.84,1.71h-2.1c-.2,0-.31-.23-.18-.38L8.61.12c.09-.11.26-.11.36,0l1.05,1.21c.13.15.02.38-.18.38Z"/><path class="cls-35" d="M9.83,1.71h-2.09c-.2,0-.31-.23-.18-.38l1.04-1.2c.09-.11.26-.11.35,0l1.04,1.2c.13.15.02.38-.18.38Z"/><path class="cls-3" d="M9.82,1.71h-2.08c-.2,0-.3-.22-.18-.37l1.04-1.18c.09-.11.26-.11.35,0l1.04,1.18c.13.15.02.37-.18.37Z"/><path class="cls-39" d="M9.81,1.71h-2.07c-.2,0-.3-.22-.18-.37l1.03-1.17c.09-.1.26-.1.35,0l1.03,1.17c.13.14.02.37-.18.37Z"/><path class="cls-43" d="M9.8,1.71h-2.06c-.2,0-.3-.22-.17-.36l1.03-1.15c.09-.1.26-.1.35,0l1.03,1.15c.13.14.02.36-.17.36Z"/><path class="cls-34" d="M9.79,1.71h-2.05c-.19,0-.3-.22-.17-.36l1.03-1.14c.09-.1.26-.1.35,0l1.03,1.14c.13.14.02.36-.17.36Z"/><path class="cls-41" d="M9.78,1.71h-2.04c-.19,0-.3-.21-.17-.35l1.02-1.13c.09-.1.26-.1.35,0l1.02,1.13c.13.14.02.35-.17.35Z"/><path class="cls-42" d="M9.76,1.71h-2.03c-.19,0-.3-.21-.17-.35l1.02-1.11c.09-.1.25-.1.34,0l1.02,1.11c.13.14.02.35-.17.35Z"/><path class="cls-13" d="M9.75,1.71h-2.02c-.19,0-.3-.21-.17-.34l1.01-1.1c.09-.1.25-.1.34,0l1.01,1.1c.12.14.02.34-.17.34Z"/><path class="cls-11" d="M9.74,1.71h-2.01c-.19,0-.29-.21-.17-.34l1.01-1.08c.09-.1.25-.1.34,0l1.01,1.08c.12.13.02.34-.17.34Z"/></g><g class="cls-48"><path class="cls-18" d="M7.74,16.77h2.12c.2,0,.31.24.18.39l-1.06,1.24c-.09.11-.26.11-.36,0l-1.06-1.24c-.13-.15-.02-.39.18-.39Z"/><path class="cls-6" d="M7.74,16.78h2.11c.2,0,.31.23.18.38l-1.05,1.23c-.09.11-.26.11-.36,0l-1.05-1.23c-.13-.15-.02-.38.18-.38Z"/><path class="cls-44" d="M7.74,16.78h2.1c.2,0,.31.23.18.38l-1.05,1.21c-.09.11-.26.11-.36,0l-1.05-1.21c-.13-.15-.02-.38.18-.38Z"/><path class="cls-35" d="M7.74,16.79h2.09c.2,0,.31.23.18.38l-1.04,1.2c-.09.11-.26.11-.35,0l-1.04-1.2c-.13-.15-.02-.38.18-.38Z"/><path class="cls-3" d="M7.74,16.8h2.08c.2,0,.3.23.18.37l-1.04,1.19c-.09.11-.26.11-.35,0l-1.04-1.19c-.13-.15-.02-.37.18-.37Z"/><path class="cls-39" d="M7.74,16.81h2.07c.2,0,.3.22.18.37l-1.03,1.17c-.09.1-.26.1-.35,0l-1.03-1.17c-.13-.14-.02-.37.18-.37Z"/><path class="cls-43" d="M7.74,16.82h2.06c.2,0,.3.22.17.36l-1.03,1.16c-.09.1-.26.1-.35,0l-1.03-1.16c-.13-.14-.02-.36.17-.36Z"/><path class="cls-34" d="M7.74,16.83h2.05c.19,0,.3.22.17.36l-1.03,1.14c-.09.1-.26.1-.35,0l-1.03-1.14c-.13-.14-.02-.36.17-.36Z"/><path class="cls-41" d="M7.74,16.83h2.04c.19,0,.3.21.17.35l-1.02,1.13c-.09.1-.26.1-.35,0l-1.02-1.13c-.13-.14-.02-.35.17-.35Z"/><path class="cls-42" d="M7.74,16.84h2.03c.19,0,.3.21.17.35l-1.02,1.12c-.09.1-.25.1-.34,0l-1.02-1.12c-.13-.14-.02-.35.17-.35Z"/><path class="cls-13" d="M7.74,16.85h2.02c.19,0,.3.21.17.35l-1.01,1.1c-.09.1-.25.1-.34,0l-1.01-1.1c-.12-.14-.02-.35.17-.35Z"/><path class="cls-11" d="M7.74,16.86h2.01c.19,0,.29.21.17.34l-1.01,1.09c-.09.1-.25.1-.34,0l-1.01-1.09c-.12-.13-.02-.34.17-.34Z"/></g><g class="cls-48"><path class="cls-18" d="M14.08,3.77l-1.71-1.24c-.16-.12-.11-.37.08-.42l1.58-.38c.14-.03.28.07.29.21l.13,1.63c.02.2-.21.33-.37.21Z"/><path class="cls-6" d="M14.08,3.77l-1.7-1.24c-.16-.12-.11-.37.08-.42l1.57-.37c.14-.03.28.07.29.21l.13,1.61c.02.2-.21.32-.37.21Z"/><path class="cls-44" d="M14.08,3.77l-1.7-1.23c-.16-.12-.11-.37.08-.41l1.56-.36c.14-.03.28.07.29.21l.14,1.6c.02.2-.21.32-.37.2Z"/><path class="cls-35" d="M14.08,3.77l-1.69-1.23c-.16-.12-.11-.36.08-.41l1.55-.35c.14-.03.27.07.29.21l.14,1.58c.02.2-.2.32-.36.2Z"/><path class="cls-3" d="M14.08,3.77l-1.68-1.22c-.16-.12-.11-.36.08-.4l1.54-.35c.14-.03.27.07.29.21l.15,1.57c.02.19-.2.31-.36.2Z"/><path class="cls-39" d="M14.08,3.76l-1.67-1.22c-.16-.12-.11-.36.07-.4l1.52-.34c.14-.03.27.07.28.21l.15,1.55c.02.19-.2.31-.36.19Z"/><path class="cls-43" d="M14.08,3.76l-1.67-1.21c-.16-.12-.12-.35.07-.4l1.51-.33c.13-.03.27.07.28.21l.15,1.54c.02.19-.2.31-.35.19Z"/><path class="cls-34" d="M14.08,3.76l-1.66-1.21c-.16-.11-.12-.35.07-.39l1.5-.32c.13-.03.27.07.28.2l.16,1.52c.02.19-.19.3-.35.19Z"/><path class="cls-41" d="M14.08,3.76l-1.65-1.2c-.16-.11-.12-.35.07-.39l1.49-.31c.13-.03.27.07.28.2l.16,1.51c.02.19-.19.3-.35.18Z"/><path class="cls-42" d="M14.08,3.76l-1.64-1.19c-.16-.11-.12-.35.07-.38l1.48-.3c.13-.03.26.07.28.2l.17,1.5c.02.18-.19.29-.34.18Z"/><path class="cls-13" d="M14.07,3.76l-1.64-1.19c-.16-.11-.12-.34.06-.38l1.46-.29c.13-.03.26.07.28.2l.17,1.48c.02.18-.19.29-.34.18Z"/><path class="cls-11" d="M14.07,3.76l-1.63-1.18c-.15-.11-.12-.34.06-.37l1.45-.28c.13-.03.26.07.28.2l.18,1.47c.02.18-.18.29-.34.17Z"/></g><g class="cls-48"><path class="cls-18" d="M3.52,14.71l1.71,1.24c.16.12.11.37-.08.42l-1.59.38c-.14.03-.28-.07-.29-.21l-.13-1.63c-.02-.2.21-.33.37-.21Z"/><path class="cls-6" d="M3.52,14.72l1.7,1.24c.16.12.11.37-.08.42l-1.57.37c-.14.03-.28-.07-.29-.21l-.13-1.61c-.02-.2.21-.32.37-.21Z"/><path class="cls-44" d="M3.51,14.74l1.7,1.23c.16.12.11.37-.08.41l-1.56.37c-.14.03-.28-.07-.29-.21l-.14-1.6c-.02-.2.21-.32.37-.2Z"/><path class="cls-35" d="M3.51,14.76l1.69,1.23c.16.12.11.36-.08.41l-1.55.36c-.14.03-.27-.07-.29-.21l-.14-1.58c-.02-.2.2-.32.36-.2Z"/><path class="cls-3" d="M3.5,14.77l1.68,1.22c.16.12.11.36-.08.4l-1.54.35c-.14.03-.27-.07-.29-.21l-.14-1.57c-.02-.19.2-.31.36-.2Z"/><path class="cls-39" d="M3.5,14.79l1.67,1.22c.16.12.11.36-.07.4l-1.53.34c-.14.03-.27-.07-.28-.21l-.15-1.56c-.02-.19.2-.31.36-.19Z"/><path class="cls-43" d="M3.5,14.8l1.67,1.21c.16.12.11.36-.07.4l-1.51.33c-.13.03-.27-.07-.28-.21l-.15-1.54c-.02-.19.2-.31.35-.19Z"/><path class="cls-34" d="M3.49,14.82l1.66,1.21c.16.11.12.35-.07.39l-1.5.32c-.13.03-.27-.07-.28-.2l-.16-1.53c-.02-.19.19-.3.35-.19Z"/><path class="cls-41" d="M3.49,14.84l1.65,1.2c.16.11.12.35-.07.39l-1.49.31c-.13.03-.27-.07-.28-.2l-.16-1.51c-.02-.19.19-.3.35-.18Z"/><path class="cls-42" d="M3.49,14.85l1.64,1.19c.16.11.12.35-.07.38l-1.48.31c-.13.03-.26-.07-.28-.2l-.17-1.5c-.02-.19.19-.3.34-.18Z"/><path class="cls-13" d="M3.48,14.87l1.64,1.19c.16.11.12.34-.06.38l-1.47.3c-.13.03-.26-.07-.28-.2l-.17-1.49c-.02-.18.19-.29.34-.18Z"/><path class="cls-11" d="M3.48,14.88l1.63,1.18c.15.11.12.34-.06.38l-1.45.29c-.13.03-.26-.07-.28-.2l-.17-1.47c-.02-.18.18-.29.34-.18Z"/></g><g class="cls-48"><path class="cls-18" d="M16.29,7.92l-.65-2.01c-.06-.19.13-.37.31-.29l1.51.62c.13.06.19.22.11.34l-.85,1.39c-.11.17-.36.14-.42-.05Z"/><path class="cls-6" d="M16.29,7.92l-.65-2c-.06-.19.13-.37.31-.29l1.49.62c.13.06.19.22.11.34l-.84,1.38c-.1.17-.36.14-.42-.05Z"/><path class="cls-44" d="M16.29,7.92l-.65-1.99c-.06-.19.12-.36.31-.29l1.48.62c.13.06.18.22.11.34l-.83,1.37c-.1.17-.35.14-.42-.05Z"/><path class="cls-35" d="M16.29,7.93l-.65-1.99c-.06-.19.12-.36.3-.28l1.46.62c.13.06.18.22.11.34l-.82,1.36c-.1.17-.35.14-.41-.05Z"/><path class="cls-3" d="M16.29,7.93l-.64-1.98c-.06-.19.12-.36.3-.28l1.45.62c.13.06.18.21.11.34l-.8,1.35c-.1.17-.35.13-.41-.05Z"/><path class="cls-39" d="M16.29,7.93l-.64-1.97c-.06-.19.12-.36.29-.28l1.43.62c.13.06.18.21.11.33l-.79,1.35c-.1.17-.34.13-.4-.05Z"/><path class="cls-43" d="M16.29,7.94l-.64-1.96c-.06-.19.12-.35.29-.28l1.42.62c.13.06.18.21.11.33l-.78,1.34c-.1.16-.34.13-.4-.05Z"/><path class="cls-34" d="M16.3,7.94l-.63-1.95c-.06-.19.11-.35.29-.28l1.4.62c.12.06.18.21.11.33l-.77,1.33c-.09.16-.33.13-.39-.05Z"/><path class="cls-41" d="M16.3,7.94l-.63-1.94c-.06-.18.11-.35.28-.27l1.39.62c.12.06.17.21.11.33l-.75,1.32c-.09.16-.33.13-.39-.06Z"/><path class="cls-42" d="M16.3,7.94l-.63-1.93c-.06-.18.11-.35.28-.27l1.37.62c.12.06.17.21.11.33l-.74,1.31c-.09.16-.32.13-.38-.06Z"/><path class="cls-13" d="M16.3,7.95l-.63-1.92c-.06-.18.11-.35.27-.27l1.36.62c.12.06.17.21.11.33l-.73,1.3c-.09.16-.32.13-.38-.06Z"/><path class="cls-11" d="M16.3,7.95l-.62-1.92c-.06-.18.1-.34.27-.27l1.34.62c.12.06.17.21.11.32l-.72,1.29c-.09.16-.32.12-.38-.06Z"/></g><g class="cls-48"><path class="cls-18" d="M1.31,10.56l.65,2.01c.06.19-.13.37-.31.29l-1.51-.62c-.13-.06-.19-.22-.11-.34l.85-1.39c.11-.17.36-.14.42.05Z"/><path class="cls-6" d="M1.3,10.57l.65,2c.06.19-.13.37-.31.29l-1.49-.62c-.13-.06-.19-.22-.11-.34l.84-1.38c.1-.17.36-.14.42.05Z"/><path class="cls-44" d="M1.29,10.58l.65,1.99c.06.19-.12.36-.31.29l-1.48-.62c-.13-.06-.18-.22-.11-.34l.83-1.37c.1-.17.35-.14.42.05Z"/><path class="cls-35" d="M1.28,10.59l.65,1.99c.06.19-.12.36-.3.28l-1.46-.62c-.13-.06-.18-.22-.11-.34l.82-1.36c.1-.17.35-.14.41.05Z"/><path class="cls-3" d="M1.28,10.6l.64,1.98c.06.19-.12.36-.3.28l-1.45-.62c-.13-.06-.18-.21-.11-.34l.81-1.35c.1-.17.35-.14.41.05Z"/><path class="cls-39" d="M1.27,10.61l.64,1.97c.06.19-.12.36-.29.28l-1.43-.62c-.13-.06-.18-.21-.11-.33l.79-1.35c.1-.17.34-.13.4.05Z"/><path class="cls-43" d="M1.26,10.62l.64,1.96c.06.19-.12.35-.29.28l-1.42-.62c-.13-.06-.18-.21-.11-.33l.78-1.34c.1-.16.34-.13.4.05Z"/><path class="cls-34" d="M1.25,10.63l.63,1.95c.06.19-.11.35-.29.28l-1.41-.62c-.12-.06-.18-.21-.11-.33l.77-1.33c.1-.16.33-.13.39.05Z"/><path class="cls-41" d="M1.24,10.64l.63,1.94c.06.18-.11.35-.28.27l-1.39-.62c-.12-.06-.17-.21-.11-.33l.76-1.32c.09-.16.33-.13.39.06Z"/><path class="cls-42" d="M1.23,10.65l.63,1.93c.06.18-.11.35-.28.27l-1.38-.62c-.12-.06-.17-.21-.11-.33l.75-1.31c.09-.16.33-.13.39.06Z"/><path class="cls-13" d="M1.22,10.66l.63,1.92c.06.18-.11.35-.28.27l-1.36-.62c-.12-.06-.17-.21-.11-.33l.74-1.3c.09-.16.32-.13.38.06Z"/><path class="cls-11" d="M1.21,10.67l.62,1.92c.06.18-.11.34-.27.27l-1.35-.62c-.12-.06-.17-.21-.11-.32l.72-1.29c.09-.16.32-.13.38.06Z"/></g><g class="cls-48"><path class="cls-18" d="M15.63,12.57l.65-2.01c.06-.19.32-.22.42-.05l.85,1.39c.08.12.02.29-.11.34l-1.51.62c-.19.08-.38-.1-.31-.29Z"/><path class="cls-6" d="M15.63,12.57l.65-2c.06-.19.32-.22.42-.05l.84,1.38c.07.12.02.28-.11.34l-1.49.62c-.18.08-.37-.1-.31-.29Z"/><path class="cls-44" d="M15.63,12.58l.65-1.99c.06-.19.31-.22.42-.05l.83,1.37c.07.12.02.28-.11.34l-1.48.62c-.18.08-.37-.1-.31-.29Z"/><path class="cls-35" d="M15.63,12.58l.65-1.99c.06-.19.31-.22.41-.05l.82,1.36c.07.12.02.28-.11.34l-1.46.62c-.18.08-.36-.1-.3-.28Z"/><path class="cls-3" d="M15.63,12.58l.64-1.98c.06-.19.31-.22.41-.05l.8,1.35c.07.12.02.28-.11.34l-1.45.62c-.18.08-.36-.09-.3-.28Z"/><path class="cls-39" d="M15.63,12.59l.64-1.97c.06-.19.3-.22.4-.05l.79,1.35c.07.12.02.28-.11.33l-1.43.62c-.18.08-.35-.09-.29-.28Z"/><path class="cls-43" d="M15.63,12.59l.64-1.96c.06-.19.3-.22.4-.05l.78,1.34c.07.12.02.28-.11.33l-1.42.62c-.17.08-.35-.09-.29-.28Z"/><path class="cls-34" d="M15.63,12.59l.63-1.95c.06-.19.3-.22.39-.06l.77,1.33c.07.12.02.28-.11.33l-1.4.62c-.17.08-.35-.09-.29-.28Z"/><path class="cls-41" d="M15.63,12.59l.63-1.94c.06-.18.3-.22.39-.06l.75,1.32c.07.12.02.27-.11.33l-1.39.62c-.17.08-.34-.09-.28-.27Z"/><path class="cls-42" d="M15.63,12.6l.63-1.93c.06-.18.29-.22.38-.06l.74,1.31c.07.12.02.27-.11.33l-1.37.62c-.17.08-.34-.09-.28-.27Z"/><path class="cls-13" d="M15.63,12.6l.63-1.92c.06-.18.29-.22.38-.06l.73,1.3c.06.12.01.27-.11.33l-1.36.62c-.17.08-.33-.09-.27-.27Z"/><path class="cls-11" d="M15.63,12.6l.62-1.92c.06-.18.29-.22.38-.06l.72,1.29c.06.11.01.27-.11.32l-1.34.62c-.17.08-.33-.09-.27-.27Z"/></g><g class="cls-48"><path class="cls-18" d="M1.97,5.91l-.65,2.01c-.06.19-.32.22-.42.05L.04,6.58c-.08-.12-.02-.29.11-.34l1.51-.62c.19-.08.38.1.31.29Z"/><path class="cls-6" d="M1.95,5.92l-.65,2c-.06.19-.32.22-.42.05L.04,6.59c-.08-.12-.02-.28.11-.34l1.5-.62c.18-.08.37.1.31.29Z"/><path class="cls-44" d="M1.94,5.93l-.64,1.98c-.06.19-.32.22-.42.05L.04,6.59c-.07-.12-.02-.28.11-.34l1.48-.61c.18-.08.37.1.31.29Z"/><path class="cls-35" d="M1.93,5.93l-.64,1.97c-.06.19-.31.22-.42.05L.04,6.59c-.07-.12-.02-.28.11-.33l1.47-.61c.18-.08.37.1.31.28Z"/><path class="cls-3" d="M1.92,5.94l-.64,1.96c-.06.19-.31.22-.41.05L.04,6.6c-.07-.12-.02-.28.11-.33l1.46-.61c.18-.07.36.1.3.28Z"/><path class="cls-39" d="M1.9,5.95l-.63,1.94c-.06.18-.31.21-.41.05L.04,6.6c-.07-.12-.02-.28.11-.33l1.45-.6c.18-.07.36.1.3.28Z"/><path class="cls-43" d="M1.89,5.96l-.63,1.93c-.06.18-.31.21-.41.05L.05,6.61c-.07-.12-.02-.27.11-.33l1.44-.6c.18-.07.36.09.3.28Z"/><path class="cls-34" d="M1.88,5.97l-.62,1.92c-.06.18-.3.21-.4.05L.05,6.61c-.07-.12-.02-.27.11-.32l1.43-.59c.18-.07.36.09.3.28Z"/><path class="cls-41" d="M1.87,5.98l-.62,1.9c-.06.18-.3.21-.4.05L.05,6.62c-.07-.12-.02-.27.1-.32l1.42-.59c.17-.07.35.09.29.27Z"/><path class="cls-42" d="M1.85,5.99l-.61,1.89c-.06.18-.3.21-.4.05L.05,6.62c-.07-.12-.02-.27.1-.32l1.41-.59c.17-.07.35.09.29.27Z"/><path class="cls-13" d="M1.84,6l-.61,1.87c-.06.18-.3.21-.39.05L.05,6.63c-.07-.11-.02-.27.1-.32l1.39-.58c.17-.07.35.09.29.27Z"/><path class="cls-11" d="M1.83,6.01l-.6,1.86c-.06.18-.29.21-.39.05L.05,6.63c-.07-.11-.02-.26.1-.32l1.38-.58c.17-.07.34.09.29.27Z"/></g><g class="cls-48"><path class="cls-18" d="M12.37,15.95l1.71-1.24c.16-.12.39,0,.37.21l-.13,1.63c-.01.14-.15.24-.29.21l-1.58-.38c-.2-.05-.25-.3-.08-.42Z"/><path class="cls-6" d="M12.37,15.96l1.7-1.24c.16-.12.39,0,.37.21l-.13,1.61c-.01.14-.15.24-.29.21l-1.57-.37c-.19-.05-.24-.3-.08-.42Z"/><path class="cls-44" d="M12.37,15.96l1.7-1.23c.16-.12.38,0,.37.2l-.14,1.6c-.01.14-.15.24-.29.21l-1.56-.36c-.19-.04-.24-.29-.08-.41Z"/><path class="cls-35" d="M12.37,15.97l1.69-1.23c.16-.12.38,0,.36.2l-.14,1.58c-.01.14-.15.24-.29.21l-1.55-.36c-.19-.04-.24-.29-.08-.41Z"/><path class="cls-3" d="M12.37,15.97l1.68-1.22c.16-.12.38,0,.36.2l-.15,1.57c-.01.14-.15.24-.29.21l-1.54-.35c-.19-.04-.24-.29-.08-.4Z"/><path class="cls-39" d="M12.37,15.98l1.67-1.22c.16-.12.38,0,.36.19l-.15,1.55c-.01.14-.15.24-.28.21l-1.52-.34c-.19-.04-.23-.28-.07-.4Z"/><path class="cls-43" d="M12.37,15.98l1.67-1.21c.16-.12.37,0,.35.19l-.15,1.54c-.01.14-.15.23-.28.21l-1.51-.33c-.19-.04-.23-.28-.07-.4Z"/><path class="cls-34" d="M12.37,15.99l1.66-1.21c.16-.11.37,0,.35.19l-.16,1.52c-.01.14-.15.23-.28.2l-1.5-.32c-.18-.04-.23-.28-.07-.39Z"/><path class="cls-41" d="M12.37,15.99l1.65-1.2c.16-.11.37,0,.35.18l-.16,1.51c-.01.13-.15.23-.28.2l-1.49-.31c-.18-.04-.22-.27-.07-.39Z"/><path class="cls-42" d="M12.37,16l1.64-1.19c.16-.11.36,0,.34.18l-.17,1.5c-.02.13-.15.23-.28.2l-1.48-.3c-.18-.04-.22-.27-.07-.38Z"/><path class="cls-13" d="M12.37,16l1.64-1.19c.16-.11.36,0,.34.18l-.17,1.48c-.02.13-.15.23-.28.2l-1.46-.29c-.18-.04-.22-.27-.06-.38Z"/><path class="cls-11" d="M12.37,16.01l1.63-1.18c.15-.11.36,0,.34.17l-.18,1.47c-.02.13-.15.23-.28.2l-1.45-.28c-.18-.03-.22-.26-.06-.37Z"/></g><g class="cls-48"><path class="cls-18" d="M5.23,2.53l-1.71,1.24c-.16.12-.39,0-.37-.21l.13-1.63c.01-.14.15-.24.29-.21l1.59.38c.2.05.25.3.08.42Z"/><path class="cls-6" d="M5.22,2.53l-1.7,1.23c-.16.12-.39,0-.37-.21l.12-1.61c.01-.14.15-.24.29-.21l1.57.38c.19.05.24.3.08.42Z"/><path class="cls-44" d="M5.2,2.53l-1.68,1.22c-.16.12-.38,0-.37-.21l.12-1.6c.01-.14.15-.24.29-.21l1.56.38c.19.05.24.3.08.41Z"/><path class="cls-35" d="M5.19,2.54l-1.67,1.21c-.16.12-.38,0-.37-.21l.12-1.59c.01-.14.15-.24.28-.21l1.55.38c.19.05.24.3.08.41Z"/><path class="cls-3" d="M5.17,2.54l-1.66,1.2c-.16.11-.38,0-.36-.2l.12-1.58c.01-.14.14-.24.28-.2l1.54.38c.19.05.24.29.08.41Z"/><path class="cls-39" d="M5.16,2.54l-1.64,1.19c-.16.11-.37,0-.36-.2l.12-1.57c.01-.14.14-.24.28-.2l1.53.37c.19.05.24.29.08.41Z"/><path class="cls-43" d="M5.14,2.55l-1.63,1.18c-.15.11-.37,0-.36-.2l.11-1.56c.01-.14.14-.23.28-.2l1.52.37c.19.05.24.29.08.4Z"/><path class="cls-34" d="M5.13,2.55l-1.62,1.18c-.15.11-.37-.01-.36-.2l.11-1.55c0-.14.14-.23.27-.2l1.51.37c.19.05.23.29.08.4Z"/><path class="cls-41" d="M5.11,2.55l-1.6,1.17c-.15.11-.37-.01-.35-.2l.11-1.53c0-.14.14-.23.27-.2l1.49.37c.18.05.23.29.08.4Z"/><path class="cls-42" d="M5.1,2.56l-1.59,1.16c-.15.11-.36-.01-.35-.2l.11-1.52c0-.14.14-.23.27-.2l1.48.37c.18.05.23.28.08.39Z"/><path class="cls-13" d="M5.08,2.56l-1.58,1.15c-.15.11-.36-.01-.35-.2l.11-1.51c0-.13.14-.23.27-.19l1.47.37c.18.05.23.28.08.39Z"/><path class="cls-11" d="M5.07,2.56l-1.56,1.14c-.15.11-.36-.01-.34-.2l.1-1.5c0-.13.14-.22.26-.19l1.46.37c.18.05.23.28.08.39Z"/></g></g></g></g></svg>