<?xml version="1.0" encoding="UTF-8"?><svg xmlns="http://www.w3.org/2000/svg" xmlns:xlink="http://www.w3.org/1999/xlink" viewBox="0 0 17.31 17.49"><defs><style>.cls-1{fill:#1c1d4d;opacity:.55;}.cls-1,.cls-2,.cls-3,.cls-4,.cls-5,.cls-6,.cls-7,.cls-8,.cls-9,.cls-10,.cls-11,.cls-12,.cls-13,.cls-14,.cls-15,.cls-16,.cls-17,.cls-18,.cls-19,.cls-20,.cls-21,.cls-22,.cls-23,.cls-24,.cls-25,.cls-26,.cls-27,.cls-28,.cls-29{stroke-width:0px;}.cls-2{fill:#eff4fb;}.cls-3{fill:#2a2c73;opacity:.82;}.cls-4{fill:url(#_R_W_h_66);}.cls-5{fill:url(#_R_W_h_1068);}.cls-5,.cls-30{mix-blend-mode:screen;}.cls-6{fill:#f5f8fc;}.cls-31{isolation:isolate;}.cls-7{fill:#06060e;opacity:.09;}.cls-8{fill:#33358c;}.cls-9{fill:#dae5f6;}.cls-10{fill:none;}.cls-11{fill:url(#_R_W_h_5);}.cls-11,.cls-32{mix-blend-mode:multiply;}.cls-33{clip-path:url(#clippath-1);}.cls-12{fill:#0f0f27;opacity:.27;}.cls-13{fill:#d5e2f4;}.cls-14{fill:#131434;opacity:.36;}.cls-15{fill:#010101;opacity:0;}.cls-16{fill:#fff;}.cls-17{fill:url(#_R_W_h_4);}.cls-18{fill:#eaf0fa;}.cls-19{fill:#e5edf8;}.cls-20{fill:#fafbfe;}.cls-21{fill:#2e307f;opacity:.91;}.cls-34{clip-path:url(#clippath);}.cls-22{fill:#c6f2f8;}.cls-23{fill:#181940;opacity:.45;}.cls-24{fill:#d0def3;}.cls-25{fill:#0a0a1a;opacity:.18;}.cls-26{fill:#252766;opacity:.73;}.cls-27{fill:url(#_R_W_h_70);}.cls-28{fill:#212259;opacity:.64;}.cls-29{fill:#e0e9f7;}</style><linearGradient id="_R_W_h_66" x1="1.26" y1="16.86" x2="15.65" y2=".9" gradientUnits="userSpaceOnUse"><stop offset="0" stop-color="#94c9fb"/><stop offset=".51" stop-color="#b8d8fc"/><stop offset="1" stop-color="#d2ebfd"/></linearGradient><clipPath id="clippath"><path class="cls-10" d="M16.94,8.29h-1.99l1.05-1.57c.11-.17.07-.4-.1-.51-.17-.11-.4-.07-.51.1l-1.33,1.98h-4.52l3.19-3.19,2.34.46s.05,0,.07,0c.17,0,.33-.12.36-.3.04-.2-.09-.4-.29-.43l-1.85-.36,1.4-1.4c.14-.14.14-.38,0-.52s-.38-.14-.52,0l-1.4,1.4-.36-1.85c-.04-.2-.23-.33-.43-.29-.2.04-.33.23-.29.43l.46,2.33-3.19,3.19V3.25l1.98-1.33c.17-.11.22-.34.1-.51-.11-.17-.34-.22-.51-.1l-1.56,1.05V.37c0-.2-.17-.37-.37-.37s-.37.17-.37.37v1.98l-1.57-1.05c-.17-.11-.4-.07-.51.1-.11.17-.07.4.1.51l1.98,1.33v4.52l-3.19-3.19.46-2.34c.04-.2-.09-.4-.29-.43-.2-.04-.39.09-.43.29l-.36,1.85-1.4-1.4c-.14-.14-.38-.14-.52,0s-.14.38,0,.52l1.4,1.4-1.85.36c-.2.04-.33.23-.29.43.03.18.19.3.36.3.02,0,.05,0,.07,0l2.34-.46,3.19,3.19H3.25l-1.33-1.98c-.11-.17-.34-.21-.51-.1-.17.11-.22.34-.1.51l1.05,1.57H.37c-.2,0-.37.17-.37.37s.17.37.37.37h1.98l-1.05,1.56c-.11.17-.07.4.1.51.06.04.13.06.21.06.12,0,.24-.06.31-.16l1.33-1.98h4.52l-3.19,3.19-2.33-.46c-.2-.04-.4.09-.43.29-.04.2.09.4.29.43l1.85.37-1.4,1.4c-.14.14-.14.38,0,.52.07.07.17.11.26.11s.19-.04.26-.11l1.4-1.4.36,1.85c.03.18.19.3.36.3.02,0,.05,0,.07,0,.2-.04.33-.23.29-.43l-.46-2.34,3.19-3.19v4.52l-1.98,1.33c-.17.11-.22.34-.1.51.07.11.19.16.31.16.07,0,.14-.02.21-.06l1.57-1.05v1.99c0,.2.17.37.37.37s.37-.17.37-.37v-1.99l1.56,1.05c.17.11.4.07.51-.1.11-.17.07-.4-.1-.51l-1.98-1.33v-4.52l3.19,3.19-.46,2.33c-.04.2.09.4.29.43.02,0,.05,0,.07,0,.17,0,.33-.12.36-.3l.36-1.85,1.4,1.4c.07.07.17.11.26.11s.19-.04.26-.11c.14-.14.14-.38,0-.52l-1.4-1.4,1.85-.37c.2-.04.33-.23.29-.43-.04-.2-.23-.33-.43-.29l-2.33.46-3.19-3.19h4.52l1.33,1.98c.07.11.19.16.31.16.07,0,.14-.02.21-.06.17-.11.22-.34.1-.51l-1.05-1.56h1.99c.2,0,.37-.17.37-.37s-.17-.37-.37-.37Z"/></clipPath><linearGradient id="_R_W_h_4" x1="5.76" y1="12.71" x2="10.9" y2="5.51" gradientUnits="userSpaceOnUse"><stop offset="0" stop-color="#88adfa"/><stop offset=".01" stop-color="#88adfa"/><stop offset=".66" stop-color="#adc2fb"/></linearGradient><clipPath id="clippath-1"><path class="cls-10" d="M12.16,8.66c0-.1-.05-.2-.13-.26l-.93-.75.13-1.19c.01-.1-.02-.2-.1-.28-.07-.07-.17-.11-.28-.1l-1.19.13-.36-.45-.39-.48c-.06-.08-.16-.13-.26-.13s-.2.05-.26.13l-.75.93-1.19-.13c-.11-.01-.2.02-.28.1-.07.07-.11.18-.1.28l.13,1.19-.93.75c-.08.06-.13.16-.13.26s.05.2.13.26l.93.75-.13,1.19c-.01.1.02.2.1.28.07.07.17.11.28.1l1.19-.13.75.93c.06.08.16.13.26.13s.2-.05.26-.13l.75-.93,1.19.13c.1.01.2-.02.28-.1.07-.07.11-.18.1-.28l-.13-1.19.93-.75c.08-.06.13-.16.13-.26Z"/></clipPath><radialGradient id="_R_W_h_1068" cx="8.55" cy="9.32" fx="8.55" fy="9.32" r="4.93" gradientUnits="userSpaceOnUse"><stop offset="0" stop-color="#010101"/><stop offset=".2" stop-color="#010303"/><stop offset=".34" stop-color="#050c0d"/><stop offset=".47" stop-color="#0a1c1c"/><stop offset=".58" stop-color="#113133"/><stop offset=".69" stop-color="#1b4e4f"/><stop offset=".8" stop-color="#267073"/><stop offset=".9" stop-color="#34999d"/><stop offset=".99" stop-color="#44c7cc"/><stop offset="1" stop-color="#46cdd2"/></radialGradient><linearGradient id="_R_W_h_5" x1="5.46" y1="12.85" x2="11.32" y2="5.2" gradientUnits="userSpaceOnUse"><stop offset="0" stop-color="#c4d4e3"/><stop offset=".69" stop-color="#d6e8fd"/></linearGradient><radialGradient id="_R_W_h_70" cx="9.77" cy="6.91" fx="9.77" fy="6.91" r="9.14" gradientUnits="userSpaceOnUse"><stop offset="0" stop-color="#ebf4ff"/><stop offset=".11" stop-color="#d3e7fd"/><stop offset=".22" stop-color="#c0ddfc"/><stop offset=".31" stop-color="#badafc"/><stop offset=".97" stop-color="#95c9fb"/><stop offset="1" stop-color="#94c9fb"/></radialGradient></defs><g class="cls-31"><g id="Layer_2"><g id="Main_1"><path class="cls-22" d="M16.94,8.46h-1.99l1.05-1.57c.11-.17.07-.4-.1-.51-.17-.11-.4-.07-.51.1l-1.33,1.98h-4.52l3.19-3.19,2.34.46s.05,0,.07,0c.17,0,.33-.12.36-.3.04-.2-.09-.4-.29-.43l-1.85-.36,1.4-1.4c.14-.14.14-.38,0-.52s-.38-.14-.52,0l-1.4,1.4-.36-1.85c-.04-.2-.23-.33-.43-.29-.2.04-.33.23-.29.43l.46,2.33-3.19,3.19V3.42l1.98-1.33c.17-.11.22-.34.1-.51-.11-.17-.34-.22-.51-.1l-1.56,1.05V.55c0-.2-.17-.37-.37-.37s-.37.17-.37.37v1.98l-1.57-1.05c-.17-.11-.4-.07-.51.1-.11.17-.07.4.1.51l1.98,1.33v4.52l-3.19-3.19.46-2.34c.04-.2-.09-.4-.29-.43-.2-.04-.39.09-.43.29l-.36,1.85-1.4-1.4c-.14-.14-.38-.14-.52,0s-.14.38,0,.52l1.4,1.4-1.85.36c-.2.04-.33.23-.29.43.03.18.19.3.36.3.02,0,.05,0,.07,0l2.34-.46,3.19,3.19H3.25l-1.33-1.98c-.11-.17-.34-.21-.51-.1-.17.11-.22.34-.1.51l1.05,1.57H.37c-.2,0-.37.17-.37.37s.17.37.37.37h1.98l-1.05,1.56c-.11.17-.07.4.1.51.06.04.13.06.21.06.12,0,.24-.06.31-.16l1.33-1.98h4.52l-3.19,3.19-2.33-.46c-.2-.04-.4.09-.43.29-.04.2.09.4.29.43l1.85.36-1.4,1.4c-.14.14-.14.38,0,.52.07.07.17.11.26.11s.19-.04.26-.11l1.4-1.4.36,1.85c.03.18.19.3.36.3.02,0,.05,0,.07,0,.2-.04.33-.23.29-.43l-.46-2.34,3.19-3.19v4.52l-1.98,1.33c-.17.11-.22.34-.1.51.07.11.19.16.31.16.07,0,.14-.02.21-.06l1.57-1.05v1.99c0,.2.17.37.37.37s.37-.17.37-.37v-1.99l1.56,1.05c.17.11.4.07.51-.1.11-.17.07-.4-.1-.51l-1.98-1.33v-4.52l3.19,3.19-.46,2.33c-.04.2.09.4.29.43.02,0,.05,0,.07,0,.17,0,.33-.12.36-.3l.36-1.85,1.4,1.4c.07.07.17.11.26.11s.19-.04.26-.11c.14-.14.14-.38,0-.52l-1.4-1.4,1.85-.36c.2-.04.33-.23.29-.43-.04-.2-.23-.33-.43-.29l-2.33.46-3.19-3.19h4.52l1.33,1.98c.07.11.19.16.31.16.07,0,.14-.02.21-.06.17-.11.22-.34.1-.51l-1.05-1.56h1.99c.2,0,.37-.17.37-.37s-.17-.37-.37-.37Z"/><path class="cls-4" d="M16.94,8.29h-1.99l1.05-1.57c.11-.17.07-.4-.1-.51-.17-.11-.4-.07-.51.1l-1.33,1.98h-4.52l3.19-3.19,2.34.46s.05,0,.07,0c.17,0,.33-.12.36-.3.04-.2-.09-.4-.29-.43l-1.85-.36,1.4-1.4c.14-.14.14-.38,0-.52s-.38-.14-.52,0l-1.4,1.4-.36-1.85c-.04-.2-.23-.33-.43-.29-.2.04-.33.23-.29.43l.46,2.33-3.19,3.19V3.25l1.98-1.33c.17-.11.22-.34.1-.51-.11-.17-.34-.22-.51-.1l-1.56,1.05V.37c0-.2-.17-.37-.37-.37s-.37.17-.37.37v1.98l-1.57-1.05c-.17-.11-.4-.07-.51.1-.11.17-.07.4.1.51l1.98,1.33v4.52l-3.19-3.19.46-2.34c.04-.2-.09-.4-.29-.43-.2-.04-.39.09-.43.29l-.36,1.85-1.4-1.4c-.14-.14-.38-.14-.52,0s-.14.38,0,.52l1.4,1.4-1.85.36c-.2.04-.33.23-.29.43.03.18.19.3.36.3.02,0,.05,0,.07,0l2.34-.46,3.19,3.19H3.25l-1.33-1.98c-.11-.17-.34-.21-.51-.1-.17.11-.22.34-.1.51l1.05,1.57H.37c-.2,0-.37.17-.37.37s.17.37.37.37h1.98l-1.05,1.56c-.11.17-.07.4.1.51.06.04.13.06.21.06.12,0,.24-.06.31-.16l1.33-1.98h4.52l-3.19,3.19-2.33-.46c-.2-.04-.4.09-.43.29-.04.2.09.4.29.43l1.85.37-1.4,1.4c-.14.14-.14.38,0,.52.07.07.17.11.26.11s.19-.04.26-.11l1.4-1.4.36,1.85c.03.18.19.3.36.3.02,0,.05,0,.07,0,.2-.04.33-.23.29-.43l-.46-2.34,3.19-3.19v4.52l-1.98,1.33c-.17.11-.22.34-.1.51.07.11.19.16.31.16.07,0,.14-.02.21-.06l1.57-1.05v1.99c0,.2.17.37.37.37s.37-.17.37-.37v-1.99l1.56,1.05c.17.11.4.07.51-.1.11-.17.07-.4-.1-.51l-1.98-1.33v-4.52l3.19,3.19-.46,2.33c-.04.2.09.4.29.43.02,0,.05,0,.07,0,.17,0,.33-.12.36-.3l.36-1.85,1.4,1.4c.07.07.17.11.26.11s.19-.04.26-.11c.14-.14.14-.38,0-.52l-1.4-1.4,1.85-.37c.2-.04.33-.23.29-.43-.04-.2-.23-.33-.43-.29l-2.33.46-3.19-3.19h4.52l1.33,1.98c.07.11.19.16.31.16.07,0,.14-.02.21-.06.17-.11.22-.34.1-.51l-1.05-1.56h1.99c.2,0,.37-.17.37-.37s-.17-.37-.37-.37Z"/><g class="cls-34"><g class="cls-32"><path class="cls-16" d="M8.07,14.56c-.9,0-1.17-.77-1.55-1.15-.47-.01-1.26.37-1.91-.28s-.28-1.37-.28-1.91c-.31-.31-1.15-.7-1.15-1.55,0-.9.77-1.17,1.15-1.55,0-.39-.32-1.3.28-1.91.66-.66,1.45-.28,1.91-.29l.53-.66c.52-.66,1.53-.66,2.06,0l.52.66c.48.01,1.26-.37,1.91.28.64.64.28,1.39.28,1.91.31.31,1.15.7,1.15,1.55,0,.9-.77,1.17-1.15,1.55,0,.39.32,1.31-.28,1.91-.47.47-.97.36-1.07.38l-.85-.09c-.31.31-.7,1.15-1.55,1.15Z"/><path class="cls-20" d="M8.07,14.41c-.87,0-1.13-.74-1.5-1.11-.45,0-1.22.36-1.85-.27s-.28-1.33-.27-1.85c-.3-.3-1.11-.68-1.11-1.5,0-.87.75-1.14,1.11-1.5,0-.38-.31-1.26.27-1.85.64-.64,1.4-.27,1.85-.28l.51-.64c.51-.64,1.48-.64,1.99,0l.51.63c.47,0,1.22-.36,1.85.27.62.62.28,1.34.27,1.85.3.3,1.11.68,1.11,1.5,0,.87-.75,1.14-1.11,1.5,0,.38.31,1.27-.27,1.85-.46.46-.94.35-1.03.37l-.82-.09c-.3.3-.68,1.11-1.5,1.11Z"/><path class="cls-6" d="M8.07,14.25c-.84,0-1.09-.72-1.45-1.08-.44,0-1.18.35-1.79-.27-.6-.6-.27-1.28-.27-1.79-.29-.29-1.08-.65-1.08-1.45,0-.84.72-1.1,1.08-1.45,0-.36-.3-1.22.26-1.79.62-.62,1.36-.26,1.79-.27l.49-.62c.49-.62,1.43-.62,1.92,0l.49.61c.45,0,1.18-.35,1.79.27.6.6.27,1.3.27,1.79.29.29,1.08.65,1.08,1.45,0,.84-.72,1.1-1.08,1.45,0,.36.3,1.22-.27,1.79-.44.44-.91.34-1,.35l-.79-.09c-.29.29-.65,1.08-1.45,1.08Z"/><path class="cls-2" d="M8.07,14.09c-.81,0-1.06-.69-1.4-1.04-.42,0-1.14.33-1.73-.26-.58-.58-.26-1.24-.26-1.73-.28-.28-1.04-.63-1.04-1.4,0-.81.7-1.06,1.04-1.4,0-.35-.29-1.18.25-1.73.6-.6,1.31-.25,1.73-.26l.48-.59c.47-.6,1.38-.6,1.86,0l.47.59c.44,0,1.14-.33,1.73.26.57.58.26,1.25.26,1.73.28.28,1.04.63,1.04,1.4,0,.82-.7,1.06-1.04,1.4,0,.35.29,1.18-.26,1.73-.43.43-.88.33-.96.34l-.76-.09c-.28.28-.63,1.04-1.4,1.04Z"/><path class="cls-18" d="M8.07,13.94c-.78,0-1.02-.67-1.35-1-.41,0-1.1.32-1.67-.25-.56-.56-.25-1.2-.25-1.67-.27-.27-1-.61-1-1.35,0-.78.67-1.02,1-1.35,0-.34-.28-1.14.25-1.67.58-.58,1.26-.24,1.67-.25l.46-.57c.46-.58,1.34-.58,1.79,0l.46.57c.42,0,1.1-.32,1.67.25.55.56.25,1.21.25,1.67.27.27,1,.61,1,1.35,0,.79-.67,1.02-1,1.35,0,.34.28,1.14-.25,1.67-.41.41-.85.32-.93.33l-.74-.08c-.27.27-.61,1-1.35,1Z"/><path class="cls-19" d="M8.07,13.78c-.76,0-.98-.64-1.31-.97-.39,0-1.06.31-1.61-.24-.54-.54-.24-1.15-.24-1.61-.26-.26-.97-.59-.97-1.3,0-.76.65-.99.97-1.31,0-.33-.27-1.1.24-1.61.55-.55,1.22-.23,1.61-.24l.44-.55c.44-.55,1.29-.55,1.73,0l.44.55c.41,0,1.06-.31,1.61.24.53.54.24,1.16.24,1.61.26.26.97.59.97,1.31,0,.76-.65.99-.97,1.3,0,.33.27,1.1-.24,1.61-.4.4-.82.31-.9.32l-.71-.08c-.26.26-.59.97-1.3.97Z"/><path class="cls-29" d="M8.07,13.62c-.73,0-.94-.62-1.26-.93-.38,0-1.02.3-1.55-.23s-.23-1.11-.23-1.55c-.25-.25-.93-.56-.93-1.26,0-.73.62-.95.93-1.26,0-.31-.26-1.05.23-1.55.53-.53,1.17-.22,1.55-.23l.42-.53c.42-.53,1.24-.53,1.66,0l.42.53c.39,0,1.02-.3,1.55.23.51.52.23,1.12.23,1.55.25.25.93.56.93,1.26,0,.73-.62.95-.93,1.26,0,.31.26,1.06-.23,1.55-.38.38-.79.29-.86.31l-.68-.08c-.25.25-.56.93-1.26.93Z"/><path class="cls-9" d="M8.07,13.47c-.7,0-.91-.59-1.21-.89-.36,0-.98.29-1.49-.22s-.22-1.06-.22-1.49c-.24-.24-.89-.54-.89-1.21,0-.7.6-.91.89-1.21,0-.3-.25-1.01.22-1.48.51-.51,1.12-.21,1.49-.22l.41-.51c.41-.51,1.19-.51,1.6,0l.41.51c.37,0,.98-.29,1.49.22.49.5.22,1.08.22,1.49.24.24.89.54.89,1.21,0,.7-.6.91-.89,1.21,0,.3.25,1.02-.22,1.49-.37.37-.76.28-.83.29l-.66-.07c-.24.24-.54.89-1.21.89Z"/><path class="cls-13" d="M8.07,13.31c-.67,0-.87-.57-1.16-.86-.35,0-.94.27-1.42-.21s-.21-1.02-.21-1.42c-.23-.23-.86-.52-.86-1.16,0-.67.58-.87.86-1.16,0-.29-.24-.97.21-1.42.49-.49,1.08-.21,1.43-.21l.39-.49c.39-.49,1.14-.49,1.53,0l.39.49c.36,0,.94-.28,1.42.21.47.48.21,1.03.21,1.42.23.23.86.52.86,1.16,0,.67-.57.87-.86,1.16,0,.29.24.97-.21,1.42-.35.35-.72.27-.79.28l-.63-.07c-.23.23-.52.86-1.16.86Z"/><path class="cls-24" d="M8.07,13.16c-.64,0-.83-.55-1.11-.82-.33,0-.9.26-1.36-.2s-.2-.98-.2-1.36c-.22-.22-.82-.5-.82-1.11,0-.64.55-.84.82-1.11,0-.28-.23-.93.2-1.36.47-.47,1.03-.2,1.36-.2l.37-.47c.37-.47,1.09-.47,1.47,0l.37.47c.34,0,.9-.26,1.36.2.45.46.2.99.2,1.36.22.22.82.5.82,1.11,0,.64-.55.84-.82,1.11,0,.28.23.93-.2,1.36-.34.34-.69.26-.76.27l-.6-.07c-.22.22-.5.82-1.11.82Z"/></g></g><path class="cls-22" d="M12.16,8.75c0-.1-.05-.2-.13-.26l-.93-.75.13-1.19c.01-.1-.02-.2-.1-.28-.07-.07-.17-.11-.28-.1l-1.19.13-.75-.93c-.06-.08-.16-.13-.26-.13s-.2.05-.26.13l-.75.93-1.19-.13c-.11-.01-.2.02-.28.1-.07.07-.11.17-.1.28l.13,1.19-.93.75c-.08.06-.13.16-.13.26s.05.2.13.26l.93.75-.13,1.19c-.01.1.02.2.1.28.07.07.17.11.28.1l1.19-.13.75.93c.06.08.16.13.26.13s.2-.05.26-.13l.75-.93,1.19.13c.1.01.2-.02.28-.1.07-.07.11-.18.1-.28l-.13-1.19.93-.75c.08-.06.13-.16.13-.26Z"/><path class="cls-17" d="M12.16,8.66c0-.1-.05-.2-.13-.26l-.93-.75.13-1.19c.01-.1-.02-.2-.1-.28-.07-.07-.17-.11-.28-.1l-1.19.13-.75-.93c-.06-.08-.16-.13-.26-.13s-.2.05-.26.13l-.75.93-1.19-.13c-.11-.01-.2.02-.28.1-.07.07-.11.18-.1.28l.13,1.19-.93.75c-.08.06-.13.16-.13.26s.05.2.13.26l.93.75-.13,1.19c-.01.1.02.2.1.28.07.07.17.11.28.1l1.19-.13.75.93c.06.08.16.13.26.13s.2-.05.26-.13l.75-.93,1.19.13c.1.01.2-.02.28-.1.07-.07.11-.18.1-.28l-.13-1.19.93-.75c.08-.06.13-.16.13-.26Z"/><g class="cls-33"><g class="cls-30"><path class="cls-15" d="M7.63,13.05v-1.91l-1.35,1.35s-1.12-1.08-1.45-1.45l1.35-1.35h-1.91c-.12-1.19-.08-1.23,0-2.05h1.91l-1.35-1.35c1.27-1.45.92-.94,1.45-1.45l1.35,1.35v-1.91c1.53-.18,1.2,0,2.05,0v1.91l1.35-1.35c1.45,1.27.94.92,1.45,1.45l-1.35,1.35h1.91c.09.97.12.91,0,2.05h-1.91l1.35,1.35s-1.07,1.12-1.45,1.45l-1.35-1.35v1.91c-1.14.12-1.03.1-2.05,0Z"/><path class="cls-7" d="M12.96,7.7c.09.89.11.87,0,1.92h-1.99l1.41,1.41s-1,1.04-1.36,1.36l-1.41-1.41v1.99c-1.05.11-.98.09-1.92,0v-1.99l-1.41,1.41s-1.05-1-1.36-1.36l1.41-1.41h-1.99c-.11-1.09-.07-1.17,0-1.92h1.99l-1.41-1.41c1.17-1.33.86-.88,1.36-1.36l1.41,1.41v-1.99c1.4-.17,1.13,0,1.92,0v1.99l1.41-1.41c1.33,1.16.88.86,1.36,1.36l-1.41,1.41h1.99Z"/><path class="cls-25" d="M12.88,7.76c.08.81.1.84,0,1.79h-2.07l1.46,1.46s-.93.97-1.26,1.26l-1.46-1.46v2.07c-.95.1-.93.08-1.79,0v-2.07l-1.46,1.46s-.97-.93-1.26-1.26l1.46-1.46h-2.07c-.1-.99-.07-1.1,0-1.79h2.07l-1.46-1.46c1.06-1.21.8-.82,1.26-1.26l1.46,1.46v-2.07c1.27-.15,1.07,0,1.79,0v2.07l1.46-1.46c1.21,1.06.82.8,1.26,1.26l-1.46,1.46h2.07Z"/><path class="cls-12" d="M12.8,7.83c.07.73.09.8,0,1.65h-2.14l1.52,1.52s-.85.89-1.17,1.17l-1.52-1.52v2.14c-.86.09-.89.07-1.65,0v-2.14l-1.52,1.52s-.9-.86-1.17-1.17l1.52-1.52h-2.14c-.09-.89-.06-1.03,0-1.65h2.14l-1.52-1.52c.96-1.09.74-.76,1.17-1.17l1.52,1.52v-2.14c1.14-.14,1,0,1.65,0v2.14l1.52-1.52c1.09.96.76.74,1.17,1.17l-1.52,1.52h2.14Z"/><path class="cls-14" d="M12.71,7.9c.06.65.08.76,0,1.52h-2.22l1.57,1.57c-.05.06-.78.82-1.08,1.08l-1.57-1.57v2.22c-.76.08-.84.07-1.52,0v-2.22l-1.57,1.57c-.06-.05-.82-.78-1.08-1.08l1.57-1.57h-2.22c-.08-.79-.05-.96,0-1.52h2.22l-1.57-1.57c.85-.98.68-.7,1.08-1.08l1.57,1.57v-2.22c1.01-.12.94,0,1.52,0v2.22l1.57-1.57c.98.85.7.68,1.08,1.08l-1.57,1.57h2.22Z"/><path class="cls-23" d="M12.63,7.96c.05.57.07.72,0,1.39h-2.3l1.63,1.63c-.06.07-.71.74-.98.98l-1.63-1.63v2.3c-.67.07-.79.06-1.39,0v-2.3l-1.63,1.63c-.07-.06-.74-.71-.98-.98l1.63-1.63h-2.3c-.07-.69-.05-.9,0-1.39h2.3l-1.63-1.63c.75-.86.62-.64.98-.98l1.63,1.63v-2.3c.88-.1.88,0,1.39,0v2.3l1.63-1.63c.86.75.64.62.98.98l-1.63,1.63h2.3Z"/><path class="cls-1" d="M12.55,8.03c.05.49.06.68,0,1.25h-2.37l1.68,1.68c-.07.08-.63.67-.89.89l-1.68-1.68v2.37c-.57.06-.74.05-1.25,0v-2.37l-1.68,1.68c-.08-.07-.67-.63-.89-.89l1.68-1.68h-2.37c-.06-.59-.04-.83,0-1.25h2.37l-1.68-1.68c.65-.74.56-.59.89-.89l1.68,1.68v-2.37c.75-.09.81,0,1.25,0v2.37l1.68-1.68c.74.65.59.56.89.89l-1.68,1.68h2.37Z"/><path class="cls-28" d="M12.46,8.1c.04.41.05.64,0,1.12h-2.45l1.73,1.73c-.08.1-.56.59-.79.79l-1.73-1.73v2.45c-.48.05-.69.04-1.12,0v-2.45l-1.73,1.73c-.1-.08-.59-.56-.79-.79l1.73-1.73h-2.45c-.05-.49-.03-.76,0-1.12h2.45l-1.73-1.73c.54-.62.5-.53.79-.79l1.73,1.73v-2.45c.62-.07.75,0,1.12,0v2.45l1.73-1.73c.62.54.53.5.79.79l-1.73,1.73h2.45Z"/><path class="cls-26" d="M12.38,8.16c.03.34.04.61,0,.99h-2.53l1.79,1.79c-.09.11-.49.52-.7.7l-1.79-1.79v2.53c-.38.04-.64.03-.99,0v-2.53l-1.79,1.79c-.11-.09-.52-.49-.7-.7l1.79-1.79h-2.53c-.04-.4-.03-.69,0-.99h2.53l-1.79-1.79c.44-.5.44-.47.7-.7l1.79,1.79v-2.53c.49-.06.68,0,.99,0v2.53l1.79-1.79c.51.44.47.44.7.7l-1.79,1.79h2.53Z"/><path class="cls-3" d="M12.3,8.23c.02.26.03.57,0,.86h-2.6l1.84,1.84c-.1.12-.41.44-.61.61l-1.84-1.84v2.6c-.29.03-.59.02-.86,0v-2.6l-1.84,1.84c-.12-.1-.44-.41-.61-.61l1.84-1.84h-2.6c-.03-.3-.02-.63,0-.86h2.6l-1.84-1.84c.34-.39.39-.41.61-.61l1.84,1.84v-2.6c.36-.04.62,0,.86,0v2.6l1.84-1.84c.39.34.41.39.61.61l-1.84,1.84h2.6Z"/><path class="cls-21" d="M12.21,8.29c.02.18.02.53,0,.72h-2.68l1.9,1.9c-.12.14-.34.37-.51.51l-1.9-1.9v2.68c-.19.02-.54.02-.72,0v-2.68l-1.9,1.9c-.14-.12-.37-.34-.51-.51l1.9-1.9h-2.68c-.02-.2-.01-.56,0-.72h2.68l-1.9-1.9c.23-.27.33-.35.51-.51l1.9,1.9v-2.68c.23-.02.56,0,.72,0v2.68l1.9-1.9c.27.23.35.33.51.51l-1.9,1.9h2.68Z"/><path class="cls-8" d="M12.13,8.36h-2.76l1.95-1.95c-.13-.15-.27-.29-.42-.42l-1.95,1.95v-2.76c-.1,0-.49,0-.59,0v2.76l-1.95-1.95c-.15.13-.29.27-.42.42l1.95,1.95h-2.76c0,.1,0,.49,0,.59h2.76l-1.95,1.95c.13.15.27.29.42.42l1.95-1.95v2.76c.1,0,.49,0,.59,0v-2.76l1.95,1.95c.15-.13.29-.27.42-.42l-1.95-1.95h2.76c0-.1,0-.49,0-.59Z"/></g><path class="cls-5" d="M13.56,8.33c0,2.73-2.21,4.93-4.93,4.93s-4.93-2.21-4.93-4.93,2.21-4.93,4.93-4.93,4.93,2.21,4.93,4.93Z"/><polygon class="cls-11" points="7.78 10.78 6.39 10.94 6.55 9.55 5.45 8.68 6.55 7.8 6.39 6.41 7.78 6.57 8.66 5.47 9.53 6.57 10.92 6.41 10.76 7.8 11.86 8.68 10.76 9.55 10.92 10.94 9.53 10.78 8.66 11.88 7.78 10.78"/></g><polygon class="cls-22" points="10.58 8.71 9.9 8.16 9.92 7.46 9.17 7.52 8.66 6.88 8.14 7.52 7.37 7.44 7.44 8.19 6.73 8.71 7.41 9.27 7.31 10.1 8.14 10 8.66 10.65 9.17 10 10 10.1 9.9 9.28 10.58 8.71"/><polygon class="cls-27" points="10.54 8.68 9.9 8.16 9.99 7.34 9.17 7.44 8.66 6.79 8.14 7.44 7.32 7.34 7.42 8.16 6.77 8.68 7.42 9.19 7.32 10.01 8.14 9.92 8.66 10.56 9.17 9.92 9.99 10.01 9.9 9.19 10.54 8.68"/></g></g></g></svg>