<?xml version="1.0" encoding="UTF-8"?><svg xmlns="http://www.w3.org/2000/svg" xmlns:xlink="http://www.w3.org/1999/xlink" viewBox="0 0 24.87 14.18"><defs><style>.cls-1{fill:url(#_R_W_h_6);}.cls-1,.cls-2,.cls-3,.cls-4,.cls-5,.cls-6,.cls-7,.cls-8,.cls-9,.cls-10,.cls-11,.cls-12,.cls-13,.cls-14,.cls-15,.cls-16,.cls-17,.cls-18,.cls-19,.cls-20,.cls-21,.cls-22,.cls-23,.cls-24,.cls-25,.cls-26,.cls-27,.cls-28,.cls-29,.cls-30,.cls-31,.cls-32,.cls-33,.cls-34,.cls-35,.cls-36,.cls-37,.cls-38,.cls-39,.cls-40,.cls-41,.cls-42,.cls-43,.cls-44,.cls-45,.cls-46,.cls-47,.cls-48,.cls-49,.cls-50,.cls-51,.cls-52,.cls-53,.cls-54,.cls-55,.cls-56,.cls-57,.cls-58,.cls-59,.cls-60,.cls-61,.cls-62,.cls-63,.cls-64,.cls-65,.cls-66,.cls-67,.cls-68,.cls-69,.cls-70,.cls-71,.cls-72,.cls-73,.cls-74,.cls-75,.cls-76,.cls-77,.cls-78,.cls-79,.cls-80,.cls-81,.cls-82,.cls-83{stroke-width:0px;}.cls-1,.cls-3,.cls-4,.cls-6,.cls-8,.cls-13,.cls-21,.cls-26,.cls-32,.cls-33,.cls-37,.cls-38,.cls-41,.cls-84,.cls-57,.cls-59,.cls-63,.cls-66,.cls-67,.cls-73,.cls-79,.cls-80,.cls-81,.cls-83{mix-blend-mode:screen;}.cls-1,.cls-66{opacity:.28;}.cls-2{fill:#151519;}.cls-3{fill:url(#_R_W_h_53);}.cls-3,.cls-63{opacity:.6;}.cls-4{fill:url(#_R_W_h_3);}.cls-4,.cls-59{opacity:.2;}.cls-5{fill:#e0d5fd;}.cls-6{fill:url(#_R_W_h_44);}.cls-6,.cls-81{opacity:.68;}.cls-7{fill:url(#_R_W_h_1436-2);}.cls-8{fill:url(#_R_W_h_52);}.cls-8,.cls-32{opacity:.52;}.cls-9{fill:#f2ebfe;opacity:.67;}.cls-10{fill:#3e3c49;}.cls-11{fill:#f4eefe;opacity:.56;}.cls-12{fill:#e4e6fd;}.cls-12,.cls-14,.cls-15,.cls-16,.cls-24,.cls-29,.cls-35,.cls-39,.cls-61,.cls-62,.cls-85{mix-blend-mode:multiply;}.cls-13{fill:url(#_R_W_h_9);}.cls-13,.cls-79{opacity:.44;}.cls-14,.cls-46,.cls-82{fill:#fff;}.cls-15{fill:#dadcfd;}.cls-16{fill:#cfd2fc;}.cls-17{fill:#d1c6fc;}.cls-18{fill:url(#_R_W_h_1887);}.cls-19,.cls-33{fill:#010101;}.cls-20{fill:#fbf8ff;opacity:.22;}.cls-86{isolation:isolate;}.cls-21{fill:url(#_R_W_h_47);}.cls-21,.cls-80{opacity:.92;}.cls-22{fill:#fdfcff;opacity:.11;}.cls-23{fill:#d7ccfc;}.cls-24{fill:#eaebfe;}.cls-25{fill:#dacffc;}.cls-26{fill:url(#_R_W_h_50);}.cls-26,.cls-38{opacity:.36;}.cls-27{fill:#e6dbfd;}.cls-28{fill:#ece1fd;}.cls-29{fill:#dfe1fd;}.cls-30{fill:none;}.cls-31{fill:url(#_R_W_h_1849);}.cls-32{fill:url(#_R_W_h_12);}.cls-87{clip-path:url(#clippath-1);}.cls-33{opacity:.12;}.cls-34{fill:#e3d8fd;}.cls-35{fill:#d4d7fc;}.cls-36{fill:#ddd2fc;}.cls-37{fill:url(#_R_W_h_803);}.cls-38{fill:url(#_R_W_h_7);}.cls-39{fill:#f4f5fe;}.cls-40{fill:url(#_R_W_h_1857);}.cls-41{fill:url(#_R_W_h_55);}.cls-41,.cls-83{opacity:.76;}.cls-42{fill:url(#_R_W_h_1436);}.cls-43{fill:#a49dc2;}.cls-44{fill:#f9f9fe;}.cls-45{fill:#fcfcff;}.cls-47{fill:#f7f2fe;opacity:.44;}.cls-48{fill:#f3f3fd;}.cls-49{fill:#524f61;}.cls-50{fill:url(#_R_W_h_43-2);}.cls-51{fill:url(#_R_W_h_3425);}.cls-52{fill:#7b7692;}.cls-53{fill:#fafbfe;}.cls-88{clip-path:url(#clippath);}.cls-54{fill:#d4c9fc;}.cls-55{fill:#2a2831;}.cls-56{fill:#eee4fd;opacity:.89;}.cls-57{fill:url(#_R_W_h_771);}.cls-58{fill:#8f8aaa;}.cls-59{fill:url(#_R_W_h_48);}.cls-60{fill:url(#_R_W_h_1654);}.cls-61{fill:#eff0fe;}.cls-62{fill:#fafaff;}.cls-63{fill:url(#_R_W_h_37);}.cls-64{fill:#67637a;}.cls-65{fill:url(#_R_W_h_1785);}.cls-66{fill:url(#_R_W_h_49);}.cls-67{fill:url(#_R_W_h_56);}.cls-67,.cls-73{opacity:.84;}.cls-68{fill:#f4f5fd;}.cls-69{fill:#b8b1da;}.cls-70{fill:#f9f5fe;opacity:.33;}.cls-71{fill:#e9defd;}.cls-72{fill:#f0e8fd;opacity:.78;}.cls-73{fill:url(#_R_W_h_46);}.cls-74{fill:#f1f2fd;}.cls-75{fill:#f7f8fe;}.cls-76{fill:#f6f6fe;}.cls-77{fill:#fdfeff;}.cls-78{fill:url(#_R_W_h_43);}.cls-79{fill:url(#_R_W_h_51);}.cls-80{fill:url(#_R_W_h_57);}.cls-81{fill:url(#_R_W_h_54);}.cls-82{opacity:0;}.cls-83{fill:url(#_R_W_h_45);}</style><linearGradient id="_R_W_h_1436" x1="8.53" y1="4.46" x2="23.12" y2="4.46" gradientUnits="userSpaceOnUse"><stop offset="0" stop-color="#f4fbfb"/><stop offset=".61" stop-color="#fbfbfb"/><stop offset=".8" stop-color="#f6fafa"/><stop offset="1" stop-color="#eaf8f9"/></linearGradient><radialGradient id="_R_W_h_3425" cx="19.18" cy="-.4" fx="19.18" fy="-.4" r="17.46" gradientUnits="userSpaceOnUse"><stop offset="0" stop-color="#efecfd"/><stop offset=".04" stop-color="#edeafd"/><stop offset=".35" stop-color="#e8e4fd"/><stop offset=".74" stop-color="#e3d8fc"/><stop offset="1" stop-color="#e0cefc"/></radialGradient><linearGradient id="_R_W_h_803" x1="18.12" y1="1.03" x2="13.58" y2="10.97" gradientUnits="userSpaceOnUse"><stop offset="0" stop-color="#948cfa"/><stop offset=".09" stop-color="#8c85ed"/><stop offset=".26" stop-color="#7972cc"/><stop offset=".48" stop-color="#595496"/><stop offset=".74" stop-color="#2e2b4d"/><stop offset="1" stop-color="#010101"/></linearGradient><linearGradient id="_R_W_h_57" x1="18.04" y1="1.19" x2="13.58" y2="10.94" gradientUnits="userSpaceOnUse"><stop offset="0" stop-color="#877fe3"/><stop offset=".1" stop-color="#7f78d6"/><stop offset=".28" stop-color="#6b65b5"/><stop offset=".52" stop-color="#4c477f"/><stop offset=".8" stop-color="#201e36"/><stop offset="1" stop-color="#010101"/></linearGradient><linearGradient id="_R_W_h_56" x1="17.95" y1="1.34" x2="13.59" y2="10.91" gradientUnits="userSpaceOnUse"><stop offset="0" stop-color="#7973cd"/><stop offset=".11" stop-color="#716cc0"/><stop offset=".3" stop-color="#5e599f"/><stop offset=".56" stop-color="#3e3b69"/><stop offset=".87" stop-color="#131220"/><stop offset="1" stop-color="#010101"/></linearGradient><linearGradient id="_R_W_h_55" x1="17.87" y1="1.5" x2="13.59" y2="10.87" gradientUnits="userSpaceOnUse"><stop offset="0" stop-color="#6c66b6"/><stop offset=".12" stop-color="#645fa9"/><stop offset=".33" stop-color="#514c88"/><stop offset=".62" stop-color="#312e52"/><stop offset=".96" stop-color="#060509"/><stop offset="1" stop-color="#010101"/></linearGradient><linearGradient id="_R_W_h_54" x1="17.78" y1="1.65" x2="13.59" y2="10.84" gradientUnits="userSpaceOnUse"><stop offset="0" stop-color="#5f599f"/><stop offset=".13" stop-color="#575292"/><stop offset=".37" stop-color="#433f71"/><stop offset=".68" stop-color="#24223c"/><stop offset="1" stop-color="#010101"/></linearGradient><linearGradient id="_R_W_h_53" x1="17.7" y1="1.81" x2="13.59" y2="10.8" gradientUnits="userSpaceOnUse"><stop offset="0" stop-color="#514d89"/><stop offset=".15" stop-color="#49467c"/><stop offset=".41" stop-color="#36335b"/><stop offset=".77" stop-color="#171526"/><stop offset="1" stop-color="#010101"/></linearGradient><linearGradient id="_R_W_h_52" x1="17.62" y1="1.96" x2="13.59" y2="10.77" gradientUnits="userSpaceOnUse"><stop offset="0" stop-color="#444072"/><stop offset=".17" stop-color="#3c3965"/><stop offset=".48" stop-color="#292644"/><stop offset=".9" stop-color="#09090f"/><stop offset="1" stop-color="#010101"/></linearGradient><linearGradient id="_R_W_h_51" x1="17.53" y1="2.12" x2="13.6" y2="10.74" gradientUnits="userSpaceOnUse"><stop offset="0" stop-color="#36345c"/><stop offset=".2" stop-color="#2e2d4f"/><stop offset=".57" stop-color="#1b1a2e"/><stop offset="1" stop-color="#010101"/></linearGradient><linearGradient id="_R_W_h_50" x1="17.45" y1="2.27" x2="13.6" y2="10.7" gradientUnits="userSpaceOnUse"><stop offset="0" stop-color="#292745"/><stop offset=".26" stop-color="#212038"/><stop offset=".72" stop-color="#0e0d17"/><stop offset="1" stop-color="#010101"/></linearGradient><linearGradient id="_R_W_h_49" x1="17.36" y1="2.42" x2="13.6" y2="10.67" gradientUnits="userSpaceOnUse"><stop offset="0" stop-color="#1c1a2e"/><stop offset=".36" stop-color="#141321"/><stop offset="1" stop-color="#010101"/></linearGradient><linearGradient id="_R_W_h_48" x1="17.28" y1="2.58" x2="13.6" y2="10.63" gradientUnits="userSpaceOnUse"><stop offset="0" stop-color="#0e0e18"/><stop offset=".61" stop-color="#06060b"/><stop offset="1" stop-color="#010101"/></linearGradient><linearGradient id="_R_W_h_1436-2" x1="1.68" y1="6.51" x2="20.22" y2="6.51" xlink:href="#_R_W_h_1436"/><radialGradient id="_R_W_h_1654" cx="15.21" cy=".34" fx="15.21" fy=".34" r="22.18" gradientUnits="userSpaceOnUse"><stop offset="0" stop-color="#f7f6ff"/><stop offset="0" stop-color="#f6f5fe"/><stop offset=".35" stop-color="#f1effd"/><stop offset=".7" stop-color="#e5e3f1"/><stop offset="1" stop-color="#d8d7e4"/></radialGradient><clipPath id="clippath"><path class="cls-30" d="M16.4,4.48h0c-.24,0-.5.03-.76.07-.26-.7-.65-1.34-1.15-1.89-1.03-1.11-2.52-1.81-4.17-1.81-2.81,0-5.14,2.02-5.58,4.66-1.7.13-3.04,1.52-3.04,3.23,0,1.8,1.48,3.25,3.31,3.25h11.41c2.11,0,3.82-1.68,3.82-3.75s-1.71-3.75-3.82-3.75Z"/></clipPath><linearGradient id="_R_W_h_771" x1="13.87" y1="2.16" x2="8.1" y2="14.79" gradientUnits="userSpaceOnUse"><stop offset="0" stop-color="#bab6fb"/><stop offset=".09" stop-color="#b0acee"/><stop offset=".26" stop-color="#9894cd"/><stop offset=".48" stop-color="#706e97"/><stop offset=".74" stop-color="#3a394e"/><stop offset="1" stop-color="#010101"/></linearGradient><linearGradient id="_R_W_h_47" x1="13.76" y1="2.35" x2="8.1" y2="14.75" gradientUnits="userSpaceOnUse"><stop offset="0" stop-color="#a9a6e4"/><stop offset=".1" stop-color="#9f9cd7"/><stop offset=".28" stop-color="#8784b6"/><stop offset=".51" stop-color="#5f5d80"/><stop offset=".8" stop-color="#292837"/><stop offset="1" stop-color="#010101"/></linearGradient><linearGradient id="_R_W_h_46" x1="13.65" y1="2.55" x2="8.1" y2="14.7" gradientUnits="userSpaceOnUse"><stop offset="0" stop-color="#9895ce"/><stop offset=".11" stop-color="#8e8cc1"/><stop offset=".3" stop-color="#7674a0"/><stop offset=".56" stop-color="#4e4d6a"/><stop offset=".87" stop-color="#191821"/><stop offset="1" stop-color="#010101"/></linearGradient><linearGradient id="_R_W_h_45" x1="13.55" y1="2.75" x2="8.11" y2="14.66" gradientUnits="userSpaceOnUse"><stop offset="0" stop-color="#8885b7"/><stop offset=".12" stop-color="#7e7baa"/><stop offset=".33" stop-color="#666389"/><stop offset=".61" stop-color="#3e3d53"/><stop offset=".96" stop-color="#08080a"/><stop offset="1" stop-color="#010101"/></linearGradient><linearGradient id="_R_W_h_44" x1="13.44" y1="2.95" x2="8.11" y2="14.62" gradientUnits="userSpaceOnUse"><stop offset="0" stop-color="#7774a0"/><stop offset=".13" stop-color="#6d6a93"/><stop offset=".37" stop-color="#555372"/><stop offset=".68" stop-color="#2d2c3d"/><stop offset="1" stop-color="#010101"/></linearGradient><linearGradient id="_R_W_h_37" x1="13.33" y1="3.14" x2="8.11" y2="14.57" gradientUnits="userSpaceOnUse"><stop offset="0" stop-color="#666489"/><stop offset=".15" stop-color="#5c5a7c"/><stop offset=".41" stop-color="#44425b"/><stop offset=".77" stop-color="#1c1c26"/><stop offset="1" stop-color="#010101"/></linearGradient><linearGradient id="_R_W_h_12" x1="13.23" y1="3.34" x2="8.12" y2="14.53" gradientUnits="userSpaceOnUse"><stop offset="0" stop-color="#555373"/><stop offset=".17" stop-color="#4b4a66"/><stop offset=".48" stop-color="#333245"/><stop offset=".89" stop-color="#0c0c10"/><stop offset="1" stop-color="#010101"/></linearGradient><linearGradient id="_R_W_h_9" x1="13.12" y1="3.54" x2="8.12" y2="14.49" gradientUnits="userSpaceOnUse"><stop offset="0" stop-color="#44435c"/><stop offset=".2" stop-color="#3a394f"/><stop offset=".57" stop-color="#22222e"/><stop offset="1" stop-color="#010101"/></linearGradient><linearGradient id="_R_W_h_7" x1="13.01" y1="3.73" x2="8.12" y2="14.45" gradientUnits="userSpaceOnUse"><stop offset="0" stop-color="#333245"/><stop offset=".26" stop-color="#292938"/><stop offset=".72" stop-color="#111117"/><stop offset="1" stop-color="#010101"/></linearGradient><linearGradient id="_R_W_h_6" x1="12.91" y1="3.93" x2="8.12" y2="14.4" gradientUnits="userSpaceOnUse"><stop offset="0" stop-color="#23222e"/><stop offset=".36" stop-color="#191821"/><stop offset="1" stop-color="#010101"/></linearGradient><linearGradient id="_R_W_h_3" x1="12.8" y1="4.13" x2="8.13" y2="14.36" gradientUnits="userSpaceOnUse"><stop offset="0" stop-color="#121118"/><stop offset=".61" stop-color="#08080b"/><stop offset="1" stop-color="#010101"/></linearGradient><linearGradient id="_R_W_h_1785" x1="0" y1="8.73" x2="10.23" y2="8.73" gradientUnits="userSpaceOnUse"><stop offset="0" stop-color="#dddafc"/><stop offset=".66" stop-color="#e0e9fc"/></linearGradient><linearGradient id="_R_W_h_1849" x1=".22" y1="13.34" x2="10.45" y2="13.34" gradientUnits="userSpaceOnUse"><stop offset="0" stop-color="#c0bffb"/><stop offset=".66" stop-color="#c5ccfc"/></linearGradient><linearGradient id="_R_W_h_1857" x1="3.11" y1="11.03" x2="13.33" y2="11.03" gradientUnits="userSpaceOnUse"><stop offset="0" stop-color="#e2e0fd"/><stop offset=".66" stop-color="#e6edfd"/></linearGradient><linearGradient id="_R_W_h_43" x1="0" y1="8.63" x2="10.23" y2="8.63" gradientUnits="userSpaceOnUse"><stop offset="0" stop-color="#a198fa"/><stop offset=".03" stop-color="#a099fa"/><stop offset=".66" stop-color="#9fbefb"/></linearGradient><linearGradient id="_R_W_h_1887" x1=".22" y1="13.23" x2="10.45" y2="13.23" gradientUnits="userSpaceOnUse"><stop offset="0" stop-color="#a186f9"/><stop offset=".66" stop-color="#8795ec"/></linearGradient><linearGradient id="_R_W_h_43-2" x1="3.11" y1="10.93" x2="13.33" y2="10.93" xlink:href="#_R_W_h_43"/><clipPath id="clippath-1"><path class="cls-30" d="M7.84,9.45c-.41-.06-.89-.28-1.31-.49-.2-.1-.74-.37-1.08-.42-.17-.02-.48-.03-.66,0-.34.05-.88.32-1.08.42-.42.21-.9.43-1.31.49-.25.03-.6.04-.87,0-.41-.06-.89-.28-1.31-.49-.18-.09-.26-.31-.17-.5.09-.18.31-.26.5-.17.22.11.74.37,1.08.42.17.02.51.02.66,0,.21-.03.48-.14.72-.24.15-.07.28-.13.37-.17.42-.21.9-.43,1.31-.49.24-.04.61-.04.87,0,.41.06.89.28,1.31.49.22.11.74.37,1.08.42.18.02.51.02.66,0,.34-.05.86-.31,1.08-.42.18-.09.41-.02.5.17.09.18.02.41-.17.5-.42.21-.9.43-1.31.49-.25.03-.62.04-.87,0Z"/></clipPath></defs><g class="cls-86"><g id="Layer_2"><g id="Main_1"><g class="cls-85"><path class="cls-82" d="M11.24,12.58c-2.37,0-4.12-1.7-4.12-3.93,0-1.64,1.04-3.14,2.73-3.72.71-2.16,2.81-4,5.35-4,2.07,0,4.04,1.19,5.06,2.89,2.32.25,4.73,2.01,4.61,4.42-.14,2.79-2.15,4.37-4.61,4.34h-9.02Z"/><path class="cls-22" d="M11.48,12.3c-2.25,0-3.91-1.62-3.91-3.73,0-1.56.99-2.98,2.59-3.53.68-2.06,2.67-3.8,5.08-3.8,1.97,0,3.84,1.13,4.81,2.74,2.21.24,4.5,1.91,4.38,4.2-.14,2.65-2.04,4.15-4.38,4.13h-8.57Z"/><path class="cls-20" d="M11.72,12.03c-2.13,0-3.71-1.53-3.71-3.54,0-1.48.94-2.83,2.46-3.35.64-1.95,2.53-3.6,4.82-3.6,1.87,0,3.64,1.07,4.56,2.6,2.09.23,4.26,1.81,4.15,3.98-.13,2.51-1.94,3.94-4.15,3.91h-8.12Z"/><path class="cls-70" d="M11.96,11.76c-2.01,0-3.5-1.45-3.5-3.34,0-1.4.89-2.67,2.32-3.16.61-1.84,2.39-3.4,4.55-3.4,1.76,0,3.44,1.01,4.31,2.46,1.98.22,4.03,1.71,3.92,3.76-.12,2.37-1.83,3.72-3.92,3.69h-7.68Z"/><path class="cls-47" d="M12.2,11.48c-1.9,0-3.3-1.36-3.3-3.15,0-1.32.83-2.51,2.19-2.98.57-1.73,2.25-3.2,4.29-3.2,1.66,0,3.24.95,4.06,2.31,1.86.2,3.79,1.61,3.69,3.54-.11,2.23-1.72,3.5-3.69,3.48h-7.23Z"/><path class="cls-11" d="M12.44,11.21c-1.78,0-3.09-1.28-3.09-2.95,0-1.23.78-2.36,2.05-2.79.54-1.63,2.11-3.01,4.02-3.01,1.56,0,3.04.89,3.8,2.17,1.74.19,3.55,1.51,3.46,3.32-.11,2.09-1.62,3.28-3.46,3.26h-6.78Z"/><path class="cls-9" d="M12.68,10.93c-1.66,0-2.89-1.19-2.89-2.76,0-1.15.73-2.2,1.91-2.61.5-1.52,1.97-2.81,3.75-2.81,1.45,0,2.84.83,3.55,2.02,1.63.18,3.32,1.41,3.23,3.1-.1,1.95-1.51,3.07-3.23,3.05h-6.33Z"/><path class="cls-72" d="M12.92,10.66c-1.54,0-2.68-1.11-2.68-2.56,0-1.07.68-2.05,1.78-2.42.47-1.41,1.83-2.61,3.49-2.61,1.35,0,2.63.77,3.3,1.88,1.51.17,3.08,1.31,3,2.88-.09,1.82-1.4,2.85-3,2.83h-5.88Z"/><path class="cls-56" d="M13.17,10.39c-1.42,0-2.48-1.02-2.48-2.36,0-.99.63-1.89,1.64-2.24.43-1.3,1.69-2.41,3.22-2.41,1.25,0,2.43.71,3.05,1.74,1.4.15,2.85,1.21,2.77,2.66-.09,1.68-1.29,2.63-2.77,2.61h-5.43Z"/><path class="cls-28" d="M13.41,10.11c-1.31,0-2.27-.94-2.27-2.17,0-.91.57-1.73,1.51-2.05.39-1.19,1.55-2.21,2.95-2.21,1.14,0,2.23.66,2.8,1.59,1.28.14,2.61,1.11,2.54,2.44-.08,1.54-1.19,2.41-2.55,2.4h-4.98Z"/><path class="cls-71" d="M13.56,9.95c-1.23,0-2.14-.89-2.14-2.04,0-.86.54-1.63,1.42-1.93.37-1.13,1.46-2.08,2.78-2.08,1.08,0,2.1.62,2.63,1.5,1.21.13,2.46,1.04,2.4,2.3-.07,1.45-1.12,2.27-2.4,2.26h-4.7Z"/><path class="cls-27" d="M13.71,9.79c-1.16,0-2.01-.83-2.01-1.92,0-.8.51-1.53,1.33-1.82.35-1.06,1.37-1.96,2.62-1.96,1.01,0,1.98.58,2.47,1.41,1.14.12,2.31.98,2.25,2.16-.07,1.36-1.05,2.14-2.25,2.12h-4.41Z"/><path class="cls-34" d="M13.87,9.63c-1.08,0-1.88-.78-1.88-1.8,0-.75.48-1.43,1.25-1.7.33-.99,1.28-1.83,2.45-1.83.95,0,1.85.54,2.31,1.32,1.06.12,2.16.92,2.11,2.02-.07,1.27-.98,2-2.11,1.98h-4.12Z"/><path class="cls-5" d="M14.02,9.47c-1.01,0-1.75-.72-1.75-1.67,0-.7.44-1.34,1.16-1.58.3-.92,1.2-1.7,2.28-1.7.88,0,1.72.51,2.15,1.23.99.11,2.01.85,1.96,1.88-.06,1.19-.91,1.86-1.96,1.85h-3.84Z"/><path class="cls-36" d="M14.17,9.31c-.93,0-1.62-.67-1.62-1.55,0-.65.41-1.24,1.07-1.46.28-.85,1.11-1.58,2.11-1.58.82,0,1.59.47,1.99,1.14.91.1,1.86.79,1.81,1.74-.06,1.1-.85,1.72-1.82,1.71h-3.55Z"/><path class="cls-25" d="M14.32,9.15c-.86,0-1.49-.62-1.49-1.42,0-.59.38-1.14.99-1.35.26-.78,1.02-1.45,1.94-1.45.75,0,1.46.43,1.83,1.05.84.09,1.71.73,1.67,1.6-.05,1.01-.78,1.58-1.67,1.57h-3.27Z"/><path class="cls-23" d="M14.48,8.99c-.78,0-1.36-.56-1.36-1.3,0-.54.34-1.04.9-1.23.24-.71.93-1.32,1.77-1.32.68,0,1.34.39,1.67.95.77.08,1.56.66,1.52,1.46-.05.92-.71,1.44-1.52,1.43h-2.98Z"/><path class="cls-54" d="M14.63,8.83c-.71,0-1.23-.51-1.23-1.17,0-.49.31-.94.82-1.11.21-.65.84-1.2,1.6-1.2.62,0,1.21.35,1.51.86.69.08,1.41.6,1.38,1.32-.04.83-.64,1.31-1.38,1.3h-2.69Z"/><path class="cls-17" d="M14.78,8.67c-.63,0-1.1-.45-1.1-1.05,0-.44.28-.84.73-.99.19-.58.75-1.07,1.43-1.07.55,0,1.08.32,1.35.77.62.07,1.26.54,1.23,1.18-.04.74-.57,1.17-1.23,1.16h-2.41Z"/></g><path class="cls-42" d="M20.12,2.91h0c-.19,0-.39.02-.6.05-.62-1.72-2.26-2.96-4.19-2.96-2.21,0-4.05,1.62-4.39,3.73-1.34.11-2.39,1.22-2.39,2.58,0,1.44,1.17,2.6,2.6,2.6h8.98c1.66,0,3.01-1.35,3.01-3.01s-1.35-3.01-3.01-3.01Z"/><path class="cls-51" d="M20.12,2.86h0c-.19,0-.39.02-.6.05-.62-1.69-2.26-2.91-4.19-2.91-2.21,0-4.05,1.59-4.39,3.67-1.34.11-2.39,1.2-2.39,2.54,0,1.41,1.17,2.56,2.6,2.56h8.98c1.66,0,3.01-1.32,3.01-2.96s-1.35-2.96-3.01-2.96Z"/><path class="cls-37" d="M20.12,2.86h0c-.19,0-.39.02-.6.05-.62-1.69-2.26-2.91-4.19-2.91-2.21,0-4.05,1.59-4.39,3.67-1.34.11-2.39,1.2-2.39,2.54,0,1.41,1.17,2.56,2.6,2.56h8.98c1.66,0,3.01-1.32,3.01-2.96s-1.35-2.96-3.01-2.96Z"/><path class="cls-80" d="M20.01,2.99h0s0,0,0,0h0c-.19,0-.38.03-.59.04-.59-1.67-2.22-2.86-4.13-2.86-2.18,0-3.97,1.52-4.31,3.57-1.32.1-2.36,1.18-2.36,2.5,0,1.39,1.15,2.52,2.57,2.52h8.86c1.64,0,2.97-1.29,2.96-2.9,0-1.58-1.34-2.87-2.98-2.87Z"/><path class="cls-67" d="M19.9,3.13h-.01s-.02,0-.02,0c-.19,0-.37.03-.58.02-.56-1.64-2.17-2.8-4.06-2.8-2.15,0-3.9,1.46-4.23,3.48-1.3.1-2.33,1.16-2.33,2.46,0,1.37,1.13,2.48,2.53,2.48h8.74c1.62,0,2.93-1.26,2.91-2.84-.01-1.52-1.34-2.79-2.95-2.79Z"/><path class="cls-41" d="M19.79,3.27h-.02s-.03,0-.03,0c-.18,0-.35.04-.57,0-.53-1.62-2.13-2.75-3.99-2.75-2.13,0-3.82,1.4-4.15,3.38-1.29.1-2.3,1.14-2.3,2.42,0,1.35,1.12,2.44,2.5,2.44h8.62c1.59,0,2.88-1.23,2.86-2.79-.02-1.47-1.33-2.71-2.93-2.71Z"/><path class="cls-81" d="M19.68,3.4h-.02s-.04.01-.04.01c-.18,0-.34.05-.56-.02-.51-1.59-2.09-2.7-3.92-2.7-2.1,0-3.74,1.33-4.07,3.28-1.27.1-2.27,1.12-2.27,2.38,0,1.33,1.1,2.4,2.47,2.4h8.5c1.57,0,2.84-1.2,2.82-2.73-.02-1.42-1.33-2.62-2.9-2.62Z"/><path class="cls-3" d="M19.57,3.54h-.03s-.05.01-.05.01c-.18,0-.33.05-.55-.04-.48-1.56-2.05-2.64-3.85-2.64-2.07,0-3.67,1.27-3.99,3.19-1.25.1-2.24,1.1-2.24,2.34,0,1.3,1.09,2.36,2.43,2.36h8.38c1.55,0,2.8-1.17,2.77-2.67-.03-1.36-1.32-2.54-2.87-2.54Z"/><path class="cls-8" d="M19.46,3.68h-.03s0,0,0,0c0,0-.06.01-.06.01-.18,0-.32.06-.54-.06-.45-1.54-2.01-2.59-3.79-2.59-2.04,0-3.59,1.21-3.91,3.09-1.23.1-2.2,1.08-2.2,2.3,0,1.28,1.07,2.32,2.4,2.32h8.27c1.53,0,2.76-1.14,2.72-2.62-.03-1.31-1.32-2.46-2.85-2.46Z"/><path class="cls-79" d="M19.35,3.81h-.04s0,0,0,0l-.07.02c-.17,0-.3.06-.53-.08-.42-1.51-1.96-2.54-3.72-2.54-2.01,0-3.52,1.14-3.84,2.99-1.21.09-2.17,1.06-2.17,2.26,0,1.26,1.06,2.28,2.36,2.28h8.15c1.51,0,2.72-1.11,2.67-2.56-.04-1.25-1.31-2.37-2.82-2.37Z"/><path class="cls-26" d="M19.24,3.95h-.04s-.07.02-.07.02c-.17,0-.29.07-.52-.1-.4-1.48-1.92-2.49-3.65-2.49-1.98,0-3.44,1.08-3.76,2.9-1.2.09-2.14,1.05-2.14,2.22,0,1.24,1.04,2.24,2.33,2.24h8.03c1.48,0,2.68-1.08,2.63-2.5-.04-1.2-1.31-2.29-2.79-2.29Z"/><path class="cls-66" d="M19.13,4.09h-.05s-.08.03-.08.03c-.17,0-.28.08-.52-.12-.37-1.46-1.88-2.43-3.58-2.43-1.95,0-3.37,1.01-3.68,2.8-1.18.09-2.11,1.03-2.11,2.18,0,1.21,1.03,2.2,2.29,2.2h7.91c1.46,0,2.64-1.05,2.58-2.45-.05-1.15-1.31-2.21-2.77-2.21Z"/><path class="cls-59" d="M19.02,4.22h-.05s-.09.03-.09.03c-.17,0-.27.08-.51-.14-.34-1.43-1.84-2.38-3.51-2.38-1.92,0-3.29.95-3.6,2.7-1.16.09-2.08,1.01-2.08,2.14,0,1.19,1.01,2.16,2.26,2.16h7.79c1.44,0,2.6-1.02,2.53-2.39-.05-1.09-1.3-2.13-2.74-2.13Z"/><path class="cls-33" d="M18.91,4.36h-.06s-.1.03-.1.03c-.16,0-.25.09-.5-.15-.31-1.4-1.79-2.33-3.45-2.33-1.89,0-3.22.89-3.52,2.61-1.14.09-2.05.99-2.05,2.1,0,1.17,1,2.12,2.22,2.12h7.67c1.42,0,2.56-.99,2.49-2.34-.06-1.04-1.3-2.04-2.71-2.04Z"/><path class="cls-7" d="M16.4,4.54h0c-.24,0-.5.03-.76.07-.78-2.19-2.87-3.76-5.33-3.76-2.81,0-5.14,2.05-5.58,4.74-1.7.14-3.04,1.55-3.04,3.28,0,1.83,1.48,3.31,3.31,3.31h11.41c2.11,0,3.82-1.71,3.82-3.82s-1.71-3.82-3.82-3.82Z"/><path class="cls-60" d="M16.4,4.48h0c-.24,0-.5.03-.76.07-.78-2.15-2.87-3.7-5.33-3.7-2.81,0-5.14,2.02-5.58,4.66-1.7.13-3.04,1.52-3.04,3.23,0,1.8,1.48,3.25,3.31,3.25h11.41c2.11,0,3.82-1.68,3.82-3.75s-1.71-3.75-3.82-3.75Z"/><g class="cls-88"><g class="cls-84"><path class="cls-19" d="M11.04,9.8c-1.9,0-3.44-1.52-3.44-3.4,0-1.54,1.08-2.87,2.54-3.27.64-2.23,2.69-3.79,5.09-3.79,2.01,0,3.83,1.13,4.73,2.87.03,0,.05,0,.08,0,2.12,0,3.85,1.7,3.85,3.8s-1.73,3.8-3.85,3.8h-9Z"/><path class="cls-2" d="M11.12,9.68c-1.85,0-3.35-1.48-3.35-3.3,0-1.5,1.05-2.79,2.47-3.17.62-2.16,2.62-3.67,4.95-3.67,1.95,0,3.72,1.09,4.59,2.78.03,0,.05,0,.08,0,2.06,0,3.74,1.65,3.74,3.68s-1.68,3.68-3.74,3.68h-8.75Z"/><path class="cls-55" d="M11.21,9.56c-1.79,0-3.25-1.43-3.25-3.2,0-1.45,1.02-2.7,2.4-3.07.6-2.09,2.54-3.56,4.81-3.56,1.89,0,3.62,1.06,4.46,2.69.03,0,.05,0,.08,0,2,0,3.63,1.6,3.63,3.57s-1.63,3.57-3.63,3.57h-8.49Z"/><path class="cls-10" d="M11.29,9.44c-1.74,0-3.15-1.39-3.15-3.09,0-1.4.99-2.62,2.33-2.97C11.06,1.34,12.94-.08,15.13-.08c1.84,0,3.51,1.03,4.33,2.61.03,0,.05,0,.07,0,1.94,0,3.52,1.55,3.52,3.45s-1.58,3.45-3.52,3.45h-8.24Z"/><path class="cls-49" d="M11.38,9.31c-1.68,0-3.05-1.34-3.05-2.99,0-1.36.95-2.53,2.26-2.88C11.15,1.48,12.97.11,15.1.11c1.78,0,3.4.99,4.19,2.52.02,0,.05,0,.07,0,1.88,0,3.41,1.5,3.41,3.34s-1.53,3.34-3.41,3.34h-7.98Z"/><path class="cls-64" d="M11.46,9.19c-1.63,0-2.96-1.3-2.96-2.89,0-1.31.92-2.44,2.19-2.78.55-1.89,2.31-3.22,4.37-3.22,1.72,0,3.29.96,4.06,2.44.02,0,.05,0,.07,0,1.82,0,3.3,1.45,3.3,3.23s-1.48,3.23-3.3,3.23h-7.73Z"/><path class="cls-52" d="M11.55,9.07c-1.58,0-2.86-1.25-2.86-2.79,0-1.26.89-2.36,2.11-2.68.53-1.83,2.24-3.11,4.23-3.11,1.67,0,3.18.93,3.92,2.35.02,0,.05,0,.07,0,1.76,0,3.19,1.4,3.19,3.11s-1.43,3.11-3.19,3.11h-7.48Z"/><path class="cls-58" d="M11.63,8.95c-1.52,0-2.76-1.2-2.76-2.69,0-1.22.86-2.27,2.04-2.58.51-1.76,2.16-2.99,4.09-2.99,1.61,0,3.07.89,3.79,2.26.02,0,.04,0,.07,0,1.7,0,3.09,1.35,3.09,3s-1.38,3-3.09,3h-7.22Z"/><path class="cls-43" d="M11.72,8.82c-1.47,0-2.66-1.16-2.66-2.58,0-1.17.83-2.18,1.97-2.48.5-1.69,2.09-2.88,3.94-2.88,1.55,0,2.97.86,3.66,2.18.02,0,.04,0,.06,0,1.64,0,2.98,1.29,2.98,2.89s-1.34,2.89-2.98,2.89h-6.97Z"/><path class="cls-69" d="M11.81,8.7c-1.42,0-2.57-1.11-2.57-2.48,0-1.13.8-2.1,1.9-2.39.48-1.63,2.01-2.77,3.8-2.77,1.5,0,2.86.82,3.52,2.09.02,0,.04,0,.06,0,1.58,0,2.87,1.24,2.87,2.77s-1.29,2.77-2.87,2.77h-6.71Z"/></g><g class="cls-85"><path class="cls-46" d="M-.93,8.76c.72-1.42,1.91-.03,2.89-.17.78-.11,1.56-1,3.04-.94.58.02,1.26.19,2.09.6,1.02.5,1.22.48,2.2,0,1.37-.68,2.4,1.38,1.03,2.05-1.71.84-2.79.65-3.61.31-.61-.25-1.07-.59-1.53-.66-.84-.12-1.73.75-2.91.92-1.63.22-3.93-.69-3.22-2.1Z"/><path class="cls-77" d="M-.85,8.78c.67-1.3,1.74-.02,2.79-.1.83-.07,1.61-.96,3.07-.92.58.02,1.23.17,2.05.57,1,.49,1.27.47,2.23,0,1.29-.63,2.22,1.25.94,1.88-1.64.8-2.69.61-3.49.27-.6-.25-1.08-.57-1.56-.63-.86-.11-1.78.78-2.93.9-1.61.17-3.76-.69-3.09-1.98Z"/><path class="cls-45" d="M-.77,8.8c.62-1.18,1.57,0,2.68-.04.88-.03,1.66-.92,3.1-.89.58.01,1.21.16,2,.55.98.48,1.31.45,2.25,0,1.2-.58,2.03,1.13.84,1.72-1.56.77-2.59.57-3.37.24-.59-.25-1.09-.55-1.59-.6-.87-.09-1.83.81-2.95.88-1.61.11-3.58-.69-2.97-1.86Z"/><path class="cls-53" d="M-.69,8.83c.57-1.06,1.4.01,2.57.03.93.01,1.72-.88,3.13-.86.58,0,1.18.15,1.96.53.96.47,1.35.44,2.28,0,1.12-.53,1.85,1.01.75,1.55-1.49.73-2.48.53-3.24.2-.59-.25-1.1-.53-1.61-.58-.88-.08-1.87.83-2.98.87-1.6.05-3.41-.7-2.85-1.74Z"/><path class="cls-44" d="M-.6,8.85c.52-.94,1.23.02,2.46.09.98.05,1.77-.84,3.16-.83.58,0,1.16.14,1.91.51.93.46,1.39.42,2.3,0,1.03-.48,1.67.89.65,1.39-1.42.7-2.38.49-3.12.16-.58-.25-1.11-.51-1.64-.55-.89-.06-1.92.86-3,.85-1.59,0-3.23-.7-2.72-1.62Z"/><path class="cls-75" d="M-.52,8.87c.47-.83,1.06.04,2.35.16,1.03.09,1.82-.8,3.19-.81.58,0,1.13.12,1.87.48.91.45,1.44.4,2.33,0,.95-.43,1.48.77.56,1.22-1.35.66-2.28.45-3,.13-.58-.25-1.12-.49-1.67-.52-.9-.05-1.97.88-3.02.84-1.58-.07-3.06-.7-2.6-1.5Z"/><path class="cls-76" d="M-.44,8.89c.42-.71.9.05,2.24.22,1.08.13,1.88-.75,3.21-.78.58-.01,1.11.11,1.83.46.89.44,1.48.39,2.35,0,.86-.39,1.3.65.46,1.06-1.28.63-2.17.4-2.88.09-.57-.25-1.12-.47-1.7-.49-.91-.03-2.02.91-3.04.82-1.57-.13-2.88-.7-2.48-1.38Z"/><path class="cls-68" d="M-.36,8.92c.37-.59.73.07,2.13.29,1.13.17,1.93-.71,3.24-.75.58-.02,1.08.1,1.78.44.87.43,1.52.37,2.38,0,.78-.34,1.12.53.37.89-1.2.59-2.07.36-2.76.06-.56-.25-1.13-.45-1.72-.46-.92-.02-2.07.93-3.07.81-1.56-.19-2.71-.7-2.36-1.26Z"/><path class="cls-48" d="M-.28,8.94c.32-.47.56.08,2.03.35,1.18.21,1.98-.67,3.27-.73.58-.02,1.06.08,1.74.42.85.41,1.56.35,2.4,0,.69-.29.93.4.27.73-1.13.56-1.97.32-2.63.02-.56-.25-1.14-.43-1.75-.43-.93,0-2.11.95-3.09.79-1.55-.25-2.54-.71-2.23-1.14Z"/><path class="cls-74" d="M-.2,8.96c.28-.35.39.1,1.92.42,1.23.25,2.04-.63,3.3-.7.58-.03,1.03.07,1.69.39.83.4,1.6.33,2.42,0,.61-.25.75.28.18.57-1.06.52-1.86.28-2.51-.02-.55-.25-1.15-.41-1.78-.41-.94,0-2.16.97-3.11.78-1.54-.32-2.36-.71-2.11-1.02Z"/></g><g class="cls-85"><path class="cls-46" d="M14.15,12.08c-.72,1.42-1.91.03-2.89.17-.78.11-1.56,1-3.04.94-.58-.02-1.26-.19-2.09-.6-1.02-.5-1.22-.48-2.2,0-1.37.68-2.4-1.38-1.03-2.05,1.71-.84,2.79-.65,3.61-.31.61.25,1.07.59,1.53.66.84.12,1.73-.75,2.91-.92,1.63-.22,3.93.69,3.21,2.1Z"/><path class="cls-77" d="M14.07,12.06c-.67,1.3-1.74.02-2.79.1-.83.07-1.61.96-3.07.92-.58-.02-1.23-.17-2.05-.57-1-.49-1.27-.47-2.23,0-1.29.63-2.22-1.25-.94-1.88,1.64-.8,2.69-.61,3.49-.27.6.25,1.08.57,1.56.63.86.11,1.78-.78,2.93-.9,1.61-.17,3.76.69,3.09,1.98Z"/><path class="cls-45" d="M13.99,12.04c-.62,1.18-1.57,0-2.68.04-.88.03-1.66.92-3.1.89-.58-.01-1.21-.16-2-.55-.98-.48-1.31-.45-2.25,0-1.2.58-2.03-1.13-.84-1.72,1.57-.77,2.59-.57,3.37-.24.59.25,1.09.55,1.59.6.87.09,1.83-.81,2.95-.88,1.61-.11,3.58.69,2.97,1.86Z"/><path class="cls-53" d="M13.91,12.02c-.57,1.06-1.4-.01-2.57-.03-.93-.01-1.72.88-3.13.86-.58,0-1.18-.15-1.96-.53-.96-.47-1.35-.44-2.28,0-1.12.53-1.85-1.01-.75-1.55,1.49-.73,2.48-.53,3.24-.2.59.25,1.1.53,1.62.58.88.08,1.87-.83,2.98-.87,1.6-.05,3.41.7,2.85,1.74Z"/><path class="cls-44" d="M13.83,11.99c-.52.94-1.23-.02-2.46-.09-.98-.05-1.77.84-3.16.83-.58,0-1.16-.14-1.91-.51-.93-.46-1.39-.42-2.3,0-1.03.48-1.67-.89-.65-1.39,1.42-.7,2.38-.49,3.12-.16.58.25,1.11.51,1.64.55.89.06,1.92-.88,3-.85,1.59.03,3.23.7,2.72,1.62Z"/><path class="cls-75" d="M13.74,11.97c-.47.83-1.06-.04-2.35-.16-1.03-.09-1.82.8-3.19.81-.58,0-1.13-.12-1.87-.48-.91-.45-1.44-.4-2.33,0-.95.43-1.48-.77-.56-1.22,1.35-.66,2.28-.45,3-.13.58.25,1.12.49,1.67.52.9.05,1.97-.88,3.02-.84,1.58.07,3.06.7,2.6,1.5Z"/><path class="cls-76" d="M13.66,11.95c-.42.71-.9-.05-2.24-.22-1.08-.13-1.88.75-3.21.78-.58.01-1.11-.11-1.83-.46-.89-.44-1.48-.39-2.35,0-.86.39-1.3-.65-.46-1.06,1.28-.63,2.17-.4,2.88-.09.57.25,1.12.47,1.7.49.91.03,2.02-.91,3.04-.82,1.57.13,2.88.7,2.48,1.38Z"/><path class="cls-68" d="M13.58,11.92c-.37.59-.73-.07-2.13-.29-1.13-.17-1.93.71-3.24.75-.58.02-1.08-.1-1.78-.44-.87-.42-1.52-.37-2.38,0-.78.34-1.12-.53-.37-.89,1.2-.59,2.07-.36,2.76-.06.56.25,1.13.45,1.72.46.92.02,2.07-.93,3.07-.81,1.56.19,2.71.7,2.36,1.26Z"/><path class="cls-48" d="M13.5,11.9c-.32.47-.56-.08-2.03-.35-1.18-.21-1.98.67-3.27.73-.58.02-1.06-.08-1.74-.42-.85-.41-1.56-.35-2.4,0-.69.29-.93-.4-.27-.73,1.13-.56,1.97-.32,2.63-.02.56.25,1.14.43,1.75.43.93,0,2.11-.95,3.09-.79,1.55.25,2.54.71,2.23,1.14Z"/><path class="cls-74" d="M13.42,11.88c-.28.35-.39-.1-1.92-.42-1.23-.25-2.04.63-3.3.7-.58.03-1.03-.07-1.69-.39-.83-.4-1.6-.33-2.42,0-.61.25-.75-.28-.18-.57,1.06-.52,1.86-.28,2.51.02.55.25,1.15.41,1.78.41.94,0,2.16-.97,3.11-.78,1.54.32,2.36.71,2.11,1.02Z"/></g></g><path class="cls-57" d="M16.4,4.48h0c-.24,0-.5.03-.76.07-.78-2.15-2.87-3.7-5.33-3.7-2.81,0-5.14,2.02-5.58,4.66-1.7.13-3.04,1.52-3.04,3.23,0,1.8,1.48,3.25,3.31,3.25h11.41c2.11,0,3.82-1.68,3.82-3.75s-1.71-3.75-3.82-3.75Z"/><path class="cls-21" d="M16.26,4.65h0s-.01,0-.01,0c-.24,0-.48.03-.75.04-.75-2.12-2.82-3.63-5.24-3.63-2.78,0-5.04,1.94-5.48,4.54-1.68.13-3,1.5-3,3.18,0,1.77,1.46,3.2,3.26,3.2h11.26c2.08,0,3.77-1.64,3.76-3.68,0-2-1.7-3.65-3.78-3.65Z"/><path class="cls-73" d="M16.12,4.83h-.01s-.02,0-.02,0c-.24,0-.47.04-.74.02-.71-2.09-2.76-3.56-5.16-3.56-2.74,0-4.95,1.86-5.38,4.42-1.66.13-2.96,1.47-2.96,3.13,0,1.74,1.44,3.15,3.22,3.15h11.11c2.05,0,3.72-1.6,3.7-3.61-.01-1.94-1.7-3.54-3.75-3.54Z"/><path class="cls-83" d="M15.98,5h-.02s0,0,0,0c0,0-.04,0-.04,0-.23,0-.45.05-.73,0-.68-2.05-2.71-3.5-5.07-3.5-2.7,0-4.85,1.77-5.28,4.29-1.63.13-2.92,1.45-2.92,3.07,0,1.71,1.42,3.1,3.18,3.1h10.95c2.02,0,3.67-1.56,3.64-3.54-.02-1.87-1.69-3.44-3.72-3.44Z"/><path class="cls-6" d="M15.84,5.17h-.03s0,0,0,0h0s-.05.01-.05.01c-.23,0-.43.06-.71-.03-.64-2.02-2.65-3.43-4.98-3.43-2.66,0-4.76,1.69-5.18,4.17-1.61.13-2.88,1.42-2.88,3.02,0,1.68,1.4,3.05,3.13,3.05h10.8c2,0,3.61-1.53,3.58-3.47-.03-1.8-1.69-3.33-3.68-3.33Z"/><path class="cls-63" d="M15.71,5.35h-.03s-.06.02-.06.02c-.23,0-.42.07-.7-.05-.61-1.98-2.6-3.36-4.9-3.36-2.63,0-4.66,1.61-5.08,4.05-1.59.12-2.84,1.4-2.84,2.97,0,1.66,1.38,3,3.09,3h10.65c1.97,0,3.56-1.49,3.52-3.4-.03-1.73-1.68-3.23-3.65-3.23Z"/><path class="cls-32" d="M15.57,5.52h-.04s-.07.02-.07.02c-.22,0-.4.07-.69-.08-.57-1.95-2.55-3.29-4.81-3.29-2.59,0-4.57,1.53-4.97,3.93-1.57.12-2.8,1.38-2.8,2.92,0,1.63,1.36,2.95,3.04,2.95h10.5c1.94,0,3.51-1.45,3.46-3.33-.04-1.66-1.68-3.12-3.62-3.12Z"/><path class="cls-13" d="M15.43,5.69h-.05s-.08.03-.08.03c-.22,0-.39.08-.68-.1-.54-1.92-2.49-3.23-4.72-3.23-2.55,0-4.47,1.45-4.87,3.8-1.54.12-2.76,1.35-2.76,2.87,0,1.6,1.34,2.9,3,2.9h10.35c1.91,0,3.46-1.41,3.4-3.25-.05-1.59-1.67-3.02-3.58-3.02Z"/><path class="cls-38" d="M15.29,5.87h-.05s0,0,0,0l-.1.02c-.22,0-.37.09-.67-.12-.5-1.88-2.44-3.16-4.64-3.16-2.51,0-4.38,1.37-4.77,3.68-1.52.12-2.72,1.33-2.72,2.82,0,1.57,1.32,2.85,2.96,2.85h10.2c1.89,0,3.41-1.37,3.34-3.18-.06-1.52-1.66-2.91-3.55-2.91Z"/><path class="cls-1" d="M15.15,6.04h-.06s0,0,0,0c0,0-.11.03-.11.03-.21,0-.35.1-.65-.15-.47-1.85-2.39-3.09-4.55-3.09-2.48,0-4.28,1.29-4.67,3.56-1.5.12-2.68,1.31-2.68,2.77,0,1.54,1.3,2.79,2.91,2.79h10.05c1.86,0,3.36-1.33,3.28-3.11-.06-1.45-1.66-2.81-3.52-2.81Z"/><path class="cls-4" d="M15.01,6.22h-.06s-.12.04-.12.04c-.21,0-.34.11-.64-.17-.43-1.82-2.33-3.02-4.47-3.02-2.44,0-4.18,1.21-4.57,3.44-1.48.11-2.64,1.28-2.64,2.72,0,1.52,1.28,2.74,2.87,2.74h9.9c1.83,0,3.31-1.29,3.22-3.04-.07-1.39-1.65-2.7-3.48-2.7Z"/><path class="cls-33" d="M14.87,6.39h-.07s-.13.04-.13.04c-.21,0-.32.11-.63-.2-.4-1.78-2.28-2.96-4.38-2.96-2.4,0-4.09,1.13-4.47,3.31-1.45.11-2.6,1.26-2.6,2.67,0,1.49,1.26,2.69,2.83,2.69h9.74c1.8,0,3.26-1.25,3.16-2.97-.08-1.32-1.65-2.6-3.45-2.6Z"/><path class="cls-65" d="M7.84,9.55c-.41-.06-.89-.28-1.31-.49-.2-.1-.74-.37-1.08-.42-.17-.02-.48-.03-.66,0-.34.05-.88.32-1.08.42-.42.21-.9.43-1.31.49-.25.03-.6.04-.87,0-.41-.06-.89-.28-1.31-.49-.18-.09-.26-.31-.17-.5.09-.18.31-.26.5-.17.22.11.74.37,1.08.42.17.02.51.02.66,0,.34-.05.86-.31,1.08-.42.42-.21.9-.43,1.31-.49.24-.04.61-.04.87,0,.41.06.89.28,1.31.49.22.11.74.37,1.08.42.18.02.51.02.66,0,.34-.05.86-.31,1.08-.42.18-.09.41-.02.5.17.09.18.02.41-.17.5-.42.21-.9.43-1.31.49-.25.03-.62.04-.87,0Z"/><path class="cls-31" d="M8.06,14.15c-.41-.06-.89-.28-1.31-.49-.22-.11-.74-.37-1.08-.42-.18-.02-.48-.03-.66,0-.34.05-.86.31-1.08.42-.42.21-.9.43-1.31.49-.23.03-.62.04-.87,0-.41-.06-.89-.28-1.31-.49-.18-.09-.26-.31-.17-.5.09-.18.31-.26.5-.17.2.1.74.37,1.08.42.18.03.49.02.66,0,.34-.05.86-.31,1.08-.42.42-.21.9-.43,1.31-.49.25-.04.63-.03.87,0,.41.06.89.28,1.31.49.22.11.74.37,1.08.42.18.03.49.02.66,0,.34-.05.86-.31,1.08-.42.18-.09.41-.02.5.17.09.18.02.41-.17.5-.42.21-.9.43-1.31.49-.23.03-.63.03-.87,0Z"/><path class="cls-40" d="M7.78,11.85c-.41-.06-.89-.28-1.31-.49-.22-.11-.74-.37-1.08-.42-.18-.03-.48-.03-.66,0-.34.05-.86.31-1.08.42-.18.09-.41.02-.5-.17-.09-.18-.02-.41.17-.5.42-.21.9-.43,1.31-.49.27-.04.65-.03.87,0,.41.06.89.28,1.31.49.22.11.74.37,1.08.42.19.03.53.02.66,0,.34-.05.86-.31,1.08-.42.42-.21.9-.43,1.31-.49.27-.04.65-.03.87,0,.41.06.89.28,1.31.49.18.09.26.31.17.5-.09.18-.31.26-.5.17-.22-.11-.74-.37-1.08-.42-.14-.02-.45-.03-.66,0-.34.05-.88.32-1.08.42-.42.21-.9.43-1.31.49-.26.04-.64.03-.87,0Z"/><path class="cls-78" d="M7.84,9.45c-.41-.06-.89-.28-1.31-.49-.2-.1-.74-.37-1.08-.42-.17-.02-.48-.03-.66,0-.34.05-.88.32-1.08.42-.42.21-.9.43-1.31.49-.25.03-.6.04-.87,0-.41-.06-.89-.28-1.31-.49-.18-.09-.26-.31-.17-.5.09-.18.31-.26.5-.17.22.11.74.37,1.08.42.17.02.51.02.66,0,.34-.05.86-.31,1.08-.42.42-.21.9-.43,1.31-.49.24-.04.61-.04.87,0,.41.06.89.28,1.31.49.22.11.74.37,1.08.42.18.02.51.02.66,0,.34-.05.86-.31,1.08-.42.18-.09.41-.02.5.17.09.18.02.41-.17.5-.42.21-.9.43-1.31.49-.25.03-.62.04-.87,0Z"/><path class="cls-18" d="M8.06,14.05c-.41-.06-.89-.28-1.31-.49-.22-.11-.74-.37-1.08-.42-.18-.02-.48-.03-.66,0-.34.05-.86.31-1.08.42-.42.21-.9.43-1.31.49-.23.03-.62.04-.87,0-.41-.06-.89-.28-1.31-.49-.18-.09-.26-.31-.17-.5.09-.18.31-.26.5-.17.2.1.74.37,1.08.42.18.03.49.02.66,0,.34-.05.86-.31,1.08-.42.42-.21.9-.43,1.31-.49.25-.04.63-.03.87,0,.41.06.89.28,1.31.49.22.11.74.37,1.08.42.18.03.49.02.66,0,.34-.05.86-.31,1.08-.42.18-.09.41-.02.5.17.09.18.02.41-.17.5-.42.21-.9.43-1.31.49-.23.03-.63.03-.87,0Z"/><path class="cls-50" d="M7.78,11.75c-.41-.06-.89-.28-1.31-.49-.22-.11-.74-.37-1.08-.42-.18-.03-.48-.03-.66,0-.34.05-.86.31-1.08.42-.18.09-.41.02-.5-.17-.09-.18-.02-.41.17-.5.42-.21.9-.43,1.31-.49.27-.04.65-.03.87,0,.41.06.89.28,1.31.49.22.11.74.37,1.08.42.19.03.53.02.66,0,.34-.05.86-.31,1.08-.42.42-.21.9-.43,1.31-.49.27-.04.65-.03.87,0,.41.06.89.28,1.31.49.18.09.26.31.17.5-.09.18-.31.26-.5.17-.22-.11-.74-.37-1.08-.42-.14-.02-.45-.03-.66,0-.34.05-.88.32-1.08.42-.42.21-.9.43-1.31.49-.26.04-.64.03-.87,0Z"/><g class="cls-87"><path class="cls-14" d="M2.34,10.28c-.18-.41-.27-.86-.27-1.33,0-.26.03-.51.09-.76L.02,7.54l.39,2.64,1.93.11Z"/><path class="cls-62" d="M2.28,10.28c-.18-.41-.27-.86-.27-1.33,0-.26.03-.51.09-.76L-.04,7.54l.39,2.64,1.93.11Z"/><path class="cls-39" d="M2.22,10.28c-.18-.41-.27-.86-.27-1.33,0-.26.03-.51.09-.76L-.1,7.54l.39,2.64,1.93.11Z"/><path class="cls-61" d="M2.16,10.29c-.18-.41-.27-.86-.27-1.33,0-.26.03-.51.09-.76L-.16,7.54l.39,2.64,1.93.11Z"/><path class="cls-24" d="M2.1,10.29c-.18-.41-.27-.86-.27-1.33,0-.26.03-.51.09-.76L-.22,7.55l.39,2.64,1.93.11Z"/><path class="cls-12" d="M2.04,10.29c-.18-.41-.27-.86-.27-1.33,0-.26.03-.51.09-.76l-2.13-.65.39,2.64,1.93.11Z"/><path class="cls-29" d="M1.98,10.3c-.18-.41-.27-.86-.27-1.33,0-.26.03-.51.09-.76l-2.13-.65L.05,10.19l1.93.11Z"/><path class="cls-15" d="M1.92,10.3c-.18-.41-.27-.86-.27-1.33,0-.26.03-.51.09-.76l-2.13-.65L-.01,10.19l1.93.11Z"/><path class="cls-35" d="M1.86,10.3c-.18-.41-.27-.86-.27-1.33,0-.26.03-.51.09-.76l-2.13-.65.39,2.64,1.93.11Z"/><path class="cls-16" d="M1.8,10.3c-.18-.41-.27-.86-.27-1.33,0-.26.03-.51.09-.76l-2.13-.65.39,2.64,1.93.11Z"/></g></g></g></g></svg>