<?xml version="1.0" encoding="UTF-8"?><svg xmlns="http://www.w3.org/2000/svg" xmlns:xlink="http://www.w3.org/1999/xlink" viewBox="0 0 20.6 15.07"><defs><style>.cls-1{fill:url(#_R_W_h_6);opacity:.28;}.cls-1,.cls-2,.cls-3,.cls-4,.cls-5,.cls-6,.cls-7,.cls-8,.cls-9,.cls-10,.cls-11,.cls-12,.cls-13,.cls-14,.cls-15,.cls-16,.cls-17,.cls-18,.cls-19,.cls-20,.cls-21,.cls-22,.cls-23,.cls-24,.cls-25,.cls-26,.cls-27,.cls-28,.cls-29,.cls-30,.cls-31,.cls-32,.cls-33,.cls-34,.cls-35,.cls-36,.cls-37,.cls-38,.cls-39,.cls-40,.cls-41,.cls-42,.cls-43,.cls-44,.cls-45,.cls-46,.cls-47,.cls-48,.cls-49,.cls-50,.cls-51,.cls-52,.cls-53,.cls-54,.cls-55,.cls-56,.cls-57,.cls-58,.cls-59{stroke-width:0px;}.cls-1,.cls-2,.cls-3,.cls-6,.cls-23,.cls-29,.cls-30,.cls-31,.cls-60,.cls-44,.cls-49,.cls-52,.cls-57{mix-blend-mode:screen;}.cls-2{fill:url(#_R_W_h_3);opacity:.2;}.cls-3{fill:url(#_R_W_h_44);opacity:.68;}.cls-4{fill:#12191b;}.cls-5{fill:#d2c5fb;}.cls-6{fill:url(#_R_W_h_9);opacity:.44;}.cls-7{fill:#f3eefd;opacity:.78;}.cls-8{fill:#030305;opacity:.09;}.cls-9{fill:#fdfdff;opacity:.11;}.cls-10{fill:#f4f0fe;opacity:.67;}.cls-11{fill:#080812;opacity:.36;}.cls-12{fill:#0e0c20;opacity:.64;}.cls-13{fill:url(#_R_W_h_2);}.cls-14{fill:#f1ebfd;opacity:.89;}.cls-15{fill:#0b1010;}.cls-16{fill:#13112d;opacity:.91;}.cls-17{fill:#faf8fe;opacity:.33;}.cls-18{fill:#151e20;}.cls-19,.cls-30,.cls-36{fill:#010101;}.cls-61{isolation:isolate;}.cls-20{fill:#fbfaff;opacity:.22;}.cls-21{fill:#06060e;opacity:.27;}.cls-22{fill:#0e1515;}.cls-23{fill:url(#_R_W_h_47);opacity:.92;}.cls-24{fill:#cabbfb;}.cls-25{fill:#05040a;opacity:.18;}.cls-26{fill:#dacffc;}.cls-27{fill:none;}.cls-28{fill:#f6f3fe;opacity:.56;}.cls-29{fill:url(#_R_W_h_12);opacity:.52;}.cls-62{clip-path:url(#clippath-1);}.cls-30{opacity:.12;}.cls-31{fill:url(#_R_W_h_7);opacity:.36;}.cls-32{fill:url(#_R_W_h_1436);}.cls-33{fill:#1f2d2f;}.cls-34{fill:#151331;}.cls-35{fill:url(#_R_W_h_3396);}.cls-36,.cls-56{opacity:0;}.cls-37,.cls-56{fill:#fff;}.cls-38{fill:#ebe4fd;}.cls-39{fill:#e3dafc;}.cls-40{fill:#182325;}.cls-63{clip-path:url(#clippath);}.cls-41{fill:#d6cafc;}.cls-42{fill:#100e24;opacity:.73;}.cls-43{fill:#f8f5fe;opacity:.44;}.cls-44{fill:url(#_R_W_h_771);}.cls-45{fill:#efe9fd;}.cls-46{fill:#cec0fb;}.cls-47{fill:#040606;}.cls-48{fill:#0a0917;opacity:.45;}.cls-49{fill:url(#_R_W_h_37);opacity:.6;}.cls-64{mask:url(#mask);}.cls-50{fill:url(#_R_W_h_929);}.cls-51{fill:#dfd5fc;}.cls-52{fill:url(#_R_W_h_46);opacity:.84;}.cls-53{fill:#111028;opacity:.82;}.cls-54{fill:#1c282a;}.cls-55{fill:#080b0b;}.cls-65{mix-blend-mode:multiply;}.cls-57{fill:url(#_R_W_h_45);opacity:.76;}.cls-58{fill:#e7dffd;}.cls-59{fill:#0c0b1b;opacity:.55;}</style><linearGradient id="_R_W_h_1436" x1=".62" y1="8.96" x2="20.6" y2="8.96" gradientUnits="userSpaceOnUse"><stop offset="0" stop-color="#f4fbfb"/><stop offset=".61" stop-color="#fbfbfb"/><stop offset=".8" stop-color="#f6fafa"/><stop offset="1" stop-color="#eaf8f9"/></linearGradient><radialGradient id="_R_W_h_3396" cx="15.2" cy="2.3" fx="15.2" fy="2.3" r="23.91" gradientUnits="userSpaceOnUse"><stop offset="0" stop-color="#ece8fd"/><stop offset=".35" stop-color="#ece8fd"/><stop offset=".7" stop-color="#e2e0f1"/><stop offset="1" stop-color="#d8d7e4"/></radialGradient><linearGradient id="_R_W_h_771" x1="13.75" y1="4.27" x2="7.53" y2="17.89" gradientUnits="userSpaceOnUse"><stop offset="0" stop-color="#bab6fb"/><stop offset=".09" stop-color="#b0acee"/><stop offset=".26" stop-color="#9894cd"/><stop offset=".48" stop-color="#706e97"/><stop offset=".74" stop-color="#3a394e"/><stop offset="1" stop-color="#010101"/></linearGradient><linearGradient id="_R_W_h_47" x1="13.64" y1="4.48" x2="7.53" y2="17.84" gradientUnits="userSpaceOnUse"><stop offset="0" stop-color="#a9a6e4"/><stop offset=".1" stop-color="#9f9cd7"/><stop offset=".28" stop-color="#8784b6"/><stop offset=".51" stop-color="#5f5d80"/><stop offset=".8" stop-color="#292837"/><stop offset="1" stop-color="#010101"/></linearGradient><linearGradient id="_R_W_h_46" x1="13.52" y1="4.69" x2="7.54" y2="17.8" gradientUnits="userSpaceOnUse"><stop offset="0" stop-color="#9895ce"/><stop offset=".11" stop-color="#8e8cc1"/><stop offset=".3" stop-color="#7674a0"/><stop offset=".56" stop-color="#4e4d6a"/><stop offset=".87" stop-color="#191821"/><stop offset="1" stop-color="#010101"/></linearGradient><linearGradient id="_R_W_h_45" x1="13.41" y1="4.91" x2="7.54" y2="17.75" gradientUnits="userSpaceOnUse"><stop offset="0" stop-color="#8885b7"/><stop offset=".12" stop-color="#7e7baa"/><stop offset=".33" stop-color="#666389"/><stop offset=".61" stop-color="#3e3d53"/><stop offset=".96" stop-color="#08080a"/><stop offset="1" stop-color="#010101"/></linearGradient><linearGradient id="_R_W_h_44" x1="13.29" y1="5.12" x2="7.54" y2="17.7" gradientUnits="userSpaceOnUse"><stop offset="0" stop-color="#7774a0"/><stop offset=".13" stop-color="#6d6a93"/><stop offset=".37" stop-color="#555372"/><stop offset=".68" stop-color="#2d2c3d"/><stop offset="1" stop-color="#010101"/></linearGradient><linearGradient id="_R_W_h_37" x1="13.17" y1="5.33" x2="7.55" y2="17.66" gradientUnits="userSpaceOnUse"><stop offset="0" stop-color="#666489"/><stop offset=".15" stop-color="#5c5a7c"/><stop offset=".41" stop-color="#44425b"/><stop offset=".77" stop-color="#1c1c26"/><stop offset="1" stop-color="#010101"/></linearGradient><linearGradient id="_R_W_h_12" x1="13.06" y1="5.54" x2="7.55" y2="17.61" gradientUnits="userSpaceOnUse"><stop offset="0" stop-color="#555373"/><stop offset=".17" stop-color="#4b4a66"/><stop offset=".48" stop-color="#333245"/><stop offset=".89" stop-color="#0c0c10"/><stop offset="1" stop-color="#010101"/></linearGradient><linearGradient id="_R_W_h_9" x1="12.94" y1="5.75" x2="7.55" y2="17.56" gradientUnits="userSpaceOnUse"><stop offset="0" stop-color="#44435c"/><stop offset=".2" stop-color="#3a394f"/><stop offset=".57" stop-color="#22222e"/><stop offset="1" stop-color="#010101"/></linearGradient><linearGradient id="_R_W_h_7" x1="12.83" y1="5.97" x2="7.56" y2="17.52" gradientUnits="userSpaceOnUse"><stop offset="0" stop-color="#333245"/><stop offset=".26" stop-color="#292938"/><stop offset=".72" stop-color="#111117"/><stop offset="1" stop-color="#010101"/></linearGradient><linearGradient id="_R_W_h_6" x1="12.71" y1="6.18" x2="7.56" y2="17.47" gradientUnits="userSpaceOnUse"><stop offset="0" stop-color="#23222e"/><stop offset=".36" stop-color="#191821"/><stop offset="1" stop-color="#010101"/></linearGradient><linearGradient id="_R_W_h_3" x1="12.6" y1="6.39" x2="7.56" y2="17.42" gradientUnits="userSpaceOnUse"><stop offset="0" stop-color="#121118"/><stop offset=".61" stop-color="#08080b"/><stop offset="1" stop-color="#010101"/></linearGradient><clipPath id="clippath"><path class="cls-27" d="M16.48,6.77h0c-.26,0-.54.03-.82.07-.84-2.32-3.09-3.99-5.75-3.99-1.11,0-2.15.29-3.04.8-1.55.88-2.67,2.42-2.98,4.23-1.83.15-3.28,1.64-3.28,3.48,0,1.94,1.6,3.51,3.57,3.51h12.3c2.27,0,4.12-1.81,4.12-4.05s-1.84-4.05-4.12-4.05Z"/></clipPath><linearGradient id="_R_W_h_2" x1=".91" y1="6.52" x2="12.19" y2="5.07" gradientUnits="userSpaceOnUse"><stop offset="0" stop-color="#9a6ff4"/><stop offset=".57" stop-color="#916ff4"/><stop offset="1" stop-color="#8d74ef"/></linearGradient><radialGradient id="_R_W_h_929" cx="4.5" cy="7.56" fx="4.5" fy="7.56" r="10.19" gradientUnits="userSpaceOnUse"><stop offset="0" stop-color="#722cdf"/><stop offset=".19" stop-color="#763be0"/><stop offset=".37" stop-color="#7a46e1"/><stop offset=".5" stop-color="#7c4ee3"/><stop offset=".72" stop-color="#8166ec"/><stop offset=".98" stop-color="#8b8df9"/><stop offset="1" stop-color="#8c90fa"/></radialGradient><clipPath id="clippath-1"><path class="cls-27" d="M4.3,3.97c-.27-1.34-.03-2.62.54-3.68.09-.17-.08-.35-.26-.27C2.32,1.02.79,3.41,1.08,6.12c.29,2.73,2.53,4.97,5.26,5.26,2.71.29,5.09-1.24,6.1-3.51.08-.17-.11-.35-.27-.26-1.06.58-2.34.81-3.68.54-1.04-.21-1.99-.73-2.72-1.47s-1.26-1.67-1.47-2.72Z"/></clipPath><mask id="mask" x="0" y="0" width="15.87" height="14.04" maskUnits="userSpaceOnUse"><path class="cls-37" d="M4.3,3.97c-.27-1.34-.03-2.62.54-3.68.09-.17-.08-.35-.26-.27C2.32,1.02.79,3.41,1.08,6.12c.29,2.73,2.53,4.97,5.26,5.26,2.71.29,5.09-1.24,6.1-3.51.08-.17-.11-.35-.27-.26-1.06.58-2.34.81-3.68.54-2.09-.42-3.77-2.1-4.18-4.18Z"/></mask></defs><g class="cls-61"><g id="Layer_2"><g id="Main_1"><path class="cls-32" d="M16.48,6.84h0c-.26,0-.54.03-.82.07-.84-2.36-3.09-4.05-5.75-4.05-3.03,0-5.54,2.21-6.02,5.11-1.83.15-3.28,1.67-3.28,3.54,0,1.97,1.6,3.57,3.57,3.57h12.3c2.27,0,4.12-1.84,4.12-4.12s-1.84-4.12-4.12-4.12Z"/><path class="cls-35" d="M16.48,6.77h0c-.26,0-.54.03-.82.07-.84-2.32-3.09-3.99-5.75-3.99-3.03,0-5.54,2.18-6.02,5.02-1.83.15-3.28,1.64-3.28,3.48,0,1.94,1.6,3.51,3.57,3.51h12.3c2.27,0,4.12-1.81,4.12-4.05s-1.84-4.05-4.12-4.05Z"/><path class="cls-44" d="M16.48,6.77h0c-.26,0-.54.03-.82.07-.84-2.32-3.09-3.99-5.75-3.99-3.03,0-5.54,2.18-6.02,5.02-1.83.15-3.28,1.64-3.28,3.48,0,1.94,1.6,3.51,3.57,3.51h12.3c2.27,0,4.12-1.81,4.12-4.05s-1.84-4.05-4.12-4.05Z"/><path class="cls-23" d="M16.33,6.96h0s0,0,0,0h-.01c-.26,0-.52.04-.81.05-.81-2.29-3.04-3.91-5.65-3.91-2.99,0-5.44,2.09-5.91,4.89-1.81.14-3.24,1.61-3.24,3.42,0,1.91,1.58,3.45,3.52,3.45h12.14c2.24,0,4.06-1.77,4.05-3.97,0-2.16-1.84-3.93-4.08-3.93Z"/><path class="cls-52" d="M16.18,7.14h-.01s0,0,0,0h-.03c-.25,0-.5.05-.8.03-.77-2.25-2.98-3.84-5.56-3.84-2.95,0-5.34,2-5.8,4.76-1.78.14-3.19,1.59-3.19,3.37,0,1.88,1.55,3.4,3.47,3.4h11.97c2.21,0,4.01-1.73,3.99-3.89-.01-2.09-1.83-3.82-4.04-3.82Z"/><path class="cls-57" d="M16.03,7.33h-.02s0,0,0,0h0s-.04,0-.04,0c-.25,0-.49.05-.78,0-.73-2.21-2.92-3.77-5.47-3.77-2.91,0-5.23,1.91-5.69,4.63-1.76.14-3.15,1.56-3.15,3.31,0,1.85,1.53,3.34,3.42,3.34h11.81c2.18,0,3.95-1.69,3.92-3.82-.02-2.01-1.83-3.71-4.01-3.71Z"/><path class="cls-3" d="M15.88,7.52h-.03s0,0,0,0h0s-.05.01-.05.01c-.25,0-.47.06-.77-.03-.69-2.18-2.86-3.7-5.37-3.7-2.87,0-5.13,1.83-5.58,4.5-1.74.14-3.11,1.54-3.11,3.26,0,1.82,1.51,3.29,3.38,3.29h11.65c2.15,0,3.9-1.64,3.86-3.74-.03-1.94-1.82-3.59-3.97-3.59Z"/><path class="cls-49" d="M15.73,7.71h-.03s0,0,0,0c0,0-.06.02-.06.02-.24,0-.45.07-.76-.06-.65-2.14-2.8-3.62-5.28-3.62-2.83,0-5.03,1.74-5.47,4.36-1.71.13-3.06,1.51-3.06,3.21,0,1.79,1.49,3.23,3.33,3.23h11.48c2.12,0,3.84-1.6,3.79-3.66-.04-1.87-1.81-3.48-3.94-3.48Z"/><path class="cls-29" d="M15.58,7.89h-.04s0,0,0,0l-.08.02c-.24,0-.43.08-.74-.08-.62-2.1-2.75-3.55-5.19-3.55-2.79,0-4.92,1.65-5.36,4.23-1.69.13-3.02,1.48-3.02,3.15,0,1.75,1.47,3.18,3.28,3.18h11.32c2.09,0,3.79-1.56,3.73-3.59-.04-1.79-1.81-3.37-3.9-3.37Z"/><path class="cls-6" d="M15.43,8.08h-.05s0,0,0,0l-.09.02c-.24,0-.42.09-.73-.11-.58-2.07-2.69-3.48-5.09-3.48-2.75,0-4.82,1.56-5.25,4.1-1.66.13-2.98,1.46-2.98,3.1,0,1.72,1.45,3.12,3.23,3.12h11.16c2.06,0,3.73-1.52,3.66-3.51-.05-1.72-1.8-3.25-3.86-3.25Z"/><path class="cls-31" d="M15.28,8.27h-.06s0,0,0,0l-.1.03c-.23,0-.4.1-.72-.13-.54-2.03-2.63-3.4-5-3.4-2.71,0-4.72,1.48-5.14,3.97-1.64.13-2.93,1.43-2.93,3.04,0,1.69,1.43,3.07,3.19,3.07h10.99c2.03,0,3.68-1.48,3.6-3.43-.06-1.64-1.79-3.14-3.83-3.14Z"/><path class="cls-1" d="M15.13,8.46h-.06s-.12.03-.12.03c-.23,0-.38.11-.71-.16-.5-1.99-2.57-3.33-4.91-3.33-2.67,0-4.61,1.39-5.03,3.84-1.61.12-2.89,1.41-2.89,2.99,0,1.66,1.41,3.01,3.14,3.01h10.83c2,0,3.62-1.44,3.53-3.35-.07-1.57-1.79-3.03-3.79-3.03Z"/><path class="cls-2" d="M14.98,8.64h-.07s-.13.04-.13.04c-.23,0-.36.11-.69-.19-.47-1.96-2.51-3.26-4.81-3.26-2.63,0-4.51,1.3-4.93,3.7-1.59.12-2.85,1.38-2.85,2.93,0,1.63,1.38,2.96,3.09,2.96h10.67c1.97,0,3.57-1.39,3.47-3.28-.07-1.49-1.78-2.91-3.76-2.91Z"/><path class="cls-30" d="M14.83,8.83h-.08s-.14.04-.14.04c-.22,0-.35.12-.68-.21-.43-1.92-2.46-3.19-4.72-3.19-2.59,0-4.41,1.21-4.82,3.57-1.57.12-2.8,1.36-2.8,2.88,0,1.6,1.36,2.9,3.05,2.9h10.51c1.94,0,3.51-1.35,3.4-3.2-.08-1.42-1.78-2.8-3.72-2.8Z"/><g class="cls-63"><g class="cls-65"><path class="cls-56" d="M-2.08,8.49C-3.11,1.99,4.48-2.48,6.37.69c.98,1.66-.13,2.34-.26,4.29-.14,2.13,1.77,1.41,3.64.45,2.79-1.43,5.33,1.95,3.96,4.55-4.2,7.99-14.6,6.08-15.79-1.49Z"/><path class="cls-9" d="M-1.77,8.52C-2.77,2.36,4.27-1.83,6.08,1c1,1.56-.15,2.34-.21,4.25-.06,2.05,1.88,1.59,3.79.6,2.69-1.39,5.02,1.69,3.7,4.2-3.91,7.46-13.93,5.85-15.14-1.53Z"/><path class="cls-20" d="M-1.46,8.55C-2.44,2.73,4.07-1.18,5.8,1.3c1.03,1.47-.17,2.34-.16,4.21.01,1.98,2,1.76,3.95.74,2.59-1.34,4.7,1.43,3.43,3.86C9.39,17.04-.23,15.74-1.46,8.55Z"/><path class="cls-17" d="M-1.15,8.58C-2.12,3.1,3.88-.53,5.52,1.61c1.06,1.38-.19,2.33-.1,4.16.09,1.9,2.11,1.93,4.1.88,2.48-1.31,4.39,1.17,3.16,3.52C9.33,16.57.09,15.57-1.15,8.58Z"/><path class="cls-43" d="M-.84,8.61C-1.79,3.47,3.71.11,5.24,1.91c1.09,1.29-.21,2.33-.05,4.12.16,1.82,2.22,2.1,4.26,1.03,2.38-1.26,4.08.9,2.9,3.17C9.27,16.09.41,15.41-.84,8.61Z"/><path class="cls-28" d="M-.53,8.64C-1.46,3.84,3.56.74,4.96,2.22c1.14,1.2-.23,2.33,0,4.08.23,1.75,2.34,2.28,4.41,1.17,2.28-1.22,3.76.64,2.63,2.83C9.22,15.62.75,15.24-.53,8.64Z"/><path class="cls-10" d="M-.22,8.66C-1.13,4.2,3.42,1.35,4.67,2.52c1.19,1.1-.26,2.32.05,4.04.3,1.67,2.45,2.45,4.56,1.31,2.18-1.17,3.45.38,2.36,2.48C9.16,15.15,1.08,15.08-.22,8.66Z"/><path class="cls-7" d="M.09,8.69C-.79,4.57,3.3,1.96,4.39,2.82c1.25.99-.29,2.32.1,4,.37,1.6,2.57,2.63,4.72,1.45,2.08-1.13,3.14.12,2.09,2.14C9.1,14.67,1.41,14.91.09,8.69Z"/><path class="cls-14" d="M.4,8.72C-.45,4.94,3.18,2.54,4.11,3.13c1.34.85-.32,2.32.16,3.96.44,1.52,2.69,2.8,4.87,1.6,1.97-1.08,2.82-.14,1.83,1.79-1.93,3.73-9.2,4.26-10.57-1.75Z"/><path class="cls-45" d="M.71,8.75C-.12,5.3,3.07,3.1,3.83,3.43c1.45.64-.35,2.32.21,3.91.5,1.45,2.8,2.98,5.03,1.74,1.87-1.04,2.51-.4,1.56,1.45-1.64,3.19-8.52,4.04-9.91-1.79Z"/><path class="cls-38" d="M.88,8.72C.12,5.49,2.97,3.47,3.68,3.78c1.34.59-.36,2.09.2,3.7.52,1.5,2.85,2.97,5.08,1.75,1.78-.98,2.3-.36,1.39,1.32-1.6,2.95-8.16,3.76-9.47-1.84Z"/><path class="cls-58" d="M1.05,8.69c-.7-3.02,1.81-4.85,2.48-4.57,1.23.53-.37,1.85.2,3.49.54,1.55,2.9,2.97,5.14,1.76,1.69-.91,2.09-.32,1.22,1.2-1.56,2.7-7.79,3.48-9.03-1.89Z"/><path class="cls-39" d="M1.23,8.67c-.64-2.8,1.54-4.45,2.15-4.19,1.12.47-.38,1.62.19,3.28.55,1.61,2.95,2.96,5.2,1.77,1.6-.85,1.88-.28,1.05,1.07-1.52,2.45-7.43,3.2-8.59-1.94Z"/><path class="cls-51" d="M1.4,8.64c-.59-2.59,1.26-4.05,1.83-3.82,1.01.41-.39,1.38.19,3.08.57,1.66,3,2.96,5.26,1.78,1.51-.79,1.67-.23.88.94-1.48,2.2-7.06,2.91-8.15-1.99Z"/><path class="cls-26" d="M1.57,8.61c-.52-2.38.99-3.65,1.51-3.44.9.36-.4,1.15.19,2.87.58,1.71,3.05,2.95,5.32,1.79,1.41-.72,1.45-.19.71.82-1.44,1.95-6.69,2.63-7.71-2.04Z"/><path class="cls-41" d="M1.75,8.58c-.46-2.16.71-3.24,1.18-3.07.79.3-.41.91.18,2.66.6,1.76,3.1,2.95,5.37,1.81,1.32-.66,1.23-.15.53.69-1.41,1.7-6.33,2.35-7.27-2.09Z"/><path class="cls-5" d="M1.92,8.55c-.4-1.95.44-2.84.86-2.69.69.24-.42.68.18,2.45.62,1.81,3.15,2.94,5.43,1.82,1.23-.6,1.02-.12.36.57-1.38,1.45-5.96,2.07-6.83-2.14Z"/><path class="cls-46" d="M2.09,8.52c-.35-1.73.16-2.44.53-2.32.58.19-.43.45.17,2.24.63,1.87,3.2,2.93,5.49,1.83,1.13-.54.79-.08.19.44-1.36,1.18-5.61,1.79-6.39-2.19Z"/><path class="cls-24" d="M2.27,8.5c-.29-1.52-.11-2.03.21-1.94.47.13-.44.21.17,2.03.65,1.92,3.24,2.91,5.55,1.84,1.04-.49.57-.05.02.31-1.35.91-5.24,1.51-5.95-2.24Z"/></g></g><path class="cls-13" d="M4.3,4.13c-.27-1.34-.03-2.62.54-3.68.09-.17-.08-.35-.26-.27C2.32,1.18.79,3.57,1.08,6.27c.29,2.73,2.53,4.97,5.26,5.26,2.71.29,5.09-1.24,6.1-3.51.12-.17,0-.47-.16-.38-1.06.58-2.45.94-3.79.67-2.09-.42-3.77-2.1-4.18-4.18Z"/><path class="cls-50" d="M4.3,3.97c-.27-1.34-.03-2.62.54-3.68.09-.17-.08-.35-.26-.27C2.32,1.02.79,3.41,1.08,6.12c.29,2.73,2.53,4.97,5.26,5.26,2.71.29,5.09-1.24,6.1-3.51.08-.17-.11-.35-.27-.26-1.06.58-2.34.81-3.68.54-2.09-.42-3.77-2.1-4.18-4.18Z"/><g class="cls-62"><g class="cls-60"><path class="cls-36" d="M11.97-.42C8.65-3.69,2.92-2.45,1.8-.76L.82,1.72c.85-.34,1.25.03,1.5.75.19.53.1,1.67.68,3.87.57,2.15,2.11,2.99,3.7,3.32,2.46.5,3.7,0,4.55,0,.4,0,1.15.43,2.48-.69.8-.68,1.26-1.74,1.21-2.79-.05-1-1.21-4.86-2.96-6.59Z"/><path class="cls-8" d="M12.02-.46C8.7-3.74,2.97-2.49,1.84-.8L.91,1.65c.84-.34,1.36-.1,1.57.65.16.56.04,1.71.61,3.84.59,2.23,2.19,3.09,3.75,3.41,2.33.47,3.58,0,4.48-.03.4-.01,1.18.4,2.45-.64.8-.65,1.27-1.7,1.22-2.75-.05-1-1.21-4.86-2.96-6.59Z"/><path class="cls-25" d="M12.07-.51C8.75-3.78,3.01-2.54,1.89-.85l-.88,2.44c.83-.35,1.48-.22,1.65.55.13.59,0,1.74.53,3.81.6,2.3,2.28,3.19,3.79,3.49,2.21.45,3.46,0,4.4-.05.4-.02,1.21.37,2.42-.6.79-.63,1.28-1.65,1.23-2.7-.05-1-1.21-4.86-2.96-6.59Z"/><path class="cls-21" d="M12.11-.56C8.79-3.83,3.06-2.59,1.94-.9l-.84,2.42c.83-.35,1.59-.35,1.72.44.1.62-.06,1.78.46,3.78.62,2.38,2.37,3.29,3.84,3.58,2.08.42,3.34,0,4.33-.08.4-.04,1.24.35,2.4-.55.79-.61,1.29-1.61,1.23-2.66-.05-1-1.21-4.86-2.96-6.59Z"/><path class="cls-11" d="M12.16-.6C8.84-3.88,3.11-2.63,1.98-.94l-.79,2.4c.82-.36,1.7-.48,1.79.34.07.65-.12,1.82.39,3.75.64,2.45,2.46,3.38,3.88,3.67,1.95.39,3.22.01,4.26-.11.4-.05,1.26.32,2.37-.5.78-.58,1.3-1.57,1.24-2.62-.05-1-1.21-4.86-2.96-6.59Z"/><path class="cls-48" d="M12.21-.65C8.89-3.92,3.15-2.68,2.03-.99l-.74,2.38c.81-.36,1.81-.6,1.86.24.04.68-.17,1.85.31,3.71.66,2.53,2.54,3.48,3.93,3.76,1.82.37,3.1.02,4.18-.14.4-.06,1.29.29,2.34-.45.78-.56,1.31-1.52,1.25-2.57-.05-1-1.21-4.86-2.96-6.59Z"/><path class="cls-59" d="M12.25-.7c-3.32-3.27-9.05-2.03-10.18-.34l-.69,2.36c.8-.36,1.92-.73,1.94.13.01.71-.23,1.89.24,3.68.68,2.6,2.63,3.58,3.98,3.85,1.7.34,2.98.03,4.11-.16.4-.07,1.32.27,2.31-.41.77-.53,1.32-1.48,1.26-2.53-.05-1-1.21-4.86-2.96-6.59Z"/><path class="cls-12" d="M12.3-.74c-3.32-3.27-9.05-2.03-10.18-.34l-.64,2.34c.8-.37,2.03-.85,2.01.03-.02.74-.28,1.92.17,3.65.69,2.68,2.72,3.68,4.02,3.94,1.57.32,2.86.04,4.04-.19.39-.08,1.36.25,2.28-.36.77-.5,1.33-1.43,1.27-2.48-.05-1-1.21-4.86-2.96-6.59Z"/><path class="cls-42" d="M12.35-.79c-3.32-3.27-9.05-2.03-10.18-.34l-.6,2.32c.79-.37,2.14-.98,2.08-.07-.05.77-.34,1.96.09,3.62.71,2.75,2.8,3.77,4.07,4.03,1.44.29,2.74.05,3.96-.22.39-.08,1.39.23,2.25-.31.77-.48,1.34-1.39,1.28-2.44-.05-1-1.21-4.86-2.96-6.59Z"/><path class="cls-53" d="M12.39-.83c-3.32-3.27-9.05-2.03-10.18-.34l-.55,2.3C2.45.75,3.91.02,3.82.95c-.08.8-.39,1.99.02,3.59.73,2.83,2.89,3.87,4.12,4.12,1.32.26,2.62.06,3.89-.24.39-.09,1.42.21,2.23-.26.77-.45,1.35-1.34,1.29-2.39-.05-1-1.21-4.86-2.96-6.59Z"/><path class="cls-16" d="M12.44-.88c-3.32-3.27-9.05-2.03-10.18-.34l-.5,2.28c.77-.38,2.36-1.23,2.22-.28-.12.83-.45,2.03-.05,3.56.75,2.9,2.98,3.97,4.16,4.21,1.19.24,2.5.07,3.81-.27.39-.1,1.45.19,2.2-.22.77-.42,1.36-1.3,1.3-2.35-.05-1-1.21-4.86-2.96-6.59Z"/><path class="cls-34" d="M12.48-.93c-3.32-3.27-9.05-2.03-10.18-.34l-.45,2.26c.77-.38,2.47-1.36,2.3-.38-.15.86-.5,2.07-.13,3.53.77,2.98,3.06,4.07,4.21,4.29,1.06.21,2.38.09,3.74-.3.39-.11,1.49.17,2.17-.17.77-.38,1.36-1.26,1.31-2.31-.05-1-1.21-4.86-2.96-6.59Z"/></g></g><g class="cls-64"><g class="cls-60"><path class="cls-19" d="M15.04,6.02c-.84-2.32-3.09-3.99-5.75-3.99s-5.09,1.81-5.84,4.28c-.13.44-.49.75-.93.88-1.46.44-2.52,1.76-2.52,3.34,0,1.94,1.6,3.51,3.57,3.51h12.3l-.82-8.02Z"/><path class="cls-47" d="M15.05,6.12c-.83-2.29-3.06-3.94-5.68-3.94s-5.03,1.78-5.77,4.23c-.13.43-.49.74-.92.87-1.44.43-2.49,1.74-2.49,3.3,0,1.91,1.58,3.46,3.52,3.46h12.15l-.81-7.93Z"/><path class="cls-55" d="M15.06,6.22c-.82-2.27-3.02-3.89-5.61-3.89s-4.97,1.76-5.7,4.18c-.13.43-.48.73-.91.86-1.42.43-2.46,1.72-2.46,3.25,0,1.89,1.56,3.42,3.48,3.42h12l-.8-7.83Z"/><path class="cls-15" d="M15.07,6.31c-.81-2.24-2.98-3.84-5.53-3.84s-4.91,1.74-5.63,4.13c-.13.42-.48.72-.9.85-1.4.42-2.43,1.69-2.43,3.21,0,1.87,1.54,3.38,3.44,3.38h11.85l-.79-7.73Z"/><path class="cls-22" d="M15.08,6.41c-.8-2.21-2.94-3.79-5.46-3.79s-4.84,1.72-5.56,4.07c-.13.42-.47.71-.89.84-1.39.42-2.4,1.67-2.4,3.17,0,1.84,1.52,3.34,3.39,3.34h11.7l-.78-7.63Z"/><path class="cls-4" d="M15.09,6.51c-.79-2.18-2.91-3.74-5.39-3.74s-4.78,1.7-5.49,4.02c-.13.41-.46.7-.88.83-1.37.41-2.37,1.65-2.37,3.13,0,1.82,1.5,3.29,3.35,3.29h11.55l-.77-7.53Z"/><path class="cls-18" d="M15.1,6.61c-.78-2.15-2.87-3.69-5.32-3.69s-4.72,1.67-5.42,3.97c-.12.41-.46.7-.86.82-1.35.41-2.34,1.63-2.34,3.09,0,1.79,1.48,3.25,3.31,3.25h11.4l-.76-7.44Z"/><path class="cls-40" d="M15.11,6.71c-.77-2.12-2.83-3.65-5.25-3.65s-4.66,1.65-5.35,3.92c-.12.4-.45.69-.85.81-1.33.4-2.31,1.61-2.31,3.05,0,1.77,1.46,3.21,3.26,3.21h11.25l-.75-7.34Z"/><path class="cls-54" d="M15.12,6.8c-.76-2.1-2.79-3.6-5.18-3.6s-4.6,1.63-5.27,3.87c-.12.4-.45.68-.84.8-1.32.39-2.28,1.59-2.28,3.01,0,1.75,1.44,3.16,3.22,3.16h11.1l-.74-7.24Z"/><path class="cls-33" d="M15.13,6.9c-.75-2.07-2.75-3.55-5.11-3.55s-4.53,1.61-5.2,3.81c-.12.39-.44.67-.83.79-1.3.39-2.24,1.57-2.24,2.97,0,1.72,1.42,3.12,3.17,3.12h10.95l-.73-7.14Z"/></g></g></g></g></g></svg>