<?xml version="1.0" encoding="UTF-8"?><svg xmlns="http://www.w3.org/2000/svg" xmlns:xlink="http://www.w3.org/1999/xlink" viewBox="0 0 21.38 17.18"><defs><style>.cls-1{fill:#705627;opacity:.64;}.cls-1,.cls-2,.cls-3,.cls-4,.cls-5,.cls-6,.cls-7,.cls-8,.cls-9,.cls-10,.cls-11,.cls-12,.cls-13,.cls-14,.cls-15,.cls-16,.cls-17,.cls-18,.cls-19,.cls-20,.cls-21,.cls-22,.cls-23,.cls-24,.cls-25,.cls-26,.cls-27,.cls-28,.cls-29,.cls-30,.cls-31,.cls-32,.cls-33,.cls-34,.cls-35,.cls-36,.cls-37,.cls-38,.cls-39,.cls-40,.cls-41,.cls-42,.cls-43,.cls-44,.cls-45,.cls-46,.cls-47,.cls-48,.cls-49,.cls-50,.cls-51,.cls-52,.cls-53,.cls-54,.cls-55,.cls-56,.cls-57,.cls-58,.cls-59,.cls-60,.cls-61,.cls-62,.cls-63,.cls-64,.cls-65,.cls-66,.cls-67,.cls-68,.cls-69,.cls-70,.cls-71,.cls-72,.cls-73,.cls-74,.cls-75,.cls-76,.cls-77,.cls-78,.cls-79,.cls-80,.cls-81,.cls-82,.cls-83,.cls-84,.cls-85,.cls-86,.cls-87,.cls-88,.cls-89,.cls-90,.cls-91,.cls-92,.cls-93,.cls-94,.cls-95,.cls-96,.cls-97,.cls-98,.cls-99,.cls-100,.cls-101,.cls-102,.cls-103,.cls-104,.cls-105,.cls-106,.cls-107,.cls-108,.cls-109,.cls-110,.cls-111,.cls-112,.cls-113,.cls-114,.cls-115,.cls-116,.cls-117,.cls-118,.cls-119,.cls-120,.cls-121,.cls-122,.cls-123{stroke-width:0px;}.cls-2{fill:url(#_R_W_h_987-10);}.cls-3{fill:url(#_R_W_h_60);opacity:.36;}.cls-3,.cls-6,.cls-24,.cls-30,.cls-37,.cls-39,.cls-52,.cls-57,.cls-58,.cls-59,.cls-69,.cls-72,.cls-124{mix-blend-mode:screen;}.cls-4{fill:#f6f5ed;opacity:.29;}.cls-5{fill:url(#_R_W_h_987-9);}.cls-6{fill:url(#_R_W_h_662);}.cls-7{fill:#fdf8d6;}.cls-8{fill:#fffbe1;}.cls-9{fill:#f7f6eb;opacity:.41;}.cls-10{fill:#514716;}.cls-11{fill:url(#_R_W_h_987-2);}.cls-12{fill:url(#_R_W_h_987-11);}.cls-13{fill:#1c1808;}.cls-14{fill:#8f6e31;opacity:.82;}.cls-15{fill:#af863c;}.cls-16{fill:#3f3711;}.cls-17{fill:#f9f2c1;}.cls-18{fill:#f4f3f0;opacity:.12;}.cls-19{fill:#fdf8d8;}.cls-20{fill:#80622c;opacity:.73;}.cls-21{fill:#f5f4ee;opacity:.24;}.cls-22{fill:#fcf6d0;}.cls-23{fill:#f7f5ec;opacity:.35;}.cls-24{fill:url(#_R_W_h_65);opacity:.76;}.cls-25{fill:#0f0c06;opacity:.99;}.cls-26{fill:#f9f3c3;}.cls-27{fill:#2c2210;opacity:.98;}.cls-28{fill:#3a2d15;opacity:.97;}.cls-29{fill:#25200a;}.cls-30{fill:url(#_R_W_h_68);opacity:.92;}.cls-31,.cls-58,.cls-73{fill:#010101;}.cls-32{fill:#fbf8e7;opacity:.71;}.cls-125{isolation:isolate;}.cls-33{fill:url(#_R_W_h_1007-4);}.cls-34{fill:#9f7a37;}.cls-34,.cls-50{opacity:.91;}.cls-35{fill:#664f23;opacity:.94;}.cls-36{fill:#fbf6cf;}.cls-37{fill:url(#_R_W_h_62);opacity:.52;}.cls-38{fill:#fcf9e6;opacity:.76;}.cls-39{fill:url(#_R_W_h_59);opacity:.28;}.cls-40{fill:#0a0903;}.cls-41{fill:#fef9db;}.cls-42{fill:#fdf8d7;}.cls-43{fill:#fcf6d1;}.cls-44{fill:#fcf7d3;}.cls-45{fill:#fefadf;}.cls-46{fill:#2d280d;}.cls-47{fill:url(#_R_W_h_1007);}.cls-48{fill:url(#_R_W_h_987);}.cls-49{fill:none;}.cls-50{fill:#9f7b37;}.cls-51{fill:#f4f4ef;opacity:.18;}.cls-52{fill:url(#_R_W_h_61);opacity:.44;}.cls-53{fill:#302511;opacity:.27;}.cls-54{fill:#faf3c4;}.cls-55{fill:#fbf5cd;}.cls-56{fill:#fdf9d9;}.cls-57{fill:url(#_R_W_h_58);opacity:.2;}.cls-58{opacity:.12;}.cls-59{fill:url(#_R_W_h_63);opacity:.6;}.cls-60{fill:#f9f2c2;}.cls-61{fill:#faf4c9;}.cls-62{fill:#fbf5cc;}.cls-63{fill:#faf3c6;}.cls-64{fill:#faf4c7;}.cls-65{fill:#fffae0;}.cls-66{fill:url(#_R_W_h_1436);}.cls-67{fill:#fefadd;}.cls-68{fill:url(#_R_W_h_1007-9);}.cls-69{fill:url(#_R_W_h_64);opacity:.68;}.cls-70{fill:#fef9dc;}.cls-71{fill:#745a28;opacity:.93;}.cls-72{fill:url(#_R_W_h_67);opacity:.84;}.cls-73,.cls-110{opacity:0;}.cls-74{fill:#fff;}.cls-75{fill:#f3f3f1;opacity:.06;}.cls-76{fill:url(#_R_W_h_987-5);}.cls-77{fill:#36300f;}.cls-78{fill:#fcf7d2;}.cls-79{fill:url(#_R_W_h_1007-10);}.cls-80{fill:#fdf7d4;}.cls-81{fill:#131106;}.cls-82{fill:url(#_R_W_h_1007-6);}.cls-83{fill:url(#_R_W_h_987-7);}.cls-84{fill:url(#_R_W_h_1007-2);}.cls-85{fill:#57441e;opacity:.95;}.cls-86{fill:url(#_R_W_h_1007-8);}.cls-87{fill:#fffbe2;}.cls-88{fill:#82652d;opacity:.93;}.cls-89{fill:url(#_R_W_h_987-3);}.cls-90{fill:url(#_R_W_h_1007-11);}.cls-91{fill:#fefade;}.cls-126{clip-path:url(#clippath);}.cls-92{fill:#403116;opacity:.36;}.cls-93{fill:url(#_R_W_h_987-8);}.cls-94{fill:#f8f6ea;opacity:.47;}.cls-95{fill:url(#_R_W_h_1399);}.cls-96{fill:url(#_R_W_h_987-6);}.cls-97{fill:#1e170b;opacity:.98;}.cls-98{fill:#fbf4ca;}.cls-99{fill:#fdfae4;opacity:.88;}.cls-100{fill:#49381a;opacity:.96;}.cls-101{fill:#faf8e8;opacity:.65;}.cls-102{fill:#faf4c8;}.cls-103{fill:#faf7e9;opacity:.59;}.cls-104{fill:#21190c;opacity:.18;}.cls-105{fill:url(#_R_W_h_1007-5);}.cls-106{fill:#fdf8d5;}.cls-107{fill:#110d06;opacity:.09;}.cls-108{fill:#fbf5cb;}.cls-127{mask:url(#mask);}.cls-109{fill:url(#_R_W_h_987-4);}.cls-110{fill:#f2f2f2;}.cls-111{fill:#503d1c;opacity:.45;}.cls-112{fill:#fef9da;}.cls-113{fill:#917032;opacity:.92;}.cls-114{fill:#483f14;}.cls-115{fill:url(#_R_W_h_1007-3);}.cls-116{fill:#fbf5ce;}.cls-117{fill:#faf3c5;}.cls-118{fill:url(#_R_W_h_1007-7);}.cls-128{mix-blend-mode:multiply;}.cls-119{fill:#fdf9e5;opacity:.82;}.cls-120{fill:#fefae3;opacity:.94;}.cls-121{fill:#604a21;opacity:.55;}.cls-122{fill:#fcf6d2;}.cls-123{fill:#f9f7ea;opacity:.53;}</style><linearGradient id="_R_W_h_1436" x1="1.39" y1="11.08" x2="21.38" y2="11.08" gradientUnits="userSpaceOnUse"><stop offset="0" stop-color="#f4fbfb"/><stop offset=".61" stop-color="#fbfbfb"/><stop offset=".8" stop-color="#f6fafa"/><stop offset="1" stop-color="#eaf8f9"/></linearGradient><radialGradient id="_R_W_h_1399" cx="13.58" cy="26.41" fx="13.58" fy="26.41" r="20.92" gradientTransform="translate(0 -22.14) scale(1 .98)" gradientUnits="userSpaceOnUse"><stop offset="0" stop-color="#f1effd"/><stop offset=".55" stop-color="#f1effd"/><stop offset=".74" stop-color="#eae8f6"/><stop offset="1" stop-color="#d8d7e4"/><stop offset="1" stop-color="#d8d7e4"/></radialGradient><linearGradient id="_R_W_h_662" x1="14.53" y1="6.38" x2="8.31" y2="20" gradientUnits="userSpaceOnUse"><stop offset="0" stop-color="#f9ff9e"/><stop offset=".09" stop-color="#ecf296"/><stop offset=".25" stop-color="#ccd181"/><stop offset=".47" stop-color="#989b60"/><stop offset=".74" stop-color="#4f5132"/><stop offset="1" stop-color="#010101"/></linearGradient><linearGradient id="_R_W_h_68" x1="14.41" y1="6.6" x2="8.31" y2="19.95" gradientUnits="userSpaceOnUse"><stop offset="0" stop-color="#e2e890"/><stop offset=".1" stop-color="#d5db88"/><stop offset=".27" stop-color="#b5ba73"/><stop offset=".51" stop-color="#818452"/><stop offset=".79" stop-color="#3a3b25"/><stop offset="1" stop-color="#010101"/></linearGradient><linearGradient id="_R_W_h_67" x1="14.29" y1="6.81" x2="8.31" y2="19.91" gradientUnits="userSpaceOnUse"><stop offset="0" stop-color="#ccd181"/><stop offset=".1" stop-color="#bfc479"/><stop offset=".3" stop-color="#9fa364"/><stop offset=".55" stop-color="#6b6d44"/><stop offset=".86" stop-color="#232416"/><stop offset="1" stop-color="#010101"/></linearGradient><linearGradient id="_R_W_h_65" x1="14.18" y1="7.03" x2="8.32" y2="19.86" gradientUnits="userSpaceOnUse"><stop offset="0" stop-color="#b5ba73"/><stop offset=".11" stop-color="#a8ad6b"/><stop offset=".32" stop-color="#888c56"/><stop offset=".61" stop-color="#545635"/><stop offset=".94" stop-color="#0d0d08"/><stop offset="1" stop-color="#010101"/></linearGradient><linearGradient id="_R_W_h_64" x1="14.06" y1="7.24" x2="8.32" y2="19.81" gradientUnits="userSpaceOnUse"><stop offset="0" stop-color="#9fa365"/><stop offset=".13" stop-color="#92965d"/><stop offset=".36" stop-color="#727548"/><stop offset=".67" stop-color="#3e4027"/><stop offset="1" stop-color="#010101"/></linearGradient><linearGradient id="_R_W_h_63" x1="13.94" y1="7.46" x2="8.32" y2="19.77" gradientUnits="userSpaceOnUse"><stop offset="0" stop-color="#888c57"/><stop offset=".14" stop-color="#7b7f4f"/><stop offset=".41" stop-color="#5b5e3a"/><stop offset=".76" stop-color="#28291a"/><stop offset="1" stop-color="#010101"/></linearGradient><linearGradient id="_R_W_h_62" x1="13.83" y1="7.67" x2="8.33" y2="19.72" gradientUnits="userSpaceOnUse"><stop offset="0" stop-color="#727448"/><stop offset=".17" stop-color="#656740"/><stop offset=".47" stop-color="#45462b"/><stop offset=".88" stop-color="#11110b"/><stop offset="1" stop-color="#010101"/></linearGradient><linearGradient id="_R_W_h_61" x1="13.71" y1="7.89" x2="8.33" y2="19.67" gradientUnits="userSpaceOnUse"><stop offset="0" stop-color="#5b5d3a"/><stop offset=".2" stop-color="#4e5032"/><stop offset=".57" stop-color="#2e2f1d"/><stop offset="1" stop-color="#010101"/></linearGradient><linearGradient id="_R_W_h_60" x1="13.59" y1="8.11" x2="8.33" y2="19.63" gradientUnits="userSpaceOnUse"><stop offset="0" stop-color="#45462c"/><stop offset=".25" stop-color="#383924"/><stop offset=".71" stop-color="#18180f"/><stop offset="1" stop-color="#010101"/></linearGradient><linearGradient id="_R_W_h_59" x1="13.48" y1="8.32" x2="8.34" y2="19.58" gradientUnits="userSpaceOnUse"><stop offset="0" stop-color="#2e2f1e"/><stop offset=".35" stop-color="#212216"/><stop offset=".99" stop-color="#010101"/><stop offset="1" stop-color="#010101"/></linearGradient><linearGradient id="_R_W_h_58" x1="13.36" y1="8.54" x2="8.34" y2="19.53" gradientUnits="userSpaceOnUse"><stop offset="0" stop-color="#18180f"/><stop offset=".61" stop-color="#0b0b07"/><stop offset="1" stop-color="#010101"/></linearGradient><clipPath id="clippath"><path class="cls-49" d="M17.26,8.88h0c-.26,0-.54.03-.82.07-.37-1.02-1.01-1.91-1.83-2.59-1.06-.87-2.42-1.4-3.91-1.4-3.03,0-5.54,2.18-6.02,5.02-1.83.15-3.28,1.64-3.28,3.48,0,1.94,1.6,3.51,3.57,3.51h12.3c2.27,0,4.12-1.81,4.12-4.05s-1.84-4.05-4.12-4.05Z"/></clipPath><linearGradient id="_R_W_h_987" x1="2.56" y1="7.49" x2="11.77" y2="7.49" gradientUnits="userSpaceOnUse"><stop offset="0" stop-color="#fff379"/><stop offset=".47" stop-color="#fff7a1"/><stop offset="1" stop-color="#fff393"/></linearGradient><linearGradient id="_R_W_h_987-2" x1="-1.7" y1=".79" x2="16.64" y2=".79" xlink:href="#_R_W_h_987"/><linearGradient id="_R_W_h_987-3" x1="-1.18" y1="14.13" x2="16.14" y2="14.13" xlink:href="#_R_W_h_987"/><linearGradient id="_R_W_h_987-4" x1="-1.56" y1="2.32" x2="16.86" y2="2.32" xlink:href="#_R_W_h_987"/><linearGradient id="_R_W_h_987-5" x1="-1.93" y1="12.6" x2="16.52" y2="12.6" xlink:href="#_R_W_h_987"/><linearGradient id="_R_W_h_987-6" x1="-1.29" y1="5.52" x2="16.32" y2="5.52" xlink:href="#_R_W_h_987"/><linearGradient id="_R_W_h_987-7" x1="-2.1" y1="9.34" x2="16.4" y2="9.34" xlink:href="#_R_W_h_987"/><linearGradient id="_R_W_h_987-8" x1="-1.45" y1="9.36" x2="17.05" y2="9.36" xlink:href="#_R_W_h_987"/><linearGradient id="_R_W_h_987-9" x1="-1.18" y1="5.56" x2="16.26" y2="5.56" xlink:href="#_R_W_h_987"/><linearGradient id="_R_W_h_987-10" x1="-1.21" y1="12.64" x2="15.99" y2="12.64" xlink:href="#_R_W_h_987"/><linearGradient id="_R_W_h_987-11" x1="-1.73" y1="2.26" x2="16.45" y2="2.26" xlink:href="#_R_W_h_987"/><radialGradient id="_R_W_h_1007" cx="9.85" cy="-.27" fx="9.85" fy="-.27" r="18.15" gradientUnits="userSpaceOnUse"><stop offset="0" stop-color="#fdfb79"/><stop offset=".44" stop-color="#fee168"/><stop offset=".66" stop-color="#ffd360"/><stop offset=".8" stop-color="#ffcc5f"/><stop offset=".99" stop-color="#ffb95e"/><stop offset="1" stop-color="#ffb95e"/></radialGradient><radialGradient id="_R_W_h_1007-2" cx="9.85" cy="-.27" fx="9.85" fy="-.27" r="18.15" xlink:href="#_R_W_h_1007"/><radialGradient id="_R_W_h_1007-3" cx="9.85" cy="-.27" fx="9.85" fy="-.27" r="18.15" xlink:href="#_R_W_h_1007"/><radialGradient id="_R_W_h_1007-4" cx="9.85" cy="-.27" fx="9.85" fy="-.27" r="18.15" xlink:href="#_R_W_h_1007"/><radialGradient id="_R_W_h_1007-5" cx="9.85" cy="-.27" fx="9.85" fy="-.27" r="18.15" xlink:href="#_R_W_h_1007"/><radialGradient id="_R_W_h_1007-6" cx="9.85" cy="-.27" fx="9.85" fy="-.27" r="18.15" xlink:href="#_R_W_h_1007"/><radialGradient id="_R_W_h_1007-7" cx="9.85" cy="-.27" fx="9.85" fy="-.27" r="18.15" xlink:href="#_R_W_h_1007"/><radialGradient id="_R_W_h_1007-8" cx="9.85" cy="-.27" fx="9.85" fy="-.27" r="18.15" xlink:href="#_R_W_h_1007"/><radialGradient id="_R_W_h_1007-9" cx="9.85" cy="-.27" fx="9.85" fy="-.27" r="18.15" xlink:href="#_R_W_h_1007"/><radialGradient id="_R_W_h_1007-10" cx="9.85" cy="-.27" fx="9.85" fy="-.27" r="18.15" xlink:href="#_R_W_h_1007"/><radialGradient id="_R_W_h_1007-11" cx="9.85" cy="-.27" fx="9.85" fy="-.27" r="18.15" xlink:href="#_R_W_h_1007"/><mask id="mask" x="0" y="0" width="16.85" height="16.16" maskUnits="userSpaceOnUse"><path class="cls-74" d="M12.19,7.4c0,2.76-2.27,4.99-5.08,4.99s-5.08-2.23-5.08-4.99S4.31,2.41,7.11,2.41s5.08,2.23,5.08,4.99Z"/><path class="cls-74" d="M7.88,1.37h-1.69c-.16,0-.25-.19-.14-.31l.85-.99c.08-.09.21-.09.29,0l.85.99c.1.12.02.31-.14.31Z"/><path class="cls-74" d="M6.19,13.4h1.69c.16,0,.25.19.14.31l-.85.99c-.08.09-.21.09-.29,0l-.85-.99c-.1-.12-.02-.31.14-.31Z"/><path class="cls-74" d="M4.18,2.02l-1.37.99c-.13.09-.31,0-.3-.17l.1-1.3c0-.12.12-.2.23-.17l1.27.31c.16.04.2.24.07.34Z"/><path class="cls-74" d="M9.88,12.75l1.37-.99c.13-.09.31,0,.3.17l-.1,1.3c0,.12-.12.2-.23.17l-1.27-.31c-.16-.04-.2-.24-.07-.34Z"/><path class="cls-74" d="M1.57,4.72l-.52,1.61c-.05.15-.26.18-.34.04L.03,5.26c-.06-.1-.02-.23.09-.27l1.2-.5c.15-.06.3.08.25.23Z"/><path class="cls-74" d="M12.49,10.05l.52-1.61c.05-.15.26-.18.34-.04l.68,1.11c.06.1.02.23-.09.27l-1.2.5c-.15.06-.3-.08-.25-.23Z"/><path class="cls-74" d="M1.05,8.44l.52,1.61c.05.15-.1.29-.25.23l-1.2-.5c-.11-.04-.15-.17-.09-.27l.68-1.11c.08-.14.29-.11.34.04Z"/><path class="cls-74" d="M13.02,6.33l-.52-1.61c-.05-.15.1-.29.25-.23l1.2.5c.11.04.15.17.09.27l-.68,1.11c-.08.14-.29.11-.34-.04Z"/><path class="cls-74" d="M2.81,11.75l1.37.99c.13.09.09.3-.07.34l-1.27.31c-.11.03-.22-.05-.23-.17l-.1-1.3c-.01-.16.17-.26.3-.17Z"/><path class="cls-74" d="M11.25,3.01l-1.37-.99c-.13-.09-.09-.3.07-.34l1.27-.31c.11-.03.22.05.23.17l.1,1.3c.01.16-.17.26-.3.17Z"/></mask></defs><g class="cls-125"><g id="Layer_2"><g id="Main_1"><path class="cls-66" d="M17.26,8.95h0c-.26,0-.54.03-.82.07-.84-2.36-3.09-4.05-5.75-4.05-3.03,0-5.54,2.21-6.02,5.11-1.83.15-3.28,1.67-3.28,3.54,0,1.97,1.6,3.57,3.57,3.57h12.3c2.27,0,4.12-1.84,4.12-4.12s-1.84-4.12-4.12-4.12Z"/><path class="cls-95" d="M17.26,8.88h0c-.26,0-.54.03-.82.07-.84-2.32-3.09-3.99-5.75-3.99-3.03,0-5.54,2.18-6.02,5.02-1.83.15-3.28,1.64-3.28,3.48,0,1.94,1.6,3.51,3.57,3.51h12.3c2.27,0,4.12-1.81,4.12-4.05s-1.84-4.05-4.12-4.05Z"/><path class="cls-6" d="M17.26,8.88h0c-.26,0-.54.03-.82.07-.84-2.32-3.09-3.99-5.75-3.99-3.03,0-5.54,2.18-6.02,5.02-1.83.15-3.28,1.64-3.28,3.48,0,1.94,1.6,3.51,3.57,3.51h12.3c2.27,0,4.12-1.81,4.12-4.05s-1.84-4.05-4.12-4.05Z"/><path class="cls-30" d="M17.1,9.07h0c-.26,0-.53.03-.81.07-.81-2.29-3.04-3.93-5.66-3.93-2.99,0-5.44,2.09-5.91,4.89-1.81.14-3.24,1.61-3.24,3.42,0,1.91,1.58,3.45,3.52,3.45h12.14c2.24,0,4.06-1.77,4.05-3.97,0-2.16-1.85-3.94-4.09-3.94Z"/><path class="cls-72" d="M16.94,9.25h0c-.25,0-.52.03-.8.07-.77-2.25-2.99-3.88-5.57-3.88-2.95,0-5.34,2-5.8,4.76-1.78.14-3.19,1.59-3.19,3.37,0,1.88,1.55,3.4,3.47,3.4h11.97c2.21,0,4.01-1.73,3.99-3.89-.01-2.09-1.85-3.83-4.07-3.83Z"/><path class="cls-24" d="M16.78,9.44h0c-.25,0-.52.03-.79.07-.73-2.21-2.94-3.82-5.49-3.82-2.91,0-5.23,1.91-5.69,4.63-1.76.14-3.15,1.56-3.15,3.32,0,1.85,1.53,3.34,3.42,3.34h11.81c2.18,0,3.95-1.69,3.92-3.82-.02-2.01-1.86-3.71-4.04-3.71Z"/><path class="cls-69" d="M16.62,9.62h0c-.25,0-.51.03-.78.07-.69-2.18-2.89-3.77-5.4-3.77-2.87,0-5.13,1.83-5.58,4.5-1.74.14-3.11,1.54-3.11,3.26,0,1.82,1.51,3.29,3.38,3.29h11.65c2.15,0,3.9-1.64,3.86-3.74-.03-1.94-1.86-3.6-4.01-3.6Z"/><path class="cls-59" d="M16.46,9.81h0c-.24,0-.5.03-.77.07-.65-2.14-2.84-3.72-5.32-3.72-2.83,0-5.03,1.74-5.47,4.36-1.71.13-3.06,1.51-3.06,3.21,0,1.79,1.49,3.23,3.33,3.23h11.48c2.12,0,3.84-1.6,3.79-3.66-.04-1.87-1.87-3.49-3.99-3.49Z"/><path class="cls-37" d="M16.3,9.99h0c-.24,0-.5.03-.76.07-.62-2.1-2.79-3.66-5.23-3.66-2.79,0-4.92,1.65-5.36,4.23-1.69.13-3.02,1.48-3.02,3.15,0,1.75,1.47,3.18,3.28,3.18h11.32c2.09,0,3.79-1.56,3.73-3.59-.04-1.79-1.87-3.38-3.96-3.38Z"/><path class="cls-52" d="M16.14,10.18h0c-.24,0-.49.03-.75.06-.58-2.07-2.74-3.61-5.15-3.61-2.75,0-4.82,1.56-5.25,4.1-1.66.13-2.98,1.46-2.98,3.1,0,1.72,1.45,3.12,3.24,3.12h11.16c2.06,0,3.73-1.52,3.66-3.51-.05-1.72-1.87-3.27-3.94-3.27Z"/><path class="cls-3" d="M15.98,10.36h0c-.23,0-.48.03-.73.06-.54-2.03-2.69-3.55-5.06-3.55-2.71,0-4.72,1.48-5.14,3.97-1.64.13-2.93,1.43-2.93,3.04,0,1.69,1.43,3.07,3.19,3.07h11c2.03,0,3.68-1.48,3.6-3.43-.06-1.64-1.88-3.16-3.91-3.16Z"/><path class="cls-39" d="M15.82,10.55h0c-.23,0-.47.02-.72.06-.5-1.99-2.64-3.5-4.97-3.5-2.67,0-4.61,1.39-5.03,3.84-1.61.12-2.89,1.41-2.89,2.99,0,1.66,1.41,3.01,3.14,3.01h10.83c2,0,3.62-1.44,3.53-3.35-.07-1.57-1.88-3.05-3.88-3.05Z"/><path class="cls-57" d="M15.66,10.73h0c-.23,0-.47.02-.71.06-.47-1.96-2.59-3.44-4.89-3.44-2.63,0-4.51,1.3-4.93,3.7-1.59.12-2.85,1.38-2.85,2.93,0,1.63,1.38,2.96,3.09,2.96h10.67c1.97,0,3.57-1.39,3.47-3.28-.07-1.49-1.89-2.94-3.86-2.94Z"/><path class="cls-58" d="M15.49,10.92h0c-.22,0-.46.02-.7.06-.43-1.92-2.54-3.39-4.8-3.39-2.59,0-4.41,1.21-4.82,3.57-1.57.12-2.8,1.36-2.8,2.88,0,1.6,1.36,2.9,3.05,2.9h10.51c1.94,0,3.51-1.35,3.4-3.2-.08-1.42-1.89-2.82-3.83-2.82Z"/><g class="cls-126"><g class="cls-128"><path class="cls-110" d="M3.05,18.27c-2.17.42-3.68-.85-3.98-2.89-1.87-.94-2.59-2.81-1.49-4.75-.48-1.14-.8-3.07,1.47-4.55.31-2.22,1.96-3.36,4.01-3,1.48-1.45,3.4-1.43,4.92.03,2.16-.4,3.73.77,4.04,2.86.56.32,1.57.94,1.89,2.25.2.81.08,1.64-.36,2.47.94,1.81.33,3.82-1.56,4.74-.2,1.09-.81,2.21-1.8,2.65-1.15.51-2.21.2-2.21.2-1.51,1.52-3.51,1.55-4.95,0Z"/><path class="cls-75" d="M3.12,18.09c-2.12.41-3.59-.83-3.88-2.82-1.82-.92-2.53-2.74-1.45-4.64-.47-1.11-.78-2.99,1.43-4.44.3-2.17,1.91-3.28,3.92-2.93,1.44-1.42,3.32-1.39,4.8.03,2.1-.39,3.64.76,3.94,2.79.55.31,1.53.92,1.85,2.19.2.79.08,1.6-.35,2.41.91,1.76.32,3.72-1.52,4.62-.2,1.07-.79,2.16-1.75,2.58-1.12.49-2.16.2-2.16.2-1.47,1.48-3.42,1.51-4.83,0Z"/><path class="cls-18" d="M3.19,17.91c-2.06.4-3.5-.81-3.78-2.75-1.77-.9-2.47-2.67-1.41-4.52-.46-1.09-.76-2.92,1.39-4.33.29-2.12,1.86-3.2,3.82-2.85,1.4-1.38,3.23-1.36,4.68.03,2.05-.38,3.55.74,3.84,2.72.54.3,1.49.9,1.8,2.14.19.77.08,1.56-.34,2.35.89,1.72.31,3.63-1.48,4.51-.19,1.04-.77,2.1-1.71,2.52-1.1.48-2.1.19-2.1.19-1.44,1.44-3.34,1.48-4.71,0Z"/><path class="cls-51" d="M3.26,17.73c-2.01.39-3.41-.79-3.69-2.68-1.73-.87-2.4-2.61-1.38-4.4-.45-1.06-.74-2.84,1.36-4.22.28-2.06,1.82-3.12,3.72-2.78,1.37-1.35,3.15-1.32,4.56.03,2-.37,3.46.72,3.74,2.65.52.29,1.45.87,1.75,2.08.19.75.08,1.52-.33,2.29.87,1.67.3,3.54-1.44,4.39-.19,1.01-.75,2.05-1.66,2.45-1.07.47-2.05.19-2.05.19-1.4,1.4-3.25,1.44-4.59,0Z"/><path class="cls-21" d="M3.34,17.55c-1.96.38-3.32-.77-3.59-2.61-1.68-.85-2.34-2.54-1.34-4.29-.43-1.03-.72-2.77,1.32-4.1C0,4.54,1.5,3.51,3.35,3.84c1.33-1.31,3.07-1.29,4.44.03,1.94-.36,3.36.7,3.64,2.58.51.29,1.41.85,1.71,2.03.18.73.07,1.48-.32,2.23.84,1.63.3,3.44-1.41,4.27-.18.99-.73,1.99-1.62,2.39-1.04.46-1.99.18-1.99.18-1.36,1.37-3.17,1.4-4.47,0Z"/><path class="cls-4" d="M3.41,17.37c-1.91.37-3.23-.74-3.49-2.54-1.64-.83-2.28-2.47-1.3-4.17-.42-1-.7-2.69,1.29-3.99.27-1.95,1.72-2.95,3.52-2.63,1.3-1.27,2.99-1.25,4.32.03,1.89-.35,3.27.68,3.55,2.51.49.28,1.38.83,1.66,1.97.18.71.07,1.44-.31,2.17.82,1.59.29,3.35-1.37,4.16-.18.96-.71,1.94-1.58,2.32-1.01.45-1.94.18-1.94.18-1.33,1.33-3.08,1.36-4.35,0Z"/><path class="cls-23" d="M3.48,17.19c-1.85.36-3.14-.72-3.39-2.47-1.59-.8-2.21-2.4-1.27-4.06-.41-.97-.68-2.62,1.25-3.88.26-1.9,1.67-2.87,3.43-2.56,1.26-1.24,2.9-1.22,4.2.03,1.84-.34,3.18.66,3.45,2.44.48.27,1.34.8,1.62,1.92.17.69.07,1.4-.31,2.11.8,1.54.28,3.26-1.33,4.04-.17.93-.69,1.89-1.53,2.26-.98.43-1.89.17-1.89.17-1.29,1.29-3,1.32-4.22,0Z"/><path class="cls-9" d="M3.55,17c-1.8.35-3.05-.7-3.3-2.4-1.55-.78-2.15-2.33-1.23-3.94-.4-.95-.66-2.54,1.21-3.77.25-1.84,1.62-2.79,3.33-2.49,1.22-1.2,2.82-1.18,4.08.02,1.79-.34,3.09.64,3.35,2.37.47.26,1.3.78,1.57,1.86.17.67.07,1.36-.3,2.05.78,1.5.27,3.16-1.29,3.93-.17.91-.67,1.83-1.49,2.19-.96.42-1.83.17-1.83.17-1.25,1.26-2.91,1.29-4.1,0Z"/><path class="cls-94" d="M3.63,16.82c-1.75.34-2.96-.68-3.2-2.33-1.5-.76-2.09-2.26-1.2-3.82-.39-.92-.64-2.47,1.18-3.66.25-1.79,1.58-2.71,3.23-2.41,1.19-1.17,2.74-1.15,3.96.02,1.73-.33,3,.62,3.25,2.3.45.26,1.26.76,1.52,1.81.16.65.07,1.32-.29,1.99.75,1.45.26,3.07-1.25,3.81-.16.88-.65,1.78-1.45,2.13-.93.41-1.78.16-1.78.16-1.22,1.22-2.82,1.25-3.98,0Z"/><path class="cls-123" d="M3.7,16.64c-1.69.33-2.87-.66-3.1-2.26-1.46-.73-2.02-2.19-1.16-3.71-.37-.89-.62-2.39,1.14-3.55.24-1.74,1.53-2.63,3.13-2.34,1.15-1.13,2.65-1.11,3.84.02,1.68-.32,2.91.6,3.15,2.23.44.25,1.22.73,1.48,1.75.16.63.06,1.28-.28,1.93.73,1.41.26,2.98-1.22,3.7-.16.85-.63,1.72-1.4,2.06-.9.4-1.72.16-1.72.16-1.18,1.18-2.74,1.21-3.86,0Z"/><path class="cls-103" d="M3.77,16.46c-1.64.32-2.78-.64-3.01-2.19-1.41-.71-1.96-2.12-1.12-3.59-.36-.86-.6-2.32,1.11-3.44.23-1.68,1.48-2.54,3.03-2.27,1.12-1.1,2.57-1.08,3.72.02,1.63-.31,2.82.59,3.05,2.16.43.24,1.18.71,1.43,1.7.15.61.06,1.24-.27,1.87.71,1.37.25,2.88-1.18,3.58-.15.83-.61,1.67-1.36,2-.87.38-1.67.15-1.67.15-1.14,1.15-2.65,1.17-3.74,0Z"/><path class="cls-101" d="M3.84,16.28c-1.59.31-2.69-.62-2.91-2.12-1.36-.69-1.9-2.06-1.09-3.48-.35-.83-.58-2.24,1.07-3.33.22-1.63,1.43-2.46,2.94-2.19,1.08-1.06,2.49-1.04,3.6.02,1.58-.3,2.73.57,2.95,2.09.41.23,1.15.69,1.38,1.64.15.59.06,1.2-.26,1.81.68,1.32.24,2.79-1.14,3.47-.15.8-.59,1.62-1.31,1.94-.84.37-1.62.15-1.62.15-1.11,1.11-2.57,1.13-3.62,0Z"/><path class="cls-32" d="M3.91,16.1c-1.54.3-2.6-.6-2.81-2.05-1.32-.67-1.83-1.99-1.05-3.36-.34-.81-.56-2.17,1.04-3.22.22-1.57,1.39-2.38,2.84-2.12,1.04-1.03,2.4-1.01,3.48.02,1.52-.29,2.64.55,2.86,2.02.4.22,1.11.67,1.34,1.59.14.57.06,1.16-.25,1.75.66,1.28.23,2.7-1.1,3.35-.14.77-.57,1.56-1.27,1.87-.81.36-1.56.14-1.56.14-1.07,1.07-2.48,1.1-3.5,0Z"/><path class="cls-38" d="M3.99,15.92c-1.48.29-2.51-.58-2.72-1.98C0,13.3-.5,12.03.26,10.7c-.33-.78-.54-2.09,1-3.1.21-1.52,1.34-2.3,2.74-2.05,1.01-.99,2.32-.97,3.36.02,1.47-.28,2.55.53,2.76,1.95.38.22,1.07.64,1.29,1.53.14.55.06,1.12-.24,1.69.64,1.23.22,2.6-1.06,3.23-.14.75-.55,1.51-1.23,1.81-.79.35-1.51.14-1.51.14-1.03,1.03-2.4,1.06-3.38,0Z"/><path class="cls-119" d="M4.06,15.74c-1.43.28-2.42-.56-2.62-1.9-1.23-.62-1.71-1.85-.98-3.13-.32-.75-.53-2.02.96-2.99.2-1.46,1.29-2.21,2.64-1.98.97-.96,2.24-.94,3.24.02,1.42-.27,2.45.51,2.66,1.88.37.21,1.03.62,1.25,1.48.13.53.05,1.08-.24,1.63.62,1.19.22,2.51-1.03,3.12-.13.72-.53,1.45-1.18,1.74-.76.33-1.45.13-1.45.13-.99,1-2.31,1.02-3.26,0Z"/><path class="cls-99" d="M4.13,15.56c-1.38.27-2.33-.54-2.52-1.83-1.18-.6-1.64-1.78-.94-3.01-.3-.72-.51-1.94.93-2.88.19-1.41,1.24-2.13,2.54-1.9.94-.92,2.16-.9,3.12.02,1.37-.26,2.36.49,2.56,1.81.36.2.99.6,1.2,1.43.13.51.05,1.04-.23,1.57.59,1.14.21,2.42-.99,3-.13.69-.51,1.4-1.14,1.68-.73.32-1.4.13-1.4.13-.96.96-2.22.98-3.14,0Z"/><path class="cls-120" d="M4.2,15.38c-1.32.26-2.24-.52-2.42-1.76-1.14-.57-1.58-1.71-.91-2.9-.29-.7-.49-1.87.89-2.77.19-1.36,1.19-2.05,2.45-1.83.9-.89,2.07-.87,3,.02,1.31-.25,2.27.47,2.46,1.74.34.19.96.57,1.15,1.37.12.49.05,1-.22,1.51.57,1.1.2,2.33-.95,2.89-.12.67-.49,1.35-1.09,1.61-.7.31-1.35.12-1.35.12-.92.92-2.14.95-3.02,0Z"/><path class="cls-87" d="M4.28,15.2c-1.27.25-2.15-.5-2.33-1.69-1.09-.55-1.52-1.64-.87-2.78-.28-.67-.47-1.79.86-2.66.18-1.3,1.15-1.97,2.35-1.76.86-.85,1.99-.83,2.88.02,1.26-.24,2.18.45,2.36,1.67.33.19.92.55,1.11,1.32.12.48.05.96-.21,1.45.55,1.06.19,2.23-.91,2.77-.12.64-.47,1.29-1.05,1.55-.67.3-1.29.12-1.29.12-.88.89-2.05.91-2.9,0Z"/><path class="cls-8" d="M4.29,15.13c-1.25.24-2.12-.49-2.29-1.67-1.07-.54-1.49-1.62-.86-2.74-.28-.66-.46-1.77.84-2.62.18-1.28,1.13-1.94,2.31-1.73.85-.84,1.96-.82,2.84.02,1.24-.23,2.15.45,2.33,1.65.32.18.9.54,1.09,1.29.12.47.05.95-.21,1.42.54,1.04.19,2.2-.9,2.73-.12.63-.46,1.27-1.03,1.52-.66.29-1.27.12-1.27.12-.87.87-2.02.89-2.85,0Z"/><path class="cls-65" d="M4.31,15.05c-1.23.24-2.09-.48-2.25-1.64-1.06-.53-1.47-1.59-.84-2.69-.27-.65-.45-1.74.83-2.58.17-1.26,1.11-1.91,2.27-1.7.84-.82,1.93-.81,2.79.02,1.22-.23,2.11.44,2.29,1.62.32.18.89.53,1.07,1.27.11.46.05.93-.2,1.4.53,1.02.19,2.16-.88,2.68-.11.62-.46,1.25-1.02,1.5-.65.29-1.25.11-1.25.11-.86.86-1.99.88-2.8,0Z"/><path class="cls-45" d="M4.33,14.98c-1.21.24-2.05-.47-2.22-1.61-1.04-.52-1.45-1.57-.83-2.65-.27-.64-.44-1.71.82-2.53.17-1.24,1.09-1.88,2.24-1.67.82-.81,1.9-.79,2.74.02,1.2-.23,2.08.43,2.25,1.59.31.18.87.52,1.05,1.25.11.45.05.92-.2,1.38.52,1.01.18,2.13-.87,2.64-.11.61-.45,1.23-1,1.47-.64.28-1.23.11-1.23.11-.84.84-1.96.86-2.76,0Z"/><path class="cls-91" d="M4.34,14.91c-1.19.23-2.02-.47-2.18-1.59-1.02-.52-1.42-1.54-.81-2.6-.26-.63-.44-1.68.8-2.49.17-1.22,1.07-1.84,2.2-1.64.81-.8,1.86-.78,2.7.02,1.18-.22,2.04.42,2.21,1.57.31.17.86.52,1.04,1.23.11.45.04.9-.2,1.36.51.99.18,2.09-.85,2.6-.11.6-.44,1.21-.98,1.45-.63.28-1.21.11-1.21.11-.83.83-1.92.85-2.71,0Z"/><path class="cls-67" d="M4.36,14.84c-1.17.23-1.98-.46-2.14-1.56-1.01-.51-1.4-1.51-.8-2.56-.26-.61-.43-1.65.79-2.45.16-1.2,1.06-1.81,2.16-1.62.8-.78,1.83-.77,2.65.02,1.16-.22,2.01.42,2.18,1.54.3.17.84.51,1.02,1.21.11.44.04.89-.19,1.33.5.97.18,2.06-.84,2.55-.11.59-.43,1.19-.97,1.43-.62.27-1.19.11-1.19.11-.81.82-1.89.84-2.67,0Z"/><path class="cls-70" d="M4.38,14.77c-1.15.22-1.95-.45-2.11-1.53-.99-.5-1.37-1.49-.79-2.52-.25-.6-.42-1.62.78-2.41.16-1.18,1.04-1.78,2.13-1.59.78-.77,1.8-.76,2.61.02,1.14-.21,1.97.41,2.14,1.51.3.17.83.5,1,1.19.11.43.04.87-.19,1.31.5.96.17,2.02-.83,2.51-.11.58-.43,1.17-.95,1.4-.61.27-1.17.11-1.17.11-.8.8-1.86.82-2.62,0Z"/><path class="cls-41" d="M4.4,14.7c-1.13.22-1.92-.44-2.07-1.51-.97-.49-1.35-1.46-.77-2.47-.25-.59-.42-1.6.76-2.37.16-1.16,1.02-1.75,2.09-1.56.77-.76,1.77-.74,2.56.02,1.12-.21,1.94.4,2.1,1.49.29.16.82.49.98,1.17.11.42.04.85-.19,1.29.49.94.17,1.99-.81,2.47-.1.57-.42,1.15-.93,1.38-.6.26-1.15.11-1.15.11-.79.79-1.83.81-2.58,0Z"/><path class="cls-112" d="M4.41,14.62c-1.11.22-1.88-.43-2.03-1.48-.95-.48-1.33-1.44-.76-2.43-.25-.58-.41-1.57.75-2.32.16-1.14,1-1.72,2.05-1.53.76-.74,1.74-.73,2.52.02,1.1-.21,1.91.4,2.06,1.46.29.16.8.48.97,1.15.1.42.04.84-.18,1.26.48.92.17,1.95-.8,2.42-.1.56-.41,1.13-.92,1.35-.59.26-1.13.1-1.13.1-.77.77-1.79.79-2.53,0Z"/><path class="cls-56" d="M4.43,14.55c-1.09.21-1.85-.43-2-1.45-.94-.47-1.3-1.41-.75-2.39-.24-.57-.4-1.54.74-2.28.15-1.12.98-1.69,2.02-1.51.74-.73,1.71-.72,2.47.01,1.08-.2,1.87.39,2.03,1.44.28.16.79.47.95,1.13.1.41.04.82-.18,1.24.47.91.16,1.91-.78,2.38-.1.55-.4,1.11-.9,1.33-.58.25-1.11.1-1.11.1-.76.76-1.76.78-2.48,0Z"/><path class="cls-19" d="M4.45,14.48c-1.07.21-1.81-.42-1.96-1.43-.92-.46-1.28-1.39-.73-2.34-.24-.56-.39-1.51.72-2.24.15-1.1.97-1.66,1.98-1.48.73-.72,1.68-.7,2.43.01,1.06-.2,1.84.38,1.99,1.41.28.16.77.46.93,1.11.1.4.04.81-.18,1.22.46.89.16,1.88-.77,2.33-.1.54-.4,1.09-.89,1.3-.57.25-1.09.1-1.09.1-.74.75-1.73.76-2.44,0Z"/><path class="cls-42" d="M4.47,14.41c-1.05.21-1.78-.41-1.92-1.4-.9-.46-1.25-1.36-.72-2.3-.23-.55-.39-1.48.71-2.2.15-1.08.95-1.63,1.94-1.45.71-.7,1.64-.69,2.38.01,1.04-.2,1.8.37,1.95,1.38.27.15.76.46.91,1.09.1.39.04.79-.17,1.2.45.87.16,1.84-.75,2.29-.1.53-.39,1.07-.87,1.28-.56.25-1.07.1-1.07.1-.73.73-1.7.75-2.39,0Z"/><path class="cls-7" d="M4.48,14.34c-1.03.2-1.75-.4-1.89-1.37-.88-.45-1.23-1.33-.7-2.25-.23-.54-.38-1.45.69-2.16.14-1.05.93-1.6,1.9-1.42.7-.69,1.61-.68,2.34.01,1.02-.19,1.77.37,1.92,1.36.27.15.74.45.9,1.07.1.39.04.78-.17,1.17.44.86.16,1.81-.74,2.25-.1.52-.38,1.05-.85,1.26-.55.24-1.05.1-1.05.1-.72.72-1.66.74-2.35,0Z"/><path class="cls-106" d="M4.5,14.27c-1.01.2-1.71-.39-1.85-1.35-.87-.44-1.21-1.31-.69-2.21-.22-.53-.37-1.43.68-2.11.14-1.03.91-1.56,1.87-1.4.69-.68,1.58-.66,2.29.01,1-.19,1.73.36,1.88,1.33.26.15.73.44.88,1.05.09.38.04.76-.17,1.15.44.84.15,1.77-.72,2.2-.09.51-.37,1.03-.84,1.23-.54.24-1.03.09-1.03.09-.7.7-1.63.72-2.3,0Z"/><path class="cls-80" d="M4.52,14.19c-.99.19-1.68-.39-1.81-1.32-.85-.43-1.18-1.28-.68-2.17-.22-.52-.36-1.4.67-2.07.14-1.01.89-1.53,1.83-1.37.67-.66,1.55-.65,2.24.01.98-.18,1.7.35,1.84,1.3.26.14.71.43.86,1.02.09.37.04.75-.16,1.13.43.82.15,1.74-.71,2.16-.09.5-.37,1.01-.82,1.21-.53.23-1.01.09-1.01.09-.69.69-1.6.71-2.26,0Z"/><path class="cls-44" d="M4.53,14.12c-.97.19-1.64-.38-1.78-1.29-.83-.42-1.16-1.26-.66-2.12-.21-.51-.36-1.37.65-2.03.14-.99.87-1.5,1.79-1.34.66-.65,1.52-.64,2.2.01.96-.18,1.67.35,1.8,1.28.25.14.7.42.85,1,.09.36.04.73-.16,1.1.42.81.15,1.7-.7,2.12-.09.49-.36.99-.8,1.18-.51.23-.99.09-.99.09-.67.68-1.57.69-2.21,0Z"/><path class="cls-78" d="M4.55,14.05c-.95.19-1.61-.37-1.74-1.27-.82-.41-1.13-1.23-.65-2.08-.21-.5-.35-1.34.64-1.99.13-.97.86-1.47,1.76-1.31.65-.64,1.49-.62,2.15.01.94-.18,1.63.34,1.77,1.25.25.14.69.41.83.98.09.36.04.72-.16,1.08.41.79.14,1.67-.68,2.07-.09.48-.35.97-.79,1.16-.5.22-.97.09-.97.09-.66.66-1.53.68-2.16,0Z"/><path class="cls-122" d="M4.57,13.98c-.93.18-1.58-.36-1.7-1.24-.8-.4-1.11-1.2-.64-2.03-.21-.49-.34-1.31.63-1.95.13-.95.84-1.44,1.72-1.28.63-.62,1.46-.61,2.11.01.92-.17,1.6.33,1.73,1.22.24.14.67.4.81.96.09.35.03.7-.15,1.06.4.77.14,1.63-.67,2.03-.09.47-.35.95-.77,1.13-.49.22-.95.09-.95.09-.65.65-1.5.66-2.12,0Z"/><path class="cls-43" d="M4.59,13.91c-.91.18-1.54-.36-1.67-1.21-.78-.39-1.09-1.18-.62-1.99-.2-.48-.33-1.28.61-1.91.13-.93.82-1.41,1.68-1.26.62-.61,1.42-.6,2.06.01.9-.17,1.56.32,1.69,1.2.24.13.66.39.79.94.08.34.03.69-.15,1.04.39.76.14,1.6-.65,1.98-.08.46-.34.93-.75,1.11-.48.21-.93.08-.93.08-.63.63-1.47.65-2.07,0Z"/><path class="cls-22" d="M4.6,13.84c-.89.17-1.51-.35-1.63-1.19-.76-.39-1.06-1.15-.61-1.95-.2-.47-.33-1.26.6-1.86.13-.91.8-1.38,1.64-1.23.6-.59,1.39-.58,2.02.01.88-.17,1.53.32,1.65,1.17.23.13.64.39.78.92.08.33.03.67-.15,1.01.38.74.13,1.56-.64,1.94-.08.45-.33.91-.74,1.08-.47.21-.91.08-.91.08-.62.62-1.44.64-2.03,0Z"/><path class="cls-36" d="M4.62,13.76c-.87.17-1.47-.34-1.59-1.16-.75-.38-1.04-1.13-.59-1.9-.19-.46-.32-1.23.59-1.82.12-.89.78-1.35,1.61-1.2.59-.58,1.36-.57,1.97.01.86-.16,1.49.31,1.62,1.15.23.13.63.38.76.9.08.33.03.66-.14.99.37.72.13,1.53-.62,1.9-.08.44-.32.89-.72,1.06-.46.2-.88.08-.88.08-.61.61-1.41.62-1.98,0Z"/><path class="cls-116" d="M4.64,13.69c-.85.17-1.44-.33-1.56-1.13-.73-.37-1.01-1.1-.58-1.86-.19-.45-.31-1.2.57-1.78.12-.87.77-1.32,1.57-1.17.58-.57,1.33-.56,1.93.01.84-.16,1.46.3,1.58,1.12.22.12.61.37.74.88.08.32.03.64-.14.97.37.71.13,1.49-.61,1.85-.08.43-.32.86-.7,1.04-.45.2-.86.08-.86.08-.59.59-1.37.61-1.94,0Z"/><path class="cls-55" d="M4.66,13.62c-.83.16-1.41-.32-1.52-1.11-.71-.36-.99-1.07-.57-1.82-.18-.44-.3-1.17.56-1.74.12-.85.75-1.28,1.53-1.15.56-.55,1.3-.54,1.88.01.82-.15,1.42.3,1.54,1.09.22.12.6.36.72.86.08.31.03.63-.14.94.36.69.13,1.46-.6,1.81-.08.42-.31.84-.69,1.01-.44.19-.84.08-.84.08-.58.58-1.34.59-1.89,0Z"/><path class="cls-62" d="M4.67,13.55c-.81.16-1.37-.32-1.48-1.08-.7-.35-.97-1.05-.55-1.77-.18-.43-.3-1.14.55-1.7.11-.83.73-1.25,1.5-1.12.55-.54,1.27-.53,1.84.01.8-.15,1.39.29,1.51,1.07.21.12.58.35.71.84.08.3.03.61-.13.92.35.67.12,1.42-.58,1.77-.08.41-.3.82-.67.99-.43.19-.82.08-.82.08-.56.56-1.31.58-1.84,0Z"/><path class="cls-108" d="M4.69,13.48c-.79.15-1.34-.31-1.45-1.05-.68-.34-.94-1.02-.54-1.73-.17-.41-.29-1.11.53-1.65.11-.81.71-1.22,1.46-1.09.54-.53,1.24-.52,1.79.01.78-.15,1.36.28,1.47,1.04.2.12.57.34.69.82.07.3.03.6-.13.9.34.66.12,1.39-.57,1.72-.07.4-.29.8-.65.96-.42.18-.8.07-.8.07-.55.55-1.28.56-1.8,0Z"/><path class="cls-98" d="M4.71,13.41c-.77.15-1.3-.3-1.41-1.02-.66-.33-.92-1-.53-1.68-.17-.4-.28-1.09.52-1.61.11-.79.69-1.19,1.42-1.06.52-.51,1.2-.51,1.74.01.76-.14,1.32.27,1.43,1.01.2.11.56.33.67.8.07.29.03.58-.13.88.33.64.12,1.35-.55,1.68-.07.39-.29.78-.64.94-.41.18-.78.07-.78.07-.54.54-1.24.55-1.75,0Z"/><path class="cls-61" d="M4.72,13.33c-.75.15-1.27-.29-1.37-1-.64-.33-.89-.97-.51-1.64-.17-.39-.28-1.06.51-1.57.11-.77.68-1.16,1.39-1.04.51-.5,1.17-.49,1.7.01.74-.14,1.29.27,1.39.99.19.11.54.32.65.78.07.28.03.57-.12.85.32.62.11,1.32-.54,1.63-.07.38-.28.76-.62.91-.4.18-.76.07-.76.07-.52.52-1.21.54-1.71,0Z"/><path class="cls-102" d="M4.74,13.26c-.73.14-1.24-.28-1.34-.97-.63-.32-.87-.94-.5-1.6-.16-.38-.27-1.03.49-1.53.1-.75.66-1.13,1.35-1.01.5-.49,1.14-.48,1.65.01.72-.14,1.25.26,1.36.96.19.11.53.32.64.75.07.27.03.55-.12.83.31.61.11,1.28-.52,1.59-.07.37-.27.74-.6.89-.39.17-.74.07-.74.07-.51.51-1.18.52-1.66,0Z"/><path class="cls-64" d="M4.76,13.19c-.71.14-1.2-.28-1.3-.94-.61-.31-.85-.92-.48-1.55-.16-.37-.26-1,.48-1.49.1-.73.64-1.1,1.31-.98.48-.47,1.11-.47,1.61,0,.7-.13,1.22.25,1.32.93.18.1.51.31.62.73.07.27.03.54-.12.81.31.59.11,1.25-.51,1.55-.07.36-.26.72-.59.86-.38.17-.72.07-.72.07-.49.49-1.15.51-1.62,0Z"/><path class="cls-63" d="M4.78,13.12c-.69.13-1.17-.27-1.26-.92-.59-.3-.82-.89-.47-1.51-.15-.36-.25-.97.46-1.44.1-.71.62-1.07,1.27-.95.47-.46,1.08-.45,1.56,0,.68-.13,1.18.25,1.28.91.18.1.5.3.6.71.06.26.03.52-.11.78.3.57.1,1.21-.49,1.5-.06.35-.26.7-.57.84-.37.16-.7.06-.7.06-.48.48-1.11.49-1.57,0Z"/><path class="cls-117" d="M4.79,13.05c-.67.13-1.13-.26-1.23-.89-.57-.29-.8-.87-.46-1.46-.15-.35-.25-.94.45-1.4.09-.69.6-1.04,1.24-.92.45-.45,1.05-.44,1.52,0,.66-.12,1.15.24,1.24.88.17.1.48.29.58.69.06.25.03.51-.11.76.29.56.1,1.18-.48,1.46-.06.34-.25.68-.55.82-.36.16-.68.06-.68.06-.47.47-1.08.48-1.52,0Z"/><path class="cls-54" d="M4.81,12.98c-.65.13-1.1-.25-1.19-.86-.56-.28-.78-.84-.44-1.42-.14-.34-.24-.92.44-1.36.09-.66.59-1.01,1.2-.9.44-.43,1.02-.43,1.47,0,.64-.12,1.11.23,1.21.85.17.09.47.28.57.67.06.24.02.49-.11.74.28.54.1,1.14-.47,1.42-.06.33-.24.66-.54.79-.34.15-.66.06-.66.06-.45.45-1.05.46-1.48,0Z"/><path class="cls-26" d="M4.83,12.9c-.63.12-1.07-.25-1.15-.84-.54-.27-.75-.81-.43-1.38-.14-.33-.23-.89.42-1.32.09-.64.57-.97,1.16-.87.43-.42.98-.41,1.43,0,.62-.12,1.08.22,1.17.83.16.09.45.27.55.65.06.24.02.48-.1.72.27.52.1,1.1-.45,1.37-.06.32-.23.64-.52.77-.33.15-.64.06-.64.06-.44.44-1.02.45-1.43,0Z"/><path class="cls-60" d="M4.85,12.83c-.61.12-1.03-.24-1.12-.81-.52-.26-.73-.79-.42-1.33-.13-.32-.22-.86.41-1.28.09-.62.55-.94,1.13-.84.41-.41.95-.4,1.38,0,.6-.11,1.05.22,1.13.8.16.09.44.26.53.63.06.23.02.46-.1.69.26.51.09,1.07-.44,1.33-.06.31-.23.62-.5.74-.32.14-.62.06-.62.06-.42.43-.98.43-1.39,0Z"/><path class="cls-17" d="M4.86,12.76c-.59.12-1-.23-1.08-.78-.51-.26-.7-.76-.4-1.29-.13-.31-.22-.83.4-1.23.08-.6.53-.91,1.09-.81.4-.39.92-.39,1.34,0,.58-.11,1.01.21,1.09.78.15.09.42.26.51.61.05.22.02.45-.1.67.25.49.09,1.03-.42,1.28-.05.3-.22.6-.49.72-.31.14-.6.05-.6.05-.41.41-.95.42-1.34,0Z"/></g></g><circle class="cls-48" cx="7.11" cy="7.49" r="5.08"/><path class="cls-11" d="M7.96,1.47h-1.69c-.19,0-.35-.25-.24-.37l.95-.93c.08-.09.21-.09.29,0l.85.99c.1.12.02.31-.14.31Z"/><path class="cls-89" d="M6.27,13.5l1.61-.1c.3.05.27.28.17.4l-.8.97c-.08.09-.19.12-.27.04l-.85-.99c-.1-.12-.02-.31.14-.31Z"/><path class="cls-109" d="M4.26,2.12l-1.37.99c-.13.09-.37.07-.38-.27l.18-1.2c0-.12.12-.2.23-.17l1.18.2c.26.07.28.34.15.44Z"/><path class="cls-76" d="M9.86,12.81l1.45-1.07c.19-.09.34.08.32.29l-.1,1.3c0,.12-.12.2-.23.17l-1.27-.31c-.18-.03-.31-.28-.18-.37Z"/><path class="cls-96" d="M1.65,4.82l-.52,1.61c-.05.15-.28.22-.42-.06L.11,5.36c-.06-.1-.02-.23.09-.27l1.12-.6c.28-.08.38.18.33.33Z"/><path class="cls-83" d="M12.49,10.05l.6-1.62c.05-.15.22-.14.3,0l.72,1.19c.06.1.02.23-.09.27l-1.21.45c-.15.06-.39.02-.32-.29Z"/><path class="cls-93" d="M1.13,8.54l.52,1.61c.05.15-.1.29-.25.23l-1.23-.53c-.17-.06-.2-.24-.14-.34l.68-1.11c.23-.2.37,0,.42.14Z"/><path class="cls-5" d="M13.02,6.33l-.44-1.51c-.05-.15.1-.29.25-.23l1.12.39c.23.11.21.23.14.33l-.68,1.11c-.08.14-.28.22-.4-.1Z"/><path class="cls-2" d="M2.89,11.86l1.29.89c.19.13.14.38-.02.42l-1.24.28c-.11.03-.27.06-.31-.23l-.02-1.2c-.01-.16.17-.26.3-.17Z"/><path class="cls-12" d="M11.34,3.12l-1.45-1.1c-.13-.09,0-.2.15-.23l1.18-.41c.25-.03.29.13.31.27l.1,1.3c.01.16-.17.26-.3.17Z"/><ellipse class="cls-47" cx="7.11" cy="7.4" rx="5.08" ry="4.99"/><g class="cls-124"><ellipse class="cls-15" cx="7.11" cy="7.4" rx="5.08" ry="4.99"/><path class="cls-34" d="M12.1,7.45c0,2.73-2.25,4.93-5.02,4.93s-5.02-2.21-5.02-4.93S4.31,2.52,7.08,2.52s5.02,2.21,5.02,4.93Z"/><ellipse class="cls-14" cx="7.05" cy="7.51" rx="4.95" ry="4.88"/><ellipse class="cls-20" cx="7.02" cy="7.57" rx="4.89" ry="4.83"/><ellipse class="cls-1" cx="6.99" cy="7.62" rx="4.83" ry="4.77"/><ellipse class="cls-121" cx="6.96" cy="7.68" rx="4.76" ry="4.72"/><ellipse class="cls-111" cx="6.93" cy="7.74" rx="4.7" ry="4.66"/><ellipse class="cls-92" cx="6.9" cy="7.79" rx="4.64" ry="4.61"/><ellipse class="cls-53" cx="6.87" cy="7.85" rx="4.58" ry="4.56"/><ellipse class="cls-104" cx="6.84" cy="7.9" rx="4.51" ry="4.5"/><path class="cls-107" d="M11.26,7.96c0,2.46-1.99,4.45-4.45,4.45s-4.45-1.99-4.45-4.45,1.99-4.45,4.45-4.45,4.45,1.99,4.45,4.45Z"/><ellipse class="cls-73" cx="6.78" cy="8.02" rx="4.39" ry="4.4"/></g><path class="cls-84" d="M7.88,1.37h-1.69c-.16,0-.25-.19-.14-.31l.85-.99c.08-.09.21-.09.29,0l.85.99c.1.12.02.31-.14.31Z"/><path class="cls-115" d="M6.19,13.4h1.69c.16,0,.25.19.14.31l-.85.99c-.08.09-.21.09-.29,0l-.85-.99c-.1-.12-.02-.31.14-.31Z"/><path class="cls-33" d="M4.18,2.02l-1.37.99c-.13.09-.31,0-.3-.17l.1-1.3c0-.12.12-.2.23-.17l1.27.31c.16.04.2.24.07.34Z"/><path class="cls-105" d="M9.88,12.75l1.37-.99c.13-.09.31,0,.3.17l-.1,1.3c0,.12-.12.2-.23.17l-1.27-.31c-.16-.04-.2-.24-.07-.34Z"/><path class="cls-82" d="M1.57,4.72l-.52,1.61c-.05.15-.26.18-.34.04L.03,5.26c-.06-.1-.02-.23.09-.27l1.2-.5c.15-.06.3.08.25.23Z"/><path class="cls-118" d="M12.49,10.05l.52-1.61c.05-.15.26-.18.34-.04l.68,1.11c.06.1.02.23-.09.27l-1.2.5c-.15.06-.3-.08-.25-.23Z"/><path class="cls-86" d="M1.05,8.44l.52,1.61c.05.15-.1.29-.25.23l-1.2-.5c-.11-.04-.15-.17-.09-.27l.68-1.11c.08-.14.29-.11.34.04Z"/><path class="cls-68" d="M13.02,6.33l-.52-1.61c-.05-.15.1-.29.25-.23l1.2.5c.11.04.15.17.09.27l-.68,1.11c-.08.14-.29.11-.34-.04Z"/><path class="cls-79" d="M2.81,11.75l1.37.99c.13.09.09.3-.07.34l-1.27.31c-.11.03-.22-.05-.23-.17l-.1-1.3c-.01-.16.17-.26.3-.17Z"/><path class="cls-90" d="M11.25,3.01l-1.37-.99c-.13-.09-.09-.3.07-.34l1.27-.31c.11-.03.22.05.23.17l.1,1.3c.01.16-.17.26-.3.17Z"/><g class="cls-124"><path class="cls-50" d="M7.88,1.37h-1.69c-.16,0-.25-.19-.14-.31l.85-.99c.08-.09.21-.09.29,0l.85.99c.1.12.02.31-.14.31Z"/><path class="cls-113" d="M7.87,1.37h-1.68c-.16,0-.25-.19-.14-.31l.84-.98c.07-.09.21-.09.29,0l.84.98c.1.12.02.31-.14.31Z"/><path class="cls-88" d="M7.86,1.37h-1.68c-.16,0-.25-.18-.14-.3l.84-.97c.07-.09.21-.09.28,0l.84.97c.1.12.02.3-.14.3Z"/><path class="cls-71" d="M7.85,1.37h-1.67c-.16,0-.24-.18-.14-.3l.83-.96c.07-.09.21-.09.28,0l.83.96c.1.12.02.3-.14.3Z"/><path class="cls-35" d="M7.85,1.37h-1.66c-.16,0-.24-.18-.14-.3l.83-.95c.07-.08.21-.08.28,0l.83.95c.1.12.02.3-.14.3Z"/><path class="cls-85" d="M7.84,1.37h-1.65c-.16,0-.24-.18-.14-.29l.83-.93c.07-.08.21-.08.28,0l.83.93c.1.12.02.29-.14.29Z"/><path class="cls-100" d="M7.83,1.37h-1.65c-.16,0-.24-.18-.14-.29l.82-.92c.07-.08.21-.08.28,0l.82.92c.1.11.02.29-.14.29Z"/><path class="cls-28" d="M7.82,1.37h-1.64c-.16,0-.24-.17-.14-.29l.82-.91c.07-.08.2-.08.28,0l.82.91c.1.11.02.29-.14.29Z"/><path class="cls-27" d="M7.81,1.37h-1.63c-.15,0-.24-.17-.14-.28l.82-.9c.07-.08.2-.08.28,0l.82.9c.1.11.02.28-.14.28Z"/><path class="cls-97" d="M7.8,1.37h-1.62c-.15,0-.24-.17-.14-.28l.81-.89c.07-.08.2-.08.28,0l.81.89c.1.11.02.28-.14.28Z"/><path class="cls-25" d="M7.8,1.37h-1.62c-.15,0-.24-.17-.14-.27l.81-.88c.07-.08.2-.08.27,0l.81.88c.1.11.02.27-.14.27Z"/><path class="cls-31" d="M7.79,1.37h-1.61c-.15,0-.24-.16-.14-.27l.8-.86c.07-.08.2-.08.27,0l.8.86c.1.11.02.27-.14.27Z"/></g><g class="cls-124"><path class="cls-50" d="M6.19,13.4h1.69c.16,0,.25.19.14.31l-.85.99c-.08.09-.21.09-.29,0l-.85-.99c-.1-.12-.02-.31.14-.31Z"/><path class="cls-113" d="M6.19,13.41h1.68c.16,0,.25.19.14.31l-.84.98c-.07.09-.21.09-.29,0l-.84-.98c-.1-.12-.02-.31.14-.31Z"/><path class="cls-88" d="M6.19,13.41h1.68c.16,0,.25.18.14.3l-.84.97c-.07.09-.21.09-.28,0l-.84-.97c-.1-.12-.02-.3.14-.3Z"/><path class="cls-71" d="M6.19,13.42h1.67c.16,0,.24.18.14.3l-.83.96c-.07.09-.21.09-.28,0l-.83-.96c-.1-.12-.02-.3.14-.3Z"/><path class="cls-35" d="M6.19,13.43h1.66c.16,0,.24.18.14.3l-.83.95c-.07.08-.21.08-.28,0l-.83-.95c-.1-.12-.02-.3.14-.3Z"/><path class="cls-85" d="M6.19,13.43h1.65c.16,0,.24.18.14.29l-.83.94c-.07.08-.21.08-.28,0l-.83-.94c-.1-.12-.02-.29.14-.29Z"/><path class="cls-100" d="M6.19,13.44h1.65c.16,0,.24.18.14.29l-.82.93c-.07.08-.21.08-.28,0l-.82-.93c-.1-.11-.02-.29.14-.29Z"/><path class="cls-28" d="M6.19,13.45h1.64c.16,0,.24.17.14.29l-.82.91c-.07.08-.2.08-.28,0l-.82-.91c-.1-.11-.02-.29.14-.29Z"/><path class="cls-27" d="M6.19,13.45h1.63c.16,0,.24.17.14.28l-.82.9c-.07.08-.2.08-.28,0l-.82-.9c-.1-.11-.02-.28.14-.28Z"/><path class="cls-97" d="M6.19,13.46h1.62c.15,0,.24.17.14.28l-.81.89c-.07.08-.2.08-.28,0l-.81-.89c-.1-.11-.02-.28.14-.28Z"/><path class="cls-25" d="M6.19,13.47h1.62c.15,0,.24.17.14.28l-.81.88c-.07.08-.2.08-.27,0l-.81-.88c-.1-.11-.02-.28.14-.28Z"/><path class="cls-31" d="M6.19,13.47h1.61c.15,0,.24.17.14.27l-.8.87c-.07.08-.2.08-.27,0l-.8-.87c-.1-.11-.02-.27.14-.27Z"/></g><g class="cls-124"><path class="cls-50" d="M11.25,3.01l-1.37-.99c-.13-.09-.09-.3.07-.34l1.27-.31c.11-.03.22.05.23.17l.1,1.3c.01.16-.17.26-.3.17Z"/><path class="cls-113" d="M11.25,3.01l-1.36-.99c-.13-.09-.09-.3.06-.33l1.26-.3c.11-.03.22.05.23.17l.11,1.29c.01.16-.17.26-.3.16Z"/><path class="cls-88" d="M11.25,3.01l-1.36-.99c-.13-.09-.09-.29.06-.33l1.25-.29c.11-.03.22.05.23.17l.11,1.28c.01.16-.16.26-.29.16Z"/><path class="cls-71" d="M11.25,3.01l-1.35-.98c-.13-.09-.09-.29.06-.33l1.24-.28c.11-.03.22.05.23.17l.11,1.26c.01.16-.16.25-.29.16Z"/><path class="cls-35" d="M11.25,3.01l-1.34-.98c-.13-.09-.09-.29.06-.32l1.23-.28c.11-.02.22.05.23.17l.12,1.25c.01.15-.16.25-.29.16Z"/><path class="cls-85" d="M11.25,3.01l-1.34-.97c-.13-.09-.09-.29.06-.32l1.22-.27c.11-.02.22.05.23.16l.12,1.24c.01.15-.16.25-.29.15Z"/><path class="cls-100" d="M11.25,3.01l-1.33-.97c-.13-.09-.09-.28.06-.32l1.21-.26c.11-.02.21.05.23.16l.12,1.23c.02.15-.16.24-.28.15Z"/><path class="cls-28" d="M11.25,3.01l-1.33-.96c-.13-.09-.09-.28.06-.31l1.2-.26c.11-.02.21.05.22.16l.13,1.22c.02.15-.15.24-.28.15Z"/><path class="cls-27" d="M11.25,3.01l-1.32-.96c-.13-.09-.09-.28.05-.31l1.19-.25c.11-.02.21.06.22.16l.13,1.21c.02.15-.15.24-.28.15Z"/><path class="cls-97" d="M11.25,3l-1.31-.95c-.12-.09-.09-.28.05-.31l1.18-.24c.1-.02.21.06.22.16l.14,1.2c.02.15-.15.23-.27.14Z"/><path class="cls-25" d="M11.25,3l-1.31-.95c-.12-.09-.09-.27.05-.3l1.17-.23c.1-.02.21.06.22.16l.14,1.18c.02.15-.15.23-.27.14Z"/><path class="cls-31" d="M11.25,3l-1.3-.95c-.12-.09-.09-.27.05-.3l1.16-.23c.1-.02.21.06.22.16l.14,1.17c.02.14-.15.23-.27.14Z"/></g><g class="cls-124"><path class="cls-50" d="M2.81,11.75l1.37.99c.13.09.09.3-.07.34l-1.27.31c-.11.03-.22-.05-.23-.17l-.1-1.3c-.01-.16.17-.26.3-.17Z"/><path class="cls-113" d="M2.81,11.77l1.36.99c.13.09.09.3-.07.33l-1.26.3c-.11.03-.22-.05-.23-.17l-.1-1.29c-.01-.16.17-.26.3-.16Z"/><path class="cls-88" d="M2.81,11.78l1.36.99c.13.09.09.29-.06.33l-1.25.29c-.11.03-.22-.05-.23-.17l-.11-1.28c-.01-.16.16-.26.29-.16Z"/><path class="cls-71" d="M2.8,11.79l1.35.98c.13.09.09.29-.06.33l-1.24.28c-.11.03-.22-.05-.23-.17l-.11-1.27c-.01-.16.16-.25.29-.16Z"/><path class="cls-35" d="M2.8,11.81l1.34.98c.13.09.09.29-.06.32l-1.23.28c-.11.02-.22-.05-.23-.17l-.12-1.25c-.01-.15.16-.25.29-.16Z"/><path class="cls-85" d="M2.8,11.82l1.34.97c.13.09.09.29-.06.32l-1.22.27c-.11.02-.22-.05-.23-.16l-.12-1.24c-.01-.15.16-.25.29-.15Z"/><path class="cls-100" d="M2.8,11.83l1.33.97c.13.09.09.28-.06.32l-1.21.26c-.11.02-.21-.05-.23-.16l-.12-1.23c-.01-.15.16-.24.28-.15Z"/><path class="cls-28" d="M2.79,11.84l1.33.96c.13.09.09.28-.06.31l-1.2.26c-.11.02-.21-.05-.22-.16l-.13-1.22c-.02-.15.15-.24.28-.15Z"/><path class="cls-27" d="M2.79,11.86l1.32.96c.13.09.09.28-.05.31l-1.19.25c-.11.02-.21-.05-.22-.16l-.13-1.21c-.02-.15.15-.24.28-.15Z"/><path class="cls-97" d="M2.79,11.87l1.31.95c.12.09.09.28-.05.31l-1.18.24c-.1.02-.21-.06-.22-.16l-.13-1.2c-.02-.15.15-.24.28-.15Z"/><path class="cls-25" d="M2.78,11.88l1.31.95c.12.09.09.27-.05.3l-1.17.24c-.1.02-.21-.06-.22-.16l-.14-1.19c-.02-.15.15-.23.27-.14Z"/><path class="cls-31" d="M2.78,11.89l1.3.95c.12.09.09.27-.05.3l-1.16.23c-.1.02-.21-.06-.22-.16l-.14-1.18c-.02-.15.15-.23.27-.14Z"/></g><g class="cls-124"><path class="cls-50" d="M13.02,6.33l-.52-1.61c-.05-.15.1-.29.25-.23l1.2.5c.11.04.15.17.09.27l-.68,1.11c-.08.14-.29.11-.34-.04Z"/><path class="cls-113" d="M13.02,6.33l-.52-1.6c-.05-.15.1-.29.25-.23l1.19.5c.11.04.15.17.09.27l-.67,1.1c-.08.14-.29.11-.34-.04Z"/><path class="cls-88" d="M13.02,6.33l-.52-1.59c-.05-.15.1-.29.24-.23l1.18.5c.1.04.15.17.09.27l-.66,1.1c-.08.14-.28.11-.33-.04Z"/><path class="cls-71" d="M13.02,6.34l-.52-1.59c-.05-.15.1-.29.24-.23l1.17.5c.1.04.15.17.09.27l-.65,1.09c-.08.13-.28.11-.33-.04Z"/><path class="cls-35" d="M13.02,6.34l-.51-1.58c-.05-.15.1-.29.24-.23l1.16.5c.1.04.14.17.09.27l-.64,1.08c-.08.13-.28.11-.33-.04Z"/><path class="cls-85" d="M13.02,6.34l-.51-1.57c-.05-.15.09-.29.23-.22l1.14.5c.1.04.14.17.09.27l-.63,1.08c-.08.13-.27.11-.32-.04Z"/><path class="cls-100" d="M13.02,6.34l-.51-1.57c-.05-.15.09-.28.23-.22l1.13.5c.1.04.14.17.09.27l-.62,1.07c-.08.13-.27.11-.32-.04Z"/><path class="cls-28" d="M13.02,6.34l-.51-1.56c-.05-.15.09-.28.23-.22l1.12.5c.1.04.14.17.09.26l-.61,1.06c-.08.13-.27.1-.31-.04Z"/><path class="cls-27" d="M13.03,6.35l-.5-1.55c-.05-.15.09-.28.23-.22l1.11.5c.1.04.14.17.09.26l-.6,1.05c-.07.13-.26.1-.31-.04Z"/><path class="cls-97" d="M13.03,6.35l-.5-1.54c-.05-.15.09-.28.22-.22l1.1.5c.1.04.14.17.08.26l-.59,1.05c-.07.13-.26.1-.31-.05Z"/><path class="cls-25" d="M13.03,6.35l-.5-1.54c-.05-.15.09-.28.22-.22l1.08.5c.1.04.14.17.08.26l-.58,1.04c-.07.13-.26.1-.3-.05Z"/><path class="cls-31" d="M13.03,6.35l-.5-1.53c-.05-.15.08-.27.22-.21l1.07.5c.1.04.14.17.08.26l-.57,1.03c-.07.13-.25.1-.3-.05Z"/></g><g class="cls-124"><path class="cls-50" d="M1.05,8.44l.52,1.61c.05.15-.1.29-.25.23l-1.2-.5c-.11-.04-.15-.17-.09-.27l.68-1.11c.08-.14.29-.11.34.04Z"/><path class="cls-113" d="M1.04,8.45l.52,1.6c.05.15-.1.29-.25.23l-1.19-.5c-.11-.04-.15-.17-.09-.27l.67-1.1c.08-.14.29-.11.34.04Z"/><path class="cls-88" d="M1.03,8.46l.52,1.59c.05.15-.1.29-.24.23l-1.18-.5c-.1-.04-.15-.17-.09-.27l.66-1.1c.08-.14.28-.11.33.04Z"/><path class="cls-71" d="M1.03,8.46l.52,1.59c.05.15-.1.29-.24.23l-1.17-.5c-.1-.04-.15-.17-.09-.27l.65-1.09c.08-.13.28-.11.33.04Z"/><path class="cls-35" d="M1.02,8.47l.51,1.58c.05.15-.1.29-.24.23l-1.16-.5c-.1-.04-.14-.17-.09-.27l.64-1.08c.08-.13.28-.11.33.04Z"/><path class="cls-85" d="M1.01,8.48l.51,1.57c.05.15-.09.29-.24.22l-1.15-.5c-.1-.04-.14-.17-.09-.27l.64-1.08c.08-.13.27-.11.32.04Z"/><path class="cls-100" d="M1,8.49l.51,1.57c.05.15-.09.28-.23.22l-1.13-.5c-.1-.04-.14-.17-.09-.27l.63-1.07c.08-.13.27-.11.32.04Z"/><path class="cls-28" d="M1,8.5l.51,1.56c.05.15-.09.28-.23.22l-1.12-.5c-.1-.04-.14-.17-.09-.26l.62-1.06c.08-.13.27-.1.32.04Z"/><path class="cls-27" d="M.99,8.5l.5,1.55c.05.15-.09.28-.23.22l-1.11-.5c-.1-.04-.14-.17-.09-.26l.61-1.06c.07-.13.26-.1.31.04Z"/><path class="cls-97" d="M.98,8.51l.5,1.54c.05.15-.09.28-.22.22l-1.1-.5c-.1-.04-.14-.17-.09-.26l.6-1.05c.07-.13.26-.1.31.04Z"/><path class="cls-25" d="M.97,8.52l.5,1.54c.05.15-.09.28-.22.22l-1.09-.5c-.1-.04-.14-.17-.08-.26l.59-1.04c.07-.13.26-.1.3.04Z"/><path class="cls-31" d="M.97,8.53l.5,1.53c.05.15-.08.28-.22.21l-1.08-.5c-.1-.04-.14-.17-.08-.26l.58-1.03c.07-.13.25-.1.3.05Z"/></g><g class="cls-124"><path class="cls-50" d="M12.49,10.05l.52-1.61c.05-.15.26-.18.34-.04l.68,1.11c.06.1.02.23-.09.27l-1.2.5c-.15.06-.3-.08-.25-.23Z"/><path class="cls-113" d="M12.49,10.05l.52-1.6c.05-.15.25-.18.34-.04l.67,1.1c.06.1.02.23-.09.27l-1.19.5c-.15.06-.3-.08-.25-.23Z"/><path class="cls-88" d="M12.49,10.05l.52-1.59c.05-.15.25-.18.33-.04l.66,1.1c.06.1.02.23-.09.27l-1.18.5c-.15.06-.29-.08-.24-.23Z"/><path class="cls-71" d="M12.49,10.05l.52-1.59c.05-.15.25-.18.33-.04l.65,1.09c.06.1.02.22-.09.27l-1.17.5c-.14.06-.29-.08-.24-.23Z"/><path class="cls-35" d="M12.49,10.06l.51-1.58c.05-.15.25-.18.33-.04l.64,1.08c.06.1.02.22-.09.27l-1.16.5c-.14.06-.29-.08-.24-.23Z"/><path class="cls-85" d="M12.49,10.06l.51-1.57c.05-.15.24-.18.32-.04l.63,1.08c.06.1.02.22-.09.27l-1.14.5c-.14.06-.28-.07-.23-.22Z"/><path class="cls-100" d="M12.49,10.06l.51-1.57c.05-.15.24-.18.32-.04l.62,1.07c.06.09.01.22-.09.27l-1.13.5c-.14.06-.28-.07-.23-.22Z"/><path class="cls-28" d="M12.49,10.06l.51-1.56c.05-.15.24-.17.31-.04l.61,1.06c.05.09.01.22-.09.26l-1.12.5c-.14.06-.28-.07-.23-.22Z"/><path class="cls-27" d="M12.49,10.06l.5-1.55c.05-.15.24-.17.31-.04l.6,1.05c.05.09.01.22-.09.26l-1.11.5c-.14.06-.27-.07-.23-.22Z"/><path class="cls-97" d="M12.49,10.07l.5-1.54c.05-.15.23-.17.31-.05l.59,1.05c.05.09.01.22-.09.26l-1.1.5c-.14.06-.27-.07-.22-.22Z"/><path class="cls-25" d="M12.49,10.07l.5-1.54c.05-.15.23-.17.3-.05l.58,1.04c.05.09.01.22-.08.26l-1.08.5c-.13.06-.27-.07-.22-.22Z"/><path class="cls-31" d="M12.49,10.07l.5-1.53c.05-.15.23-.17.3-.05l.57,1.03c.05.09.01.22-.08.26l-1.07.5c-.13.06-.26-.07-.22-.21Z"/></g><g class="cls-124"><path class="cls-50" d="M1.57,4.72l-.52,1.61c-.05.15-.26.18-.34.04L.03,5.26c-.06-.1-.02-.23.09-.27l1.2-.5c.15-.06.3.08.25.23Z"/><path class="cls-113" d="M1.56,4.73l-.52,1.6c-.05.15-.25.18-.34.04L.03,5.26c-.06-.1-.02-.23.09-.27l1.2-.49c.15-.06.3.08.25.23Z"/><path class="cls-88" d="M1.55,4.74l-.52,1.59c-.05.15-.25.17-.33.04L.03,5.27c-.06-.1-.02-.23.09-.27l1.19-.49c.15-.06.3.08.25.23Z"/><path class="cls-71" d="M1.54,4.74l-.51,1.58c-.05.15-.25.17-.33.04L.03,5.27c-.06-.1-.02-.22.09-.27l1.18-.49c.15-.06.29.08.25.23Z"/><path class="cls-35" d="M1.53,4.75l-.51,1.56c-.05.15-.25.17-.33.04L.03,5.27c-.06-.1-.02-.22.09-.27l1.17-.48c.14-.06.29.08.24.23Z"/><path class="cls-85" d="M1.52,4.76l-.5,1.55c-.05.15-.25.17-.33.04L.03,5.28c-.06-.1-.02-.22.09-.26l1.16-.48c.14-.06.29.08.24.22Z"/><path class="cls-100" d="M1.51,4.76l-.5,1.54c-.05.15-.24.17-.32.04L.04,5.28c-.06-.09-.02-.22.08-.26l1.15-.48c.14-.06.29.08.24.22Z"/><path class="cls-28" d="M1.5,4.77l-.5,1.53c-.05.15-.24.17-.32.04L.04,5.29c-.06-.09-.02-.22.08-.26l1.14-.48c.14-.06.28.08.24.22Z"/><path class="cls-27" d="M1.49,4.78l-.49,1.52c-.05.14-.24.17-.32.04L.04,5.29c-.06-.09-.02-.22.08-.26l1.13-.47c.14-.06.28.07.24.22Z"/><path class="cls-97" d="M1.48,4.79l-.49,1.51c-.05.14-.24.17-.32.04L.04,5.29c-.06-.09-.02-.21.08-.26l1.12-.47c.14-.06.28.07.23.22Z"/><path class="cls-25" d="M1.47,4.79l-.49,1.5c-.05.14-.24.17-.31.04L.04,5.3c-.06-.09-.02-.21.08-.25l1.11-.47c.14-.06.28.07.23.22Z"/><path class="cls-31" d="M1.46,4.8l-.48,1.49c-.05.14-.23.16-.31.04L.04,5.3c-.06-.09-.02-.21.08-.25l1.11-.46c.14-.06.28.07.23.21Z"/></g><g class="cls-124"><path class="cls-50" d="M9.88,12.75l1.37-.99c.13-.09.31,0,.3.17l-.1,1.3c0,.12-.12.2-.23.17l-1.27-.31c-.16-.04-.2-.24-.07-.34Z"/><path class="cls-113" d="M9.89,12.75l1.36-.99c.13-.09.31,0,.3.16l-.11,1.29c0,.11-.12.19-.23.17l-1.26-.3c-.15-.04-.19-.24-.06-.33Z"/><path class="cls-88" d="M9.89,12.76l1.36-.99c.13-.09.31,0,.29.16l-.11,1.28c0,.11-.12.19-.23.17l-1.25-.29c-.15-.04-.19-.24-.06-.33Z"/><path class="cls-71" d="M9.89,12.76l1.35-.98c.13-.09.3,0,.29.16l-.11,1.26c0,.11-.12.19-.23.17l-1.24-.28c-.15-.03-.19-.23-.06-.33Z"/><path class="cls-35" d="M9.89,12.76l1.34-.98c.13-.09.3,0,.29.16l-.12,1.25c-.01.11-.12.19-.23.17l-1.23-.28c-.15-.03-.19-.23-.06-.32Z"/><path class="cls-85" d="M9.89,12.77l1.34-.97c.13-.09.3,0,.29.15l-.12,1.24c-.01.11-.12.19-.23.16l-1.22-.27c-.15-.03-.19-.23-.06-.32Z"/><path class="cls-100" d="M9.89,12.77l1.33-.97c.13-.09.3,0,.28.15l-.12,1.23c-.01.11-.12.19-.23.16l-1.21-.26c-.15-.03-.18-.22-.06-.32Z"/><path class="cls-28" d="M9.89,12.78l1.33-.96c.13-.09.3,0,.28.15l-.13,1.22c-.01.11-.12.19-.22.16l-1.2-.26c-.15-.03-.18-.22-.06-.31Z"/><path class="cls-27" d="M9.89,12.78l1.32-.96c.13-.09.29,0,.28.15l-.13,1.21c-.01.11-.12.18-.22.16l-1.19-.25c-.15-.03-.18-.22-.05-.31Z"/><path class="cls-97" d="M9.89,12.78l1.31-.95c.12-.09.29,0,.27.14l-.14,1.2c-.01.11-.12.18-.22.16l-1.18-.24c-.15-.03-.18-.22-.05-.31Z"/><path class="cls-25" d="M9.89,12.79l1.31-.95c.12-.09.29,0,.27.14l-.14,1.18c-.01.11-.12.18-.22.16l-1.17-.23c-.14-.03-.17-.21-.05-.3Z"/><path class="cls-31" d="M9.89,12.79l1.3-.95c.12-.09.29,0,.27.14l-.14,1.17c-.01.1-.12.18-.22.16l-1.16-.23c-.14-.03-.17-.21-.05-.3Z"/></g><g class="cls-124"><path class="cls-50" d="M4.18,2.02l-1.37.99c-.13.09-.31,0-.3-.17l.1-1.3c0-.12.12-.2.23-.17l1.27.31c.16.04.2.24.07.34Z"/><path class="cls-113" d="M4.17,2.02l-1.36.99c-.13.09-.31,0-.3-.17l.1-1.29c0-.11.12-.19.23-.17l1.26.3c.16.04.2.24.07.33Z"/><path class="cls-88" d="M4.16,2.03l-1.35.98c-.13.09-.31,0-.29-.17l.1-1.28c0-.11.12-.19.23-.17l1.25.3c.15.04.19.24.07.33Z"/><path class="cls-71" d="M4.14,2.03l-1.34.97c-.13.09-.3,0-.29-.16l.1-1.27c0-.11.12-.19.23-.16l1.24.3c.15.04.19.24.07.33Z"/><path class="cls-35" d="M4.13,2.03l-1.32.96c-.13.09-.3,0-.29-.16l.09-1.26c0-.11.12-.19.22-.16l1.23.3c.15.04.19.23.07.33Z"/><path class="cls-85" d="M4.12,2.03l-1.31.95c-.12.09-.3,0-.29-.16l.09-1.25c0-.11.11-.19.22-.16l1.22.3c.15.04.19.23.07.32Z"/><path class="cls-100" d="M4.11,2.04l-1.3.95c-.12.09-.3,0-.29-.16l.09-1.24c0-.11.11-.19.22-.16l1.21.3c.15.04.19.23.07.32Z"/><path class="cls-28" d="M4.1,2.04l-1.29.94c-.12.09-.29,0-.28-.16l.09-1.24c0-.11.11-.19.22-.16l1.2.3c.15.04.19.23.06.32Z"/><path class="cls-27" d="M4.08,2.04l-1.28.93c-.12.09-.29,0-.28-.16l.09-1.23c0-.11.11-.18.22-.16l1.19.3c.15.04.19.23.06.32Z"/><path class="cls-97" d="M4.07,2.04l-1.27.92c-.12.09-.29,0-.28-.16l.09-1.22c0-.11.11-.18.22-.16l1.18.29c.15.04.19.23.06.32Z"/><path class="cls-25" d="M4.06,2.05l-1.26.92c-.12.09-.29,0-.28-.16l.08-1.21c0-.11.11-.18.21-.16l1.18.29c.14.04.18.23.06.31Z"/><path class="cls-31" d="M4.05,2.05l-1.25.91c-.12.09-.29,0-.28-.16l.08-1.2c0-.11.11-.18.21-.15l1.17.29c.14.04.18.22.06.31Z"/></g><g class="cls-127"><g class="cls-124"><path class="cls-31" d="M16.03,8.14c-.84-2.32-3.09-3.99-5.75-3.99s-5.09,1.81-5.84,4.28c-.13.44-.49.75-.93.88-1.46.44-2.52,1.76-2.52,3.34,0,1.94,1.6,3.51,3.57,3.51h12.3l-.82-8.02Z"/><path class="cls-40" d="M16.04,8.24c-.83-2.29-3.06-3.94-5.68-3.94s-5.03,1.78-5.77,4.23c-.13.43-.49.74-.92.87-1.44.43-2.49,1.74-2.49,3.3,0,1.91,1.58,3.46,3.52,3.46h12.15l-.81-7.93Z"/><path class="cls-81" d="M16.05,8.34c-.82-2.26-3.02-3.89-5.61-3.89s-4.97,1.76-5.7,4.18c-.13.43-.48.73-.91.86-1.42.43-2.46,1.72-2.46,3.26,0,1.89,1.56,3.42,3.48,3.42h12l-.8-7.83Z"/><path class="cls-13" d="M16.06,8.43c-.81-2.24-2.98-3.84-5.54-3.84s-4.91,1.74-5.63,4.13c-.13.42-.48.72-.9.85-1.4.42-2.43,1.69-2.43,3.21,0,1.87,1.54,3.38,3.44,3.38h11.85l-.79-7.73Z"/><path class="cls-29" d="M16.07,8.53c-.8-2.21-2.94-3.79-5.46-3.79s-4.84,1.72-5.56,4.07c-.13.42-.47.71-.89.84-1.39.42-2.4,1.67-2.4,3.17,0,1.84,1.52,3.34,3.39,3.34h11.7l-.78-7.63Z"/><path class="cls-46" d="M16.08,8.63c-.79-2.18-2.91-3.74-5.39-3.74s-4.78,1.7-5.49,4.02c-.13.41-.46.7-.88.83-1.37.41-2.37,1.65-2.37,3.13,0,1.82,1.5,3.29,3.35,3.29h11.55l-.77-7.53Z"/><path class="cls-77" d="M16.09,8.73c-.78-2.15-2.87-3.69-5.32-3.69s-4.72,1.67-5.42,3.97c-.12.41-.46.7-.86.82-1.35.41-2.34,1.63-2.34,3.09,0,1.79,1.48,3.25,3.31,3.25h11.4l-.76-7.44Z"/><path class="cls-16" d="M16.1,8.83c-.77-2.12-2.83-3.65-5.25-3.65s-4.66,1.65-5.35,3.92c-.12.4-.45.69-.85.81-1.33.4-2.31,1.61-2.31,3.05,0,1.77,1.46,3.21,3.26,3.21h11.25l-.75-7.34Z"/><path class="cls-114" d="M16.11,8.92c-.76-2.09-2.79-3.6-5.18-3.6s-4.6,1.63-5.27,3.87c-.12.4-.45.68-.84.8-1.32.39-2.28,1.59-2.28,3.01,0,1.75,1.44,3.16,3.22,3.16h11.1l-.74-7.24Z"/><path class="cls-10" d="M16.12,9.02c-.75-2.07-2.75-3.55-5.11-3.55s-4.53,1.61-5.2,3.81c-.12.39-.44.67-.83.79-1.3.39-2.24,1.57-2.24,2.97,0,1.72,1.42,3.12,3.17,3.12h10.95l-.73-7.14Z"/></g></g></g></g></g></svg>