<?xml version="1.0" encoding="UTF-8"?><svg xmlns="http://www.w3.org/2000/svg" xmlns:xlink="http://www.w3.org/1999/xlink" viewBox="0 0 14.07 13.98"><defs><style>.cls-1{fill:#f3edfd;opacity:.88;}.cls-1,.cls-2,.cls-3,.cls-4,.cls-5,.cls-6,.cls-7,.cls-8,.cls-9,.cls-10,.cls-11,.cls-12,.cls-13,.cls-14,.cls-15,.cls-16,.cls-17,.cls-18,.cls-19,.cls-20,.cls-21,.cls-22,.cls-23,.cls-24,.cls-25,.cls-26,.cls-27,.cls-28,.cls-29,.cls-30,.cls-31,.cls-32,.cls-33,.cls-34,.cls-35,.cls-36,.cls-37,.cls-38,.cls-39,.cls-40,.cls-41,.cls-42,.cls-43,.cls-44,.cls-45,.cls-46,.cls-47,.cls-48,.cls-49,.cls-50,.cls-51{stroke-width:0px;}.cls-2{fill:#f1ebfd;}.cls-3{fill:#f8f5fe;opacity:.5;}.cls-4{fill:#030305;opacity:.09;}.cls-5{fill:url(#_R_W_h_3191);}.cls-6{fill:#080812;opacity:.36;}.cls-7{fill:#0e0c20;opacity:.64;}.cls-8{fill:#eae5fa;}.cls-9{fill:url(#_R_W_h_2);}.cls-10{fill:#e8e3f9;}.cls-11{fill:#fcfaff;opacity:.25;}.cls-12{fill:#13112d;opacity:.91;}.cls-13{fill:#e2ddf6;}.cls-14{fill:#efe9fc;}.cls-52{isolation:isolate;}.cls-15{fill:#06060e;opacity:.27;}.cls-16{fill:#05040a;opacity:.18;}.cls-17{fill:#e3def6;}.cls-18{fill:none;}.cls-19{fill:#f9f6fe;opacity:.44;}.cls-20{fill:#e6e0f7;}.cls-21{fill:#151331;}.cls-22{fill:#e1dcf5;}.cls-23{fill:#010101;}.cls-23,.cls-48{opacity:0;}.cls-24{fill:#e7e1f8;}.cls-25{fill:#f7f4fe;opacity:.56;}.cls-26{fill:#ece7fb;}.cls-53{mix-blend-mode:screen;}.cls-27{fill:#e9e4f9;}.cls-28{fill:#fcfbff;opacity:.19;}.cls-29{fill:#f6f3fe;opacity:.62;}.cls-30{fill:url(#_R_W_h_3191-2);}.cls-54{clip-path:url(#clippath);}.cls-31{fill:#e0dbf5;}.cls-32{fill:#eee8fb;}.cls-33{fill:#100e24;opacity:.73;}.cls-34{fill:#f4f0fe;opacity:.75;}.cls-35{fill:#f5f1fe;opacity:.69;}.cls-36{fill:#ebe6fa;}.cls-37{fill:#f0eafc;}.cls-38{fill:#fdfa8c;}.cls-39{fill:#f4effd;opacity:.81;}.cls-40{fill:#0a0917;opacity:.45;}.cls-41{fill:#fefeff;opacity:.06;}.cls-42{fill:url(#_R_W_h_929);}.cls-43{fill:#faf8fe;opacity:.38;}.cls-44{fill:#fbf9fe;opacity:.31;}.cls-45{fill:#e5dff7;}.cls-46{fill:#111028;opacity:.82;}.cls-47{fill:#dfdaf4;}.cls-55{mix-blend-mode:multiply;}.cls-48{fill:#fff;}.cls-49{fill:#fdfdff;opacity:.12;}.cls-50{fill:#f2ecfd;opacity:.94;}.cls-51{fill:#0c0b1b;opacity:.55;}</style><radialGradient id="_R_W_h_3191" cx="10.45" cy="2.88" fx="10.45" fy="2.88" r="3.98" gradientUnits="userSpaceOnUse"><stop offset="0" stop-color="#fdf77e"/><stop offset=".63" stop-color="#f7dd6e"/><stop offset=".68" stop-color="#f7dc6d"/><stop offset=".74" stop-color="#f0de71"/><stop offset=".82" stop-color="#dde67c"/><stop offset=".92" stop-color="#bff38f"/><stop offset="1" stop-color="#a4ffa0"/></radialGradient><radialGradient id="_R_W_h_3191-2" cx="12.5" cy="6.01" fx="12.5" fy="6.01" r="2.34" xlink:href="#_R_W_h_3191"/><linearGradient id="_R_W_h_2" x1="-.17" y1="7.88" x2="13.47" y2="6.13" gradientUnits="userSpaceOnUse"><stop offset="0" stop-color="#9a6ff4"/><stop offset=".57" stop-color="#916ff4"/><stop offset="1" stop-color="#8d74ef"/></linearGradient><radialGradient id="_R_W_h_929" cx="4.18" cy="9.14" fx="4.18" fy="9.14" r="12.32" gradientUnits="userSpaceOnUse"><stop offset="0" stop-color="#722cdf"/><stop offset=".19" stop-color="#763be0"/><stop offset=".37" stop-color="#7a46e1"/><stop offset=".5" stop-color="#7c4ee3"/><stop offset=".72" stop-color="#8166ec"/><stop offset=".98" stop-color="#8b8df9"/><stop offset="1" stop-color="#8c90fa"/></radialGradient><clipPath id="clippath"><path class="cls-18" d="M3.94,4.8c-.32-1.62-.04-3.17.66-4.45.11-.2-.1-.42-.31-.33C1.54,1.24-.31,4.12.04,7.39c.35,3.31,3.05,6.01,6.36,6.36,3.27.35,6.15-1.49,7.37-4.24.09-.21-.13-.42-.33-.31-1.28.7-2.83.98-4.45.66-1.26-.25-2.4-.89-3.29-1.77-.89-.89-1.52-2.02-1.77-3.29Z"/></clipPath></defs><g class="cls-52"><g id="Layer_2"><g id="Main_1"><g class="cls-55"><path class="cls-48" d="M7.44,11.06c-1.15,0-2.22-.79-2.58-1.87-1.13-.33-1.96-1.42-1.96-2.61s.81-2.27,1.96-2.61c.36-1.08,1.43-1.87,2.58-1.87s2.22.76,2.58,1.87c1.13.33,1.96,1.42,1.96,2.61s-.81,2.27-1.96,2.61c-.36,1.08-1.43,1.87-2.58,1.87Z"/><path class="cls-41" d="M7.44,10.89c-1.11,0-2.13-.76-2.48-1.8-1.08-.32-1.88-1.37-1.88-2.5s.78-2.19,1.88-2.51c.35-1.04,1.37-1.8,2.48-1.8s2.14.73,2.48,1.8c1.08.32,1.88,1.37,1.88,2.5s-.78,2.19-1.88,2.51c-.35,1.04-1.37,1.8-2.48,1.8Z"/><path class="cls-49" d="M7.44,10.71c-1.06,0-2.05-.73-2.38-1.73-1.04-.31-1.81-1.31-1.81-2.4s.75-2.1,1.81-2.4c.33-1,1.32-1.73,2.38-1.73s2.05.7,2.38,1.73c1.04.31,1.81,1.31,1.81,2.4s-.75,2.1-1.81,2.4c-.33,1-1.32,1.73-2.38,1.73Z"/><path class="cls-28" d="M7.44,10.54c-1.02,0-1.96-.7-2.28-1.65-.99-.29-1.73-1.26-1.73-2.3s.72-2.01,1.73-2.3c.32-.96,1.26-1.65,2.28-1.65s1.96.67,2.28,1.65c.99.29,1.73,1.25,1.73,2.3s-.72,2.01-1.73,2.3c-.32.96-1.26,1.65-2.28,1.65Z"/><path class="cls-11" d="M7.44,10.36c-.97,0-1.87-.67-2.18-1.58-.95-.28-1.65-1.2-1.65-2.2s.69-1.92,1.65-2.2c.3-.91,1.2-1.58,2.18-1.58s1.87.64,2.18,1.58c.95.28,1.65,1.2,1.65,2.2s-.69,1.92-1.65,2.2c-.3.91-1.2,1.58-2.18,1.58Z"/><path class="cls-44" d="M7.44,10.18c-.93,0-1.79-.63-2.08-1.51-.91-.27-1.58-1.14-1.58-2.09s.65-1.83,1.58-2.1c.29-.87,1.15-1.5,2.07-1.5s1.79.61,2.08,1.51c.9.27,1.57,1.14,1.57,2.09s-.65,1.83-1.58,2.1c-.29.87-1.15,1.51-2.07,1.51Z"/><path class="cls-43" d="M7.44,10.01c-.88,0-1.7-.6-1.97-1.43-.86-.25-1.5-1.09-1.5-1.99s.62-1.74,1.5-1.99c.28-.83,1.09-1.43,1.97-1.43s1.7.58,1.97,1.43c.86.25,1.5,1.09,1.5,1.99s-.62,1.74-1.5,1.99c-.28.83-1.09,1.43-1.97,1.43Z"/><path class="cls-19" d="M7.44,9.83c-.84,0-1.61-.57-1.87-1.36-.82-.24-1.42-1.03-1.42-1.89s.59-1.65,1.42-1.89c.26-.79,1.04-1.36,1.87-1.36s1.61.55,1.87,1.36c.82.24,1.42,1.03,1.42,1.89s-.59,1.65-1.42,1.89c-.26.79-1.04,1.36-1.87,1.36Z"/><path class="cls-3" d="M7.44,9.65c-.79,0-1.52-.54-1.77-1.28-.77-.23-1.34-.98-1.34-1.79s.56-1.56,1.34-1.79c.25-.74.98-1.28,1.77-1.28s1.52.52,1.77,1.28c.77.23,1.34.98,1.34,1.79s-.56,1.56-1.35,1.79c-.25.74-.98,1.28-1.77,1.28Z"/><path class="cls-25" d="M7.44,9.48c-.75,0-1.44-.51-1.67-1.21-.73-.21-1.27-.92-1.27-1.68s.53-1.47,1.27-1.69c.23-.7.92-1.21,1.67-1.21s1.44.49,1.67,1.21c.73.22,1.27.92,1.27,1.68s-.53,1.47-1.27,1.69c-.23.7-.92,1.21-1.67,1.21Z"/><path class="cls-29" d="M7.44,9.3c-.7,0-1.35-.48-1.57-1.14-.68-.2-1.19-.86-1.19-1.58s.49-1.38,1.19-1.58c.22-.66.87-1.14,1.57-1.14s1.35.46,1.57,1.14c.68.2,1.19.86,1.19,1.58s-.49,1.38-1.19,1.58c-.22.66-.87,1.14-1.57,1.14Z"/><path class="cls-35" d="M7.44,9.13c-.65,0-1.26-.45-1.47-1.06-.64-.19-1.11-.81-1.11-1.48s.46-1.29,1.11-1.48c.2-.62.81-1.06,1.47-1.06s1.26.43,1.47,1.06c.64.19,1.11.81,1.11,1.48s-.46,1.29-1.11,1.48c-.2.62-.81,1.06-1.47,1.06Z"/><path class="cls-34" d="M7.44,8.95c-.61,0-1.17-.42-1.36-.99-.6-.18-1.04-.75-1.04-1.38s.43-1.2,1.04-1.38c.19-.57.76-.99,1.36-.99s1.17.4,1.37.99c.59.18,1.04.75,1.04,1.38s-.43,1.2-1.04,1.38c-.19.57-.76.99-1.36.99Z"/><path class="cls-39" d="M7.44,8.77c-.56,0-1.09-.39-1.26-.92-.55-.16-.96-.7-.96-1.27s.4-1.11.96-1.28c.18-.53.7-.92,1.26-.92s1.09.37,1.26.92c.55.16.96.7.96,1.27s-.4,1.11-.96,1.28c-.18.53-.7.92-1.26.92Z"/><path class="cls-1" d="M7.44,8.6c-.52,0-1-.36-1.16-.84-.51-.15-.88-.64-.88-1.17s.37-1.02.88-1.17c.16-.49.64-.84,1.16-.84s1,.34,1.16.84c.51.15.88.64.88,1.17s-.37,1.02-.88,1.17c-.16.49-.64.84-1.16.84Z"/><path class="cls-50" d="M7.44,8.42c-.47,0-.91-.32-1.06-.77-.46-.14-.8-.58-.8-1.07s.33-.93.81-1.07c.15-.44.59-.77,1.06-.77s.91.31,1.06.77c.46.14.8.58.8,1.07s-.33.93-.81,1.07c-.15.44-.59.77-1.06.77Z"/><path class="cls-2" d="M7.44,8.25c-.43,0-.82-.29-.96-.7-.42-.12-.73-.53-.73-.97s.3-.84.73-.97c.13-.4.53-.7.96-.7s.83.28.96.7c.42.12.73.53.73.97s-.3.84-.73.97c-.13.4-.53.7-.96.7Z"/><path class="cls-37" d="M7.44,8.18c-.41,0-.79-.28-.92-.67-.4-.12-.7-.51-.7-.93s.29-.81.7-.93c.13-.39.51-.67.92-.67s.79.27.92.67c.4.12.7.51.7.93s-.29.81-.7.93c-.13.39-.51.67-.92.67Z"/><path class="cls-14" d="M7.44,8.12c-.4,0-.76-.27-.89-.64-.39-.11-.67-.49-.67-.9s.28-.78.67-.9c.12-.37.49-.64.89-.64s.76.26.89.64c.39.11.67.49.67.9s-.28.78-.67.9c-.12.37-.49.64-.89.64Z"/><path class="cls-32" d="M7.44,8.06c-.38,0-.73-.26-.85-.62-.37-.11-.65-.47-.65-.86s.27-.75.65-.86c.12-.36.47-.62.85-.62s.73.25.85.62c.37.11.65.47.65.86s-.27.75-.65.86c-.12.36-.47.62-.85.62Z"/><path class="cls-26" d="M7.44,8c-.36,0-.7-.25-.82-.59-.36-.11-.62-.45-.62-.82s.26-.72.62-.83c.11-.34.45-.59.82-.59s.7.24.82.59c.36.11.62.45.62.82s-.26.72-.62.83c-.11.34-.45.59-.82.59Z"/><path class="cls-36" d="M7.44,7.94c-.35,0-.67-.24-.78-.57-.34-.1-.59-.43-.59-.79s.25-.69.59-.79c.11-.33.43-.57.78-.57s.67.23.78.57c.34.1.59.43.59.79s-.25.69-.59.79c-.11.33-.43.57-.78.57Z"/><path class="cls-8" d="M7.44,7.88c-.33,0-.64-.23-.75-.54-.33-.1-.57-.41-.57-.75s.24-.66.57-.75c.1-.31.41-.54.75-.54s.64.22.75.54c.33.1.57.41.57.75s-.24.66-.57.75c-.1.31-.41.54-.75.54Z"/><path class="cls-27" d="M7.44,7.82c-.32,0-.61-.22-.71-.52-.31-.09-.54-.39-.54-.72s.22-.63.54-.72c.1-.3.39-.52.71-.52s.61.21.71.52c.31.09.54.39.54.72s-.22.63-.54.72c-.1.3-.39.52-.71.52Z"/><path class="cls-10" d="M7.44,7.76c-.3,0-.58-.21-.68-.49-.29-.09-.51-.37-.51-.68s.21-.6.51-.68c.09-.28.37-.49.68-.49s.58.2.68.49c.29.09.51.37.51.68s-.21.6-.51.68c-.09.28-.37.49-.68.49Z"/><path class="cls-24" d="M7.44,7.69c-.29,0-.55-.2-.64-.46-.28-.08-.49-.35-.49-.65s.2-.56.49-.65c.09-.27.35-.46.64-.46s.55.19.64.47c.28.08.49.35.49.65s-.2.56-.49.65c-.09.27-.35.46-.64.46Z"/><path class="cls-20" d="M7.44,7.63c-.27,0-.52-.19-.61-.44-.26-.08-.46-.33-.46-.61s.19-.53.46-.61c.08-.25.34-.44.61-.44s.52.18.61.44c.26.08.46.33.46.61s-.19.53-.46.61c-.08.25-.34.44-.61.44Z"/><path class="cls-45" d="M7.44,7.57c-.25,0-.49-.17-.57-.41-.25-.07-.43-.31-.43-.58s.18-.5.43-.58c.08-.24.32-.41.57-.41s.49.17.57.41c.25.07.43.31.43.58s-.18.5-.43.58c-.08.24-.32.41-.57.41Z"/><path class="cls-17" d="M7.44,7.51c-.24,0-.46-.16-.53-.39-.23-.07-.41-.29-.41-.54s.17-.47.41-.54c.07-.22.3-.39.53-.39s.46.16.53.39c.23.07.41.29.41.54s-.17.47-.41.54c-.07.22-.3.39-.53.39Z"/><path class="cls-13" d="M7.44,7.45c-.22,0-.43-.15-.5-.36-.22-.06-.38-.28-.38-.5s.16-.44.38-.5c.07-.21.28-.36.5-.36s.43.15.5.36c.22.06.38.28.38.5s-.16.44-.38.5c-.07.21-.28.36-.5.36Z"/><path class="cls-22" d="M7.44,7.39c-.21,0-.4-.14-.46-.34-.2-.06-.35-.26-.35-.47s.15-.41.35-.47c.06-.19.26-.34.46-.34s.4.14.46.34c.2.06.35.26.35.47s-.15.41-.35.47c-.06.19-.26.34-.46.34Z"/><path class="cls-31" d="M7.44,7.33c-.19,0-.37-.13-.43-.31-.19-.06-.33-.24-.33-.43s.14-.38.33-.43c.06-.18.24-.31.43-.31s.37.13.43.31c.19.06.33.24.33.43s-.14.38-.33.43c-.06.18-.24.31-.43.31Z"/><path class="cls-47" d="M7.44,7.27c-.18,0-.34-.12-.39-.29-.17-.05-.3-.22-.3-.4s.12-.35.3-.4c.05-.16.22-.29.39-.29s.34.12.39.29c.17.05.3.22.3.4s-.12.35-.3.4c-.05.17-.22.29-.39.29Z"/></g><g class="cls-55"><path class="cls-48" d="M10.83,11.89c-.82,0-1.59-.56-1.84-1.34-.8-.24-1.4-1.02-1.4-1.86s.58-1.62,1.4-1.86c.26-.77,1.02-1.34,1.84-1.34s1.59.54,1.84,1.34c.8.24,1.4,1.02,1.4,1.86s-.58,1.62-1.4,1.86c-.26.77-1.02,1.34-1.84,1.34Z"/><path class="cls-41" d="M10.83,11.75c-.79,0-1.52-.54-1.76-1.28-.77-.23-1.34-.97-1.34-1.78s.56-1.55,1.34-1.78c.25-.74.98-1.28,1.76-1.28s1.52.52,1.76,1.28c.77.23,1.34.97,1.34,1.78s-.56,1.55-1.34,1.78c-.25.74-.98,1.28-1.76,1.28Z"/><path class="cls-49" d="M10.83,11.61c-.75,0-1.45-.52-1.68-1.22-.73-.22-1.28-.93-1.28-1.7s.53-1.48,1.28-1.7c.24-.71.93-1.22,1.68-1.22s1.45.49,1.68,1.22c.73.22,1.28.93,1.28,1.7s-.53,1.48-1.28,1.7c-.24.71-.93,1.22-1.68,1.22Z"/><path class="cls-28" d="M10.83,11.47c-.72,0-1.38-.49-1.6-1.16-.7-.21-1.22-.88-1.22-1.62s.51-1.41,1.22-1.62c.22-.67.89-1.16,1.6-1.16s1.38.47,1.6,1.16c.7.21,1.22.88,1.22,1.62s-.51,1.41-1.22,1.62c-.22.67-.89,1.16-1.6,1.16Z"/><path class="cls-11" d="M10.83,11.34c-.68,0-1.31-.47-1.53-1.11-.67-.2-1.16-.84-1.16-1.54s.48-1.34,1.16-1.54c.21-.64.84-1.11,1.52-1.11s1.31.45,1.53,1.11c.66.2,1.16.84,1.16,1.54s-.48,1.34-1.16,1.54c-.21.64-.84,1.11-1.52,1.11Z"/><path class="cls-44" d="M10.83,11.2c-.65,0-1.24-.44-1.45-1.05-.63-.19-1.1-.8-1.1-1.46s.46-1.27,1.1-1.46c.2-.61.8-1.05,1.45-1.05s1.24.42,1.45,1.05c.63.19,1.1.8,1.1,1.46s-.46,1.27-1.1,1.46c-.2.61-.8,1.05-1.44,1.05Z"/><path class="cls-43" d="M10.83,11.06c-.61,0-1.18-.42-1.37-.99-.6-.18-1.04-.75-1.04-1.38s.43-1.2,1.04-1.38c.19-.57.76-.99,1.37-.99s1.18.4,1.37.99c.6.18,1.04.75,1.04,1.38s-.43,1.2-1.04,1.38c-.19.57-.76.99-1.37.99Z"/><path class="cls-19" d="M10.83,10.92c-.57,0-1.11-.39-1.29-.93-.56-.17-.98-.71-.98-1.3s.41-1.13.98-1.3c.18-.54.71-.93,1.29-.93s1.11.38,1.29.93c.56.17.98.71.98,1.3s-.41,1.13-.98,1.3c-.18.54-.71.93-1.29.93Z"/><path class="cls-3" d="M10.83,10.79c-.54,0-1.04-.37-1.21-.88-.53-.16-.92-.66-.92-1.22s.38-1.06.92-1.22c.17-.51.67-.88,1.21-.88s1.04.35,1.21.88c.53.16.92.66.92,1.22s-.38,1.06-.92,1.22c-.17.51-.67.88-1.21.88Z"/><path class="cls-25" d="M10.83,10.65c-.5,0-.97-.34-1.13-.82-.49-.14-.86-.62-.86-1.14s.36-.99.86-1.14c.16-.47.62-.82,1.13-.82s.97.33,1.13.82c.49.15.86.62.86,1.14s-.36.99-.86,1.14c-.16.47-.62.82-1.13.82Z"/><path class="cls-29" d="M10.83,10.51c-.47,0-.9-.32-1.05-.76-.46-.13-.8-.58-.8-1.06s.33-.92.8-1.06c.15-.44.58-.76,1.05-.76s.9.31,1.05.76c.46.13.8.58.8,1.06s-.33.92-.8,1.06c-.15.44-.58.76-1.05.76Z"/><path class="cls-35" d="M10.83,10.37c-.43,0-.83-.3-.97-.7-.42-.12-.74-.53-.74-.98s.3-.85.74-.98c.14-.41.54-.7.97-.7s.83.28.97.7c.42.12.74.53.74.98s-.31.85-.74.98c-.14.41-.54.7-.97.7Z"/><path class="cls-34" d="M10.83,10.23c-.4,0-.76-.27-.89-.64-.39-.11-.67-.49-.67-.9s.28-.78.68-.9c.12-.37.49-.64.89-.64s.77.26.89.65c.39.11.67.49.67.9s-.28.78-.68.9c-.12.37-.49.64-.89.64Z"/><path class="cls-39" d="M10.83,10.1c-.36,0-.7-.25-.81-.59-.35-.1-.61-.45-.61-.82s.25-.71.61-.82c.11-.34.45-.59.81-.59s.7.24.81.59c.35.1.61.45.61.82s-.26.71-.62.82c-.11.34-.45.59-.81.59Z"/><path class="cls-1" d="M10.83,9.96c-.33,0-.63-.22-.73-.53-.32-.09-.55-.4-.55-.74s.23-.64.55-.74c.1-.31.4-.53.73-.53s.63.21.73.53c.32.09.55.4.55.74s-.23.64-.55.74c-.1.31-.4.53-.73.53Z"/><path class="cls-50" d="M10.83,9.82c-.29,0-.56-.2-.65-.47-.28-.08-.49-.36-.49-.66s.2-.57.49-.66c.09-.27.36-.47.65-.47s.56.19.65.47c.28.08.49.36.49.66s-.21.57-.49.66c-.09.27-.36.47-.65.47Z"/><path class="cls-2" d="M10.83,9.68c-.26,0-.49-.17-.57-.41-.25-.07-.43-.31-.43-.58s.18-.5.43-.58c.08-.24.32-.41.57-.41s.49.17.57.41c.25.07.43.31.43.58s-.18.5-.43.58c-.08.24-.32.41-.57.41Z"/><path class="cls-37" d="M10.83,9.65c-.25,0-.47-.17-.55-.4-.24-.07-.42-.3-.42-.56s.17-.48.42-.56c.08-.23.3-.4.55-.4s.47.16.55.4c.24.07.42.3.42.55s-.17.48-.42.56c-.08.23-.3.4-.55.4Z"/><path class="cls-14" d="M10.83,9.61c-.24,0-.45-.16-.53-.38-.23-.07-.4-.29-.4-.53s.17-.47.4-.53c.07-.22.29-.38.53-.38s.46.16.53.38c.23.07.4.29.4.53s-.17.47-.4.53c-.07.22-.29.38-.53.38Z"/><path class="cls-32" d="M10.83,9.57c-.23,0-.44-.16-.51-.37-.22-.07-.39-.28-.39-.51s.16-.45.39-.51c.07-.21.28-.37.51-.37s.44.15.51.37c.22.07.39.28.39.51s-.16.45-.39.51c-.07.21-.28.37-.51.37Z"/><path class="cls-26" d="M10.83,9.54c-.22,0-.42-.15-.49-.35-.21-.06-.37-.27-.37-.49s.15-.43.37-.49c.07-.2.27-.35.49-.35s.42.14.49.35c.21.06.37.27.37.49s-.15.43-.37.49c-.07.2-.27.35-.49.35Z"/><path class="cls-36" d="M10.83,9.5c-.21,0-.4-.14-.47-.34-.2-.06-.35-.26-.35-.47s.15-.41.35-.47c.07-.2.26-.34.47-.34s.4.14.47.34c.2.06.35.26.35.47s-.15.41-.35.47c-.06.2-.26.34-.46.34Z"/><path class="cls-8" d="M10.83,9.46c-.2,0-.38-.14-.44-.32-.19-.06-.34-.24-.34-.45s.14-.39.34-.45c.06-.19.25-.32.44-.32s.38.13.44.32c.19.06.34.24.34.45s-.14.39-.34.45c-.06.19-.25.32-.44.32Z"/><path class="cls-27" d="M10.83,9.42c-.19,0-.36-.13-.42-.31-.18-.05-.32-.23-.32-.43s.13-.37.32-.43c.06-.18.23-.31.42-.31s.36.12.42.31c.18.05.32.23.32.43s-.13.37-.32.43c-.06.18-.23.31-.42.31Z"/><path class="cls-10" d="M10.83,9.39c-.18,0-.35-.12-.4-.29-.18-.05-.3-.22-.3-.41s.13-.35.31-.41c.06-.17.22-.29.4-.29s.35.12.4.29c.18.05.3.22.3.41s-.13.35-.31.41c-.06.17-.22.29-.4.29Z"/><path class="cls-24" d="M10.83,9.35c-.17,0-.33-.12-.38-.28-.17-.05-.29-.21-.29-.38s.12-.34.29-.38c.05-.16.21-.28.38-.28s.33.11.38.28c.17.05.29.21.29.38s-.12.34-.29.38c-.05.16-.21.28-.38.28Z"/><path class="cls-20" d="M10.83,9.31c-.16,0-.31-.11-.36-.26-.16-.05-.27-.2-.27-.36s.11-.32.27-.36c.05-.15.2-.26.36-.26s.31.11.36.26c.16.05.27.2.27.36s-.11.32-.27.36c-.05.15-.2.26-.36.26Z"/><path class="cls-45" d="M10.83,9.28c-.15,0-.29-.1-.34-.25-.15-.04-.26-.19-.26-.34s.11-.3.26-.34c.05-.14.19-.25.34-.25s.29.1.34.25c.15.04.26.19.26.34s-.11.3-.26.34c-.05.14-.19.25-.34.25Z"/><path class="cls-17" d="M10.83,9.24c-.14,0-.27-.1-.32-.23-.14-.04-.24-.17-.24-.32s.1-.28.24-.32c.04-.13.18-.23.32-.23s.27.09.32.23c.14.04.24.17.24.32s-.1.28-.24.32c-.04.13-.18.23-.32.23Z"/><path class="cls-13" d="M10.83,9.2c-.13,0-.25-.09-.3-.21-.13-.04-.22-.16-.22-.3s.09-.26.22-.3c.04-.12.16-.21.3-.21s.25.09.3.21c.13.04.22.16.22.3s-.09.26-.22.3c-.04.12-.16.21-.3.21Z"/><path class="cls-22" d="M10.83,9.17c-.12,0-.24-.08-.27-.2-.12-.04-.21-.15-.21-.28s.09-.24.21-.28c.04-.12.15-.2.27-.2s.24.08.27.2c.12.04.21.15.21.28s-.09.24-.21.28c-.04.12-.15.2-.27.2Z"/><path class="cls-31" d="M10.83,9.13c-.11,0-.22-.08-.25-.18-.11-.03-.19-.14-.19-.26s.08-.22.19-.26c.04-.11.14-.18.25-.18s.22.07.25.18c.11.03.19.14.19.26s-.08.22-.19.26c-.04.11-.14.18-.25.18Z"/><path class="cls-47" d="M10.83,9.09c-.1,0-.2-.07-.23-.17-.1-.03-.18-.13-.18-.23s.07-.2.18-.23c.03-.1.13-.17.23-.17s.2.07.23.17c.1.03.18.13.18.23s-.07.2-.18.23c-.03.1-.13.17-.23.17Z"/></g><path class="cls-38" d="M10.49,4.8c-.92.2-1.13.41-1.33,1.34-.01.06-.11.05-.12,0-.23-.9-.42-1.13-1.35-1.34-.07-.03-.05-.14.03-.16.88-.16,1.1-.36,1.29-1.17.01-.05.02-.09.03-.14.02-.07.12-.07.13,0,.17.94.45,1.1,1.37,1.31.07.03.05.14-.05.15Z"/><path class="cls-5" d="M10.52,4.75c-.92.19-1.15.41-1.35,1.3-.01.05-.09.05-.1,0-.2-.89-.43-1.11-1.35-1.3-.06-.01-.06-.09,0-.1.92-.19,1.15-.41,1.35-1.3.01-.05.09-.05.1,0,.2.89.43,1.11,1.35,1.3.06.01.06.09,0,.1Z"/><path class="cls-38" d="M12.53,7.16c-.55.12-.67.25-.79.81,0,.03-.06.03-.07,0-.13-.54-.25-.68-.8-.81-.05-.02-.04-.1.01-.11.52-.11.65-.2.77-.69,0-.03.01-.05.02-.08,0-.04.07-.04.08,0,.1.57.26.65.81.78.05.01.05.1-.02.11Z"/><path class="cls-30" d="M12.54,7.11c-.54.11-.67.24-.79.76,0,.03-.05.03-.06,0-.12-.52-.25-.65-.79-.76-.03,0-.03-.05,0-.06.54-.11.67-.24.79-.77,0-.03.05-.03.06,0,.12.52.25.65.79.77.03,0,.03.05,0,.06Z"/><path class="cls-9" d="M3.94,4.99c-.32-1.62-.04-3.17.66-4.45.11-.2-.1-.42-.31-.33C1.54,1.43-.31,4.31.04,7.58c.35,3.31,3.05,6.01,6.36,6.36,3.27.35,6.15-1.49,7.37-4.24.15-.21,0-.57-.19-.46-1.28.7-2.96,1.13-4.59.81-2.52-.5-4.55-2.53-5.06-5.06Z"/><path class="cls-42" d="M3.94,4.8c-.32-1.62-.04-3.17.66-4.45.11-.2-.1-.42-.31-.33C1.54,1.24-.31,4.12.04,7.39c.35,3.31,3.05,6.01,6.36,6.36,3.27.35,6.15-1.49,7.37-4.24.09-.21-.13-.42-.33-.31-1.28.7-2.83.98-4.45.66-2.52-.5-4.55-2.53-5.06-5.06Z"/><g class="cls-54"><g class="cls-53"><path class="cls-23" d="M13.21-.5C9.2-4.46,2.27-2.96.91-.92L-.27,2.08c1.03-.41,1.51.04,1.82.91.23.64.12,2.02.82,4.68.69,2.6,2.55,3.62,4.47,4.01,2.97.6,4.47,0,5.5,0,.49,0,1.4.52,3-.83.97-.82,1.53-2.11,1.46-3.38-.07-1.21-1.46-5.87-3.58-7.97Z"/><path class="cls-4" d="M13.27-.56C9.25-4.52,2.32-3.01.96-.97L-.16,2c1.02-.42,1.65-.12,1.9.78.19.68.05,2.06.73,4.64.71,2.69,2.65,3.74,4.53,4.12,2.82.57,4.33,0,5.41-.03.49-.02,1.43.48,2.96-.78.96-.79,1.54-2.05,1.47-3.32-.07-1.21-1.46-5.87-3.58-7.97Z"/><path class="cls-16" d="M13.32-.62C9.31-4.57,2.38-3.07,1.02-1.03L-.05,1.92c1.01-.42,1.78-.27,1.99.66.16.71-.01,2.11.64,4.6.73,2.78,2.76,3.86,4.58,4.22,2.67.54,4.18,0,5.32-.07.49-.03,1.46.45,2.93-.72.96-.76,1.55-2,1.48-3.27-.07-1.21-1.46-5.87-3.58-7.97Z"/><path class="cls-15" d="M13.38-.67C9.37-4.63,2.44-3.13,1.08-1.08L.07,1.84c1-.43,1.92-.42,2.08.53.12.75-.08,2.15.56,4.57.75,2.87,2.86,3.97,4.64,4.33,2.51.51,4.04,0,5.23-.1.48-.04,1.49.42,2.9-.66.95-.73,1.56-1.95,1.49-3.22-.07-1.21-1.46-5.87-3.58-7.97Z"/><path class="cls-6" d="M13.44-.73C9.42-4.69,2.49-3.18,1.13-1.14L.18,1.76c.99-.43,2.06-.58,2.16.41.09.78-.14,2.19.47,4.53.77,2.96,2.97,4.09,4.7,4.44,2.36.48,3.89.02,5.14-.13.48-.06,1.53.39,2.86-.61.95-.7,1.57-1.89,1.5-3.16-.07-1.21-1.46-5.87-3.58-7.97Z"/><path class="cls-40" d="M13.49-.78C9.48-4.74,2.55-3.24,1.19-1.2L.29,1.68c.98-.43,2.19-.73,2.25.28.05.82-.21,2.24.38,4.49.8,3.05,3.07,4.21,4.75,4.55,2.21.44,3.74.02,5.06-.16.48-.07,1.56.36,2.83-.55.94-.67,1.58-1.84,1.51-3.11-.07-1.21-1.46-5.87-3.58-7.97Z"/><path class="cls-51" d="M13.55-.84C9.53-4.8,2.6-3.3,1.24-1.25L.41,1.6c.97-.44,2.32-.88,2.34.16.01.86-.28,2.28.29,4.45.82,3.14,3.18,4.33,4.81,4.65,2.05.41,3.6.03,4.97-.2.48-.08,1.6.33,2.79-.49.94-.64,1.59-1.79,1.53-3.05-.07-1.21-1.46-5.87-3.58-7.97Z"/><path class="cls-7" d="M13.6-.9C9.59-4.85,2.66-3.35,1.3-1.31L.52,1.52c.96-.44,2.46-1.03,2.43.04-.02.89-.34,2.32.2,4.42.84,3.24,3.28,4.44,4.86,4.76,1.9.38,3.45.04,4.88-.23.48-.09,1.64.3,2.76-.43.93-.61,1.61-1.73,1.54-3-.07-1.21-1.46-5.87-3.58-7.97Z"/><path class="cls-33" d="M13.66-.95C9.65-4.91,2.72-3.41,1.36-1.36L.64,1.44c.95-.45,2.59-1.19,2.51-.09-.06.93-.41,2.37.11,4.38.86,3.33,3.39,4.56,4.92,4.87,1.75.35,3.31.06,4.79-.26.47-.1,1.68.27,2.72-.38.93-.58,1.62-1.68,1.55-2.95-.07-1.21-1.46-5.87-3.58-7.97Z"/><path class="cls-46" d="M13.72-1.01C9.7-4.97,2.77-3.46,1.41-1.42L.75,1.36C1.69.91,3.47.02,3.35,1.15c-.1.96-.48,2.41.02,4.34.88,3.42,3.49,4.68,4.98,4.98,1.59.32,3.16.07,4.7-.29.47-.11,1.72.25,2.69-.32.93-.54,1.63-1.63,1.56-2.89-.07-1.21-1.46-5.87-3.58-7.97Z"/><path class="cls-12" d="M13.77-1.06C9.76-5.02,2.83-3.52,1.47-1.48L.86,1.28c.93-.46,2.85-1.49,2.69-.34-.14,1-.54,2.45-.07,4.3.9,3.51,3.6,4.8,5.03,5.08,1.44.29,3.02.09,4.61-.33.47-.12,1.76.23,2.66-.26.92-.5,1.64-1.57,1.57-2.84-.07-1.21-1.46-5.87-3.58-7.97Z"/><path class="cls-21" d="M13.83-1.12C9.81-5.08,2.88-3.58,1.53-1.53L.98,1.2c.93-.46,2.98-1.64,2.78-.46-.18,1.04-.61,2.5-.15,4.27.93,3.6,3.7,4.91,5.09,5.19,1.28.26,2.88.1,4.52-.36.47-.13,1.8.21,2.62-.21.93-.46,1.65-1.52,1.58-2.79-.07-1.21-1.46-5.87-3.58-7.97Z"/></g></g></g></g></g></svg>