<?xml version="1.0" encoding="UTF-8"?><svg xmlns="http://www.w3.org/2000/svg" xmlns:xlink="http://www.w3.org/1999/xlink" viewBox="0 0 21.62 17.92"><defs><style>.cls-1{fill:url(#_R_W_h_6);opacity:.28;}.cls-1,.cls-2,.cls-3,.cls-4,.cls-5,.cls-6,.cls-7,.cls-8,.cls-9,.cls-10,.cls-11,.cls-12,.cls-13,.cls-14,.cls-15,.cls-16,.cls-17,.cls-18,.cls-19,.cls-20,.cls-21,.cls-22,.cls-23,.cls-24,.cls-25,.cls-26,.cls-27,.cls-28,.cls-29,.cls-30,.cls-31,.cls-32,.cls-33,.cls-34,.cls-35,.cls-36,.cls-37,.cls-38,.cls-39,.cls-40,.cls-41,.cls-42,.cls-43,.cls-44,.cls-45{stroke-width:0px;}.cls-1,.cls-2,.cls-3,.cls-5,.cls-11,.cls-16,.cls-17,.cls-19,.cls-31,.cls-35,.cls-39,.cls-45{mix-blend-mode:screen;}.cls-2{fill:url(#_R_W_h_3);opacity:.2;}.cls-3{fill:url(#_R_W_h_44);opacity:.68;}.cls-4{fill:#e4e6fd;}.cls-4,.cls-6,.cls-7,.cls-8,.cls-12,.cls-13,.cls-18,.cls-20,.cls-33,.cls-34,.cls-46{mix-blend-mode:multiply;}.cls-5{fill:url(#_R_W_h_9);opacity:.44;}.cls-6,.cls-26{fill:#fff;}.cls-7{fill:#dadcfd;}.cls-8{fill:#cfd2fc;}.cls-9{fill:url(#_R_W_h_1887);}.cls-10{fill:url(#_R_W_h_2598);}.cls-47{isolation:isolate;}.cls-11{fill:url(#_R_W_h_47);opacity:.92;}.cls-12{fill:#eaebfe;}.cls-13{fill:#dfe1fd;}.cls-14{fill:none;}.cls-15{fill:url(#_R_W_h_1849);}.cls-16{fill:url(#_R_W_h_12);opacity:.52;}.cls-48{clip-path:url(#clippath-1);}.cls-17{fill:#010101;opacity:.12;}.cls-18{fill:#d4d7fc;}.cls-19{fill:url(#_R_W_h_7);opacity:.36;}.cls-20{fill:#f4f5fe;}.cls-21{fill:url(#_R_W_h_1857);}.cls-22{fill:url(#_R_W_h_1436);}.cls-23{fill:#f9f9fe;}.cls-24{fill:url(#_R_W_h_3396);}.cls-25{fill:#fcfcff;}.cls-27{fill:#f3f3fd;}.cls-28{fill:url(#_R_W_h_43-2);}.cls-29{fill:#fafbfe;}.cls-49{clip-path:url(#clippath);}.cls-30{fill:#a6befa;}.cls-31{fill:url(#_R_W_h_771);}.cls-32{fill:url(#_R_W_h_2600);}.cls-33{fill:#eff0fe;}.cls-34{fill:#fafaff;}.cls-35{fill:url(#_R_W_h_37);opacity:.6;}.cls-36{fill:url(#_R_W_h_2599);}.cls-37{fill:url(#_R_W_h_1785);}.cls-38{fill:#f4f5fd;}.cls-39{fill:url(#_R_W_h_46);opacity:.84;}.cls-40{fill:#f1f2fd;}.cls-41{fill:#f7f8fe;}.cls-42{fill:#f6f6fe;}.cls-43{fill:#fdfeff;}.cls-44{fill:url(#_R_W_h_43);}.cls-45{fill:url(#_R_W_h_45);opacity:.76;}</style><linearGradient id="_R_W_h_1436" x1="1.63" y1="6.11" x2="21.62" y2="6.11" gradientUnits="userSpaceOnUse"><stop offset="0" stop-color="#f4fbfb"/><stop offset=".61" stop-color="#fbfbfb"/><stop offset=".8" stop-color="#f6fafa"/><stop offset="1" stop-color="#eaf8f9"/></linearGradient><radialGradient id="_R_W_h_3396" cx="16.22" cy="-.55" fx="16.22" fy="-.55" r="23.91" gradientUnits="userSpaceOnUse"><stop offset="0" stop-color="#ece8fd"/><stop offset=".35" stop-color="#ece8fd"/><stop offset=".7" stop-color="#e2e0f1"/><stop offset="1" stop-color="#d8d7e4"/></radialGradient><clipPath id="clippath"><path class="cls-14" d="M17.5,3.91h0c-.26,0-.54.03-.82.07-.36-1-.99-1.88-1.79-2.55-1.06-.89-2.44-1.43-3.95-1.43-.97,0-1.88.22-2.7.62-1.73.84-3,2.47-3.32,4.41-1.83.15-3.28,1.64-3.28,3.48,0,1.94,1.6,3.51,3.57,3.51h12.3c2.27,0,4.12-1.81,4.12-4.05s-1.84-4.05-4.12-4.05Z"/></clipPath><linearGradient id="_R_W_h_771" x1="14.77" y1="1.41" x2="8.55" y2="15.03" gradientUnits="userSpaceOnUse"><stop offset="0" stop-color="#bab6fb"/><stop offset=".09" stop-color="#b0acee"/><stop offset=".26" stop-color="#9894cd"/><stop offset=".48" stop-color="#706e97"/><stop offset=".74" stop-color="#3a394e"/><stop offset="1" stop-color="#010101"/></linearGradient><linearGradient id="_R_W_h_47" x1="14.65" y1="1.62" x2="8.55" y2="14.98" gradientUnits="userSpaceOnUse"><stop offset="0" stop-color="#a9a6e4"/><stop offset=".1" stop-color="#9f9cd7"/><stop offset=".28" stop-color="#8784b6"/><stop offset=".51" stop-color="#5f5d80"/><stop offset=".8" stop-color="#292837"/><stop offset="1" stop-color="#010101"/></linearGradient><linearGradient id="_R_W_h_46" x1="14.54" y1="1.84" x2="8.56" y2="14.94" gradientUnits="userSpaceOnUse"><stop offset="0" stop-color="#9895ce"/><stop offset=".11" stop-color="#8e8cc1"/><stop offset=".3" stop-color="#7674a0"/><stop offset=".56" stop-color="#4e4d6a"/><stop offset=".87" stop-color="#191821"/><stop offset="1" stop-color="#010101"/></linearGradient><linearGradient id="_R_W_h_45" x1="14.42" y1="2.05" x2="8.56" y2="14.89" gradientUnits="userSpaceOnUse"><stop offset="0" stop-color="#8885b7"/><stop offset=".12" stop-color="#7e7baa"/><stop offset=".33" stop-color="#666389"/><stop offset=".61" stop-color="#3e3d53"/><stop offset=".96" stop-color="#08080a"/><stop offset="1" stop-color="#010101"/></linearGradient><linearGradient id="_R_W_h_44" x1="14.31" y1="2.26" x2="8.56" y2="14.84" gradientUnits="userSpaceOnUse"><stop offset="0" stop-color="#7774a0"/><stop offset=".13" stop-color="#6d6a93"/><stop offset=".37" stop-color="#555372"/><stop offset=".68" stop-color="#2d2c3d"/><stop offset="1" stop-color="#010101"/></linearGradient><linearGradient id="_R_W_h_37" x1="14.19" y1="2.47" x2="8.56" y2="14.8" gradientUnits="userSpaceOnUse"><stop offset="0" stop-color="#666489"/><stop offset=".15" stop-color="#5c5a7c"/><stop offset=".41" stop-color="#44425b"/><stop offset=".77" stop-color="#1c1c26"/><stop offset="1" stop-color="#010101"/></linearGradient><linearGradient id="_R_W_h_12" x1="14.08" y1="2.68" x2="8.57" y2="14.75" gradientUnits="userSpaceOnUse"><stop offset="0" stop-color="#555373"/><stop offset=".17" stop-color="#4b4a66"/><stop offset=".48" stop-color="#333245"/><stop offset=".89" stop-color="#0c0c10"/><stop offset="1" stop-color="#010101"/></linearGradient><linearGradient id="_R_W_h_9" x1="13.96" y1="2.9" x2="8.57" y2="14.71" gradientUnits="userSpaceOnUse"><stop offset="0" stop-color="#44435c"/><stop offset=".2" stop-color="#3a394f"/><stop offset=".57" stop-color="#22222e"/><stop offset="1" stop-color="#010101"/></linearGradient><linearGradient id="_R_W_h_7" x1="13.85" y1="3.11" x2="8.57" y2="14.66" gradientUnits="userSpaceOnUse"><stop offset="0" stop-color="#333245"/><stop offset=".26" stop-color="#292938"/><stop offset=".72" stop-color="#111117"/><stop offset="1" stop-color="#010101"/></linearGradient><linearGradient id="_R_W_h_6" x1="13.73" y1="3.32" x2="8.58" y2="14.61" gradientUnits="userSpaceOnUse"><stop offset="0" stop-color="#23222e"/><stop offset=".36" stop-color="#191821"/><stop offset="1" stop-color="#010101"/></linearGradient><linearGradient id="_R_W_h_3" x1="13.62" y1="3.53" x2="8.58" y2="14.57" gradientUnits="userSpaceOnUse"><stop offset="0" stop-color="#121118"/><stop offset=".61" stop-color="#08080b"/><stop offset="1" stop-color="#010101"/></linearGradient><linearGradient id="_R_W_h_1785" x1=".02" y1="8.17" x2="11.59" y2="8.17" gradientUnits="userSpaceOnUse"><stop offset="0" stop-color="#dddafc"/><stop offset=".66" stop-color="#e0e9fc"/></linearGradient><linearGradient id="_R_W_h_1849" x1=".27" y1="13.43" x2="11.85" y2="13.43" gradientUnits="userSpaceOnUse"><stop offset="0" stop-color="#c0bffb"/><stop offset=".66" stop-color="#c5ccfc"/></linearGradient><linearGradient id="_R_W_h_1857" x1="3.56" y1="10.79" x2="15.14" y2="10.79" gradientUnits="userSpaceOnUse"><stop offset="0" stop-color="#e2e0fd"/><stop offset=".66" stop-color="#e6edfd"/></linearGradient><linearGradient id="_R_W_h_43" x1="0" y1="8.05" x2="11.57" y2="8.05" gradientUnits="userSpaceOnUse"><stop offset="0" stop-color="#a198fa"/><stop offset=".03" stop-color="#a099fa"/><stop offset=".66" stop-color="#9fbefb"/></linearGradient><clipPath id="clippath-1"><path class="cls-14" d="M11.54,7.88c-.09-.18-.31-.26-.5-.17-.26.13-.86.43-1.25.48-.24.03-.6.02-.77,0-.4-.06-1-.35-1.25-.48-.47-.24-1.02-.49-1.48-.55-.29-.04-.69-.04-.98,0-.46.07-1,.32-1.48.55-.55.27-.96.43-1.33.49-.62.1-1.13-.08-1.95-.49-.18-.09-.4-.02-.5.17-.09.18-.02.4.17.5,1.62.81,2.36.79,3.94,0,.26-.13.85-.42,1.25-.48.19-.03.54-.03.77,0,.4.06,1.02.37,1.25.48.48.24,1.02.49,1.48.55.27.04.71.04.98,0,.46-.06,1-.32,1.48-.55.18-.09.26-.31.17-.5Z"/></clipPath><linearGradient id="_R_W_h_1887" x1=".26" y1="13.31" x2="11.83" y2="13.31" gradientUnits="userSpaceOnUse"><stop offset="0" stop-color="#a186f9"/><stop offset=".66" stop-color="#8795ec"/></linearGradient><linearGradient id="_R_W_h_43-2" x1="3.55" y1="10.67" x2="15.12" y2="10.67" xlink:href="#_R_W_h_43"/><linearGradient id="_R_W_h_2600" x1="12.43" y1="17.11" x2="15.15" y2="11.92" gradientUnits="userSpaceOnUse"><stop offset="0" stop-color="#778bf0"/><stop offset=".05" stop-color="#788def"/><stop offset=".66" stop-color="#87b2e7"/></linearGradient><linearGradient id="_R_W_h_2599" x1="15.08" y1="18.5" x2="17.8" y2="13.31" gradientUnits="userSpaceOnUse"><stop offset="0" stop-color="#7a8ef5"/><stop offset=".06" stop-color="#7b91f4"/><stop offset=".66" stop-color="#8ab6ec"/></linearGradient><linearGradient id="_R_W_h_2598" x1="13.97" y1="19.2" x2="16.12" y2="14.04" gradientUnits="userSpaceOnUse"><stop offset="0" stop-color="#7a8ef5"/><stop offset=".34" stop-color="#83a4ef"/><stop offset=".66" stop-color="#8ab6ec"/></linearGradient></defs><g class="cls-47"><g id="Layer_2"><g id="Main_1"><path class="cls-22" d="M17.5,3.98h0c-.26,0-.54.03-.82.07-.84-2.36-3.09-4.05-5.75-4.05-3.03,0-5.54,2.21-6.02,5.11-1.83.15-3.28,1.67-3.28,3.54,0,1.97,1.6,3.57,3.57,3.57h12.3c2.27,0,4.12-1.84,4.12-4.12s-1.84-4.12-4.12-4.12Z"/><path class="cls-24" d="M17.5,3.91h0c-.26,0-.54.03-.82.07-.84-2.32-3.09-3.99-5.75-3.99-3.03,0-5.54,2.18-6.02,5.02-1.83.15-3.28,1.64-3.28,3.48,0,1.94,1.6,3.51,3.57,3.51h12.3c2.27,0,4.12-1.81,4.12-4.05s-1.84-4.05-4.12-4.05Z"/><g class="cls-49"><g class="cls-46"><path class="cls-26" d="M-1.01,8.34c.81-1.59,2.14-.04,3.25-.19.87-.12,1.75-1.13,3.42-1.06.65.03,1.41.21,2.35.67,1.14.56,1.37.54,2.47,0,1.54-.76,2.69,1.54,1.16,2.3-1.92.94-3.13.73-4.05.35-.68-.29-1.2-.67-1.72-.74-.95-.14-1.94.84-3.26,1.03-1.82.25-4.41-.77-3.61-2.36Z"/><path class="cls-43" d="M-.92,8.37c.75-1.46,1.95-.02,3.13-.11.93-.08,1.81-1.08,3.45-1.03.65.02,1.38.2,2.3.64,1.12.55,1.42.53,2.5,0,1.44-.71,2.49,1.41,1.05,2.11-1.84.9-3.02.69-3.91.31-.67-.28-1.21-.64-1.75-.71-.96-.12-2,.87-3.29,1.01-1.81.19-4.21-.78-3.47-2.22Z"/><path class="cls-25" d="M-.83,8.39c.7-1.33,1.76,0,3-.04.98-.03,1.87-1.03,3.48-1,.65.01,1.36.18,2.25.62,1.1.54,1.47.51,2.53,0,1.35-.65,2.28,1.27.95,1.93-1.76.86-2.9.64-3.78.27-.67-.28-1.22-.62-1.78-.68-.97-.1-2.05.9-3.31.99-1.8.13-4.02-.78-3.33-2.09Z"/><path class="cls-29" d="M-.74,8.42c.64-1.19,1.57.01,2.88.03,1.04.01,1.92-.99,3.51-.97.65,0,1.33.17,2.2.59,1.07.53,1.52.49,2.56,0,1.26-.6,2.08,1.14.84,1.74-1.67.82-2.79.59-3.64.23-.66-.28-1.23-.6-1.81-.65-.99-.08-2.1.93-3.34.98-1.79.06-3.82-.78-3.19-1.95Z"/><path class="cls-23" d="M-.65,8.45c.58-1.06,1.38.03,2.76.1,1.1.06,1.98-.94,3.54-.94.65,0,1.3.15,2.15.57,1.05.51,1.56.47,2.58,0,1.16-.54,1.87,1,.73,1.56-1.59.78-2.67.55-3.5.18-.65-.28-1.24-.57-1.84-.61-1-.07-2.16.96-3.36.96-1.78,0-3.63-.78-3.06-1.82Z"/><path class="cls-41" d="M-.56,8.47c.53-.93,1.19.04,2.64.18,1.15.1,2.04-.89,3.58-.91.65,0,1.27.14,2.1.54,1.03.5,1.61.45,2.61,0,1.07-.49,1.67.86.63,1.37-1.51.74-2.55.5-3.37.14-.65-.28-1.25-.55-1.87-.58-1.01-.05-2.21.99-3.39.94-1.77-.07-3.43-.79-2.92-1.69Z"/><path class="cls-42" d="M-.47,8.5c.47-.79,1,.06,2.52.25,1.21.15,2.1-.85,3.61-.88.65-.01,1.24.12,2.05.52,1,.49,1.66.43,2.64,0,.97-.43,1.46.73.52,1.19-1.43.7-2.44.45-3.23.1-.64-.28-1.26-.53-1.9-.55-1.02-.04-2.27,1.02-3.42.92-1.76-.14-3.24-.79-2.78-1.55Z"/><path class="cls-38" d="M-.37,8.52c.42-.66.82.08,2.4.32,1.27.19,2.16-.8,3.64-.84.65-.02,1.21.11,2,.49.98.48,1.71.41,2.67,0,.87-.38,1.25.59.41,1-1.35.67-2.32.41-3.09.06-.63-.28-1.27-.51-1.94-.52-1.03-.02-2.32,1.04-3.44.91-1.75-.21-3.04-.79-2.64-1.42Z"/><path class="cls-27" d="M-.28,8.55c.36-.53.63.09,2.27.39,1.32.24,2.22-.75,3.67-.81.65-.03,1.18.09,1.95.47.95.46,1.75.39,2.69,0,.78-.33,1.05.45.31.82-1.27.63-2.21.36-2.96.02-.62-.28-1.28-.49-1.97-.49-1.05,0-2.37,1.07-3.47.89-1.74-.28-2.85-.79-2.51-1.28Z"/><path class="cls-40" d="M-.19,8.57c.31-.39.44.11,2.15.47,1.38.28,2.28-.71,3.7-.78.65-.03,1.16.08,1.9.44.93.45,1.8.37,2.72,0,.68-.28.84.32.2.63-1.19.59-2.09.31-2.82-.02-.62-.28-1.29-.46-2-.46-1.06,0-2.42,1.09-3.49.87-1.73-.36-2.65-.79-2.37-1.15Z"/></g><g class="cls-46"><path class="cls-26" d="M15.91,12.08c-.81,1.59-2.14.04-3.25.19-.87.12-1.75,1.13-3.42,1.06-.65-.03-1.41-.21-2.34-.67-1.14-.56-1.37-.54-2.47,0-1.54.76-2.69-1.54-1.16-2.3,1.92-.94,3.13-.73,4.05-.35.68.29,1.2.67,1.72.74.95.14,1.94-.84,3.26-1.03,1.82-.25,4.41.77,3.61,2.36Z"/><path class="cls-43" d="M15.82,12.05c-.75,1.46-1.95.02-3.13.11-.93.08-1.81,1.08-3.45,1.03-.65-.02-1.38-.2-2.3-.64-1.12-.55-1.42-.53-2.5,0-1.44.71-2.49-1.41-1.05-2.11,1.84-.9,3.02-.69,3.91-.31.67.28,1.21.64,1.75.71.96.12,2-.87,3.29-1.01,1.81-.19,4.21.78,3.47,2.22Z"/><path class="cls-25" d="M15.73,12.02c-.7,1.33-1.76,0-3,.04-.98.03-1.87,1.03-3.48,1-.65-.01-1.36-.18-2.25-.62-1.1-.54-1.47-.51-2.53,0-1.35.65-2.28-1.27-.95-1.93,1.76-.86,2.9-.64,3.78-.27.67.28,1.22.62,1.78.68.97.1,2.05-.9,3.31-.99,1.8-.13,4.02.78,3.33,2.09Z"/><path class="cls-29" d="M15.64,12c-.64,1.19-1.57-.01-2.88-.03-1.04-.01-1.92.99-3.51.97-.65,0-1.33-.17-2.2-.59-1.07-.53-1.52-.49-2.56,0-1.26.6-2.08-1.14-.84-1.74,1.67-.82,2.79-.59,3.64-.23.66.28,1.23.6,1.81.65.99.08,2.1-.93,3.34-.98,1.79-.06,3.82.78,3.19,1.95Z"/><path class="cls-23" d="M15.55,11.97c-.58,1.06-1.38-.03-2.76-.1-1.1-.06-1.98.94-3.54.94-.65,0-1.3-.15-2.15-.57-1.05-.51-1.56-.47-2.58,0-1.16.54-1.87-1-.73-1.56,1.59-.78,2.67-.55,3.5-.18.65.28,1.24.57,1.84.61,1,.07,2.16-.98,3.36-.96,1.78.04,3.63.78,3.06,1.82Z"/><path class="cls-41" d="M15.45,11.95c-.53.93-1.19-.04-2.64-.18-1.15-.1-2.04.89-3.58.91-.65,0-1.27-.14-2.1-.54-1.03-.5-1.61-.45-2.61,0-1.07.49-1.67-.86-.63-1.37,1.51-.74,2.55-.5,3.37-.14.65.28,1.25.55,1.87.58,1.01.05,2.21-.99,3.39-.94,1.77.07,3.43.79,2.92,1.69Z"/><path class="cls-42" d="M15.36,11.92c-.47.79-1-.06-2.52-.25-1.21-.15-2.1.85-3.61.88-.65.01-1.24-.12-2.05-.52-1-.49-1.66-.43-2.64,0-.97.43-1.46-.73-.52-1.19,1.43-.7,2.44-.45,3.23-.1.64.28,1.26.53,1.9.55,1.02.04,2.27-1.02,3.42-.92,1.76.14,3.24.79,2.78,1.55Z"/><path class="cls-38" d="M15.27,11.9c-.42.66-.82-.08-2.4-.32-1.27-.19-2.16.8-3.64.84-.65.02-1.21-.11-2-.49-.98-.48-1.71-.41-2.67,0-.87.38-1.25-.59-.41-1,1.35-.67,2.32-.41,3.09-.06.63.28,1.27.51,1.94.52,1.03.02,2.32-1.04,3.44-.91,1.75.21,3.04.79,2.64,1.42Z"/><path class="cls-27" d="M15.18,11.87c-.36.53-.63-.09-2.27-.39-1.32-.24-2.22.75-3.67.81-.65.03-1.18-.09-1.95-.47-.95-.46-1.75-.39-2.69,0-.78.33-1.05-.45-.31-.82,1.27-.63,2.21-.36,2.96-.02.62.28,1.28.49,1.97.49,1.05,0,2.37-1.07,3.47-.89,1.74.28,2.85.79,2.51,1.28Z"/><path class="cls-40" d="M15.09,11.84c-.31.39-.44-.11-2.15-.47-1.38-.28-2.28.71-3.7.78-.65.03-1.16-.08-1.9-.44-.93-.45-1.8-.37-2.72,0-.68.28-.84-.32-.2-.63,1.19-.59,2.09-.31,2.82.02.62.28,1.29.46,2,.46,1.06,0,2.42-1.09,3.49-.87,1.73.36,2.65.79,2.37,1.15Z"/></g></g><path class="cls-31" d="M17.5,3.91h0c-.26,0-.54.03-.82.07-.84-2.32-3.09-3.99-5.75-3.99-3.03,0-5.54,2.18-6.02,5.02-1.83.15-3.28,1.64-3.28,3.48,0,1.94,1.6,3.51,3.57,3.51h12.3c2.27,0,4.12-1.81,4.12-4.05s-1.84-4.05-4.12-4.05Z"/><path class="cls-11" d="M17.35,4.1h0s0,0,0,0h-.01c-.26,0-.52.04-.81.05C15.71,1.87,13.48.24,10.87.24,7.88.24,5.43,2.33,4.96,5.13c-1.81.14-3.24,1.61-3.24,3.42,0,1.91,1.58,3.45,3.52,3.45h12.14c2.24,0,4.06-1.77,4.05-3.97,0-2.16-1.84-3.93-4.08-3.93Z"/><path class="cls-39" d="M17.2,4.29h-.01s0,0,0,0h-.03c-.25,0-.5.05-.8.03-.77-2.25-2.98-3.84-5.56-3.84-2.95,0-5.34,2-5.8,4.76-1.78.14-3.19,1.59-3.19,3.37,0,1.88,1.55,3.4,3.47,3.4h11.97c2.21,0,4.01-1.73,3.99-3.89-.01-2.09-1.83-3.82-4.04-3.82Z"/><path class="cls-45" d="M17.05,4.47h-.02s0,0,0,0h-.04c-.25,0-.49.06-.78,0-.73-2.21-2.92-3.77-5.47-3.77-2.91,0-5.23,1.91-5.69,4.63-1.76.14-3.15,1.56-3.15,3.31,0,1.85,1.53,3.34,3.42,3.34h11.81c2.18,0,3.95-1.69,3.92-3.82-.02-2.01-1.83-3.71-4.01-3.71Z"/><path class="cls-3" d="M16.9,4.66h-.03s0,0,0,0h0s-.05.01-.05.01c-.25,0-.47.06-.77-.03-.69-2.18-2.86-3.7-5.37-3.7-2.87,0-5.13,1.83-5.58,4.5-1.74.14-3.11,1.54-3.11,3.26,0,1.82,1.51,3.29,3.38,3.29h11.65c2.15,0,3.9-1.64,3.86-3.74-.03-1.94-1.82-3.59-3.97-3.59Z"/><path class="cls-35" d="M16.75,4.85h-.03s0,0,0,0h0s-.06.02-.06.02c-.24,0-.45.07-.76-.06-.65-2.14-2.8-3.62-5.28-3.62-2.83,0-5.03,1.74-5.47,4.36-1.71.13-3.06,1.51-3.06,3.21,0,1.79,1.49,3.23,3.33,3.23h11.48c2.12,0,3.84-1.6,3.79-3.66-.04-1.86-1.81-3.48-3.94-3.48Z"/><path class="cls-16" d="M16.6,5.04h-.04s0,0,0,0h0s-.08.02-.08.02c-.24,0-.43.08-.74-.08-.62-2.1-2.75-3.55-5.19-3.55-2.79,0-4.92,1.65-5.36,4.23-1.69.13-3.02,1.48-3.02,3.15,0,1.75,1.47,3.18,3.28,3.18h11.32c2.09,0,3.79-1.56,3.73-3.59-.04-1.79-1.81-3.37-3.9-3.37Z"/><path class="cls-5" d="M16.45,5.22h-.05s0,0,0,0h0s-.09.02-.09.02c-.24,0-.42.09-.73-.11-.58-2.07-2.69-3.48-5.09-3.48-2.75,0-4.82,1.56-5.25,4.1-1.66.13-2.98,1.46-2.98,3.1,0,1.72,1.45,3.12,3.24,3.12h11.16c2.06,0,3.73-1.52,3.66-3.51-.05-1.72-1.8-3.25-3.86-3.25Z"/><path class="cls-19" d="M16.3,5.41h-.06s0,0,0,0l-.1.03c-.23,0-.4.1-.72-.13-.54-2.03-2.63-3.4-5-3.4-2.71,0-4.72,1.48-5.14,3.97-1.64.13-2.93,1.43-2.93,3.04,0,1.69,1.43,3.07,3.19,3.07h11c2.03,0,3.68-1.48,3.6-3.43-.06-1.64-1.79-3.14-3.83-3.14Z"/><path class="cls-1" d="M16.15,5.6h-.06s0,0,0,0l-.12.03c-.23,0-.38.1-.71-.16-.5-1.99-2.57-3.33-4.91-3.33-2.67,0-4.61,1.39-5.03,3.84-1.61.12-2.89,1.41-2.89,2.99,0,1.66,1.41,3.01,3.14,3.01h10.83c2,0,3.62-1.44,3.53-3.35-.07-1.57-1.79-3.03-3.79-3.03Z"/><path class="cls-2" d="M16,5.79h-.07s0,0,0,0l-.13.03c-.23,0-.36.11-.69-.19-.47-1.96-2.51-3.26-4.81-3.26-2.63,0-4.51,1.3-4.93,3.7-1.59.12-2.85,1.38-2.85,2.93,0,1.63,1.38,2.96,3.09,2.96h10.67c1.97,0,3.57-1.39,3.47-3.28-.07-1.49-1.78-2.91-3.76-2.91Z"/><path class="cls-17" d="M15.85,5.97h-.08s0,0,0,0l-.14.04c-.22,0-.35.12-.68-.21-.43-1.92-2.46-3.19-4.72-3.19-2.59,0-4.41,1.21-4.82,3.57-1.57.12-2.8,1.36-2.8,2.88,0,1.6,1.36,2.9,3.05,2.9h10.51c1.94,0,3.51-1.35,3.4-3.2-.08-1.42-1.78-2.8-3.72-2.8Z"/><path class="cls-37" d="M11.55,8c-.09-.18-.31-.26-.5-.17-.26.13-.86.43-1.25.48-.24.03-.6.02-.77,0-.4-.06-1-.35-1.25-.48-.47-.24-1.02-.49-1.48-.55-.29-.04-.69-.04-.98,0-.46.07-1,.32-1.48.55-1.45.72-1.96.66-3.28,0-.18-.09-.4-.02-.5.17-.09.18-.02.4.17.5,1.62.81,2.36.79,3.94,0,.26-.13.85-.42,1.25-.48.19-.03.54-.03.77,0,.4.06,1.02.37,1.25.48.48.24,1.02.49,1.48.55.27.04.71.04.98,0,.46-.06,1-.32,1.48-.55.18-.09.26-.31.17-.5Z"/><path class="cls-15" d="M11.81,13.26c-.09-.18-.31-.26-.5-.17-.23.12-.85.42-1.25.48-.18.03-.54.03-.77,0-.4-.06-1.02-.37-1.25-.48-.48-.24-1.02-.49-1.48-.55-.28-.04-.69-.04-.98,0-.46.07-1,.32-1.48.55-1.37.68-1.88.7-3.28,0-.18-.09-.41-.02-.5.17-.09.18-.02.41.17.5,1.62.81,2.37.79,3.94,0,.26-.13.85-.42,1.25-.48.18-.03.55-.03.77,0,.4.06,1.02.37,1.25.48.47.24,1.02.49,1.48.55.28.04.71.04.98,0,.46-.07,1.01-.32,1.48-.55.18-.09.26-.31.17-.5Z"/><path class="cls-21" d="M14.93,10.46c-.47-.24-1.02-.49-1.48-.55-.3-.04-.71-.04-.98,0-.46.07-1,.32-1.48.55-.23.12-.85.42-1.25.48-.21.03-.56.03-.77,0-.4-.06-1.02-.37-1.25-.48-.48-.24-1.02-.49-1.48-.55-.3-.04-.71-.04-.98,0-.46.07-1,.32-1.48.55-.18.09-.26.31-.17.5.09.18.31.26.5.17.26-.13.85-.42,1.25-.48.23-.03.59-.03.77,0,.4.06,1.02.37,1.25.48.47.24,1.02.49,1.48.55.26.04.7.04.98,0,.46-.07,1.01-.32,1.48-.55.26-.13.85-.42,1.25-.48.18-.03.53-.03.77,0,.4.06,1.02.37,1.25.48.18.09.41.02.5-.17.09-.18.02-.41-.17-.5Z"/><path class="cls-44" d="M11.54,7.88c-.09-.18-.31-.26-.5-.17-.26.13-.86.43-1.25.48-.24.03-.6.02-.77,0-.4-.06-1-.35-1.25-.48-.47-.24-1.02-.49-1.48-.55-.29-.04-.69-.04-.98,0-.46.07-1,.32-1.48.55-1.45.72-1.96.66-3.28,0-.18-.09-.4-.02-.5.17-.09.18-.02.4.17.5,1.62.81,2.36.79,3.94,0,.26-.13.85-.42,1.25-.48.19-.03.54-.03.77,0,.4.06,1.02.37,1.25.48.48.24,1.02.49,1.48.55.27.04.71.04.98,0,.46-.06,1-.32,1.48-.55.18-.09.26-.31.17-.5Z"/><g class="cls-48"><path class="cls-6" d="M2.38,9.89c-.2-.47-.31-.98-.31-1.52,0-.3.03-.59.1-.86l-2.42-.74.45,3,2.19.12Z"/><path class="cls-34" d="M2.31,9.89c-.2-.47-.31-.98-.31-1.52,0-.3.03-.59.1-.86l-2.42-.74.45,3,2.19.12Z"/><path class="cls-20" d="M2.24,9.9c-.2-.47-.31-.98-.31-1.52,0-.3.03-.59.1-.86l-2.42-.74L.05,9.78l2.19.12Z"/><path class="cls-33" d="M2.17,9.9c-.2-.47-.31-.98-.31-1.52,0-.3.03-.59.1-.86l-2.42-.74L-.02,9.78l2.19.12Z"/><path class="cls-12" d="M2.1,9.9c-.2-.47-.31-.98-.31-1.52,0-.3.03-.59.1-.86l-2.42-.74.45,3,2.19.12Z"/><path class="cls-4" d="M2.03,9.91c-.2-.47-.31-.98-.31-1.52,0-.3.03-.59.1-.86l-2.42-.74.45,3,2.19.12Z"/><path class="cls-13" d="M1.96,9.91c-.2-.47-.31-.98-.31-1.52,0-.3.03-.59.1-.86l-2.42-.74.45,3,2.19.12Z"/><path class="cls-7" d="M1.89,9.91c-.2-.47-.31-.98-.31-1.52,0-.3.03-.59.1-.86l-2.42-.74.45,3,2.19.12Z"/><path class="cls-18" d="M1.82,9.92c-.2-.47-.31-.98-.31-1.52,0-.3.03-.59.1-.86l-2.42-.74.45,3,2.19.12Z"/><path class="cls-8" d="M1.75,9.92c-.2-.47-.31-.98-.31-1.52,0-.3.03-.59.1-.86l-2.42-.74.45,3,2.19.12Z"/></g><path class="cls-9" d="M11.79,13.13c-.09-.18-.31-.26-.5-.17-.23.12-.85.42-1.25.48-.18.03-.54.03-.77,0-.4-.06-1.02-.37-1.25-.48-.47-.24-1.02-.49-1.48-.55-.28-.04-.69-.04-.98,0-.46.07-1,.32-1.48.55-1.37.68-1.88.7-3.28,0-.18-.09-.41-.02-.5.17-.09.18-.02.41.17.5,1.62.81,2.37.79,3.94,0,.26-.13.85-.42,1.25-.48.18-.03.55-.03.77,0,.4.06,1.02.37,1.25.48.47.24,1.02.49,1.48.55.28.04.71.04.98,0,.46-.07,1.01-.32,1.48-.55.18-.09.26-.31.17-.5Z"/><path class="cls-28" d="M14.92,10.34c-.47-.24-1.02-.49-1.48-.55-.3-.04-.71-.04-.98,0-.46.07-1,.32-1.48.55-.23.12-.85.42-1.25.48-.21.03-.56.03-.77,0-.4-.06-1.02-.37-1.25-.48-.48-.24-1.02-.49-1.48-.55-.3-.04-.71-.04-.98,0-.46.07-1,.32-1.48.55-.18.09-.26.31-.17.5.09.18.31.26.5.17.26-.13.85-.42,1.25-.48.23-.03.59-.03.77,0,.4.06,1.02.37,1.25.48.47.24,1.02.49,1.48.55.26.04.7.04.98,0,.46-.06,1.01-.32,1.48-.55.26-.13.85-.42,1.25-.48.18-.03.53-.03.77,0,.4.06,1.02.37,1.25.48.18.09.41.02.5-.17.09-.18.02-.41-.17-.5Z"/><path class="cls-30" d="M14.44,12.79c0-.07-.02-.1-.04-.11-.02,0-.06,0-.1.06-.35.43-1.1,1.21-1.27,1.7-.13.4.07.83.45.96.38.13.8-.09.94-.49.17-.49.04-1.57.02-2.12Z"/><path class="cls-32" d="M14.43,12.78c0-.07-.02-.1-.04-.11-.02,0-.06,0-.1.06-.34.42-1.08,1.18-1.24,1.66-.13.39.07.81.44.94.38.13.79-.09.92-.48.16-.48.04-1.54.02-2.07Z"/><path class="cls-30" d="M17.95,12.56c0-.07-.02-.1-.04-.11-.02,0-.06,0-.1.06-.35.43-1.1,1.21-1.27,1.7-.13.4.07.83.45.96.38.13.8-.09.94-.49.17-.49.04-1.57.02-2.12Z"/><path class="cls-36" d="M17.94,12.55c0-.07-.02-.1-.04-.11-.02,0-.06,0-.1.06-.34.42-1.08,1.18-1.24,1.66-.13.39.07.81.44.94.38.13.79-.09.92-.48.16-.48.04-1.54.02-2.07Z"/><path class="cls-30" d="M15.55,15.27c0-.07-.02-.1-.04-.11-.02,0-.06,0-.1.06-.35.43-1.1,1.21-1.27,1.7-.13.4.07.83.45.96.38.13.8-.09.94-.49.17-.49.04-1.57.02-2.12Z"/><path class="cls-10" d="M15.54,15.27c0-.07-.02-.1-.04-.11-.02,0-.06,0-.1.06-.34.42-1.08,1.18-1.24,1.66-.13.39.07.81.44.94.38.13.79-.09.92-.48.16-.48.04-1.54.02-2.07Z"/></g></g></g></svg>