<?xml version="1.0" encoding="UTF-8"?><svg id="Layer_2" xmlns="http://www.w3.org/2000/svg" viewBox="0 0 53.78 84.7"><defs><style>.cls-1{fill:#4c46e8;stroke-width:0px;}</style></defs><g id="Layer_1-2"><path class="cls-1" d="M27,0C20.54,0,0,31.85,0,55.85c0,15.93,12,28.85,27,28.85s26.77-12.92,26.77-28.85C53.78,31.85,33.23,0,27,0ZM19.16,70.39c1.38.92,1.61,2.54.69,3.92-.46.92-1.38,1.39-2.31,1.39-.46,0-1.15-.23-1.61-.46-18.23-12.23-1.61-47.31-.92-48.93.69-1.38,2.54-2.07,3.92-1.38,1.38.69,2.07,2.54,1.38,3.92-4.39,9-12.92,33.7-1.15,41.54ZM22.16,21.47c-1.85,0-3.23-1.38-3.23-3,0-1.85,1.38-3.23,3.23-3.23,1.62,0,3,1.38,3,3.23,0,1.62-1.38,3-3,3Z"/></g></svg>