<?xml version="1.0" encoding="UTF-8"?><svg id="Layer_2" xmlns="http://www.w3.org/2000/svg" viewBox="0 0 93.51 96.59"><defs><style>.cls-1{fill:#4c46e8;stroke-width:0px;}</style></defs><g id="Layer_1-2"><path class="cls-1" d="M50.34,7.93V2.89c0-1.59-1.3-2.89-2.89-2.89s-2.89,1.3-2.89,2.89v4.9C19.74,8.95,0,29.2,0,54.33c3.26-4.6,8.82-7.67,15.52-7.67s12.46,3.06,15.71,7.67c2.7-4.05,7.66-6.53,13.33-7.16v37.85c0,3.2-2.6,5.8-5.8,5.8s-5.79-2.6-5.79-5.8c0-1.59-1.3-2.89-2.89-2.89s-2.88,1.3-2.88,2.89c0,6.38,5.18,11.57,11.56,11.57s11.57-5.19,11.57-11.57v-37.52c5.03.92,9.47,3.14,11.94,6.84,3.26-4.6,8.82-7.67,15.52-7.67s12.46,3.06,15.71,7.67c0-24.64-19.02-44.54-43.17-46.4Z"/></g></svg>