<?xml version="1.0" encoding="UTF-8"?><svg id="Layer_2" xmlns="http://www.w3.org/2000/svg" viewBox="0 0 84.99 88.4"><defs><style>.cls-1{fill:#4c46e8;stroke-width:0px;}</style></defs><g id="Layer_1-2"><path class="cls-1" d="M56.79,47.97c.98,0,1.97-.08,2.95-.16l1.23-.08c8.23-.52,13.24-4.49,17.06-8.3,9.29-9.28,9.29-24.39,0-33.68-7.67-7.69-20.14-7.64-27.77,0-6.34,6.34-6.34,16.68,0,23.02,5.16,5.15,14.11,5.15,19.24,0,4.46-4.46,4.46-11.73,0-16.21-1.12-1.12-2.94-1.14-4.08,0-1.13,1.12-1.13,2.95,0,4.08,2.21,2.22,2.21,5.83,0,8.04-2.95,2.95-8.13,2.98-11.08,0-1.98-1.98-3.08-4.62-3.08-7.44s1.09-5.45,3.08-7.43c5.41-5.41,14.2-5.41,19.61,0,7.03,7.04,7.03,18.49,0,25.52-4.38,4.38-8.25,6.3-13.34,6.62l-1.32.1c-1.09.08-2.21.19-3.47.1H2.89c-1.59,0-2.89,1.3-2.89,2.89s1.3,2.88,2.89,2.88h52.74c.38.02.77.03,1.16.03Z"/><path class="cls-1" d="M68.47,56.22l-.82-.06c-.88-.07-1.73-.11-2.46-.07H22.53c-1.59,0-2.89,1.29-2.89,2.88s1.29,2.89,2.89,2.89h42.85c.63.03,1.23.01,1.83.05l.92.06c2.95.19,5.12,1.27,7.71,3.87,4.01,4.01,4.01,10.55,0,14.56-2.87,2.87-7.94,2.9-10.83,0-2.16-2.16-2.16-5.69,0-7.85,1.52-1.5,3.97-1.48,5.47,0,1.14,1.13,2.96,1.13,4.08,0,1.13-1.14,1.13-2.96,0-4.08-3.76-3.74-9.86-3.74-13.63,0-4.41,4.43-4.41,11.61,0,16.01,2.61,2.61,6.05,3.92,9.5,3.92s6.88-1.31,9.49-3.92c6.27-6.27,6.27-16.45,0-22.72-2.39-2.39-5.86-5.19-11.45-5.54Z"/><path class="cls-1" d="M8.1,33.14h20.92c9.21,0,13.33-5.84,13.33-11.62,0-6.41-5.22-11.63-11.63-11.63-4.04,0-7.72,2.05-9.86,5.5-.84,1.35-.43,3.13.92,3.97,1.35.87,3.12.42,3.97-.92,1.08-1.74,2.94-2.77,4.97-2.77,3.23,0,5.86,2.63,5.86,5.86,0,3.72-2.76,5.85-7.56,5.85H8.1c-1.59,0-2.89,1.29-2.89,2.88s1.3,2.89,2.89,2.89Z"/></g></svg>